<?xml version="1.0" encoding="UTF-8" standalone="no"?>
<!-- Created with Inkscape (http://www.inkscape.org/) -->

<svg
   xmlns:dc="http://purl.org/dc/elements/1.1/"
   xmlns:cc="http://creativecommons.org/ns#"
   xmlns:rdf="http://www.w3.org/1999/02/22-rdf-syntax-ns#"
   xmlns:svg="http://www.w3.org/2000/svg"
   xmlns="http://www.w3.org/2000/svg"
   xmlns:sodipodi="http://sodipodi.sourceforge.net/DTD/sodipodi-0.dtd"
   xmlns:inkscape="http://www.inkscape.org/namespaces/inkscape"
   width="57"
   height="57"
   id="svg4691"
   version="1.1"
   inkscape:version="0.47 r22583"
   sodipodi:docname="alien-blue.svg">
  <title
     id="title4746">Team Fortress 2 WinterBoard: Alien Blue</title>
  <defs
     id="defs4693">
    <inkscape:perspective
       sodipodi:type="inkscape:persp3d"
       inkscape:vp_x="0 : 526.18109 : 1"
       inkscape:vp_y="0 : 1000 : 0"
       inkscape:vp_z="744.09448 : 526.18109 : 1"
       inkscape:persp3d-origin="372.04724 : 350.78739 : 1"
       id="perspective4699" />
    <inkscape:perspective
       id="perspective4677"
       inkscape:persp3d-origin="0.5 : 0.33333333 : 1"
       inkscape:vp_z="1 : 0.5 : 1"
       inkscape:vp_y="0 : 1000 : 0"
       inkscape:vp_x="0 : 0.5 : 1"
       sodipodi:type="inkscape:persp3d" />
    <inkscape:perspective
       id="perspective4756"
       inkscape:persp3d-origin="0.5 : 0.33333333 : 1"
       inkscape:vp_z="1 : 0.5 : 1"
       inkscape:vp_y="0 : 1000 : 0"
       inkscape:vp_x="0 : 0.5 : 1"
       sodipodi:type="inkscape:persp3d" />
    <inkscape:perspective
       id="perspective4851"
       inkscape:persp3d-origin="0.5 : 0.33333333 : 1"
       inkscape:vp_z="1 : 0.5 : 1"
       inkscape:vp_y="0 : 1000 : 0"
       inkscape:vp_x="0 : 0.5 : 1"
       sodipodi:type="inkscape:persp3d" />
    <inkscape:perspective
       id="perspective3120"
       inkscape:persp3d-origin="0.5 : 0.33333333 : 1"
       inkscape:vp_z="1 : 0.5 : 1"
       inkscape:vp_y="0 : 1000 : 0"
       inkscape:vp_x="0 : 0.5 : 1"
       sodipodi:type="inkscape:persp3d" />
  </defs>
  <sodipodi:namedview
     id="base"
     pagecolor="#ffffff"
     bordercolor="#666666"
     borderopacity="1.0"
     inkscape:pageopacity="0.0"
     inkscape:pageshadow="2"
     inkscape:zoom="2.8"
     inkscape:cx="63.229741"
     inkscape:cy="-5.115801"
     inkscape:document-units="px"
     inkscape:current-layer="text4536-8"
     showgrid="false"
     inkscape:window-width="1920"
     inkscape:window-height="1018"
     inkscape:window-x="-8"
     inkscape:window-y="-8"
     inkscape:window-maximized="1" />
  <metadata
     id="metadata4696">
    <rdf:RDF>
      <cc:Work
         rdf:about="">
        <dc:format>image/svg+xml</dc:format>
        <dc:type
           rdf:resource="http://purl.org/dc/dcmitype/StillImage" />
        <dc:title>Team Fortress 2 WinterBoard: Alien Blue</dc:title>
      </cc:Work>
    </rdf:RDF>
  </metadata>
  <g
     inkscape:label="Layer 1"
     inkscape:groupmode="layer"
     id="layer1"
     transform="translate(-334.35714,-455.29075)">
    <g
       id="g3181"
       transform="translate(54.971573,163.32366)"
       inkscape:export-filename="C:\Users\Lasse\Documents\My Dropbox\Public\iconmontage.png"
       inkscape:export-xdpi="349.72098"
       inkscape:export-ydpi="349.72098">
      <g
         style="font-size:10.31457615px;font-style:normal;font-variant:normal;font-weight:normal;font-stretch:normal;text-align:start;line-height:125%;writing-mode:lr-tb;text-anchor:start;fill:#ffffff;fill-opacity:1;stroke:none;font-family:TF2 Build;-inkscape-font-specification:TF2 Build"
         id="text4536-8">
        <path
           clip-rule="evenodd"
           d="m 289.38557,291.96709 h 37 c 5.523,0 10,4.477 10,10 v 37 c 0,5.523 -4.477,10 -10,10 h -37 c -5.523,0 -10,-4.477 -10,-10 v -37 c 0,-5.523 4.477,-10 10,-10 z"
           id="path3774-0"
           style="fill:#89411d;fill-rule:evenodd;fill-opacity:1"
           inkscape:export-filename="C:\Users\Lasse\Documents\My Dropbox\Projects\tf2_iphone\messages_114x114.png"
           inkscape:export-xdpi="180"
           inkscape:export-ydpi="180" />
        <path
           inkscape:export-ydpi="180"
           inkscape:export-xdpi="180"
           inkscape:export-filename="C:\Users\Lasse\Documents\My Dropbox\Projects\tf2_iphone\messages_114x114.png"
           id="path4644-8"
           d="m 303.11185,303.19054 -7.59054,1.03082 -3.46731,2.90503 -4.21698,2.43647 -2.71759,4.68554 -1.40567,3.74842 0.74967,4.12327 2.71763,4.4044 4.12327,3.561 4.87294,2.6239 4.87294,1.31195 6.93461,0.28113 c 0,0 6.46601,-0.65598 7.12201,-0.8434 0.65596,-0.18742 9.55846,-4.59182 9.55846,-4.59182 0,0 4.49812,-5.06037 4.87297,-5.43521 0.37482,-0.37485 1.40564,-7.0283 1.40564,-7.0283 l -2.62388,-6.1849 -5.43523,-4.31069 -8.62139,-2.06163 c 0,0 -5.90375,-0.46856 -6.27858,-0.56227 -0.37485,-0.0937 -4.68555,-0.37484 -4.87297,-0.0937 z"
           style="fill:#eddfbb;fill-opacity:1;stroke:#000000;stroke-width:0.06626341px;stroke-linecap:butt;stroke-linejoin:miter;stroke-opacity:1" />
        <path
           inkscape:export-ydpi="180"
           inkscape:export-xdpi="180"
           inkscape:export-filename="C:\Users\Lasse\Documents\My Dropbox\Projects\tf2_iphone\messages_114x114.png"
           style="fill:#f4722b;fill-opacity:1"
           d="m 307.41185,301.81093 c -0.74777,0.003 -1.40111,-0.001 -1.84375,0.0312 -6.99666,0.51333 -13.04657,2.69552 -17.40625,6.28125 -2.86432,2.35584 -4.72539,5.22818 -5.40625,8.375 -0.13205,0.61015 -0.15625,0.88224 -0.15625,2.21875 0,1.33836 0.0235,1.60776 0.15625,2.21876 0.80542,3.7119 3.25437,7.04402 7.125,9.65625 1.45082,0.97913 3.07904,1.82148 4.8125,2.53125 -0.0949,0.15185 -0.18175,0.31075 -0.21875,0.34375 -0.0535,0.0477 -0.24137,0.34207 -0.4375,0.65625 -0.19614,0.31417 -0.5198,0.71914 -0.6875,0.90625 -0.16767,0.18709 -0.43195,0.49579 -0.59375,0.6875 -0.82248,0.97443 -3.259,3.11963 -3.65625,3.21875 -0.257,0.0641 0.86584,0.19527 1.59375,0.1875 1.62522,-0.0174 2.60227,-0.18185 4.40625,-0.78125 1.23793,-0.41132 1.72643,-0.60373 2.21875,-0.84375 0.23621,-0.11517 0.47435,-0.20658 0.53125,-0.21875 0.0569,-0.0122 0.43226,-0.21726 0.8125,-0.4375 0.38026,-0.22026 0.72415,-0.39253 0.78125,-0.40625 0.0571,-0.0137 0.35188,-0.21116 0.65625,-0.40625 0.30436,-0.1951 0.58185,-0.33486 0.625,-0.34375 0.0446,-0.009 0.4331,-0.28857 0.875,-0.59375 1.30293,0.22984 2.62964,0.40175 4,0.5 1.19769,0.0859 4.98614,0.029 6.1875,-0.0937 4.45039,-0.45479 8.50814,-1.58201 11.96875,-3.34375 4.829,-2.36489 17.78935,-15.34368 1.3125,-26.12501 -3.49554,-2.08556 -8.02001,-3.49913 -13.0625,-4.0625 -0.90085,-0.10064 -2.9487,-0.1631 -4.59375,-0.15625 z m -0.625,1.875 c 1.25374,0.002 2.51023,0.0372 3.03125,0.0937 4.90731,0.53245 9.00661,1.90502 12.34375,4.125 15.10369,12.67732 1.12476,22.7561 -11.8125,25.18751 -1.93352,0.23504 -5.45085,0.21315 -7.625,-0.0625 -6.52007,-0.82669 -12.12237,-3.56802 -15.28125,-7.50001 -2.66525,-3.31756 -3.36805,-7.15377 -1.9375,-10.84375 1.72049,-4.43786 6.40066,-8.05107 12.75,-9.875 1.58524,-0.45538 3.47074,-0.80108 5.53125,-1.03125 0.49406,-0.0552 1.74626,-0.0954 3,-0.0937 z"
           id="path4564-7"
           sodipodi:nodetypes="csssssscssssssssssssscssccsccsccsssssc" />
        <text
           id="text3722"
           y="317.13403"
           x="381.77048"
           style="font-size:40px;font-style:normal;font-weight:normal;fill:#89411d;fill-opacity:1;stroke:none;font-family:Bitstream Vera Sans"
           xml:space="preserve"><tspan
             id="tspan3724"
             sodipodi:role="line"
             x="381.77048"
             y="317.13403" /></text>
        <text
           xml:space="preserve"
           style="font-size:35.87246323000000100px;font-style:normal;font-weight:normal;line-height:125%;letter-spacing:0;word-spacing:0;fill:#f4722b;fill-opacity:1;stroke:none;font-family:Bitstream Vera Sans"
           x="294.60098"
           y="325.00601"
           id="text3919"
           sodipodi:linespacing="125%"><tspan
             sodipodi:role="line"
             id="tspan3921"
             x="294.60098"
             y="325.00601"
             style="font-size:17.93623161000000000px;fill:#f4722b;fill-opacity:1;font-family:tf2 build;-inkscape-font-specification:tf2 build">/r/</tspan></text>
        <path
           style="fill:#eddfbb;stroke:none;stroke-width:1px;stroke-linecap:butt;stroke-linejoin:miter;stroke-opacity:1;fill-opacity:1"
           d="m 11.819196,46.419643 c 0,0 2.750352,-2.367658 5.004816,-4.845336 1.83372,-2.015277 0.262199,-2.817294 0.262199,-2.817294 l 5.056646,1.72513 c -2.891182,2.664085 -6.460155,5.433098 -10.323661,5.9375 z"
           id="path3923"
           transform="translate(279.38557,291.96709)"
           sodipodi:nodetypes="csccc" />
      </g>
    </g>
  </g>
</svg>
