<?xml version="1.0" encoding="UTF-8" standalone="no"?>
<!-- Created with Inkscape (http://www.inkscape.org/) -->

<svg
   xmlns:dc="http://purl.org/dc/elements/1.1/"
   xmlns:cc="http://creativecommons.org/ns#"
   xmlns:rdf="http://www.w3.org/1999/02/22-rdf-syntax-ns#"
   xmlns:svg="http://www.w3.org/2000/svg"
   xmlns="http://www.w3.org/2000/svg"
   xmlns:sodipodi="http://sodipodi.sourceforge.net/DTD/sodipodi-0.dtd"
   xmlns:inkscape="http://www.inkscape.org/namespaces/inkscape"
   width="57"
   height="57"
   id="svg7856"
   version="1.1"
   inkscape:version="0.47 r22583"
   sodipodi:docname="New document 33">
  <title
     id="title7897">Team Fortress 2 WinterBoard: Angry Birds</title>
  <defs
     id="defs7858">
    <inkscape:perspective
       sodipodi:type="inkscape:persp3d"
       inkscape:vp_x="0 : 526.18109 : 1"
       inkscape:vp_y="0 : 1000 : 0"
       inkscape:vp_z="744.09448 : 526.18109 : 1"
       inkscape:persp3d-origin="372.04724 : 350.78739 : 1"
       id="perspective7864" />
    <inkscape:perspective
       id="perspective7840"
       inkscape:persp3d-origin="0.5 : 0.33333333 : 1"
       inkscape:vp_z="1 : 0.5 : 1"
       inkscape:vp_y="0 : 1000 : 0"
       inkscape:vp_x="0 : 0.5 : 1"
       sodipodi:type="inkscape:persp3d" />
  </defs>
  <sodipodi:namedview
     id="base"
     pagecolor="#ffffff"
     bordercolor="#666666"
     borderopacity="1.0"
     inkscape:pageopacity="0.0"
     inkscape:pageshadow="2"
     inkscape:zoom="7.9195959"
     inkscape:cx="25.099453"
     inkscape:cy="26.633613"
     inkscape:document-units="px"
     inkscape:current-layer="layer1"
     showgrid="false"
     inkscape:window-width="550"
     inkscape:window-height="483"
     inkscape:window-x="200"
     inkscape:window-y="200"
     inkscape:window-maximized="0" />
  <metadata
     id="metadata7861">
    <rdf:RDF>
      <cc:Work
         rdf:about="">
        <dc:format>image/svg+xml</dc:format>
        <dc:type
           rdf:resource="http://purl.org/dc/dcmitype/StillImage" />
        <dc:title>Team Fortress 2 WinterBoard: Angry Birds</dc:title>
      </cc:Work>
    </rdf:RDF>
  </metadata>
  <g
     inkscape:label="Layer 1"
     inkscape:groupmode="layer"
     id="layer1"
     transform="translate(-585.78571,-532.43361)">
    <g
       transform="translate(-99.293756,85.083101)"
       id="g7819">
      <path
         inkscape:connector-curvature="0"
         clip-rule="evenodd"
         d="m 696.57121,449.64861 h 34.01651 c 5.07765,0 9.19365,4.116 9.19365,9.19365 v 34.0165 c 0,5.07766 -4.116,9.19365 -9.19365,9.19365 h -34.01651 c -5.07765,0 -9.19365,-4.11599 -9.19365,-9.19365 v -34.0165 c 0,-5.07765 4.116,-9.19365 9.19365,-9.19365 z"
         id="path3774-0-9-9-6-4-71-4-5"
         style="fill:#f6e7c1;fill-opacity:1;fill-rule:evenodd;stroke-width:0.5;stroke-miterlimit:4;stroke-dasharray:none"
         inkscape:export-filename="C:\Users\Lasse\Documents\My Dropbox\Projects\tf2_iphone\messages_114x114.png"
         inkscape:export-xdpi="180"
         inkscape:export-ydpi="180" />
      <path
         id="path3774-0-3-10-4-7"
         d="m 695.07947,447.35051 c -3.74077,0 -7.00373,2.0522 -8.71875,5.09375 l 34.625,51.90625 2.5,0 -23.28125,-57 -5.125,0 z m 18.9375,0 11.1875,57 1.96875,0 0,-57 -13.15625,0 z m 25.65625,3.5 -10.90625,53.5 2.46875,0 10.84375,-25.84375 0,-21.15625 c 0,-2.4805 -0.91096,-4.7523 -2.40625,-6.5 z m -54.59375,20.375 0,14.4375 28,18.6875 5.375,0 -33.375,-33.125 z m 57,21.0625 -8,11.84375 c 4.5569,-0.93244 8,-4.94862 8,-9.78125 l 0,-2.0625 z m -56.84375,3.90625 c 0.87025,4.63589 4.95511,8.15625 9.84375,8.15625 l 9.3125,0 -19.15625,-8.15625 z"
         style="fill:#f5ac76;fill-opacity:1;fill-rule:evenodd;stroke-width:0.5;stroke-miterlimit:4;stroke-dasharray:none" />
      <path
         inkscape:connector-curvature="0"
         style="fill:#89411d;fill-opacity:1;fill-rule:evenodd;stroke-width:0.5;stroke-miterlimit:4;stroke-dasharray:none"
         d="m 695.07947,447.35051 c -5.523,0 -10,4.477 -10,10 l 0,37 c 0,5.523 4.477,10 10,10 l 37,0 c 5.52301,0 10,-4.477 10,-10 l 0,-37 c 0,-5.523 -4.47699,-10 -10,-10 l -37,0 z m 2.875,4.40625 31.28125,0 c 4.66773,0 8.4375,3.76978 8.4375,8.4375 l 0,31.28125 c 0,4.66772 -3.76977,8.46875 -8.4375,8.46875 l -31.28125,0 c -4.66771,0 -8.4375,-3.80103 -8.4375,-8.46875 l 0,-31.28125 c 0,-4.66772 3.76979,-8.4375 8.4375,-8.4375 z"
         id="path3774-0-4-5-7-7-0-1-2-0-8-1-6-7" />
      <path
         sodipodi:nodetypes="ccscccscccscccsccc"
         id="path7113-2"
         d="m 699.29932,478.14527 -1.02063,0.69354 c -1.10107,0.7482 -1.31587,0.68745 -1.59711,-0.45171 -0.17104,-0.69281 -0.0995,-0.76433 1.11965,-1.11982 l 1.30236,-0.37975 -2.29483,-0.32453 c -1.26216,-0.1785 -2.40483,-0.43454 -2.53928,-0.56899 -0.14268,-0.14268 -0.01,-0.77541 0.3197,-1.51981 l 0.56414,-1.27535 1.9287,0.97128 c 1.06078,0.5342 2.00954,0.97127 2.10835,0.97127 0.0988,0 -0.36196,-0.48342 -1.02394,-1.07426 l -1.2036,-1.07427 0.80735,-0.8499 c 0.44405,-0.46745 0.90554,-0.8499 1.02554,-0.8499 0.12,0 0.50946,0.57313 0.86546,1.27363 l 0.64728,1.27363 -1.00914,4.30494 z"
         style="fill:#590000;fill-opacity:1" />
      <path
         id="path7682"
         d="m 717.99872,475.93236 c -0.13744,0 -5.36018,0.20617 -5.36018,0.20617 l 2.13032,11.06396 c 0,0 4.19194,4.08886 4.60426,4.12322 0.41232,0.0344 5.7725,-0.0687 5.97867,-0.1718 0.20616,-0.10308 4.70733,-3.33294 4.70733,-3.33294 0,0 1.03081,-6.08174 1.03081,-6.35662 0,-0.27488 -1.47749,-6.01303 -1.75237,-6.11611 -0.27488,-0.10308 -9.62084,-1.44312 -9.62084,-1.44312 l -1.718,2.02724 z"
         style="fill:#ffffff;stroke:none" />
      <path
         id="path7680"
         d="m 716.45251,482.90747 c -0.6872,-0.13744 -13.60661,4.53554 -13.60661,4.53554 l 1.3744,3.02369 6.32227,2.33649 8.38387,0.68721 6.45971,-1.64929 3.02369,-2.33649 -1.09953,-1.92417 -5.90994,-1.3744 -3.32472,1.00444 -0.92326,-0.60741 -0.12148,-1.57926 -0.5784,-2.11635 z"
         style="fill:#f4722b;fill-opacity:1;stroke:none" />
      <path
         sodipodi:nodetypes="cccccccccccccccc"
         id="path7647"
         d="m 723.18709,480.02122 -4.81042,1.44313 -0.89336,3.22985 3.57345,1.16825 c 1.38534,-0.0444 -0.8256,0.64842 -1.23696,0.82464 l -1.40877,0.72156 1.16824,1.16825 2.37085,1.30568 1.78673,-0.5154 2.68009,-1.58057 0.56694,-0.87618 2.18187,0.9449 0.89337,-0.0687 0.82464,-2.61137 -4.81042,-4.60425 -2.88625,-0.54977 z"
         style="fill:#f6e7c1;fill-opacity:1;stroke:none" />
      <path
         sodipodi:nodetypes="cccssccssscccccccsssssssssccssssccsssssccccsccssssccsccc"
         id="path7113"
         d="m 711.34968,493.87609 c -5.71547,-1.33802 -9.70069,-3.93435 -11.50531,-7.49559 -1.97208,-4.42524 -1.69737,-9.12513 0.76078,-13.849 1.43036,-2.81552 3.09702,-5.06826 5.21665,-7.05107 0.99452,-0.93032 1.71741,-1.74232 1.60644,-1.80444 -0.11098,-0.0621 -0.57287,-0.20154 -1.02642,-0.30981 -1.48373,-5.17723 9.61184,-9.53476 15.0457,-1.58796 0.45255,0.79877 1.15445,1.62381 1.55977,1.83341 1.67671,0.86706 4.71178,3.54312 6.15398,5.42603 4.0046,5.22836 4.84081,11.03169 2.46437,17.10278 -1.30423,3.33191 -4.21583,5.84071 -8.43958,7.27204 -3.76643,0.94285 -7.99296,1.1668 -11.83638,0.46361 l 0,0 z m 10.8578,-1.67555 c 0.83152,-0.25441 2.22081,-0.82037 3.08731,-1.25769 l 1.57546,-0.79511 -0.45251,-0.94893 c -0.25771,-0.54043 -0.4473,-0.7985 -0.69008,-0.80525 -0.19159,-0.005 -0.93045,0.62501 -1.62884,1.1242 -0.69839,0.49919 -1.44977,0.90762 -1.66973,0.90762 -0.21996,0 -1.53377,-0.74696 -2.91957,-1.65992 -2.65044,-1.74608 -3.01727,-2.26859 -2.70143,-3.84782 0.15735,-0.78674 0.12797,-0.81437 -0.86102,-0.80976 -1.84799,0.009 -4.83767,0.79174 -6.79644,1.78027 -1.88198,0.94978 -4.53554,2.96677 -4.53554,3.4475 0,0.73138 4.83927,2.69898 8.07245,3.28219 2.08881,0.37678 7.73328,0.12936 9.51994,-0.4173 z m 2.64111,-4.03518 c 2.02827,-1.33351 1.94579,-1.49029 -0.92436,-1.75704 -1.46588,-0.13624 -2.29122,-0.0631 -3.46939,0.30749 -0.85026,0.26744 -1.54593,0.59016 -1.54593,0.71717 0,0.48465 3.28039,2.23258 3.80977,2.03 0.20557,-0.0787 1.16402,-0.66259 2.12991,-1.29762 z m 4.66208,-2.27177 c -0.31608,-1.68487 -3.90936,-4.9846 -5.99921,-5.50912 -1.16934,-0.29348 -4.11278,1.47543 -5.21922,3.13659 -0.26358,0.39572 -0.48005,0.80267 -0.48104,0.90434 -0.003,0.33501 1.73847,0.74572 4.94604,1.16628 3.56951,0.46802 4.72497,0.75937 5.90995,1.49021 0.9538,0.58827 1.13016,0.33982 0.84348,-1.1883 z m -10.15429,0.51051 1.06438,-0.44781 -1.37441,-0.35571 c -1.50308,-0.38901 -1.93917,-0.21176 -1.65807,0.67391 0.22051,0.69475 0.57015,0.71778 1.9681,0.12961 z m 2.77781,-6.5784 c 0.41909,-0.2746 0.62578,-0.63941 0.57118,-1.00816 -0.0691,-0.4664 -0.6137,-0.75464 -2.82385,-1.49447 -1.50605,-0.50415 -2.95367,-0.91663 -3.21693,-0.91663 -0.90327,0 -1.24207,2.74819 -0.46168,3.74497 0.36954,0.47202 5.11119,0.21164 5.93128,-0.32571 z m 6.39556,-1.34357 c 0,-0.32791 -0.17122,-0.83036 -0.38048,-1.11654 -0.37285,-0.50991 -0.41092,-0.50998 -1.9005,-0.004 -0.0641,0.0204 -3.01096,0.65418 -2.94176,1.63297 0.22122,2.40212 4.76658,0.0155 5.22274,-0.51278 z"
         style="fill:#89411d;fill-opacity:1" />
      <path
         transform="matrix(0.41232161,0,0,0.41232161,426.61742,309.95335)"
         d="m 713.64752,409.09946 c 0,1.2692 -1.02889,2.29809 -2.29809,2.29809 -1.26921,0 -2.2981,-1.02889 -2.2981,-2.29809 0,-1.26921 1.02889,-2.2981 2.2981,-2.2981 1.2692,0 2.29809,1.02889 2.29809,2.2981 z"
         sodipodi:ry="2.2980971"
         sodipodi:rx="2.2980971"
         sodipodi:cy="409.09946"
         sodipodi:cx="711.34943"
         id="path7654"
         style="fill:#590000;fill-opacity:1;stroke:none"
         sodipodi:type="arc" />
      <path
         transform="matrix(0.27488107,0,0,0.27488107,528.81975,366.60539)"
         d="m 713.64752,409.09946 c 0,1.2692 -1.02889,2.29809 -2.29809,2.29809 -1.26921,0 -2.2981,-1.02889 -2.2981,-2.29809 0,-1.26921 1.02889,-2.2981 2.2981,-2.2981 1.2692,0 2.29809,1.02889 2.29809,2.2981 z"
         sodipodi:ry="2.2980971"
         sodipodi:rx="2.2980971"
         sodipodi:cy="409.09946"
         sodipodi:cx="711.34943"
         id="path7654-1"
         style="fill:#590000;fill-opacity:1;stroke:none"
         sodipodi:type="arc" />
      <path
         sodipodi:nodetypes="cscscccc"
         id="path7678"
         d="m 713.84114,474.38616 c 0,0 5.22274,2.13033 7.07819,2.88625 1.85545,0.75592 1.85545,0.75592 1.85545,0.75592 0,0 8.58638,-2.16468 8.58638,-2.71445 0,-0.54976 -1.52538,-2.95497 -1.52538,-2.95497 l -6.78612,3.67654 -7.42179,-4.81042 -1.78673,3.16113 z"
         style="fill:#590000;fill-opacity:1;stroke:none" />
    </g>
  </g>
</svg>
