<?xml version="1.0" encoding="UTF-8" standalone="no"?>
<!-- Created with Inkscape (http://www.inkscape.org/) -->

<svg
   xmlns:dc="http://purl.org/dc/elements/1.1/"
   xmlns:cc="http://creativecommons.org/ns#"
   xmlns:rdf="http://www.w3.org/1999/02/22-rdf-syntax-ns#"
   xmlns:svg="http://www.w3.org/2000/svg"
   xmlns="http://www.w3.org/2000/svg"
   xmlns:xlink="http://www.w3.org/1999/xlink"
   xmlns:sodipodi="http://sodipodi.sourceforge.net/DTD/sodipodi-0.dtd"
   xmlns:inkscape="http://www.inkscape.org/namespaces/inkscape"
   width="57"
   height="57"
   id="svg4691"
   version="1.1"
   inkscape:version="0.47 r22583"
   sodipodi:docname="itunes.svg">
  <title
     id="title4746">Team Fortress 2 WinterBoard: App Store</title>
  <defs
     id="defs4693">
    <inkscape:perspective
       sodipodi:type="inkscape:persp3d"
       inkscape:vp_x="0 : 526.18109 : 1"
       inkscape:vp_y="0 : 1000 : 0"
       inkscape:vp_z="744.09448 : 526.18109 : 1"
       inkscape:persp3d-origin="372.04724 : 350.78739 : 1"
       id="perspective4699" />
    <inkscape:perspective
       id="perspective4677"
       inkscape:persp3d-origin="0.5 : 0.33333333 : 1"
       inkscape:vp_z="1 : 0.5 : 1"
       inkscape:vp_y="0 : 1000 : 0"
       inkscape:vp_x="0 : 0.5 : 1"
       sodipodi:type="inkscape:persp3d" />
    <inkscape:perspective
       id="perspective4756"
       inkscape:persp3d-origin="0.5 : 0.33333333 : 1"
       inkscape:vp_z="1 : 0.5 : 1"
       inkscape:vp_y="0 : 1000 : 0"
       inkscape:vp_x="0 : 0.5 : 1"
       sodipodi:type="inkscape:persp3d" />
    <inkscape:perspective
       id="perspective4851"
       inkscape:persp3d-origin="0.5 : 0.33333333 : 1"
       inkscape:vp_z="1 : 0.5 : 1"
       inkscape:vp_y="0 : 1000 : 0"
       inkscape:vp_x="0 : 0.5 : 1"
       sodipodi:type="inkscape:persp3d" />
    <inkscape:perspective
       id="perspective4900"
       inkscape:persp3d-origin="0.5 : 0.33333333 : 1"
       inkscape:vp_z="1 : 0.5 : 1"
       inkscape:vp_y="0 : 1000 : 0"
       inkscape:vp_x="0 : 0.5 : 1"
       sodipodi:type="inkscape:persp3d" />
    <linearGradient
       inkscape:collect="always"
       xlink:href="#linearGradient5030"
       id="linearGradient5129"
       gradientUnits="userSpaceOnUse"
       x1="410.35025"
       y1="314.85373"
       x2="414.24854"
       y2="310.50735" />
    <linearGradient
       inkscape:collect="always"
       id="linearGradient5030">
      <stop
         style="stop-color:#ffffff;stop-opacity:1;"
         offset="0"
         id="stop5032" />
      <stop
         style="stop-color:#ffffff;stop-opacity:0;"
         offset="1"
         id="stop5034" />
    </linearGradient>
    <clipPath
       clipPathUnits="userSpaceOnUse"
       id="clipPath4221">
      <path
         clip-path="none"
         id="path4223"
         d="m 350.71619,7.5327627 0.5,6.2500013 c 0.1259,0.21284 0.27878,0.40676 0.375,0.625 0.10068,0.22831 0.0565,0.48536 0.125,0.71875 0.0478,0.54251 0.18749,1.07147 0.1875,1.625 0,0.29868 -0.0797,0.5794 -0.0937,0.875 -0.0781,0.36206 -0.0642,0.71205 -0.21875,1.0625 -0.30449,0.69059 -0.76544,1.36528 -1.34375,2 -0.57829,0.63471 -1.27235,1.21667 -2.09375,1.78125 -0.8214,0.56457 -1.77873,1.11357 -2.8125,1.59375 -1.03379,0.48018 -2.15952,0.89973 -3.375,1.28125 -1.21549,0.38152 -2.50851,0.73138 -3.875,1 -1.36649,0.26861 -2.79445,0.48356 -4.28125,0.625 -1.48678,0.14143 -3.01736,0.1875 -4.59375,0.1875 -1.57639,0 -3.13821,-0.04608 -4.625,-0.1875 -1.48679,-0.14143 -2.91476,-0.3564 -4.28125,-0.625 -1.36648,-0.26861 -2.65952,-0.61848 -3.875,-1 -1.21548,-0.38152 -2.34123,-0.80108 -3.375,-1.28125 -1.03379,-0.48018 -1.99111,-1.02918 -2.8125,-1.59375 -0.82139,-0.56457 -1.51547,-1.14655 -2.09375,-1.78125 -0.57829,-0.63471 -1.03923,-1.30942 -1.34375,-2 -0.29585,-0.671 -0.42871,-1.35202 -0.4375,-2.0625 5.5e-4,-0.08277 0.0296,-0.16746 0.0312,-0.25 0.0228,-0.61377 0.11066,-1.22721 0.34375,-1.8125 l 0.65625,-6.2500013 c -14.72852,7.2167413 -24.75,21.2767213 -24.75,37.4375013 0,14.16064 7.7147,26.6987 19.53125,34.4375 -11.7661,-7.74752 -19.40625,-20.30544 -19.40625,-34.4375 0,-0.08593 0.0307,-0.16418 0.0312,-0.25 0.0183,1.47325 0.324,2.92112 0.9375,4.3125 0.6314,1.43199 1.55087,2.80888 2.75,4.125 1.19914,1.31612 2.67177,2.54806 4.375,3.71875 1.70323,1.17069 3.6376,2.28556 5.78125,3.28125 2.14365,0.99569 4.47958,1.89638 7,2.6875 2.52042,0.79112 5.22897,1.47427 8.0625,2.03125 2.83353,0.55698 5.79202,0.98798 8.875,1.28125 3.08298,0.29327 6.29373,0.4375 9.5625,0.4375 3.26877,0 6.44827,-0.14423 9.53125,-0.4375 3.08298,-0.29327 6.07272,-0.72427 8.90625,-1.28125 2.83353,-0.55698 5.51083,-1.24013 8.03125,-2.03125 2.52042,-0.79112 4.85635,-1.69181 7,-2.6875 2.14365,-0.99569 4.10927,-2.11056 5.8125,-3.28125 1.70323,-1.17069 3.14461,-2.40263 4.34375,-3.71875 1.19914,-1.31612 2.14985,-2.69301 2.78125,-4.125 0.32041,-0.72667 0.33815,-1.49923 0.5,-2.25 -0.0882,1.85802 -0.28368,3.6809 -0.625,5.46875 0.46332,-2.3702 0.71875,-4.78936 0.71875,-7.28125 0,-16.78071 -10.77593,-31.27856 -26.4375,-38.2187513 z m 25.71875,45.5000013 c -0.22324,1.16937 -0.48624,2.33394 -0.8125,3.46875 0.32968,-1.1281 0.5853,-2.30648 0.8125,-3.46875 z m -0.90625,3.71875 c -0.15153,0.51389 -0.32793,1.02507 -0.5,1.53125 0.17532,-0.50869 0.34527,-1.01482 0.5,-1.53125 z m -1.03125,3 c -0.24414,0.62724 -0.5067,1.26094 -0.78125,1.875 0.27425,-0.61697 0.53855,-1.24455 0.78125,-1.875 z m -72.28125,20.4375 c 2.14203,1.401147 4.38985,2.652347 6.78125,3.718747 -2.3834,-1.06993 -4.6475,-2.31541 -6.78125,-3.718747 z m 10.5,5.187497 c 1.24574,0.43966 2.51812,0.84269 3.8125,1.1875 -1.30092,-0.34916 -2.56116,-0.74239 -3.8125,-1.1875 z"
         style="fill:#b6343c;fill-opacity:1;fill-rule:evenodd;stroke:none" />
    </clipPath>
    <filter
       color-interpolation-filters="sRGB"
       inkscape:collect="always"
       id="filter4969"
       x="-0.052747332"
       width="1.1054947"
       y="-0.19039562"
       height="1.3807913">
      <feGaussianBlur
         inkscape:collect="always"
         stdDeviation="2.0499811"
         id="feGaussianBlur4971" />
    </filter>
    <inkscape:perspective
       id="perspective4991"
       inkscape:persp3d-origin="0.5 : 0.33333333 : 1"
       inkscape:vp_z="1 : 0.5 : 1"
       inkscape:vp_y="0 : 1000 : 0"
       inkscape:vp_x="0 : 0.5 : 1"
       sodipodi:type="inkscape:persp3d" />
    <inkscape:perspective
       id="perspective5070"
       inkscape:persp3d-origin="0.5 : 0.33333333 : 1"
       inkscape:vp_z="1 : 0.5 : 1"
       inkscape:vp_y="0 : 1000 : 0"
       inkscape:vp_x="0 : 0.5 : 1"
       sodipodi:type="inkscape:persp3d" />
    <inkscape:perspective
       id="perspective5104"
       inkscape:persp3d-origin="0.5 : 0.33333333 : 1"
       inkscape:vp_z="1 : 0.5 : 1"
       inkscape:vp_y="0 : 1000 : 0"
       inkscape:vp_x="0 : 0.5 : 1"
       sodipodi:type="inkscape:persp3d" />
    <inkscape:perspective
       id="perspective5227"
       inkscape:persp3d-origin="0.5 : 0.33333333 : 1"
       inkscape:vp_z="1 : 0.5 : 1"
       inkscape:vp_y="0 : 1000 : 0"
       inkscape:vp_x="0 : 0.5 : 1"
       sodipodi:type="inkscape:persp3d" />
    <inkscape:perspective
       id="perspective5326"
       inkscape:persp3d-origin="0.5 : 0.33333333 : 1"
       inkscape:vp_z="1 : 0.5 : 1"
       inkscape:vp_y="0 : 1000 : 0"
       inkscape:vp_x="0 : 0.5 : 1"
       sodipodi:type="inkscape:persp3d" />
    <inkscape:perspective
       id="perspective5375"
       inkscape:persp3d-origin="0.5 : 0.33333333 : 1"
       inkscape:vp_z="1 : 0.5 : 1"
       inkscape:vp_y="0 : 1000 : 0"
       inkscape:vp_x="0 : 0.5 : 1"
       sodipodi:type="inkscape:persp3d" />
    <inkscape:perspective
       id="perspective5419"
       inkscape:persp3d-origin="0.5 : 0.33333333 : 1"
       inkscape:vp_z="1 : 0.5 : 1"
       inkscape:vp_y="0 : 1000 : 0"
       inkscape:vp_x="0 : 0.5 : 1"
       sodipodi:type="inkscape:persp3d" />
    <inkscape:perspective
       id="perspective5523"
       inkscape:persp3d-origin="0.5 : 0.33333333 : 1"
       inkscape:vp_z="1 : 0.5 : 1"
       inkscape:vp_y="0 : 1000 : 0"
       inkscape:vp_x="0 : 0.5 : 1"
       sodipodi:type="inkscape:persp3d" />
    <inkscape:perspective
       id="perspective5584"
       inkscape:persp3d-origin="0.5 : 0.33333333 : 1"
       inkscape:vp_z="1 : 0.5 : 1"
       inkscape:vp_y="0 : 1000 : 0"
       inkscape:vp_x="0 : 0.5 : 1"
       sodipodi:type="inkscape:persp3d" />
    <inkscape:perspective
       id="perspective6073"
       inkscape:persp3d-origin="0.5 : 0.33333333 : 1"
       inkscape:vp_z="1 : 0.5 : 1"
       inkscape:vp_y="0 : 1000 : 0"
       inkscape:vp_x="0 : 0.5 : 1"
       sodipodi:type="inkscape:persp3d" />
    <inkscape:perspective
       id="perspective6129"
       inkscape:persp3d-origin="0.5 : 0.33333333 : 1"
       inkscape:vp_z="1 : 0.5 : 1"
       inkscape:vp_y="0 : 1000 : 0"
       inkscape:vp_x="0 : 0.5 : 1"
       sodipodi:type="inkscape:persp3d" />
    <inkscape:perspective
       id="perspective6229"
       inkscape:persp3d-origin="0.5 : 0.33333333 : 1"
       inkscape:vp_z="1 : 0.5 : 1"
       inkscape:vp_y="0 : 1000 : 0"
       inkscape:vp_x="0 : 0.5 : 1"
       sodipodi:type="inkscape:persp3d" />
    <filter
       color-interpolation-filters="sRGB"
       id="filter3629-2">
      <feGaussianBlur
         id="feGaussianBlur3631-8"
         stdDeviation="1.9268105"
         inkscape:collect="always" />
    </filter>
    <filter
       color-interpolation-filters="sRGB"
       id="filter6235">
      <feGaussianBlur
         id="feGaussianBlur6237"
         stdDeviation="1.9268105"
         inkscape:collect="always" />
    </filter>
    <filter
       color-interpolation-filters="sRGB"
       id="filter6239">
      <feGaussianBlur
         id="feGaussianBlur6241"
         stdDeviation="1.9268105"
         inkscape:collect="always" />
    </filter>
    <filter
       color-interpolation-filters="sRGB"
       id="filter6243">
      <feGaussianBlur
         id="feGaussianBlur6245"
         stdDeviation="1.9268105"
         inkscape:collect="always" />
    </filter>
    <inkscape:perspective
       id="perspective6347"
       inkscape:persp3d-origin="0.5 : 0.33333333 : 1"
       inkscape:vp_z="1 : 0.5 : 1"
       inkscape:vp_y="0 : 1000 : 0"
       inkscape:vp_x="0 : 0.5 : 1"
       sodipodi:type="inkscape:persp3d" />
  </defs>
  <sodipodi:namedview
     id="base"
     pagecolor="#ffffff"
     bordercolor="#666666"
     borderopacity="1.0"
     inkscape:pageopacity="0.0"
     inkscape:pageshadow="2"
     inkscape:zoom="7.9195959"
     inkscape:cx="34.595249"
     inkscape:cy="23.259436"
     inkscape:document-units="px"
     inkscape:current-layer="g7205"
     showgrid="false"
     inkscape:window-width="1920"
     inkscape:window-height="1018"
     inkscape:window-x="-8"
     inkscape:window-y="-8"
     inkscape:window-maximized="1" />
  <metadata
     id="metadata4696">
    <rdf:RDF>
      <cc:Work
         rdf:about="">
        <dc:format>image/svg+xml</dc:format>
        <dc:type
           rdf:resource="http://purl.org/dc/dcmitype/StillImage" />
        <dc:title>Team Fortress 2 WinterBoard: App Store</dc:title>
      </cc:Work>
    </rdf:RDF>
  </metadata>
  <g
     inkscape:label="Layer 1"
     inkscape:groupmode="layer"
     id="layer1"
     transform="translate(-334.35714,-455.29075)">
    <g
       id="g3181"
       transform="translate(54.971573,163.32366)"
       inkscape:export-filename="C:\Users\Lasse\Documents\My Dropbox\Public\iconmontage.png"
       inkscape:export-xdpi="349.72098"
       inkscape:export-ydpi="349.72098">
      <g
         style="font-size:10.31457615px;font-style:normal;font-variant:normal;font-weight:normal;font-stretch:normal;text-align:start;line-height:125%;writing-mode:lr-tb;text-anchor:start;fill:#ffffff;fill-opacity:1;stroke:none;font-family:TF2 Build;-inkscape-font-specification:TF2 Build"
         id="text4536-8">
        <g
           id="g5166"
           transform="translate(-44.483523,2.6884599)">
          <g
             inkscape:export-ydpi="349"
             inkscape:export-xdpi="349"
             inkscape:export-filename="C:\Users\Lasse\Documents\My Dropbox\Public\iconmontage.png"
             id="flowRoot5763-2-4-2"
             style="font-size:40px;font-style:normal;font-weight:normal;fill:#f6e7c1;fill-opacity:1;stroke:none;font-family:Bitstream Vera Sans"
             inkscape:transform-center-y="-3.5279857"
             transform="matrix(-0.30942042,-0.30942042,0.30942042,-0.30942042,344.48308,554.92556)">
            <g
               id="g7205"
               transform="matrix(-1.6159244,1.6159244,-1.6159244,-1.6159244,1223.4756,1164.8901)"
               inkscape:export-filename="C:\Users\Lasse\Documents\My Dropbox\Public\iconmontage.png"
               inkscape:export-xdpi="349"
               inkscape:export-ydpi="349">
              <g
                 id="g6072"
                 transform="translate(-3.0604003,-86.249998)">
                <path
                   inkscape:export-ydpi="349"
                   inkscape:export-xdpi="349"
                   inkscape:export-filename="C:\Users\Lasse\Documents\My Dropbox\Public\iconmontage.png"
                   style="fill:#5a5a5a;fill-opacity:1;fill-rule:evenodd"
                   id="path3774-0-3-10-8"
                   d="m 10.57396,559.61218 h 37 c 5.523,0 10,4.477 10,10 v 37 c 0,5.523 -4.477,10 -10,10 h -37 c -5.523,0 -10,-4.477 -10,-10 v -37 c 0,-5.523 4.477,-10 10,-10 z"
                   clip-rule="evenodd" />
                <path
                   id="path3774-0-3-10-4"
                   d="m 10.57396,559.61218 c -3.74077,0 -7.00373,2.0522 -8.71875,5.09375 l 34.625,51.90625 2.5,0 -23.28125,-57 -5.125,0 z m 18.9375,0 11.1875,57 1.96875,0 0,-57 -13.15625,0 z m 25.65625,3.5 -10.90625,53.5 2.46875,0 10.84375,-25.84375 0,-21.15625 c 0,-2.4805 -0.91096,-4.7523 -2.40625,-6.5 z m -54.59375,20.375 0,14.4375 28,18.6875 5.375,0 -33.375,-33.125 z m 57,21.0625 -8,11.84375 c 4.5569,-0.93244 8,-4.94862 8,-9.78125 l 0,-2.0625 z m -56.84375,3.90625 c 0.87025,4.63589 4.95511,8.15625 9.84375,8.15625 l 9.3125,0 -19.15625,-8.15625 z"
                   style="fill:#f4722b;fill-opacity:1;fill-rule:evenodd" />
                <g
                   id="g7502"
                   transform="translate(-1.6456789,0)">
                  <g
                     id="g6049"
                     transform="translate(561.57396,-291.75)">
                    <path
                       sodipodi:nodetypes="csssssscccssscccssssssssssscccccsscccssscccccsssssssccscccsscccsssccssssscccsssscccccssccccccsssssssssscccssssssssssssssccsssssssc"
                       id="path5988"
                       d="m -509.68027,901.74237 c -0.31291,-0.0239 -1.1958,-0.32799 -1.58974,-0.54763 -0.20502,-0.11431 -0.4305,-0.31929 -0.57694,-0.52449 -0.13221,-0.18527 -0.35835,-0.46843 -0.5025,-0.62926 -0.3176,-0.35429 -3.37442,-4.48146 -4.06678,-5.49077 -0.27247,-0.3972 -0.8486,-1.2046 -1.28031,-1.79422 -0.43168,-0.58963 -1.38571,-1.90489 -2.12002,-2.92281 -0.73434,-1.01792 -1.49643,-2.06759 -1.69354,-2.33261 l -0.35841,-0.48183 -0.54249,0.34997 c -0.47177,0.30435 -2.15294,1.13884 -2.44217,1.21224 -0.0559,0.0143 -0.37432,-0.11689 -0.70744,-0.29133 -0.59788,-0.31306 -0.61217,-0.32644 -1.10795,-1.03748 -0.27626,-0.39617 -0.65764,-0.93857 -0.84753,-1.20533 l -0.34525,-0.48501 1.66712,-1.00267 c 0.91691,-0.55147 1.68691,-1.03211 1.71109,-1.06809 0.0242,-0.036 -0.0765,-0.21104 -0.22377,-0.38904 -0.19926,-0.24087 -0.31524,-0.32288 -0.45351,-0.32068 -0.10218,0.002 -0.19773,0.0236 -0.21236,0.049 -0.0146,0.0253 0.069,0.20383 0.18589,0.39669 0.14647,0.24174 0.19404,0.37025 0.15312,0.41369 -0.0326,0.0347 -0.71083,0.47333 -1.50709,0.97483 -0.79624,0.5015 -1.45409,0.9194 -1.4619,0.92868 -0.008,0.009 0.13243,0.25928 0.31159,0.55557 0.17917,0.2963 0.3138,0.55944 0.29919,0.58475 -0.0768,0.13294 -1.42029,-0.0583 -1.70599,-0.24275 -0.078,-0.0504 -0.33989,-0.5156 -0.62652,-1.11285 l -0.49252,-1.02632 0.19658,-0.34798 0.19657,-0.34797 -1.24955,-1.87234 c -0.68726,-1.02979 -1.30555,-1.93409 -1.37398,-2.00957 -0.0684,-0.0755 -0.36558,-0.28915 -0.66038,-0.47483 -0.53135,-0.33466 -0.53692,-0.34102 -0.64091,-0.72911 l -0.1049,-0.39149 0.29297,-0.30249 c 0.26092,-0.26939 0.74542,-0.53389 4.42825,-2.41745 2.27441,-1.16322 4.19565,-2.14776 4.26943,-2.18785 0.12632,-0.0686 0.14468,-0.0433 0.3163,0.43648 0.10023,0.28015 0.22616,0.61228 0.27985,0.73808 l 0.0976,0.22873 -0.36326,0.18876 c -0.19978,0.10381 -0.39459,0.21849 -0.43291,0.25484 8.83779,9.54628 2.03444,2.29898 12.75486,13.65289 1.81525,1.92196 3.2543,3.39065 3.44973,3.52076 0.18442,0.12276 0.40038,0.3374 0.4799,0.47697 0.16803,0.29488 0.67263,0.88362 1.63236,1.90457 0.37566,0.39961 0.85542,0.98195 1.06612,1.2941 0.36222,0.53665 0.39334,0.61066 0.5714,1.35955 0.23471,0.98713 0.19511,1.25245 -0.32409,2.17174 -0.49563,0.87757 -0.7463,1.11536 -1.58456,1.50319 -0.75784,0.35063 -2.39183,0.81833 -2.76069,0.7902 z m -15.50968,-19.21779 c -0.0545,-0.0755 -0.23898,-0.30764 -0.41002,-0.51596 -0.28053,-0.34163 -0.33766,-0.37839 -0.58249,-0.37483 l -0.27147,0.004 -1.62365,-2.07624 c -0.89303,-1.14192 -1.64281,-2.0711 -1.6662,-2.06484 -0.10578,0.0284 -0.36098,0.82791 -0.29411,0.92143 0.0393,0.055 0.71516,0.87773 1.50189,1.82828 l 1.4304,1.72828 0.3734,0.0665 c 0.20538,0.0366 0.45416,0.0355 0.55287,-0.002 0.16801,-0.0645 0.1961,-0.0436 0.44156,0.32861 0.24239,0.36752 0.2766,0.39356 0.45447,0.3459 0.17319,-0.0464 0.18249,-0.0652 0.0933,-0.18873 z m -9.16439,-3.66784 c -0.0492,-0.0358 -0.24895,-0.40705 -0.44392,-0.82501 -0.55491,-1.18948 -0.53728,-1.16844 -1.33644,-1.59505 -0.49058,-0.26189 -0.78229,-0.37423 -0.93107,-0.3586 -0.11914,0.0125 -1.68768,0.27138 -3.48562,0.57524 -1.79794,0.30385 -3.29672,0.53627 -3.33061,0.51649 -0.0339,-0.0198 -0.34819,-0.45611 -0.69844,-0.9696 l -0.63684,-0.93361 0.27876,-0.0552 c 0.15333,-0.0303 2.01943,-0.37879 4.14689,-0.77427 2.12748,-0.39549 3.92409,-0.74959 3.99246,-0.78688 0.58454,-0.31881 9.17677,-4.84362 9.21923,-4.855 0.0844,-0.0226 0.29454,0.84378 0.45438,1.87304 0.0789,0.50784 0.16999,1.02502 0.2025,1.14929 l 0.0582,0.22619 0.51071,-0.18354 0.51072,-0.18354 0.49868,0.62713 c 0.27427,0.34491 0.49275,0.635 0.48555,0.64463 -0.007,0.01 -1.92592,0.99732 -4.26379,2.19486 -3.60602,1.84713 -4.31446,2.23165 -4.67144,2.53549 l -0.4208,0.35816 0.0629,0.41892 c 0.0629,0.41847 -0.002,0.54726 -0.20298,0.40112 l 2e-5,-10e-6 z m -7.15871,-4.58612 c -2.11757,0.35927 -3.87083,0.65651 -3.8961,0.66054 -0.0253,0.004 -0.11067,-0.0913 -0.18978,-0.21195 -0.10996,-0.16759 -0.12851,-0.23555 -0.0797,-0.28815 0.0358,-0.038 0.56542,-0.31887 1.17688,-0.62411 0.61149,-0.30524 4.2148,-2.12535 8.00734,-4.04468 3.79255,-1.91934 6.90433,-3.48399 6.91506,-3.47702 0.0552,0.0359 1.87605,2.34788 1.86215,2.3644 -0.009,0.0107 -0.43874,0.23753 -0.95507,0.50414 -0.51632,0.2666 -2.52865,1.32434 -4.47185,2.35053 -2.93817,1.55162 -3.61617,1.88663 -4.0264,1.98956 -0.27132,0.0681 -2.22589,0.41771 -4.34347,0.77698 l -4e-5,10e-6 z m -5.44852,-0.12178 c -0.13545,-0.18901 -0.44024,-0.72164 -0.6773,-1.18361 -0.23709,-0.46197 -0.46096,-0.8867 -0.49752,-0.94386 -0.0491,-0.0766 -0.0208,-0.12686 0.10781,-0.19149 0.0959,-0.0482 3.97537,-2.05404 8.6211,-4.45749 4.64574,-2.40345 8.52166,-4.40741 8.61314,-4.45324 0.1593,-0.0798 0.17244,-0.0689 0.3097,0.25634 0.14432,0.34199 0.80594,2.75077 0.77189,2.80989 -0.0143,0.0247 -4.03656,2.09114 -5.98232,3.07343 -0.23768,0.11999 -0.35813,0.15224 -0.43559,0.11665 -0.0589,-0.0271 -0.4422,-0.41237 -0.8518,-0.85619 -0.4096,-0.44383 -0.74649,-0.77756 -0.74866,-0.74162 -0.002,0.0359 0.24614,0.39305 0.55177,0.79358 0.30563,0.40053 0.54655,0.74405 0.53538,0.76338 -0.0253,0.0438 -9.87423,5.30507 -9.98819,5.3356 -0.0457,0.0122 -0.19387,-0.13239 -0.32932,-0.3214 z m -1.39681,-2.5597 c -0.04,-0.14923 -2.4e-4,-0.26629 0.16906,-0.49903 0.42207,-0.57992 5.20567,-6.37235 5.38628,-6.52221 0.20444,-0.16964 7.64656,-4.30157 7.73428,-4.29415 0.0741,0.006 4.30925,2.26968 4.29382,2.29477 -0.006,0.0106 -2.13269,1.13753 -4.72482,2.50427 -2.59212,1.36673 -6.4874,3.42341 -8.65613,4.5704 -2.16879,1.14699 -3.9898,2.09791 -4.04674,2.11317 -0.0702,0.0188 -0.12034,-0.035 -0.15575,-0.16722 z"
                       style="fill:#f6e7c1;fill-opacity:1" />
                    <path
                       sodipodi:nodetypes="csssssscccssscccssssssssssscccccsscccssscccccsssssssccscccsscccsssccssssscccsssscccccssccccccsssssssssscccssssssssssssssccsssssssc"
                       id="path5988-0"
                       d="m -509.68027,901.74237 c -0.31291,-0.0239 -1.1958,-0.32799 -1.58974,-0.54763 -0.20502,-0.11431 -0.4305,-0.31929 -0.57694,-0.52449 -0.13221,-0.18527 -0.35835,-0.46843 -0.5025,-0.62926 -0.3176,-0.35429 -3.37442,-4.48146 -4.06678,-5.49077 -0.27247,-0.3972 -0.8486,-1.2046 -1.28031,-1.79422 -0.43168,-0.58963 -1.38571,-1.90489 -2.12002,-2.92281 -0.73434,-1.01792 -1.49643,-2.06759 -1.69354,-2.33261 l -0.35841,-0.48183 -0.54249,0.34997 c -0.47177,0.30435 -2.15294,1.13884 -2.44217,1.21224 -0.0559,0.0143 -0.37432,-0.11689 -0.70744,-0.29133 -0.59788,-0.31306 -0.61217,-0.32644 -1.10795,-1.03748 -0.27626,-0.39617 -0.65764,-0.93857 -0.84753,-1.20533 l -0.34525,-0.48501 1.66712,-1.00267 c 0.91691,-0.55147 1.68691,-1.03211 1.71109,-1.06809 0.0242,-0.036 -0.0765,-0.21104 -0.22377,-0.38904 -0.19926,-0.24087 -0.31524,-0.32288 -0.45351,-0.32068 -0.10218,0.002 -0.19773,0.0236 -0.21236,0.049 -0.0146,0.0253 0.069,0.20383 0.18589,0.39669 0.14647,0.24174 0.19404,0.37025 0.15312,0.41369 -0.0326,0.0347 -0.71083,0.47333 -1.50709,0.97483 -0.79624,0.5015 -1.45409,0.9194 -1.4619,0.92868 -0.008,0.009 0.13243,0.25928 0.31159,0.55557 0.17917,0.2963 0.3138,0.55944 0.29919,0.58475 -0.0768,0.13294 -1.42029,-0.0583 -1.70599,-0.24275 -0.078,-0.0504 -0.33989,-0.5156 -0.62652,-1.11285 l -0.49252,-1.02632 0.19658,-0.34798 0.19657,-0.34797 -1.24955,-1.87234 c -0.68726,-1.02979 -1.30555,-1.93409 -1.37398,-2.00957 -0.0684,-0.0755 -0.36558,-0.28915 -0.66038,-0.47483 -0.53135,-0.33466 -0.53692,-0.34102 -0.64091,-0.72911 l -0.1049,-0.39149 0.29297,-0.30249 c 0.26092,-0.26939 0.74542,-0.53389 4.42825,-2.41745 2.27441,-1.16322 4.19565,-2.14776 4.26943,-2.18785 0.12632,-0.0686 0.14468,-0.0433 0.3163,0.43648 0.10023,0.28015 0.22616,0.61228 0.27985,0.73808 l 0.0976,0.22873 -0.36326,0.18876 c -0.19978,0.10381 -0.39459,0.21849 -0.43291,0.25484 8.83779,9.54628 2.03444,2.29898 12.75486,13.65289 1.81525,1.92196 3.2543,3.39065 3.44973,3.52076 0.18442,0.12276 0.40038,0.3374 0.4799,0.47697 0.16803,0.29488 0.67263,0.88362 1.63236,1.90457 0.37566,0.39961 0.85542,0.98195 1.06612,1.2941 0.36222,0.53665 0.39334,0.61066 0.5714,1.35955 0.23471,0.98713 0.19511,1.25245 -0.32409,2.17174 -0.49563,0.87757 -0.7463,1.11536 -1.58456,1.50319 -0.75784,0.35063 -2.39183,0.81833 -2.76069,0.7902 z m -15.50968,-19.21779 c -0.0545,-0.0755 -0.23898,-0.30764 -0.41002,-0.51596 -0.28053,-0.34163 -0.33766,-0.37839 -0.58249,-0.37483 l -0.27147,0.004 -1.62365,-2.07624 c -0.89303,-1.14192 -1.64281,-2.0711 -1.6662,-2.06484 -0.10578,0.0284 -0.36098,0.82791 -0.29411,0.92143 0.0393,0.055 0.71516,0.87773 1.50189,1.82828 l 1.4304,1.72828 0.3734,0.0665 c 0.20538,0.0366 0.45416,0.0355 0.55287,-0.002 0.16801,-0.0645 0.1961,-0.0436 0.44156,0.32861 0.24239,0.36752 0.2766,0.39356 0.45447,0.3459 0.17319,-0.0464 0.18249,-0.0652 0.0933,-0.18873 z m -9.16439,-3.66784 c -0.0492,-0.0358 -0.24895,-0.40705 -0.44392,-0.82501 -0.55491,-1.18948 -0.53728,-1.16844 -1.33644,-1.59505 -0.49058,-0.26189 -0.78229,-0.37423 -0.93107,-0.3586 -0.11914,0.0125 -1.68768,0.27138 -3.48562,0.57524 -1.79794,0.30385 -3.29672,0.53627 -3.33061,0.51649 -0.0339,-0.0198 -0.34819,-0.45611 -0.69844,-0.9696 l -0.63684,-0.93361 0.27876,-0.0552 c 0.15333,-0.0303 2.01943,-0.37879 4.14689,-0.77427 2.12748,-0.39549 3.92409,-0.74959 3.99246,-0.78688 0.58454,-0.31881 9.17677,-4.84362 9.21923,-4.855 0.0844,-0.0226 0.29454,0.84378 0.45438,1.87304 0.0789,0.50784 0.16999,1.02502 0.2025,1.14929 l 0.0582,0.22619 0.51071,-0.18354 0.51072,-0.18354 0.49868,0.62713 c 0.27427,0.34491 0.49275,0.635 0.48555,0.64463 -0.007,0.01 -1.92592,0.99732 -4.26379,2.19486 -3.60602,1.84713 -4.31446,2.23165 -4.67144,2.53549 l -0.4208,0.35816 0.0629,0.41892 c 0.0629,0.41847 -0.002,0.54726 -0.20298,0.40112 l 2e-5,-10e-6 z m -7.15871,-4.58612 c -2.11757,0.35927 -3.87083,0.65651 -3.8961,0.66054 -0.0253,0.004 -0.11067,-0.0913 -0.18978,-0.21195 -0.10996,-0.16759 -0.12851,-0.23555 -0.0797,-0.28815 0.0358,-0.038 0.56542,-0.31887 1.17688,-0.62411 0.61149,-0.30524 4.2148,-2.12535 8.00734,-4.04468 3.79255,-1.91934 6.90433,-3.48399 6.91506,-3.47702 0.0552,0.0359 1.87605,2.34788 1.86215,2.3644 -0.009,0.0107 -0.43874,0.23753 -0.95507,0.50414 -0.51632,0.2666 -2.52865,1.32434 -4.47185,2.35053 -2.93817,1.55162 -3.61617,1.88663 -4.0264,1.98956 -0.27132,0.0681 -2.22589,0.41771 -4.34347,0.77698 l -4e-5,10e-6 z m -5.44852,-0.12178 c -0.13545,-0.18901 -0.44024,-0.72164 -0.6773,-1.18361 -0.23709,-0.46197 -0.46096,-0.8867 -0.49752,-0.94386 -0.0491,-0.0766 -0.0208,-0.12686 0.10781,-0.19149 0.0959,-0.0482 3.97537,-2.05404 8.6211,-4.45749 4.64574,-2.40345 8.52166,-4.40741 8.61314,-4.45324 0.1593,-0.0798 0.17244,-0.0689 0.3097,0.25634 0.14432,0.34199 0.80594,2.75077 0.77189,2.80989 -0.0143,0.0247 -4.03656,2.09114 -5.98232,3.07343 -0.23768,0.11999 -0.35813,0.15224 -0.43559,0.11665 -0.0589,-0.0271 -0.4422,-0.41237 -0.8518,-0.85619 -0.4096,-0.44383 -0.74649,-0.77756 -0.74866,-0.74162 -0.002,0.0359 0.24614,0.39305 0.55177,0.79358 0.30563,0.40053 0.54655,0.74405 0.53538,0.76338 -0.0253,0.0438 -9.87423,5.30507 -9.98819,5.3356 -0.0457,0.0122 -0.19387,-0.13239 -0.32932,-0.3214 z m -1.39681,-2.5597 c -0.04,-0.14923 -2.4e-4,-0.26629 0.16906,-0.49903 0.42207,-0.57992 5.20567,-6.37235 5.38628,-6.52221 0.20444,-0.16964 7.64656,-4.30157 7.73428,-4.29415 0.0741,0.006 4.30925,2.26968 4.29382,2.29477 -0.006,0.0106 -2.13269,1.13753 -4.72482,2.50427 -2.59212,1.36673 -6.4874,3.42341 -8.65613,4.5704 -2.16879,1.14699 -3.9898,2.09791 -4.04674,2.11317 -0.0702,0.0188 -0.12034,-0.035 -0.15575,-0.16722 z"
                       style="fill:#f6e7c1;fill-opacity:1;stroke:#5a5a5a;stroke-opacity:1" />
                  </g>
                  <path
                     style="fill:#5a5a5a;fill-opacity:1;stroke:#5a5a5a;stroke-width:2;stroke-miterlimit:4;stroke-opacity:1;stroke-dasharray:none"
                     d="m 17.48567,603.47897 c -0.54154,0.0954 -1.07476,-0.11433 -1.58315,-0.62272 l -0.47554,-0.47554 -0.20405,0.29105 c -0.11222,0.16008 -0.39195,0.52398 -0.62161,0.80867 l -0.41756,0.5176 -0.61262,-0.20491 c -0.33693,-0.11271 -0.79866,-0.2412 -1.02606,-0.28553 l -0.41346,-0.0806 -0.78127,0.78021 -0.78126,0.7802 -0.68552,-0.68552 -0.68553,-0.68553 0.94273,-0.94273 0.94274,-0.94274 -0.2088,-0.5148 c -0.11485,-0.28313 -0.26382,-0.61773 -0.33107,-0.74355 -0.11991,-0.22435 -0.10747,-0.2415 0.64756,-0.89327 l 0.7698,-0.66452 -0.5325,-0.5325 c -0.45966,-0.45966 -0.53451,-0.58561 -0.54725,-0.92083 -0.01,-0.25626 0.0642,-0.46727 0.21738,-0.62047 l 0.23215,-0.23215 3.14091,3.14305 c 1.72732,1.72884 3.19739,3.2408 3.26638,3.36032 0.14793,0.25624 0.11656,0.30183 -0.25245,0.36682 l 5e-5,0 z m -6.19826,5.43999 c -0.46474,-0.17969 -0.63859,-0.33933 -3.15673,-2.89871 -2.53486,-2.57638 -2.67199,-2.73119 -2.81018,-3.17262 -0.13691,-0.43732 -0.12458,-0.48742 0.21434,-0.86901 l 0.35963,-0.40494 0.31828,0.22941 c 0.17506,0.12618 1.68412,1.63667 3.35345,3.35665 l 3.03517,3.12725 -0.41106,0.41107 -0.41105,0.41105 -0.49184,-0.19016 -10e-6,10e-6 z m 18.57025,-19.96949 c -1.1103,0.30789 -0.98214,0.37292 -2.7512,-1.39614 l -1.56435,-1.56435 -0.006,-0.64713 c -0.005,-0.55797 0.0379,-0.69107 0.31269,-0.96589 0.22039,-0.2204 0.3702,-0.29585 0.48547,-0.24451 0.0917,0.0408 1.08387,0.9914 2.20483,2.11236 l 2.03811,2.03811 -0.0977,0.2611 c -0.0799,0.21371 -0.19277,0.28747 -0.62183,0.40645 z m -0.84747,-3.14853 -1.76004,-1.76004 0.51519,-0.5131 c 0.93742,-0.93364 0.70178,-1.01202 2.56804,0.85424 l 1.61825,1.61825 -0.52194,0.62596 c -0.28707,0.34428 -0.55289,0.69544 -0.5907,0.78035 -0.0592,0.13284 -0.31441,-0.0913 -1.8288,-1.60566 z m -13.79476,13.62613 -1.67572,-1.67572 5.6746,-5.67461 5.6746,-5.67459 1.67572,1.67572 1.67572,1.67572 -5.6746,5.6746 -5.6746,5.67459 -1.67572,-1.67571 z m 8.30244,-8.45478 -0.45702,-0.45701 -3.99888,3.99888 -3.99887,3.99887 0.45701,0.45702 0.45701,0.45702 3.99888,-3.99888 3.99888,-3.99888 -0.45701,-0.45702 z m 7.24007,-6.92738 c -0.33527,-0.33526 -0.42645,-0.48576 -0.37047,-0.61144 0.0408,-0.0917 3.23965,-3.33212 7.10846,-7.20094 l 7.03422,-7.03421 0.81486,-0.37616 c 0.83701,-0.38637 1.42803,-0.7549 2.32872,-1.45203 l 0.51524,-0.3988 -0.40215,0.51188 c -0.22118,0.28153 -2.67864,2.82839 -5.46101,5.65968 -2.78237,2.83129 -6.42333,6.54256 -8.09101,8.24727 l -3.03214,3.09947 -0.44472,-0.44472 z"
                     id="path5511"
                     sodipodi:nodetypes="ccccccccccccccccscccscccscccsscccccccccccccssccccccccccsccccccccccccccccccccsccccccsccc" />
                  <path
                     style="fill:#f6e7c1;fill-opacity:1"
                     d="m 17.48567,603.47897 c -0.54154,0.0954 -1.07476,-0.11433 -1.58315,-0.62272 l -0.47554,-0.47554 -0.20405,0.29105 c -0.11222,0.16008 -0.39195,0.52398 -0.62161,0.80867 l -0.41756,0.5176 -0.61262,-0.20491 c -0.33693,-0.11271 -0.79866,-0.2412 -1.02606,-0.28553 l -0.41346,-0.0806 -0.78127,0.78021 -0.78126,0.7802 -0.68552,-0.68552 -0.68553,-0.68553 0.94273,-0.94273 0.94274,-0.94274 -0.2088,-0.5148 c -0.11485,-0.28313 -0.26382,-0.61773 -0.33107,-0.74355 -0.11991,-0.22435 -0.10747,-0.2415 0.64756,-0.89327 l 0.7698,-0.66452 -0.5325,-0.5325 c -0.45966,-0.45966 -0.53451,-0.58561 -0.54725,-0.92083 -0.01,-0.25626 0.0642,-0.46727 0.21738,-0.62047 l 0.23215,-0.23215 3.14091,3.14305 c 1.72732,1.72884 3.19739,3.2408 3.26638,3.36032 0.14793,0.25624 0.11656,0.30183 -0.25245,0.36682 l 5e-5,0 z m -6.19826,5.43999 c -0.46474,-0.17969 -0.63859,-0.33933 -3.15673,-2.89871 -2.53486,-2.57638 -2.67199,-2.73119 -2.81018,-3.17262 -0.13691,-0.43732 -0.12458,-0.48742 0.21434,-0.86901 l 0.35963,-0.40494 0.31828,0.22941 c 0.17506,0.12618 1.68412,1.63667 3.35345,3.35665 l 3.03517,3.12725 -0.41106,0.41107 -0.41105,0.41105 -0.49184,-0.19016 -10e-6,10e-6 z m 18.57025,-19.96949 c -1.1103,0.30789 -0.98214,0.37292 -2.7512,-1.39614 l -1.56435,-1.56435 -0.006,-0.64713 c -0.005,-0.55797 0.0379,-0.69107 0.31269,-0.96589 0.22039,-0.2204 0.3702,-0.29585 0.48547,-0.24451 0.0917,0.0408 1.08387,0.9914 2.20483,2.11236 l 2.03811,2.03811 -0.0977,0.2611 c -0.0799,0.21371 -0.19277,0.28747 -0.62183,0.40645 z m -0.84747,-3.14853 -1.76004,-1.76004 0.51519,-0.5131 c 0.93742,-0.93364 0.70178,-1.01202 2.56804,0.85424 l 1.61825,1.61825 -0.52194,0.62596 c -0.28707,0.34428 -0.55289,0.69544 -0.5907,0.78035 -0.0592,0.13284 -0.31441,-0.0913 -1.8288,-1.60566 z m -13.79476,13.62613 -1.67572,-1.67572 5.6746,-5.67461 5.6746,-5.67459 1.67572,1.67572 1.67572,1.67572 -5.6746,5.6746 -5.6746,5.67459 -1.67572,-1.67571 z m 8.30244,-8.45478 -0.45702,-0.45701 -3.99888,3.99888 -3.99887,3.99887 0.45701,0.45702 0.45701,0.45702 3.99888,-3.99888 3.99888,-3.99888 -0.45701,-0.45702 z m 7.24007,-6.92738 c -0.33527,-0.33526 -0.42645,-0.48576 -0.37047,-0.61144 0.0408,-0.0917 3.23965,-3.33212 7.10846,-7.20094 l 7.03422,-7.03421 0.81486,-0.37616 c 0.83701,-0.38637 1.42803,-0.7549 2.32872,-1.45203 l 0.51524,-0.3988 -0.40215,0.51188 c -0.22118,0.28153 -2.67864,2.82839 -5.46101,5.65968 -2.78237,2.83129 -6.42333,6.54256 -8.09101,8.24727 l -3.03214,3.09947 -0.44472,-0.44472 z"
                     id="path5511-6"
                     sodipodi:nodetypes="ccccccccccccccccscccscccscccsscccccccccccccssccccccccccsccccccccccccccccccccsccccccsccc" />
                </g>
              </g>
            </g>
          </g>
        </g>
      </g>
    </g>
  </g>
</svg>
