<?xml version="1.0" encoding="UTF-8" standalone="no"?>
<!-- Created with Inkscape (http://www.inkscape.org/) -->

<svg
   xmlns:dc="http://purl.org/dc/elements/1.1/"
   xmlns:cc="http://creativecommons.org/ns#"
   xmlns:rdf="http://www.w3.org/1999/02/22-rdf-syntax-ns#"
   xmlns:svg="http://www.w3.org/2000/svg"
   xmlns="http://www.w3.org/2000/svg"
   xmlns:sodipodi="http://sodipodi.sourceforge.net/DTD/sodipodi-0.dtd"
   xmlns:inkscape="http://www.inkscape.org/namespaces/inkscape"
   width="57"
   height="57"
   id="svg2"
   version="1.1"
   inkscape:version="0.47 r22583"
   sodipodi:docname="beejive-im.svg">
  <title
     id="title2984">Team Fortress 2 WinterBoard: Beejive IM</title>
  <defs
     id="defs4">
    <inkscape:perspective
       sodipodi:type="inkscape:persp3d"
       inkscape:vp_x="0 : 526.18109 : 1"
       inkscape:vp_y="0 : 1000 : 0"
       inkscape:vp_z="744.09448 : 526.18109 : 1"
       inkscape:persp3d-origin="372.04724 : 350.78739 : 1"
       id="perspective10" />
    <inkscape:perspective
       id="perspective2824"
       inkscape:persp3d-origin="0.5 : 0.33333333 : 1"
       inkscape:vp_z="1 : 0.5 : 1"
       inkscape:vp_y="0 : 1000 : 0"
       inkscape:vp_x="0 : 0.5 : 1"
       sodipodi:type="inkscape:persp3d" />
    <inkscape:perspective
       id="perspective2859"
       inkscape:persp3d-origin="0.5 : 0.33333333 : 1"
       inkscape:vp_z="1 : 0.5 : 1"
       inkscape:vp_y="0 : 1000 : 0"
       inkscape:vp_x="0 : 0.5 : 1"
       sodipodi:type="inkscape:persp3d" />
    <inkscape:perspective
       id="perspective2897"
       inkscape:persp3d-origin="0.5 : 0.33333333 : 1"
       inkscape:vp_z="1 : 0.5 : 1"
       inkscape:vp_y="0 : 1000 : 0"
       inkscape:vp_x="0 : 0.5 : 1"
       sodipodi:type="inkscape:persp3d" />
    <inkscape:perspective
       id="perspective2919"
       inkscape:persp3d-origin="0.5 : 0.33333333 : 1"
       inkscape:vp_z="1 : 0.5 : 1"
       inkscape:vp_y="0 : 1000 : 0"
       inkscape:vp_x="0 : 0.5 : 1"
       sodipodi:type="inkscape:persp3d" />
    <inkscape:perspective
       id="perspective2944"
       inkscape:persp3d-origin="0.5 : 0.33333333 : 1"
       inkscape:vp_z="1 : 0.5 : 1"
       inkscape:vp_y="0 : 1000 : 0"
       inkscape:vp_x="0 : 0.5 : 1"
       sodipodi:type="inkscape:persp3d" />
    <inkscape:perspective
       id="perspective4186"
       inkscape:persp3d-origin="0.5 : 0.33333333 : 1"
       inkscape:vp_z="1 : 0.5 : 1"
       inkscape:vp_y="0 : 1000 : 0"
       inkscape:vp_x="0 : 0.5 : 1"
       sodipodi:type="inkscape:persp3d" />
  </defs>
  <sodipodi:namedview
     id="base"
     pagecolor="#ffffff"
     bordercolor="#666666"
     borderopacity="1.0"
     inkscape:pageopacity="0.0"
     inkscape:pageshadow="2"
     inkscape:zoom="11.2"
     inkscape:cx="12.422347"
     inkscape:cy="19.705517"
     inkscape:document-units="px"
     inkscape:current-layer="g2977"
     showgrid="false"
     inkscape:window-width="1920"
     inkscape:window-height="1018"
     inkscape:window-x="-8"
     inkscape:window-y="-8"
     inkscape:window-maximized="1" />
  <metadata
     id="metadata7">
    <rdf:RDF>
      <cc:Work
         rdf:about="">
        <dc:format>image/svg+xml</dc:format>
        <dc:type
           rdf:resource="http://purl.org/dc/dcmitype/StillImage" />
        <dc:title>Team Fortress 2 WinterBoard: Beejive IM</dc:title>
      </cc:Work>
    </rdf:RDF>
  </metadata>
  <g
     inkscape:label="Layer 1"
     inkscape:groupmode="layer"
     id="layer1"
     transform="translate(-502.92857,-554.57647)">
    <g
       id="g2977">
      <path
         inkscape:export-ydpi="349"
         inkscape:export-xdpi="349"
         inkscape:export-filename="C:\Users\Lasse\Documents\My Dropbox\Public\iconmontage.png"
         style="font-size:10.31457615px;font-style:normal;font-variant:normal;font-weight:normal;font-stretch:normal;text-align:start;line-height:125%;writing-mode:lr-tb;text-anchor:start;fill:#f4722b;fill-opacity:1;fill-rule:evenodd;stroke:none;font-family:TF2 Build;-inkscape-font-specification:TF2 Build"
         id="path3774-0-4-5-7-6-37-2-1-7-5-1"
         d="m 514.06453,556.31366 h 34.72807 c 5.18387,0 9.38597,4.20209 9.38597,9.38596 v 34.72807 c 0,5.18386 -4.2021,9.38597 -9.38597,9.38597 h -34.72807 c -5.18386,0 -9.38596,-4.2021 -9.38596,-9.38597 v -34.72807 c 0,-5.18386 4.2021,-9.38596 9.38596,-9.38596 z"
         clip-rule="evenodd" />
      <path
         inkscape:export-ydpi="349"
         inkscape:export-xdpi="349"
         inkscape:export-filename="C:\Users\Lasse\Documents\My Dropbox\Public\iconmontage.png"
         style="font-size:10.31457615px;font-style:normal;font-variant:normal;font-weight:normal;font-stretch:normal;text-align:start;line-height:125%;writing-mode:lr-tb;text-anchor:start;fill:#89411d;fill-opacity:1;fill-rule:evenodd;stroke:none;font-family:TF2 Build;-inkscape-font-specification:TF2 Build"
         d="m 512.92857,554.57647 c -5.523,0 -10,4.477 -10,10 l 0,37 c 0,5.52301 4.477,10 10,10 l 37,0 c 5.523,0 10,-4.47699 10,-10 l 0,-37 c 0,-5.523 -4.477,-10 -10,-10 l -37,0 z m 2.875,4.40625 31.25,0 c 4.66771,0 8.46875,3.76979 8.46875,8.4375 l 0,31.28125 c 0,4.66772 -3.80104,8.4375 -8.46875,8.4375 l -31.25,0 c -4.66771,0 -8.46875,-3.76978 -8.46875,-8.4375 l 0,-31.28125 c 0,-4.66771 3.80104,-8.4375 8.46875,-8.4375 z"
         id="path3774-0-4-5-7-6-3-88-9-1-4-7-3" />
      <g
         id="g2417"
         transform="matrix(0.76843022,0,0,0.76843022,512.98391,568.03174)">
        <path
           style="fill:#000000;fill-opacity:1;stroke:none"
           d="m 42.84375,24.03125 c -1.250013,0 -2.399216,0.552309 -3.15625,1.4375 l 0.875,0.96875 c 0.51966,-0.692326 1.340908,-1.15625 2.28125,-1.15625 1.582433,7e-6 2.84375,1.261321 2.84375,2.84375 2e-6,1.035716 -0.554455,1.937015 -1.375,2.4375 l 0.497768,1.116071 c 0.04103,-0.02852 0.427504,-0.23632 0.467449,-0.266246 1.003629,-0.751908 1.659786,-1.942712 1.659783,-3.287325 -4e-6,-2.260397 -1.833349,-4.093745 -4.09375,-4.09375 z"
           transform="matrix(1.3013543,0,0,1.3013543,-13.08556,-17.510074)"
           id="path3855"
           sodipodi:nodetypes="cccssccssc" />
        <path
           style="fill:#000000;fill-opacity:1;stroke:none"
           d="M 14.15625 24.03125 C 11.89585 24.031255 10.062505 25.864603 10.0625 28.125 C 10.062497 29.645722 10.891794 30.975029 12.125 31.6875 L 12.90625 30.71875 C 11.952638 30.257378 11.312498 29.259505 11.3125 28.125 C 11.312501 26.542571 12.573818 25.281257 14.15625 25.28125 C 15.087125 25.28125 15.916884 25.725864 16.4375 26.40625 L 17.25 25.40625 C 16.494108 24.560467 15.37385 24.03125 14.15625 24.03125 z "
           transform="matrix(1.3013543,0,0,1.3013543,-13.08556,-17.510074)"
           id="path3862" />
        <path
           style="fill:none;fill-opacity:1;stroke:#000000;stroke-width:1.61406052000000000;stroke-miterlimit:4;stroke-opacity:1;stroke-dasharray:none;stroke-dashoffset:0"
           id="path3334"
           d="m 44.657284,25.430268 c 0,7.455043 -9.310323,13.498547 -20.795187,13.498547 -11.484865,0 -20.7951863,-6.043504 -20.7951863,-13.498547 0,-7.455043 9.3103213,-13.498548 20.7951863,-13.498548 11.484864,0 20.795187,6.043505 20.795187,13.498548 z" />
        <path
           style="fill:none;stroke:#000000;stroke-width:1.61406052;stroke-linecap:butt;stroke-linejoin:miter;stroke-miterlimit:4;stroke-opacity:1;stroke-dasharray:none"
           id="path3845"
           d="m 23.94826,11.928743 3.69568,-10.9239986 8.773651,2.002438" />
        <path
           style="fill:#ff4302;fill-opacity:1;stroke:none"
           id="path3849"
           d="m 20.089533,22.744042 c 0,1.81595 -1.472118,3.288069 -3.288069,3.288069 -1.815949,0 -3.288069,-1.472119 -3.288069,-3.288069 0,-1.81595 1.47212,-3.288069 3.288069,-3.288069 1.815951,0 3.288069,1.472119 3.288069,3.288069 z" />
        <path
           style="fill:#ff4302;fill-opacity:1;stroke:none"
           id="path3851"
           d="m 34.573338,22.744042 c 0,1.81595 -1.47212,3.288069 -3.28807,3.288069 -1.815949,0 -3.288069,-1.472119 -3.288069,-3.288069 0,-1.81595 1.47212,-3.288069 3.288069,-3.288069 1.81595,0 3.28807,1.472119 3.28807,3.288069 z" />
        <path
           style="fill:none;fill-opacity:1;stroke:#000000;stroke-width:1.56638479000000010;stroke-miterlimit:4;stroke-opacity:1;stroke-dasharray:none;stroke-dashoffset:0"
           id="path3853"
           d="m 44.096594,3.8852076 c 0,2.0328639 -1.64796,3.6808247 -3.680824,3.6808247 -2.032863,0 -3.680824,-1.6479608 -3.680824,-3.6808247 0,-2.032863 1.647961,-3.68082426 3.680824,-3.68082426 2.032864,0 3.680824,1.64796126 3.680824,3.68082426 z" />
        <path
           style="fill:#000000;fill-opacity:1;fill-rule:evenodd;stroke:none"
           id="path3864"
           d="m 17.188176,30.708364 c -0.776547,-0.600887 -1.946348,0.666116 -1.162509,1.285485 1.997523,1.613808 4.68544,2.456232 7.677355,2.556555 2.991915,0.100325 6.105165,-0.648469 8.426742,-2.622847 0.648416,-0.735121 -0.196658,-1.89296 -1.116391,-1.311426 -1.900408,1.616197 -4.59503,2.308579 -7.256547,2.219335 -2.661518,-0.08924 -4.965308,-0.831754 -6.56865,-2.127102 z" />
      </g>
    </g>
  </g>
</svg>
