<?xml version="1.0" encoding="UTF-8" standalone="no"?>
<!-- Created with Inkscape (http://www.inkscape.org/) -->

<svg
   xmlns:svg="http://www.w3.org/2000/svg"
   xmlns="http://www.w3.org/2000/svg"
   version="1.2"
   width="57"
   height="57"
   id="svg4691">
  <title
     id="title4746">Team Fortress 2 WinterBoard: Calendar</title>
  <defs
     id="defs4693" />
  <g
     transform="translate(-334.35714,-455.29075)"
     id="layer1">
    <g
       transform="translate(54.971573,163.32366)"
       id="g3181">
      <path
         d="m 289.38557,291.96709 h 37 c 5.523,0 10,4.477 10,10 v 37 c 0,5.52299 -4.477,10 -10,10 h -37 c -5.523,0 -10,-4.47701 -10,-10 v -37 c 0,-5.523 4.477,-10 10,-10 z"
         id="path3774-8"
         style="fill:#5a5a5a;fill-rule:evenodd;stroke-width:0.5;stroke-miterlimit:4;stroke-dasharray:none" />
      <path
         d="m 287.92557,297.5736 39.92,0 c 2.736,0 4.9386,2.23 4.9386,5 l 0,38.11793 c 0,2.77 -2.2026,5 -4.9386,5 l -39.92,0 c -2.736,0 -4.9386,-2.23 -4.9386,-5 l 0,-38.11793 c 0,-2.77 2.2026,-5 4.9386,-5 z"
         id="rect4502-2-7"
         style="fill:#f6e7c1;fill-opacity:1;stroke:none" />
      <path
         d="m 287.92557,295.29672 39.92,0 c 2.736,0 4.9386,2.23 4.9386,5 l 0,8.94978 c -4.019,0 -33.7679,0 -49.7972,0 l 0,-8.94978 c 0,-2.77 2.2026,-5 4.9386,-5 z"
         id="rect4502-5"
         style="fill:#f4722b;fill-opacity:1;stroke:none" />
      <g
         id="text4536-8"
         style="font-size:10.31457615px;font-style:normal;font-variant:normal;font-weight:normal;font-stretch:normal;text-align:start;line-height:125%;writing-mode:lr-tb;text-anchor:start;fill:#ffffff;fill-opacity:1;stroke:none;font-family:TF2 Build;-inkscape-font-specification:TF2 Build">
        <path
           d="m 291.12191,305.90286 -1.94909,-0.0403 0.10073,-7.23229 5.74655,0.1662 -0.0403,1.72246 -3.84782,-0.10577 0,2.4477 2.26135,0 -0.0101,0.96699 -2.25127,-0.0202 z"
           id="path4729" />
        <path
           d="m 300.64577,302.27161 c -0.10745,0.1108 -0.23084,0.20733 -0.37017,0.28959 -0.13935,0.0823 -0.28457,0.15278 -0.43565,0.21153 -0.1511,0.0588 -0.30471,0.10577 -0.46084,0.14102 -0.15613,0.0353 -0.3047,0.0613 -0.44572,0.0781 l 1.9088,1.92894 -0.9821,0.88137 -2.31171,-2.62397 0.0554,2.62397 -1.86851,0.10073 -0.19642,-7.16681 1.96924,-0.10577 c 0.24174,10e-6 0.53469,0.008 0.87885,0.0252 0.34415,0.0168 0.73951,0.0739 1.18608,0.17124 0.19809,0.0437 0.38947,0.12424 0.57415,0.24175 0.18466,0.11752 0.35002,0.25938 0.49608,0.42558 0.14605,0.1662 0.26609,0.35255 0.36011,0.55904 0.094,0.2065 0.14941,0.42054 0.1662,0.64214 0.0101,0.14774 0.0126,0.28708 0.008,0.41802 -0.005,0.13095 -0.0252,0.26022 -0.0604,0.38781 -0.0353,0.12759 -0.0898,0.25434 -0.16369,0.38025 -0.0739,0.12591 -0.17628,0.25602 -0.30722,0.39032 z m -1.17852,-1.0929 c -0.0235,-0.19474 -0.0831,-0.35507 -0.17879,-0.48098 -0.0957,-0.12591 -0.22664,-0.22328 -0.39284,-0.29211 -0.16621,-0.0688 -0.36514,-0.1108 -0.59682,-0.12591 -0.23167,-0.0151 -0.49525,-0.0109 -0.79071,0.0126 l 0,1.87858 c 0.047,0 0.13094,0.005 0.25182,0.0151 0.12087,0.0101 0.25685,0.0143 0.40795,0.0126 0.15109,-0.002 0.30721,-0.0159 0.46838,-0.0428 0.16117,-0.0269 0.30638,-0.0772 0.43565,-0.15109 0.12927,-0.0739 0.23167,-0.17627 0.30722,-0.30722 0.0755,-0.13095 0.10493,-0.30386 0.0881,-0.51875 z"
           id="path4731" />
        <path
           d="m 304.05542,305.94315 -1.97931,-0.10072 0.29715,-7.22222 1.97931,0.10576 z"
           id="path4733" />
        <path
           d="m 311.59494,301.50104 c 0.0839,0.4432 0.0957,0.85703 0.0353,1.24147 -0.0604,0.38445 -0.17628,0.73448 -0.34751,1.0501 -0.17125,0.31561 -0.39285,0.59681 -0.66481,0.84359 -0.27197,0.24679 -0.57919,0.45664 -0.92166,0.62956 -0.34248,0.17291 -0.7135,0.30806 -1.11305,0.40543 -0.39956,0.0974 -0.81254,0.15445 -1.23896,0.17124 -0.49693,0.0269 -0.90823,0.042 -1.23392,0.0453 -0.32569,0.003 -0.58758,0.002 -0.78568,-0.005 -0.23167,-0.007 -0.41131,-0.0202 -0.5389,-0.0403 l -0.10072,-7.05602 c 0.20481,-0.0235 0.42054,-0.0445 0.64718,-0.063 0.22663,-0.0185 0.4474,-0.0336 0.66228,-0.0453 0.21489,-0.0118 0.41467,-0.021 0.59934,-0.0277 0.18466,-0.007 0.33911,-0.0101 0.46335,-0.0101 0.21488,10e-6 0.46418,0.009 0.74791,0.0277 0.28371,0.0185 0.58002,0.0596 0.88892,0.1234 0.3089,0.0638 0.6178,0.15781 0.9267,0.28203 0.3089,0.12424 0.59597,0.29212 0.86123,0.50365 0.26524,0.21153 0.49608,0.47426 0.69251,0.7882 0.19641,0.31394 0.33659,0.69251 0.42054,1.13571 z m -5.13715,2.97652 c 0.51372,0.0336 0.97455,0.0143 1.3825,-0.0579 0.40795,-0.0722 0.75126,-0.19558 1.02995,-0.37018 0.27867,-0.17459 0.48685,-0.39871 0.62451,-0.67236 0.13766,-0.27364 0.19474,-0.59345 0.17124,-0.95944 -0.0134,-0.23502 -0.0604,-0.44152 -0.14102,-0.61947 -0.0806,-0.17795 -0.18383,-0.33156 -0.30974,-0.46084 -0.12591,-0.12926 -0.27029,-0.23586 -0.43313,-0.31981 -0.16285,-0.0839 -0.33241,-0.15025 -0.50868,-0.19894 -0.17628,-0.0487 -0.35675,-0.0831 -0.54141,-0.10324 -0.18467,-0.0201 -0.36095,-0.0294 -0.52883,-0.0277 -0.16788,0.002 -0.32401,0.0109 -0.46838,0.0277 -0.14438,0.0168 -0.26693,0.0369 -0.36766,0.0604 z"
           id="path4735" />
        <path
           d="m 316.86303,303.84801 -2.24121,0 -0.68999,2.05485 -1.75267,-0.48349 2.63908,-6.73873 1.45553,0.0957 2.73477,6.53726 -1.36487,0.49861 z m -0.39284,-0.87634 -0.87634,-2.04982 -0.67992,2.04982 z"
           id="path4737" />
        <path
           d="m 324.20612,302.37737 0.19642,3.4852 -1.798,0.10073 -0.2065,-3.39454 -2.88586,-2.88587 1.29939,-1.10297 2.58872,2.79521 2.09515,-2.69449 1.10297,0.80583 z"
           id="path4739" />
      </g>
      <g
         transform="matrix(0.92488825,0,0,0.92488825,291.37847,286.01768)"
         id="flowRoot4540-2"
         style="font-size:40px;font-style:normal;font-weight:normal;fill:#1a1a1a;fill-opacity:1;stroke:none;font-family:Bitstream Vera Sans">
        <path
           d="M 11.226563,30.84375 10.09375,57.035156 3.3359375,56.683594 4.0195312,38.402344 2.2617188,40.199219 -0.98046875,36.3125 4.9765625,30.433594 z"
           id="path4742"
           style="fill:#1a1a1a;font-family:TF2 Build;-inkscape-font-specification:TF2 Build" />
        <path
           d="m 36.675781,44.886719 0,4.589843 -4.238281,0 0,7.714844 -5.625,0 0,-7.597656 -12.929687,0 -0.03906,-4.042969 12.753906,-15.273437 5.839844,0 0.117187,14.609375 z m -14.628906,0.351562 5.15625,0.03906 0.234375,-6.835938 z"
           id="path4744"
           style="fill:#1a1a1a;font-family:TF2 Build;-inkscape-font-specification:TF2 Build" />
      </g>
    </g>
  </g>
</svg>
