<?xml version="1.0" encoding="UTF-8" standalone="no"?>
<!-- Created with Inkscape (http://www.inkscape.org/) -->

<svg
   xmlns:dc="http://purl.org/dc/elements/1.1/"
   xmlns:cc="http://creativecommons.org/ns#"
   xmlns:rdf="http://www.w3.org/1999/02/22-rdf-syntax-ns#"
   xmlns:svg="http://www.w3.org/2000/svg"
   xmlns="http://www.w3.org/2000/svg"
   xmlns:sodipodi="http://sodipodi.sourceforge.net/DTD/sodipodi-0.dtd"
   xmlns:inkscape="http://www.inkscape.org/namespaces/inkscape"
   width="57"
   height="57"
   id="svg4691"
   version="1.1"
   inkscape:version="0.47 r22583"
   sodipodi:docname="photos.svg">
  <title
     id="title4746">Team Fortress 2 WinterBoard: Clock</title>
  <defs
     id="defs4693">
    <inkscape:perspective
       sodipodi:type="inkscape:persp3d"
       inkscape:vp_x="0 : 526.18109 : 1"
       inkscape:vp_y="0 : 1000 : 0"
       inkscape:vp_z="744.09448 : 526.18109 : 1"
       inkscape:persp3d-origin="372.04724 : 350.78739 : 1"
       id="perspective4699" />
    <inkscape:perspective
       id="perspective4677"
       inkscape:persp3d-origin="0.5 : 0.33333333 : 1"
       inkscape:vp_z="1 : 0.5 : 1"
       inkscape:vp_y="0 : 1000 : 0"
       inkscape:vp_x="0 : 0.5 : 1"
       sodipodi:type="inkscape:persp3d" />
    <inkscape:perspective
       id="perspective4756"
       inkscape:persp3d-origin="0.5 : 0.33333333 : 1"
       inkscape:vp_z="1 : 0.5 : 1"
       inkscape:vp_y="0 : 1000 : 0"
       inkscape:vp_x="0 : 0.5 : 1"
       sodipodi:type="inkscape:persp3d" />
    <inkscape:perspective
       id="perspective4808"
       inkscape:persp3d-origin="0.5 : 0.33333333 : 1"
       inkscape:vp_z="1 : 0.5 : 1"
       inkscape:vp_y="0 : 1000 : 0"
       inkscape:vp_x="0 : 0.5 : 1"
       sodipodi:type="inkscape:persp3d" />
  </defs>
  <sodipodi:namedview
     id="base"
     pagecolor="#ffffff"
     bordercolor="#666666"
     borderopacity="1.0"
     inkscape:pageopacity="0.0"
     inkscape:pageshadow="2"
     inkscape:zoom="7.9195959"
     inkscape:cx="-6.7877246"
     inkscape:cy="29.732009"
     inkscape:document-units="px"
     inkscape:current-layer="text4536-8"
     showgrid="false"
     inkscape:window-width="1920"
     inkscape:window-height="1018"
     inkscape:window-x="-8"
     inkscape:window-y="-8"
     inkscape:window-maximized="1" />
  <metadata
     id="metadata4696">
    <rdf:RDF>
      <cc:Work
         rdf:about="">
        <dc:format>image/svg+xml</dc:format>
        <dc:type
           rdf:resource="http://purl.org/dc/dcmitype/StillImage" />
        <dc:title>Team Fortress 2 WinterBoard: Clock</dc:title>
      </cc:Work>
    </rdf:RDF>
  </metadata>
  <g
     inkscape:label="Layer 1"
     inkscape:groupmode="layer"
     id="layer1"
     transform="translate(-334.35714,-455.29075)">
    <g
       id="g3181"
       transform="translate(54.971573,163.32366)"
       inkscape:export-filename="C:\Users\Lasse\Documents\My Dropbox\Public\iconmontage.png"
       inkscape:export-xdpi="349.72098"
       inkscape:export-ydpi="349.72098">
      <g
         style="font-size:10.31457615px;font-style:normal;font-variant:normal;font-weight:normal;font-stretch:normal;text-align:start;line-height:125%;writing-mode:lr-tb;text-anchor:start;fill:#ffffff;fill-opacity:1;stroke:none;font-family:TF2 Build;-inkscape-font-specification:TF2 Build"
         id="text4536-8">
        <g
           id="g3212"
           transform="translate(-172.3962,75.6049)"
           inkscape:export-filename="C:\Users\Lasse\Documents\My Dropbox\Public\iconmontage.png"
           inkscape:export-xdpi="349.72098"
           inkscape:export-ydpi="349.72098">
          <path
             inkscape:export-ydpi="90"
             inkscape:export-xdpi="90"
             inkscape:export-filename="C:\Users\Lasse\Documents\My Dropbox\Projects\tf2_iphone\clock_57x57.png"
             style="fill:#5a5a5a;fill-opacity:1;fill-rule:evenodd"
             id="path3774-0-3"
             d="m 461.78177,216.36219 h 37 c 5.523,0 10,4.477 10,10 v 37 c 0,5.523 -4.477,10 -10,10 h -37 c -5.523,0 -10,-4.477 -10,-10 v -37 c 0,-5.523 4.477,-10 10,-10 z"
             clip-rule="evenodd" />
          <path
             inkscape:export-ydpi="90"
             inkscape:export-xdpi="90"
             inkscape:export-filename="C:\Users\Lasse\Documents\My Dropbox\Projects\tf2_iphone\clock_57x57.png"
             sodipodi:nodetypes="ccccssscccc"
             id="path2895-4"
             d="m 481.06227,240.14547 1.5034,-2.23083 0.3607,-3.16033 c 0.1985,-1.73819 0.3617,-3.28238 0.3628,-3.43155 l 0,-0.27123 -0.492,-0.0857 c -0.2706,-0.0471 -0.5107,-0.0671 -0.5334,-0.0443 -0.047,0.0465 -2.7594,11.24691 -2.764,11.41141 0,0.0579 0.012,0.0914 0.027,0.0743 0.016,-0.017 0.7066,-1.03485 1.5334,-2.26181 l -1e-4,0 z"
             style="fill:#f4722b;fill-opacity:1" />
          <path
             inkscape:export-ydpi="90"
             inkscape:export-xdpi="90"
             inkscape:export-filename="C:\Users\Lasse\Documents\My Dropbox\Projects\tf2_iphone\clock_57x57.png"
             sodipodi:nodetypes="cssssssscsccccscssssssscccccccccccccccccccsccccccccsccscssssssssssssssscccccssccccccccccccccccccccccccccccsccccccccccccccccccc"
             id="path2895"
             d="m 482.77397,262.2209 c 3.759,-0.46437 7.4731,-2.296 10.2295,-5.04482 2.89,-2.88211 4.6546,-6.51312 5.1688,-10.63603 0.1181,-0.9466 0.1202,-3.20857 0,-4.12702 -0.7788,-6.14798 -4.4514,-11.37199 -9.8492,-14.00996 -1.6562,-0.80938 -3.0879,-1.27186 -4.9953,-1.61358 -1.2546,-0.22477 -3.8598,-0.27947 -5.1681,-0.10849 -7.9502,1.03899 -14.1282,6.93891 -15.4612,14.76534 -0.3475,2.04014 -0.3469,3.89987 0,6.01082 1.2621,7.64091 7.3382,13.59167 15.0505,14.74009 1.5546,0.23149 3.2714,0.23959 5.0193,0.0237 l 1e-4,0 10e-5,0 z m -3.495,-2.90177 c -2.1078,-0.19732 -3.8353,-0.68019 -5.6143,-1.56924 -3.5135,-1.75597 -6.2089,-4.87971 -7.427,-8.60721 -0.5304,-1.62306 -0.7255,-2.88073 -0.7266,-4.68473 0,-2.39919 0.4589,-4.41461 1.4951,-6.54376 0.7493,-1.53978 1.5023,-2.59479 2.7786,-3.89295 1.2534,-1.27492 2.4713,-2.15568 4.0368,-2.91938 4.5912,-2.23967 9.9312,-1.98758 14.3427,0.67709 2.2806,1.37751 4.2924,3.57091 5.4925,5.98808 1.7869,3.59904 2.0791,7.59034 0.8328,11.37565 -1.8496,5.61774 -6.7692,9.53377 -12.746,10.14577 -0.7163,0.0733 -1.8572,0.0875 -2.4646,0.0307 z m 1.6359,-1.88521 0,-1.04105 -0.2788,-8.5e-4 c -0.1534,-4.4e-4 -0.4043,-0.0215 -0.5577,-0.0469 l -0.2789,-0.0461 0,1.08796 0,1.08796 0.5577,0 0.5577,0 0,-1.04105 0,0 0,10e-6 z m -9.2205,-3.45801 0.7784,-0.78101 -0.3895,-0.38951 -0.3896,-0.38951 -0.7975,0.79753 -0.7975,0.79753 0.3674,0.37299 c 0.202,0.20515 0.3859,0.373 0.4087,0.373 0.023,0 0.3915,-0.35146 0.8196,-0.78102 z m 18.6283,0.40804 0.3674,-0.37297 -0.7232,-0.72317 -0.7231,-0.72317 -0.3894,0.38943 -0.3895,0.38942 0.7038,0.70672 c 0.3871,0.38869 0.7224,0.70672 0.7452,0.70672 0.023,0 0.2068,-0.16785 0.4088,-0.37298 z m -8.6541,-5.79678 c 1.0855,-0.33707 2.1187,-1.22146 2.6258,-2.24756 0.3337,-0.67511 0.5133,-1.59943 0.4452,-2.29065 -0.054,-0.55329 -0.3177,-1.40676 -0.5611,-1.81918 -0.1931,-0.32733 -0.186,-0.3326 -0.6363,0.47157 -0.2413,0.43087 -0.2584,0.49885 -0.1873,0.74361 0.2262,0.77857 0.1606,1.56712 -0.1925,2.3143 -0.2653,0.56134 -0.8656,1.14193 -1.4834,1.43453 -0.4721,0.22365 -0.555,0.23859 -1.3232,0.23859 -0.7782,0 -0.8449,-0.0125 -1.3221,-0.24741 -1.9079,-0.93926 -2.3825,-3.34674 -0.9695,-4.91828 0.1868,-0.2079 0.4838,-0.46237 0.6597,-0.56547 0.3112,-0.18236 0.3222,-0.20206 0.4059,-0.72311 0.047,-0.29461 0.1041,-0.59876 0.1259,-0.6759 0.034,-0.12161 0.012,-0.13336 -0.1728,-0.0883 -0.7182,0.17546 -1.6775,0.83868 -2.176,1.5043 -0.6868,0.9169 -0.9439,1.78676 -0.8818,2.98249 0.104,2.00495 1.5844,3.67292 3.5772,4.03071 0.5391,0.0968 1.508,0.0291 2.0664,-0.14426 z m 1.1158,-5.59785 3.5379,-7.48332 -0.483,-0.27014 c -0.2694,-0.15064 -0.5099,-0.24129 -0.5436,-0.20493 -0.1395,0.1504 -6.1654,8.8561 -6.1654,8.91682 0,0.062 2.2758,1.42355 2.3979,1.43466 0.031,0.003 0.5958,-1.07411 1.2562,-2.39309 z m -14.0646,1.46863 0,-0.55771 -1.1154,0 -1.1155,0 0,0.55771 0,0.55771 1.1155,0 1.1154,0 0,-0.55771 z m 25.8032,0 0,-0.55771 -1.0782,0 -1.0783,0 0,0.55771 0,0.55771 1.0783,0 1.0782,0 0,-0.55771 z m -22.8448,-9.45989 -0.8354,-0.83775 -0.3551,0.34975 c -0.1953,0.19235 -0.3551,0.38392 -0.3551,0.42569 0,0.0418 0.3589,0.43597 0.7976,0.876 l 0.7976,0.80006 0.3929,-0.388 0.3928,-0.38801 -0.8353,-0.83774 z m 18.6439,-0.39244 c -0.2025,-0.20553 -0.3923,-0.36501 -0.4218,-0.3544 -0.03,0.0107 -0.375,0.33467 -0.7676,0.72012 l -0.7138,0.70082 0.3922,0.39705 0.3921,0.39705 0.7435,-0.74348 0.7434,-0.74348 -0.368,-0.37368 z m -9.4072,-3.04928 0,-1.11541 -0.5577,0 -0.5577,0 0,1.11541 0,1.11541 0.5577,0 0.5577,0 0,-1.11541 z"
             style="fill:#f6e7c1;fill-opacity:1" />
          <path
             inkscape:export-ydpi="90"
             inkscape:export-xdpi="90"
             inkscape:export-filename="C:\Users\Lasse\Documents\My Dropbox\Projects\tf2_iphone\clock_57x57.png"
             sodipodi:nodetypes="ccsc"
             id="path2899"
             d="m 472.27177,227.11635 c -7.2635,2.57427 -8.8744,6.81046 -10.7368,10.73677 -2.9649,-2.96487 -2.9649,-7.77189 0,-10.73677 2.9649,-2.96488 7.7719,-2.96488 10.7368,0 z"
             style="fill:#f6e7c1;fill-opacity:1;stroke:none" />
          <path
             inkscape:export-ydpi="90"
             inkscape:export-xdpi="90"
             inkscape:export-filename="C:\Users\Lasse\Documents\My Dropbox\Projects\tf2_iphone\clock_57x57.png"
             sodipodi:nodetypes="ccsc"
             id="path2899-1"
             d="m 487.97607,227.11635 c 7.2635,2.57427 8.8744,6.81046 10.7368,10.73677 2.9649,-2.96487 2.9649,-7.77189 0,-10.73677 -2.9649,-2.96488 -7.7719,-2.96488 -10.7368,0 z"
             style="fill:#f6e7c1;fill-opacity:1;stroke:none" />
          <path
             inkscape:export-ydpi="90"
             inkscape:export-xdpi="90"
             inkscape:export-filename="C:\Users\Lasse\Documents\My Dropbox\Projects\tf2_iphone\clock_57x57.png"
             inkscape:transform-center-y="-5.4507663"
             inkscape:transform-center-x="2.330326"
             sodipodi:nodetypes="cccscccc"
             id="rect3700"
             d="m 469.74417,259.38914 c 0.048,0.40309 -0.1118,0.93048 -0.4628,1.40968 l -2.5015,2.82026 c -0.5691,0.64151 -1.0649,1.29458 -1.5112,0.96767 -0.4463,-0.3269 -0.065,-1.06239 0.3924,-1.78724 l 2.0092,-3.18086 c 0.3528,-0.48156 0.8102,-0.79358 1.2103,-0.86754 0.069,0.16933 0.7117,0.62515 0.8636,0.63804 z"
             style="fill:#f6e7c1;fill-opacity:1;stroke:none" />
          <path
             inkscape:export-ydpi="90"
             inkscape:export-xdpi="90"
             inkscape:export-filename="C:\Users\Lasse\Documents\My Dropbox\Projects\tf2_iphone\clock_57x57.png"
             inkscape:transform-center-y="-5.4507663"
             inkscape:transform-center-x="-2.3303262"
             sodipodi:nodetypes="cccscccc"
             id="rect3700-7"
             d="m 490.87877,259.38914 c -0.048,0.40309 0.1118,0.93048 0.4629,1.40968 l 2.5015,2.82026 c 0.569,0.64151 1.0649,1.29458 1.5111,0.96767 0.4463,-0.3269 0.065,-1.06239 -0.3923,-1.78724 l -2.0093,-3.18086 c -0.3527,-0.48156 -0.8101,-0.79358 -1.2103,-0.86754 -0.069,0.16933 -0.7117,0.62515 -0.8636,0.63804 z"
             style="fill:#f6e7c1;fill-opacity:1;stroke:none" />
        </g>
      </g>
    </g>
  </g>
</svg>
