<?xml version="1.0" encoding="UTF-8" standalone="no"?>
<!-- Created with Inkscape (http://www.inkscape.org/) -->

<svg
   xmlns:dc="http://purl.org/dc/elements/1.1/"
   xmlns:cc="http://creativecommons.org/ns#"
   xmlns:rdf="http://www.w3.org/1999/02/22-rdf-syntax-ns#"
   xmlns:svg="http://www.w3.org/2000/svg"
   xmlns="http://www.w3.org/2000/svg"
   xmlns:xlink="http://www.w3.org/1999/xlink"
   xmlns:sodipodi="http://sodipodi.sourceforge.net/DTD/sodipodi-0.dtd"
   xmlns:inkscape="http://www.inkscape.org/namespaces/inkscape"
   width="57"
   height="57"
   id="svg4691"
   version="1.1"
   inkscape:version="0.47 r22583"
   sodipodi:docname="appstore.svg">
  <title
     id="title4746">Team Fortress 2 WinterBoard: Cydia</title>
  <defs
     id="defs4693">
    <inkscape:perspective
       sodipodi:type="inkscape:persp3d"
       inkscape:vp_x="0 : 526.18109 : 1"
       inkscape:vp_y="0 : 1000 : 0"
       inkscape:vp_z="744.09448 : 526.18109 : 1"
       inkscape:persp3d-origin="372.04724 : 350.78739 : 1"
       id="perspective4699" />
    <inkscape:perspective
       id="perspective4677"
       inkscape:persp3d-origin="0.5 : 0.33333333 : 1"
       inkscape:vp_z="1 : 0.5 : 1"
       inkscape:vp_y="0 : 1000 : 0"
       inkscape:vp_x="0 : 0.5 : 1"
       sodipodi:type="inkscape:persp3d" />
    <inkscape:perspective
       id="perspective4756"
       inkscape:persp3d-origin="0.5 : 0.33333333 : 1"
       inkscape:vp_z="1 : 0.5 : 1"
       inkscape:vp_y="0 : 1000 : 0"
       inkscape:vp_x="0 : 0.5 : 1"
       sodipodi:type="inkscape:persp3d" />
    <inkscape:perspective
       id="perspective4851"
       inkscape:persp3d-origin="0.5 : 0.33333333 : 1"
       inkscape:vp_z="1 : 0.5 : 1"
       inkscape:vp_y="0 : 1000 : 0"
       inkscape:vp_x="0 : 0.5 : 1"
       sodipodi:type="inkscape:persp3d" />
    <inkscape:perspective
       id="perspective4900"
       inkscape:persp3d-origin="0.5 : 0.33333333 : 1"
       inkscape:vp_z="1 : 0.5 : 1"
       inkscape:vp_y="0 : 1000 : 0"
       inkscape:vp_x="0 : 0.5 : 1"
       sodipodi:type="inkscape:persp3d" />
    <linearGradient
       inkscape:collect="always"
       xlink:href="#linearGradient5030"
       id="linearGradient5129"
       gradientUnits="userSpaceOnUse"
       x1="410.35025"
       y1="314.85373"
       x2="414.24854"
       y2="310.50735" />
    <linearGradient
       inkscape:collect="always"
       id="linearGradient5030">
      <stop
         style="stop-color:#ffffff;stop-opacity:1;"
         offset="0"
         id="stop5032" />
      <stop
         style="stop-color:#ffffff;stop-opacity:0;"
         offset="1"
         id="stop5034" />
    </linearGradient>
    <clipPath
       clipPathUnits="userSpaceOnUse"
       id="clipPath4221">
      <path
         clip-path="none"
         id="path4223"
         d="m 350.71619,7.5327627 0.5,6.2500013 c 0.1259,0.21284 0.27878,0.40676 0.375,0.625 0.10068,0.22831 0.0565,0.48536 0.125,0.71875 0.0478,0.54251 0.18749,1.07147 0.1875,1.625 0,0.29868 -0.0797,0.5794 -0.0937,0.875 -0.0781,0.36206 -0.0642,0.71205 -0.21875,1.0625 -0.30449,0.69059 -0.76544,1.36528 -1.34375,2 -0.57829,0.63471 -1.27235,1.21667 -2.09375,1.78125 -0.8214,0.56457 -1.77873,1.11357 -2.8125,1.59375 -1.03379,0.48018 -2.15952,0.89973 -3.375,1.28125 -1.21549,0.38152 -2.50851,0.73138 -3.875,1 -1.36649,0.26861 -2.79445,0.48356 -4.28125,0.625 -1.48678,0.14143 -3.01736,0.1875 -4.59375,0.1875 -1.57639,0 -3.13821,-0.04608 -4.625,-0.1875 -1.48679,-0.14143 -2.91476,-0.3564 -4.28125,-0.625 -1.36648,-0.26861 -2.65952,-0.61848 -3.875,-1 -1.21548,-0.38152 -2.34123,-0.80108 -3.375,-1.28125 -1.03379,-0.48018 -1.99111,-1.02918 -2.8125,-1.59375 -0.82139,-0.56457 -1.51547,-1.14655 -2.09375,-1.78125 -0.57829,-0.63471 -1.03923,-1.30942 -1.34375,-2 -0.29585,-0.671 -0.42871,-1.35202 -0.4375,-2.0625 5.5e-4,-0.08277 0.0296,-0.16746 0.0312,-0.25 0.0228,-0.61377 0.11066,-1.22721 0.34375,-1.8125 l 0.65625,-6.2500013 c -14.72852,7.2167413 -24.75,21.2767213 -24.75,37.4375013 0,14.16064 7.7147,26.6987 19.53125,34.4375 -11.7661,-7.74752 -19.40625,-20.30544 -19.40625,-34.4375 0,-0.08593 0.0307,-0.16418 0.0312,-0.25 0.0183,1.47325 0.324,2.92112 0.9375,4.3125 0.6314,1.43199 1.55087,2.80888 2.75,4.125 1.19914,1.31612 2.67177,2.54806 4.375,3.71875 1.70323,1.17069 3.6376,2.28556 5.78125,3.28125 2.14365,0.99569 4.47958,1.89638 7,2.6875 2.52042,0.79112 5.22897,1.47427 8.0625,2.03125 2.83353,0.55698 5.79202,0.98798 8.875,1.28125 3.08298,0.29327 6.29373,0.4375 9.5625,0.4375 3.26877,0 6.44827,-0.14423 9.53125,-0.4375 3.08298,-0.29327 6.07272,-0.72427 8.90625,-1.28125 2.83353,-0.55698 5.51083,-1.24013 8.03125,-2.03125 2.52042,-0.79112 4.85635,-1.69181 7,-2.6875 2.14365,-0.99569 4.10927,-2.11056 5.8125,-3.28125 1.70323,-1.17069 3.14461,-2.40263 4.34375,-3.71875 1.19914,-1.31612 2.14985,-2.69301 2.78125,-4.125 0.32041,-0.72667 0.33815,-1.49923 0.5,-2.25 -0.0882,1.85802 -0.28368,3.6809 -0.625,5.46875 0.46332,-2.3702 0.71875,-4.78936 0.71875,-7.28125 0,-16.78071 -10.77593,-31.27856 -26.4375,-38.2187513 z m 25.71875,45.5000013 c -0.22324,1.16937 -0.48624,2.33394 -0.8125,3.46875 0.32968,-1.1281 0.5853,-2.30648 0.8125,-3.46875 z m -0.90625,3.71875 c -0.15153,0.51389 -0.32793,1.02507 -0.5,1.53125 0.17532,-0.50869 0.34527,-1.01482 0.5,-1.53125 z m -1.03125,3 c -0.24414,0.62724 -0.5067,1.26094 -0.78125,1.875 0.27425,-0.61697 0.53855,-1.24455 0.78125,-1.875 z m -72.28125,20.4375 c 2.14203,1.401147 4.38985,2.652347 6.78125,3.718747 -2.3834,-1.06993 -4.6475,-2.31541 -6.78125,-3.718747 z m 10.5,5.187497 c 1.24574,0.43966 2.51812,0.84269 3.8125,1.1875 -1.30092,-0.34916 -2.56116,-0.74239 -3.8125,-1.1875 z"
         style="fill:#b6343c;fill-opacity:1;fill-rule:evenodd;stroke:none" />
    </clipPath>
    <filter
       color-interpolation-filters="sRGB"
       inkscape:collect="always"
       id="filter4969"
       x="-0.052747332"
       width="1.1054947"
       y="-0.19039562"
       height="1.3807913">
      <feGaussianBlur
         inkscape:collect="always"
         stdDeviation="2.0499811"
         id="feGaussianBlur4971" />
    </filter>
    <inkscape:perspective
       id="perspective4991"
       inkscape:persp3d-origin="0.5 : 0.33333333 : 1"
       inkscape:vp_z="1 : 0.5 : 1"
       inkscape:vp_y="0 : 1000 : 0"
       inkscape:vp_x="0 : 0.5 : 1"
       sodipodi:type="inkscape:persp3d" />
    <inkscape:perspective
       id="perspective5070"
       inkscape:persp3d-origin="0.5 : 0.33333333 : 1"
       inkscape:vp_z="1 : 0.5 : 1"
       inkscape:vp_y="0 : 1000 : 0"
       inkscape:vp_x="0 : 0.5 : 1"
       sodipodi:type="inkscape:persp3d" />
    <inkscape:perspective
       id="perspective5104"
       inkscape:persp3d-origin="0.5 : 0.33333333 : 1"
       inkscape:vp_z="1 : 0.5 : 1"
       inkscape:vp_y="0 : 1000 : 0"
       inkscape:vp_x="0 : 0.5 : 1"
       sodipodi:type="inkscape:persp3d" />
    <inkscape:perspective
       id="perspective5227"
       inkscape:persp3d-origin="0.5 : 0.33333333 : 1"
       inkscape:vp_z="1 : 0.5 : 1"
       inkscape:vp_y="0 : 1000 : 0"
       inkscape:vp_x="0 : 0.5 : 1"
       sodipodi:type="inkscape:persp3d" />
    <inkscape:perspective
       id="perspective5326"
       inkscape:persp3d-origin="0.5 : 0.33333333 : 1"
       inkscape:vp_z="1 : 0.5 : 1"
       inkscape:vp_y="0 : 1000 : 0"
       inkscape:vp_x="0 : 0.5 : 1"
       sodipodi:type="inkscape:persp3d" />
    <inkscape:perspective
       id="perspective5375"
       inkscape:persp3d-origin="0.5 : 0.33333333 : 1"
       inkscape:vp_z="1 : 0.5 : 1"
       inkscape:vp_y="0 : 1000 : 0"
       inkscape:vp_x="0 : 0.5 : 1"
       sodipodi:type="inkscape:persp3d" />
    <inkscape:perspective
       id="perspective5419"
       inkscape:persp3d-origin="0.5 : 0.33333333 : 1"
       inkscape:vp_z="1 : 0.5 : 1"
       inkscape:vp_y="0 : 1000 : 0"
       inkscape:vp_x="0 : 0.5 : 1"
       sodipodi:type="inkscape:persp3d" />
    <inkscape:perspective
       id="perspective5523"
       inkscape:persp3d-origin="0.5 : 0.33333333 : 1"
       inkscape:vp_z="1 : 0.5 : 1"
       inkscape:vp_y="0 : 1000 : 0"
       inkscape:vp_x="0 : 0.5 : 1"
       sodipodi:type="inkscape:persp3d" />
    <inkscape:perspective
       id="perspective5584"
       inkscape:persp3d-origin="0.5 : 0.33333333 : 1"
       inkscape:vp_z="1 : 0.5 : 1"
       inkscape:vp_y="0 : 1000 : 0"
       inkscape:vp_x="0 : 0.5 : 1"
       sodipodi:type="inkscape:persp3d" />
    <inkscape:perspective
       id="perspective6073"
       inkscape:persp3d-origin="0.5 : 0.33333333 : 1"
       inkscape:vp_z="1 : 0.5 : 1"
       inkscape:vp_y="0 : 1000 : 0"
       inkscape:vp_x="0 : 0.5 : 1"
       sodipodi:type="inkscape:persp3d" />
    <inkscape:perspective
       id="perspective6129"
       inkscape:persp3d-origin="0.5 : 0.33333333 : 1"
       inkscape:vp_z="1 : 0.5 : 1"
       inkscape:vp_y="0 : 1000 : 0"
       inkscape:vp_x="0 : 0.5 : 1"
       sodipodi:type="inkscape:persp3d" />
    <inkscape:perspective
       id="perspective6229"
       inkscape:persp3d-origin="0.5 : 0.33333333 : 1"
       inkscape:vp_z="1 : 0.5 : 1"
       inkscape:vp_y="0 : 1000 : 0"
       inkscape:vp_x="0 : 0.5 : 1"
       sodipodi:type="inkscape:persp3d" />
    <filter
       color-interpolation-filters="sRGB"
       id="filter3629-2">
      <feGaussianBlur
         id="feGaussianBlur3631-8"
         stdDeviation="1.9268105"
         inkscape:collect="always" />
    </filter>
    <filter
       color-interpolation-filters="sRGB"
       id="filter6235">
      <feGaussianBlur
         id="feGaussianBlur6237"
         stdDeviation="1.9268105"
         inkscape:collect="always" />
    </filter>
    <filter
       color-interpolation-filters="sRGB"
       id="filter6239">
      <feGaussianBlur
         id="feGaussianBlur6241"
         stdDeviation="1.9268105"
         inkscape:collect="always" />
    </filter>
    <filter
       color-interpolation-filters="sRGB"
       id="filter6243">
      <feGaussianBlur
         id="feGaussianBlur6245"
         stdDeviation="1.9268105"
         inkscape:collect="always" />
    </filter>
    <inkscape:perspective
       id="perspective6347"
       inkscape:persp3d-origin="0.5 : 0.33333333 : 1"
       inkscape:vp_z="1 : 0.5 : 1"
       inkscape:vp_y="0 : 1000 : 0"
       inkscape:vp_x="0 : 0.5 : 1"
       sodipodi:type="inkscape:persp3d" />
    <inkscape:perspective
       id="perspective6393"
       inkscape:persp3d-origin="0.5 : 0.33333333 : 1"
       inkscape:vp_z="1 : 0.5 : 1"
       inkscape:vp_y="0 : 1000 : 0"
       inkscape:vp_x="0 : 0.5 : 1"
       sodipodi:type="inkscape:persp3d" />
  </defs>
  <sodipodi:namedview
     id="base"
     pagecolor="#ffffff"
     bordercolor="#666666"
     borderopacity="1.0"
     inkscape:pageopacity="0.0"
     inkscape:pageshadow="2"
     inkscape:zoom="7.9195959"
     inkscape:cx="34.595249"
     inkscape:cy="23.259436"
     inkscape:document-units="px"
     inkscape:current-layer="g7205"
     showgrid="false"
     inkscape:window-width="1920"
     inkscape:window-height="1018"
     inkscape:window-x="-8"
     inkscape:window-y="-8"
     inkscape:window-maximized="1" />
  <metadata
     id="metadata4696">
    <rdf:RDF>
      <cc:Work
         rdf:about="">
        <dc:format>image/svg+xml</dc:format>
        <dc:type
           rdf:resource="http://purl.org/dc/dcmitype/StillImage" />
        <dc:title>Team Fortress 2 WinterBoard: Cydia</dc:title>
      </cc:Work>
    </rdf:RDF>
  </metadata>
  <g
     inkscape:label="Layer 1"
     inkscape:groupmode="layer"
     id="layer1"
     transform="translate(-334.35714,-455.29075)">
    <g
       id="g3181"
       transform="translate(54.971573,163.32366)"
       inkscape:export-filename="C:\Users\Lasse\Documents\My Dropbox\Public\iconmontage.png"
       inkscape:export-xdpi="349.72098"
       inkscape:export-ydpi="349.72098">
      <g
         style="font-size:10.31457615px;font-style:normal;font-variant:normal;font-weight:normal;font-stretch:normal;text-align:start;line-height:125%;writing-mode:lr-tb;text-anchor:start;fill:#ffffff;fill-opacity:1;stroke:none;font-family:TF2 Build;-inkscape-font-specification:TF2 Build"
         id="text4536-8">
        <g
           id="g5166"
           transform="translate(-44.483523,2.6884599)">
          <g
             inkscape:export-ydpi="349"
             inkscape:export-xdpi="349"
             inkscape:export-filename="C:\Users\Lasse\Documents\My Dropbox\Public\iconmontage.png"
             id="flowRoot5763-2-4-2"
             style="font-size:40px;font-style:normal;font-weight:normal;fill:#f6e7c1;fill-opacity:1;stroke:none;font-family:Bitstream Vera Sans"
             inkscape:transform-center-y="-3.5279857"
             transform="matrix(-0.30942042,-0.30942042,0.30942042,-0.30942042,344.48308,554.92556)">
            <g
               id="g7205"
               transform="matrix(-1.6159244,1.6159244,-1.6159244,-1.6159244,1223.4756,1164.8901)"
               inkscape:export-filename="C:\Users\Lasse\Documents\My Dropbox\Public\iconmontage.png"
               inkscape:export-xdpi="349"
               inkscape:export-ydpi="349">
              <g
                 id="g3560"
                 transform="translate(-80.390938,-88.582498)">
                <path
                   inkscape:export-ydpi="349"
                   inkscape:export-xdpi="349"
                   inkscape:export-filename="C:\Users\Lasse\Documents\My Dropbox\Public\iconmontage.png"
                   style="fill:#5a5a5a;fill-opacity:1;fill-rule:evenodd"
                   id="path3774-0-4-5-7-6-37-2"
                   d="m 89.040456,563.68187 h 34.728074 c 5.18387,0 9.38597,4.20209 9.38597,9.38596 v 34.72807 c 0,5.18386 -4.2021,9.38597 -9.38597,9.38597 H 89.040456 c -5.18386,0 -9.38596,-4.2021 -9.38596,-9.38597 v -34.72807 c 0,-5.18386 4.2021,-9.38596 9.38596,-9.38596 z"
                   clip-rule="evenodd" />
                <path
                   inkscape:export-ydpi="349"
                   inkscape:export-xdpi="349"
                   inkscape:export-filename="C:\Users\Lasse\Documents\My Dropbox\Public\iconmontage.png"
                   style="fill:#89411d;fill-opacity:1;fill-rule:evenodd"
                   d="m 87.904496,561.94468 c -5.523,0 -10,4.477 -10,10 l 0,37 c 0,5.52301 4.477,10 10,10 l 37.000004,0 c 5.523,0 10,-4.47699 10,-10 l 0,-37 c 0,-5.523 -4.477,-10 -10,-10 l -37.000004,0 z m 2.875,4.40625 31.250004,0 c 4.66771,0 8.46875,3.76979 8.46875,8.4375 l 0,31.28125 c 0,4.66772 -3.80104,8.4375 -8.46875,8.4375 l -31.250004,0 c -4.66771,0 -8.46875,-3.76978 -8.46875,-8.4375 l 0,-31.28125 c 0,-4.66771 3.80104,-8.4375 8.46875,-8.4375 z"
                   id="path3774-0-4-5-7-6-3-88-9" />
                <path
                   id="path7570-1"
                   d="m 108.69026,609.4857 c -0.50561,-0.11428 -7.53629,-1.94891 -7.5642,-1.97377 -0.0105,-0.009 0.0877,-0.0955 0.21784,-0.1917 l 0.23666,-0.17497 3.65361,0.95955 c 3.78725,0.99462 4.42252,1.11661 4.84971,0.93132 0.1364,-0.0591 1.42371,-1.01397 2.86068,-2.12182 1.92007,-1.48027 2.57696,-2.02725 2.47783,-2.06328 -0.0742,-0.027 -0.88881,-0.0748 -1.81034,-0.10622 l -1.67552,-0.0571 -0.48017,0.2964 c -0.84425,0.52108 -2.0733,0.63831 -3.35868,0.32032 -0.66201,-0.16377 -0.7096,-0.18894 -0.68963,-0.36472 0.0118,-0.10388 0.0349,-0.20229 0.0514,-0.21876 0.0166,-0.0165 0.39509,0.0483 0.84134,0.14376 1.41943,0.3039 2.25857,0.15195 3.21457,-0.58207 0.63487,-0.4875 6.8507,-4.92542 7.04193,-5.02777 0.23092,-0.12358 0.45185,-0.10307 0.79922,0.0741 0.17038,0.0869 0.34673,0.15802 0.39193,0.15802 0.0484,0 0.0821,-0.21074 0.0821,-0.51357 l 0,-0.51357 0.30586,0 0.30584,0 0.0549,0.70163 0.0549,0.70161 1.21911,0.54278 c 0.67054,0.29854 1.29654,0.60092 1.39117,0.67197 l 0.17203,0.12916 -0.23579,0.12193 c -0.12969,0.0671 -1.85132,0.55477 -3.82589,1.08381 -3.94176,1.05611 -4.63939,1.24777 -4.57234,1.25614 0.14891,0.0186 4.62572,-0.65294 5.22575,-0.78389 0.39969,-0.0873 0.78443,-0.1586 0.85499,-0.1586 0.15918,0 2.2889,2.02671 2.2889,2.1782 0,0.0605 -0.0938,0.1336 -0.20843,0.16237 -0.11463,0.0287 -1.59213,-0.006 -3.28328,-0.0754 l -3.07481,-0.1277 -2.93707,2.26593 c -2.42891,1.87387 -3.00527,2.2836 -3.33125,2.36818 -0.47562,0.12335 -0.96234,0.11951 -1.54491,-0.0123 z m -9.165124,-1.98728 c -0.412824,-0.0996 -1.963872,-0.47798 -3.446737,-0.84086 l -2.696148,-0.65979 -0.424743,-0.49855 c -0.233609,-0.27421 -0.527852,-0.62155 -0.653887,-0.77186 -0.273397,-0.32609 -0.272871,-0.29476 -0.03821,-2.29753 l 0.17821,-1.52115 -0.173629,-0.23486 c -0.315872,-0.42726 -0.08133,-1.37871 0.421015,-1.70787 0.19458,-0.1275 0.25948,-0.1255 1.243741,0.0383 0.571126,0.095 1.084863,0.21131 1.141629,0.25842 0.07058,0.0585 0.10318,0.30522 0.10318,0.78133 0,0.64795 -0.01344,0.70634 -0.197537,0.85105 -0.134928,0.1061 -0.197502,0.23312 -0.197502,0.40077 0,0.22032 0.02431,0.24542 0.238353,0.24542 0.316456,0 3.506927,0.79753 3.541889,0.88538 0.01519,0.0377 0.119878,0.17856 0.23299,0.31299 0.177871,0.21139 0.184858,0.23812 0.05165,0.19789 -0.228398,-0.0691 -3.974122,-1.00121 -4.022989,-1.00121 -0.02314,0 -0.04195,0.40268 -0.04195,0.89484 0,0.82788 0.0132,0.9068 0.177778,1.05486 0.0978,0.088 0.219178,0.18334 0.269798,0.21181 0.07771,0.0437 3.802093,1.2359 3.860928,1.2359 0.06462,0 0.13335,-0.37805 0.235922,-1.29592 0.153496,-1.37386 0.151802,-1.41664 -0.05959,-1.50994 -0.248846,-0.10984 -0.327277,-0.40549 -0.264072,-0.99557 0.05282,-0.49312 0.06544,-0.51626 0.394186,-0.72426 0.19229,-0.12166 0.452611,-0.21488 0.600008,-0.21488 0.305091,0 1.484421,0.22726 1.663971,0.32066 0.0743,0.0387 0.16101,0.2669 0.21728,0.57228 0.12568,0.68204 0.11787,0.9638 -0.0302,1.08662 -0.31551,0.26185 -0.32856,0.42347 -0.18487,2.28696 0.0754,0.97774 0.13125,1.78077 0.1241,1.78454 -0.007,0.003 -0.35079,0.23826 -0.7636,0.52109 l -0.75061,0.51428 -0.750596,-0.18107 z m 5.906874,-2.08045 c -0.89194,-0.0629 -0.93134,-0.10283 -1.03252,-1.0475 l -0.0788,-0.73554 0.32383,-0.63208 c 0.17808,-0.34763 0.38833,-0.72667 0.46722,-0.84231 0.13013,-0.19074 0.1578,-0.19972 0.29852,-0.0969 0.0853,0.0624 0.4049,0.18706 0.71018,0.27706 0.30529,0.09 0.67063,0.21762 0.81184,0.2836 0.25224,0.11783 0.25675,0.12923 0.25465,0.64427 -0.004,0.82185 -0.13499,1.98411 -0.23885,2.10929 -0.10002,0.12052 -0.29932,0.12578 -1.51607,0.0401 z m -14.953489,-0.60335 c -0.869092,-0.2368 -1.947758,-0.52428 -2.397027,-0.63885 -0.738699,-0.18837 -0.853446,-0.2431 -1.199303,-0.57209 l -0.38243,-0.36379 -0.129226,-1.54069 c -0.07105,-0.84738 -0.165017,-2.41564 -0.208767,-3.48503 -0.07759,-1.89745 -0.07549,-1.95287 0.0867,-2.29805 0.09149,-0.19455 0.280642,-0.46356 0.420454,-0.59782 0.241497,-0.23194 5.086697,-2.75809 5.156399,-2.6884 0.01811,0.0182 0.08927,0.67078 0.157808,1.4501 0.139882,1.59001 0.234205,1.93711 0.653069,2.40326 l 0.291614,0.32455 11.495918,0.70713 c 6.32275,0.38891 11.61906,0.70728 11.7696,0.70748 0.23661,0 0.25803,0.0153 0.15801,0.11031 -0.0637,0.0605 -1.1734,0.66838 -2.46618,1.35082 -2.50589,1.32284 -2.64574,1.3734 -3.81964,1.38094 -0.24151,10e-4 -4.91187,-0.97682 -11.679676,-2.44671 -6.202491,-1.34711 -11.345639,-2.4493 -11.429246,-2.4493 -0.179846,0 -0.17336,-0.0637 -0.153449,1.50682 0.02127,1.67341 0.03844,1.74155 0.473026,1.86736 0.389137,0.11264 0.473539,0.20364 0.475315,0.51225 l 0.0023,0.21248 -0.359843,-0.1226 c -0.197911,-0.0674 -0.380608,-0.10178 -0.406023,-0.0764 -0.02547,0.0255 0.0058,0.70753 0.07058,1.51583 l 0.116851,1.46964 0.269448,0.26395 c 0.244149,0.23915 0.440213,0.30938 2.086682,0.74745 0.999475,0.26594 1.906872,0.51883 2.016408,0.562 0.190327,0.075 0.704741,0.63245 0.574522,0.62262 -0.03447,-0.002 -0.773707,-0.19849 -1.642811,-0.43529 z m 12.167489,-0.86656 c -0.70595,-0.16898 -0.71126,-0.17208 -0.73662,-0.43011 -0.0186,-0.18997 0.002,-0.24922 0.079,-0.22022 0.0575,0.0218 0.40125,0.10364 0.76387,0.18174 0.66997,0.14434 0.80301,0.24308 0.67423,0.50025 -0.0656,0.13101 -0.10808,0.12928 -0.78048,-0.0317 z m -13.703253,-2.7286 c -0.366655,-0.0827 -0.690193,-0.17749 -0.718973,-0.21061 -0.102713,-0.11812 -0.31821,-2.52521 -0.243694,-2.72121 0.168769,-0.44392 0.47125,-0.47249 1.530564,-0.14458 l 0.533333,0.16507 0,1.53752 0,1.53751 -0.217273,-0.007 c -0.119516,-0.003 -0.517277,-0.0743 -0.883957,-0.15704 z m 2.173819,-0.0206 c -0.547764,-0.14985 -0.635192,-0.1988 -0.698771,-0.39117 -0.03996,-0.12093 -0.0527,-0.27204 -0.02816,-0.33578 0.05866,-0.15291 0.47597,-0.14943 0.937486,0.008 0.303755,0.10353 0.383587,0.17483 0.488134,0.43616 0.217063,0.54248 0.230302,0.53711 -0.69863,0.28299 z m 28.200454,-3.18647 c -0.95601,-0.0611 -5.20475,-0.32289 -9.44163,-0.58173 -4.23689,-0.25884 -9.74667,-0.59563 -12.243955,-0.74842 l -4.540504,-0.27779 -0.178526,-0.21674 c -0.398509,-0.48382 -0.478435,-0.78939 -0.612452,-2.34145 -0.106802,-1.23657 -0.155459,-1.52644 -0.283832,-1.68963 -0.113462,-0.14428 -0.154933,-0.31964 -0.154933,-0.65569 0,-0.25232 0.03564,-0.48072 0.07899,-0.50758 0.07163,-0.0443 0.118148,-0.59258 0.05025,-0.59258 -0.01578,0 -0.220218,0.0368 -0.454306,0.0818 -0.560103,0.10773 -3.954467,0.48461 -3.995412,0.44368 -0.06579,-0.0658 0.468071,-0.44649 0.626217,-0.44649 0.09079,0 0.144171,-0.0209 0.118569,-0.0465 -0.02559,-0.0256 -0.585716,0.0119 -1.244757,0.0835 -1.131774,0.12287 -1.209831,0.12248 -1.407672,-0.007 l -0.209456,-0.13723 0.359107,-0.16359 c 0.197479,-0.09 1.681139,-0.60801 3.297016,-1.1512 l 2.937909,-0.98763 0.121723,-0.41561 c 0.08554,-0.29222 0.264306,-0.58128 0.602041,-0.97368 0.264154,-0.30695 0.527256,-0.5761 0.58463,-0.59812 0.05737,-0.022 1.911165,0.27224 4.119548,0.65391 3.474345,0.60047 4.137615,0.69389 4.923815,0.69354 0.81846,-4.7e-4 0.97918,-0.0254 1.61971,-0.25151 1.60398,-0.56639 11.9711,-3.74505 13.85412,-4.2478 1.43864,-0.38412 1.69998,-0.52841 2.08831,-1.15311 0.18598,-0.29921 0.27302,-0.37378 0.40384,-0.34608 0.0917,0.0194 1.10893,0.10926 2.2605,0.19956 1.15156,0.0903 2.17212,0.19679 2.26792,0.2366 0.0958,0.0399 0.39062,0.34478 0.65518,0.6777 l 0.48101,0.6053 -0.0117,1.74856 c -0.008,1.23862 -0.0412,1.82108 -0.11439,1.99719 l -0.1033,0.24862 1.35548,0.96681 c 0.74549,0.53174 1.50657,1.01874 1.69124,1.08222 l 0.3358,0.11544 0,0.76745 0,0.76745 -1.52094,0.14016 c -2.49683,0.23006 -2.23357,0.15945 -2.34173,0.62811 -0.10423,0.45136 -1.64646,4.62986 -2.00226,5.42476 -0.30435,0.67998 -0.39236,0.7643 -0.99075,0.94912 -0.57523,0.17767 -0.60156,0.17791 -2.98102,0.0258 z m 2.76385,-0.45552 c 0.20436,-0.0854 0.32614,-0.22463 0.50103,-0.57282 0.30178,-0.60088 2.06827,-5.35663 2.06827,-5.56825 0,-0.13826 -0.0329,-0.15478 -0.21649,-0.10867 -0.26744,0.0672 -0.25762,0.0508 -0.61431,1.02163 -0.29592,0.8055 -0.53292,1.15411 -0.92322,1.35802 -0.35785,0.18694 -1.89876,0.13556 -8.41889,-0.28071 -3.37841,-0.21569 -9.57357,-0.60814 -13.76697,-0.87213 -5.86044,-0.36893 -7.687156,-0.50797 -7.895467,-0.60097 -0.250774,-0.11194 -0.262962,-0.11124 -0.162972,0.009 0.06766,0.0816 0.175382,0.73732 0.287991,1.75325 0.192828,1.73975 0.312986,2.14599 0.66701,2.25513 0.104582,0.0322 5.274342,0.36121 11.488458,0.73107 6.2141,0.36984 11.86723,0.7108 12.56251,0.75767 0.6953,0.0469 1.67304,0.11276 2.17278,0.14651 1.46514,0.0989 1.95967,0.0926 2.25027,-0.0289 z m 0.10388,-4.23204 c 0.6245,-10e-4 0.54403,0.16611 2.15795,-4.4878 l 0.93958,-2.70938 0,-1.44886 0,-1.44886 -0.34864,-0.44899 c -0.32573,-0.41951 -0.35228,-0.437 -0.40378,-0.2663 -0.0304,0.1005 -0.17892,0.46715 -0.33022,0.8148 -0.1513,0.34763 -0.52269,1.42909 -0.82529,2.40322 -0.30257,0.97414 -0.6426,1.92888 -0.75556,2.12165 -0.2303,0.39296 -0.7904,0.84319 -1.20797,0.971 -0.21148,0.0647 -3.40883,-0.0742 -13.58964,-0.59058 -7.32223,-0.37136 -13.675382,-0.69777 -14.118124,-0.72536 l -0.805,-0.0501 -0.125019,0.43005 c -0.101661,0.34963 -0.117377,0.70068 -0.08402,1.87725 0.02314,0.8176 0.07654,1.49008 0.122787,1.5458 0.04499,0.0542 0.186203,0.14181 0.313722,0.19464 0.268267,0.11112 27.698284,1.90436 28.324854,1.85173 0.21727,-0.0182 0.54776,-0.0335 0.73442,-0.0339 z m -20.3683,-6.29916 c -0.45744,-0.0501 -8.15934,-1.36932 -8.222592,-1.40842 -0.03225,-0.0199 -1.557556,-0.28359 -3.389597,-0.58596 -3.439095,-0.56758 -3.599122,-0.60931 -4.008569,-1.04513 -0.267204,-0.28445 -0.351664,-0.85659 -0.348006,-2.35762 0.0035,-1.35537 0,-1.3865 -0.171678,-1.46223 -0.145772,-0.0645 -0.170918,-0.13015 -0.150259,-0.39287 0.01379,-0.17351 0.07397,-0.39134 0.134075,-0.48408 0.08296,-0.12802 0.114982,-0.60481 0.133234,-1.98159 l 0.02395,-1.81302 0.223572,-0.29291 c 0.376915,-0.49378 0.725015,-0.65359 2.001544,-0.91881 0.644762,-0.13397 1.385634,-0.29882 1.646364,-0.36632 0.260718,-0.0675 0.865131,-0.1887 1.343146,-0.26936 0.478015,-0.0806 3.322354,-0.64714 6.320791,-1.25892 l 5.451665,-1.1123 7.70343,0.67561 c 4.23689,0.37157 7.85786,0.69707 8.04661,0.72333 0.2618,0.0363 0.46084,0.14755 0.83936,0.46867 0.59726,0.5067 0.75319,0.84037 0.75319,1.61169 l 0,0.54843 0.2963,0.0777 c 0.16296,0.0428 0.83235,0.21961 1.48755,0.39304 0.65518,0.17342 1.68626,0.40825 2.29128,0.52186 0.60501,0.11357 1.1797,0.23941 1.27712,0.2796 0.17689,0.0729 0.17695,0.0735 0.0383,0.44708 -0.10038,0.27017 -0.19118,0.38637 -0.3273,0.41849 -0.10365,0.0245 -1.06302,-0.0167 -2.132,-0.0915 -1.06897,-0.0748 -2.07724,-0.13776 -2.24059,-0.13998 l -0.297,-0.004 0.0206,0.44501 c 0.0196,0.42667 0.0105,0.45029 -0.22615,0.57282 l -0.2466,0.12781 -0.0526,1.34316 c -0.049,1.24788 -0.0679,1.37346 -0.26697,1.77005 -0.11787,0.23479 -0.30909,0.49726 -0.42493,0.58327 -0.1881,0.13968 -2.67267,0.87348 -2.73759,0.80853 -0.0471,-0.0471 0.24326,-0.552 0.37279,-0.64824 0.0694,-0.0515 0.47253,-0.17267 0.8959,-0.26916 0.89605,-0.20422 1.22032,-0.37521 1.2925,-0.68155 0.0284,-0.12086 0.11662,-0.32794 0.196,-0.46019 0.10785,-0.17975 0.16431,-0.52355 0.22383,-1.362 0.0644,-0.90682 0.1096,-1.16335 0.23614,-1.33975 0.22452,-0.31299 0.24773,-0.72697 0.0471,-0.84014 -0.0869,-0.0491 -0.18072,-0.12039 -0.20848,-0.15859 -0.0278,-0.0382 -0.0529,-0.64263 -0.0557,-1.34317 -0.005,-1.19589 -0.0175,-1.29888 -0.20529,-1.68601 -0.26711,-0.55065 -0.40982,-0.61951 -1.26866,-0.6123 -0.61525,0.006 -1.67873,0.21572 -7.89091,1.56217 -4.53038,0.98194 -7.34306,1.55619 -7.62214,1.55619 -0.24329,0 -1.84774,-0.12525 -3.5655,-0.27834 -1.717736,-0.15308 -5.096435,-0.45295 -7.508198,-0.66635 -2.411762,-0.21342 -4.460316,-0.41107 -4.552348,-0.43923 -0.132556,-0.0406 -0.202328,0.006 -0.335784,0.22138 -0.158613,0.25665 -0.168476,0.37446 -0.168476,2.01495 l 0,1.74237 0.217285,0.044 c 0.119504,0.0242 3.203827,0.49023 6.85406,1.03561 3.65025,0.54538 7.081261,1.06811 7.624451,1.16163 1.4466,0.24904 2.75449,0.23325 3.59493,-0.0434 0.79346,-0.26117 0.8296,-0.26054 0.8296,0.0145 0,0.21399 -0.0335,0.23487 -0.7121,0.44302 -0.61527,0.18874 -0.84361,0.21816 -1.67894,0.21634 -0.57109,-10e-4 -1.39215,-0.0681 -2.00585,-0.16351 l -1.03896,-0.16141 -2.792991,0.75669 -2.792989,0.75668 -2.011377,-0.0151 c -1.106254,-0.008 -2.07509,-0.0492 -2.153007,-0.0909 -0.07911,-0.0424 -0.141647,-0.16441 -0.141647,-0.2767 0,-0.11054 -0.142231,-0.69312 -0.316036,-1.29472 -0.173828,-0.60161 -0.316047,-1.1661 -0.316047,-1.25443 0,-0.1196 -0.06555,-0.17166 -0.256781,-0.20399 -0.823649,-0.13923 -2.850725,-0.43627 -2.858554,-0.41889 -0.0058,0.0117 0.0093,0.82695 0.03213,1.81252 0.04499,1.94982 0.05679,1.99969 0.559822,2.36936 0.285409,0.20975 15.355527,2.70061 15.915557,2.63059 0.21728,-0.0272 1.73534,-0.46157 3.37345,-0.96535 2.88654,-0.88772 2.98859,-0.91293 3.30837,-0.81711 0.18207,0.0546 0.29904,0.12862 0.26098,0.16525 -0.038,0.0366 -1.22447,0.42587 -2.63677,0.8652 -1.41231,0.43934 -2.87004,0.90124 -3.23939,1.02644 -0.66341,0.22485 -1.63181,0.3366 -2.29127,0.26437 z m 8.3097,-2.9145 c -0.23266,-0.28226 -0.25068,-0.347 -0.25003,-0.8985 0,-0.47965 0.11592,-2.83326 0.18203,-3.71521 0.0123,-0.16498 -0.0242,-0.20193 -0.22222,-0.22427 -0.38933,-0.0439 -0.43457,-0.13194 -0.43457,-0.84551 l 0,-0.6554 0.73105,-0.24354 c 0.74803,-0.24921 1.4411,-0.31497 1.81627,-0.17234 0.14212,0.054 0.21004,0.16976 0.28167,0.48009 0.13752,0.59577 0.12009,0.7183 -0.14032,0.98699 -0.27953,0.2884 -0.26756,0.19333 -0.25188,1.99739 0.012,1.38067 0.0192,1.44194 0.1691,1.44194 0.23826,0 2.29472,-0.76744 2.46192,-0.91875 0.13347,-0.1208 0.14684,-0.27213 0.14684,-1.66398 l 0,-1.53111 -0.27653,-0.16316 -0.27654,-0.16315 0,-0.661 c 0,-0.78166 -0.0375,-0.74605 1.03225,-0.97953 0.91803,-0.20037 1.10784,-0.20109 1.35691,-0.006 0.29038,0.22841 0.34541,0.95399 0.10201,1.34527 -0.0945,0.1521 -0.19436,0.33726 -0.22171,0.4115 -0.0273,0.0742 0.007,1.01873 0.0772,2.0989 0.0699,1.08019 0.10259,2.06115 0.0728,2.17994 -0.0298,0.11878 -0.16862,0.33834 -0.30851,0.48788 -0.23778,0.25425 -0.40834,0.31589 -2.62459,0.94838 -1.30366,0.37205 -2.55078,0.69672 -2.77138,0.72148 -0.39042,0.0438 -0.40779,0.0369 -0.65184,-0.25914 z m -3.98896,-2.09663 c -0.0255,-0.10247 -0.10318,-0.84101 -0.17267,-1.64121 -0.10377,-1.19323 -0.10797,-1.47257 -0.0237,-1.5531 0.18247,-0.17447 0.84651,-0.34989 1.32447,-0.34989 0.65344,0 0.71396,0.0798 0.71396,0.94146 0,0.38124 0.0229,1.06753 0.051,1.52511 l 0.0509,0.83196 -0.46569,0.18007 c -0.25614,0.0991 -0.68311,0.19624 -0.94879,0.21599 -0.45546,0.0339 -0.48576,0.0252 -0.52932,-0.15039 z m 2.33079,-1.58449 c 0.0231,-0.23455 0.0585,-0.26263 0.49884,-0.39397 0.60791,-0.18135 0.59257,-0.18359 0.59257,0.0862 0,0.21117 -0.0396,0.24316 -0.48942,0.39504 -0.26916,0.0909 -0.5203,0.16528 -0.55805,0.16528 -0.0379,0 -0.0575,-0.1137 -0.0439,-0.25255 z m 3.77772,-0.91924 c 0,-0.23436 0.0187,-0.24635 0.69134,-0.44704 0.38023,-0.11346 0.79441,-0.24001 0.9204,-0.28132 0.33595,-0.11007 0.3635,-0.098 0.3635,0.15856 0,0.22674 -0.0227,0.24058 -0.77034,0.46944 -1.25609,0.38451 -1.2049,0.38024 -1.2049,0.10037 z m 5.45482,-0.91815 c -0.072,-0.0868 -0.0791,-0.46668 -0.0294,-1.56009 l 0.0658,-1.44538 0.39503,-0.0915 c 0.21728,-0.0504 0.54616,-0.095 0.73084,-0.0991 l 0.33579,-0.008 0,1.41249 c 0,1.09395 -0.0242,1.4326 -0.10738,1.5016 -0.13348,0.11078 -0.97531,0.40431 -1.1595,0.40431 -0.0748,0 -0.17881,-0.0516 -0.23118,-0.11475 z m -0.95127,-0.39647 c 0,-0.20335 0.039,-0.27094 0.17777,-0.30813 0.28716,-0.077 0.30753,-0.0624 0.28154,0.20178 -0.0196,0.19821 -0.0708,0.26379 -0.24202,0.3092 -0.20475,0.0543 -0.21729,0.0426 -0.21729,-0.20285 z"
                   style="fill:#f6e7c1;fill-opacity:1" />
              </g>
            </g>
          </g>
        </g>
      </g>
    </g>
  </g>
</svg>
