<?xml version="1.0" encoding="UTF-8" standalone="no"?>
<!-- Created with Inkscape (http://www.inkscape.org/) -->

<svg
   xmlns:dc="http://purl.org/dc/elements/1.1/"
   xmlns:cc="http://creativecommons.org/ns#"
   xmlns:rdf="http://www.w3.org/1999/02/22-rdf-syntax-ns#"
   xmlns:svg="http://www.w3.org/2000/svg"
   xmlns="http://www.w3.org/2000/svg"
   xmlns:xlink="http://www.w3.org/1999/xlink"
   xmlns:sodipodi="http://sodipodi.sourceforge.net/DTD/sodipodi-0.dtd"
   xmlns:inkscape="http://www.inkscape.org/namespaces/inkscape"
   width="57"
   height="57"
   id="svg4691"
   version="1.1"
   inkscape:version="0.47 r22583"
   sodipodi:docname="icy.svg">
  <title
     id="title4746">Team Fortress 2 WinterBoard: Game Center</title>
  <defs
     id="defs4693">
    <inkscape:perspective
       sodipodi:type="inkscape:persp3d"
       inkscape:vp_x="0 : 526.18109 : 1"
       inkscape:vp_y="0 : 1000 : 0"
       inkscape:vp_z="744.09448 : 526.18109 : 1"
       inkscape:persp3d-origin="372.04724 : 350.78739 : 1"
       id="perspective4699" />
    <inkscape:perspective
       id="perspective4677"
       inkscape:persp3d-origin="0.5 : 0.33333333 : 1"
       inkscape:vp_z="1 : 0.5 : 1"
       inkscape:vp_y="0 : 1000 : 0"
       inkscape:vp_x="0 : 0.5 : 1"
       sodipodi:type="inkscape:persp3d" />
    <inkscape:perspective
       id="perspective4756"
       inkscape:persp3d-origin="0.5 : 0.33333333 : 1"
       inkscape:vp_z="1 : 0.5 : 1"
       inkscape:vp_y="0 : 1000 : 0"
       inkscape:vp_x="0 : 0.5 : 1"
       sodipodi:type="inkscape:persp3d" />
    <inkscape:perspective
       id="perspective4851"
       inkscape:persp3d-origin="0.5 : 0.33333333 : 1"
       inkscape:vp_z="1 : 0.5 : 1"
       inkscape:vp_y="0 : 1000 : 0"
       inkscape:vp_x="0 : 0.5 : 1"
       sodipodi:type="inkscape:persp3d" />
    <inkscape:perspective
       id="perspective4900"
       inkscape:persp3d-origin="0.5 : 0.33333333 : 1"
       inkscape:vp_z="1 : 0.5 : 1"
       inkscape:vp_y="0 : 1000 : 0"
       inkscape:vp_x="0 : 0.5 : 1"
       sodipodi:type="inkscape:persp3d" />
    <linearGradient
       inkscape:collect="always"
       xlink:href="#linearGradient5030"
       id="linearGradient5129"
       gradientUnits="userSpaceOnUse"
       x1="410.35025"
       y1="314.85373"
       x2="414.24854"
       y2="310.50735" />
    <linearGradient
       inkscape:collect="always"
       id="linearGradient5030">
      <stop
         style="stop-color:#ffffff;stop-opacity:1;"
         offset="0"
         id="stop5032" />
      <stop
         style="stop-color:#ffffff;stop-opacity:0;"
         offset="1"
         id="stop5034" />
    </linearGradient>
    <clipPath
       clipPathUnits="userSpaceOnUse"
       id="clipPath4221">
      <path
         clip-path="none"
         id="path4223"
         d="m 350.71619,7.5327627 0.5,6.2500013 c 0.1259,0.21284 0.27878,0.40676 0.375,0.625 0.10068,0.22831 0.0565,0.48536 0.125,0.71875 0.0478,0.54251 0.18749,1.07147 0.1875,1.625 0,0.29868 -0.0797,0.5794 -0.0937,0.875 -0.0781,0.36206 -0.0642,0.71205 -0.21875,1.0625 -0.30449,0.69059 -0.76544,1.36528 -1.34375,2 -0.57829,0.63471 -1.27235,1.21667 -2.09375,1.78125 -0.8214,0.56457 -1.77873,1.11357 -2.8125,1.59375 -1.03379,0.48018 -2.15952,0.89973 -3.375,1.28125 -1.21549,0.38152 -2.50851,0.73138 -3.875,1 -1.36649,0.26861 -2.79445,0.48356 -4.28125,0.625 -1.48678,0.14143 -3.01736,0.1875 -4.59375,0.1875 -1.57639,0 -3.13821,-0.04608 -4.625,-0.1875 -1.48679,-0.14143 -2.91476,-0.3564 -4.28125,-0.625 -1.36648,-0.26861 -2.65952,-0.61848 -3.875,-1 -1.21548,-0.38152 -2.34123,-0.80108 -3.375,-1.28125 -1.03379,-0.48018 -1.99111,-1.02918 -2.8125,-1.59375 -0.82139,-0.56457 -1.51547,-1.14655 -2.09375,-1.78125 -0.57829,-0.63471 -1.03923,-1.30942 -1.34375,-2 -0.29585,-0.671 -0.42871,-1.35202 -0.4375,-2.0625 5.5e-4,-0.08277 0.0296,-0.16746 0.0312,-0.25 0.0228,-0.61377 0.11066,-1.22721 0.34375,-1.8125 l 0.65625,-6.2500013 c -14.72852,7.2167413 -24.75,21.2767213 -24.75,37.4375013 0,14.16064 7.7147,26.6987 19.53125,34.4375 -11.7661,-7.74752 -19.40625,-20.30544 -19.40625,-34.4375 0,-0.08593 0.0307,-0.16418 0.0312,-0.25 0.0183,1.47325 0.324,2.92112 0.9375,4.3125 0.6314,1.43199 1.55087,2.80888 2.75,4.125 1.19914,1.31612 2.67177,2.54806 4.375,3.71875 1.70323,1.17069 3.6376,2.28556 5.78125,3.28125 2.14365,0.99569 4.47958,1.89638 7,2.6875 2.52042,0.79112 5.22897,1.47427 8.0625,2.03125 2.83353,0.55698 5.79202,0.98798 8.875,1.28125 3.08298,0.29327 6.29373,0.4375 9.5625,0.4375 3.26877,0 6.44827,-0.14423 9.53125,-0.4375 3.08298,-0.29327 6.07272,-0.72427 8.90625,-1.28125 2.83353,-0.55698 5.51083,-1.24013 8.03125,-2.03125 2.52042,-0.79112 4.85635,-1.69181 7,-2.6875 2.14365,-0.99569 4.10927,-2.11056 5.8125,-3.28125 1.70323,-1.17069 3.14461,-2.40263 4.34375,-3.71875 1.19914,-1.31612 2.14985,-2.69301 2.78125,-4.125 0.32041,-0.72667 0.33815,-1.49923 0.5,-2.25 -0.0882,1.85802 -0.28368,3.6809 -0.625,5.46875 0.46332,-2.3702 0.71875,-4.78936 0.71875,-7.28125 0,-16.78071 -10.77593,-31.27856 -26.4375,-38.2187513 z m 25.71875,45.5000013 c -0.22324,1.16937 -0.48624,2.33394 -0.8125,3.46875 0.32968,-1.1281 0.5853,-2.30648 0.8125,-3.46875 z m -0.90625,3.71875 c -0.15153,0.51389 -0.32793,1.02507 -0.5,1.53125 0.17532,-0.50869 0.34527,-1.01482 0.5,-1.53125 z m -1.03125,3 c -0.24414,0.62724 -0.5067,1.26094 -0.78125,1.875 0.27425,-0.61697 0.53855,-1.24455 0.78125,-1.875 z m -72.28125,20.4375 c 2.14203,1.401147 4.38985,2.652347 6.78125,3.718747 -2.3834,-1.06993 -4.6475,-2.31541 -6.78125,-3.718747 z m 10.5,5.187497 c 1.24574,0.43966 2.51812,0.84269 3.8125,1.1875 -1.30092,-0.34916 -2.56116,-0.74239 -3.8125,-1.1875 z"
         style="fill:#b6343c;fill-opacity:1;fill-rule:evenodd;stroke:none" />
    </clipPath>
    <filter
       color-interpolation-filters="sRGB"
       inkscape:collect="always"
       id="filter4969"
       x="-0.052747332"
       width="1.1054947"
       y="-0.19039562"
       height="1.3807913">
      <feGaussianBlur
         inkscape:collect="always"
         stdDeviation="2.0499811"
         id="feGaussianBlur4971" />
    </filter>
    <inkscape:perspective
       id="perspective4991"
       inkscape:persp3d-origin="0.5 : 0.33333333 : 1"
       inkscape:vp_z="1 : 0.5 : 1"
       inkscape:vp_y="0 : 1000 : 0"
       inkscape:vp_x="0 : 0.5 : 1"
       sodipodi:type="inkscape:persp3d" />
    <inkscape:perspective
       id="perspective5070"
       inkscape:persp3d-origin="0.5 : 0.33333333 : 1"
       inkscape:vp_z="1 : 0.5 : 1"
       inkscape:vp_y="0 : 1000 : 0"
       inkscape:vp_x="0 : 0.5 : 1"
       sodipodi:type="inkscape:persp3d" />
    <inkscape:perspective
       id="perspective5104"
       inkscape:persp3d-origin="0.5 : 0.33333333 : 1"
       inkscape:vp_z="1 : 0.5 : 1"
       inkscape:vp_y="0 : 1000 : 0"
       inkscape:vp_x="0 : 0.5 : 1"
       sodipodi:type="inkscape:persp3d" />
    <inkscape:perspective
       id="perspective5227"
       inkscape:persp3d-origin="0.5 : 0.33333333 : 1"
       inkscape:vp_z="1 : 0.5 : 1"
       inkscape:vp_y="0 : 1000 : 0"
       inkscape:vp_x="0 : 0.5 : 1"
       sodipodi:type="inkscape:persp3d" />
    <inkscape:perspective
       id="perspective5326"
       inkscape:persp3d-origin="0.5 : 0.33333333 : 1"
       inkscape:vp_z="1 : 0.5 : 1"
       inkscape:vp_y="0 : 1000 : 0"
       inkscape:vp_x="0 : 0.5 : 1"
       sodipodi:type="inkscape:persp3d" />
    <inkscape:perspective
       id="perspective5375"
       inkscape:persp3d-origin="0.5 : 0.33333333 : 1"
       inkscape:vp_z="1 : 0.5 : 1"
       inkscape:vp_y="0 : 1000 : 0"
       inkscape:vp_x="0 : 0.5 : 1"
       sodipodi:type="inkscape:persp3d" />
    <inkscape:perspective
       id="perspective5419"
       inkscape:persp3d-origin="0.5 : 0.33333333 : 1"
       inkscape:vp_z="1 : 0.5 : 1"
       inkscape:vp_y="0 : 1000 : 0"
       inkscape:vp_x="0 : 0.5 : 1"
       sodipodi:type="inkscape:persp3d" />
    <inkscape:perspective
       id="perspective5523"
       inkscape:persp3d-origin="0.5 : 0.33333333 : 1"
       inkscape:vp_z="1 : 0.5 : 1"
       inkscape:vp_y="0 : 1000 : 0"
       inkscape:vp_x="0 : 0.5 : 1"
       sodipodi:type="inkscape:persp3d" />
    <inkscape:perspective
       id="perspective5584"
       inkscape:persp3d-origin="0.5 : 0.33333333 : 1"
       inkscape:vp_z="1 : 0.5 : 1"
       inkscape:vp_y="0 : 1000 : 0"
       inkscape:vp_x="0 : 0.5 : 1"
       sodipodi:type="inkscape:persp3d" />
    <inkscape:perspective
       id="perspective6073"
       inkscape:persp3d-origin="0.5 : 0.33333333 : 1"
       inkscape:vp_z="1 : 0.5 : 1"
       inkscape:vp_y="0 : 1000 : 0"
       inkscape:vp_x="0 : 0.5 : 1"
       sodipodi:type="inkscape:persp3d" />
    <inkscape:perspective
       id="perspective6129"
       inkscape:persp3d-origin="0.5 : 0.33333333 : 1"
       inkscape:vp_z="1 : 0.5 : 1"
       inkscape:vp_y="0 : 1000 : 0"
       inkscape:vp_x="0 : 0.5 : 1"
       sodipodi:type="inkscape:persp3d" />
    <inkscape:perspective
       id="perspective6229"
       inkscape:persp3d-origin="0.5 : 0.33333333 : 1"
       inkscape:vp_z="1 : 0.5 : 1"
       inkscape:vp_y="0 : 1000 : 0"
       inkscape:vp_x="0 : 0.5 : 1"
       sodipodi:type="inkscape:persp3d" />
    <filter
       color-interpolation-filters="sRGB"
       id="filter3629-2">
      <feGaussianBlur
         id="feGaussianBlur3631-8"
         stdDeviation="1.9268105"
         inkscape:collect="always" />
    </filter>
    <filter
       color-interpolation-filters="sRGB"
       id="filter6235">
      <feGaussianBlur
         id="feGaussianBlur6237"
         stdDeviation="1.9268105"
         inkscape:collect="always" />
    </filter>
    <filter
       color-interpolation-filters="sRGB"
       id="filter6239">
      <feGaussianBlur
         id="feGaussianBlur6241"
         stdDeviation="1.9268105"
         inkscape:collect="always" />
    </filter>
    <filter
       color-interpolation-filters="sRGB"
       id="filter6243">
      <feGaussianBlur
         id="feGaussianBlur6245"
         stdDeviation="1.9268105"
         inkscape:collect="always" />
    </filter>
    <inkscape:perspective
       id="perspective6347"
       inkscape:persp3d-origin="0.5 : 0.33333333 : 1"
       inkscape:vp_z="1 : 0.5 : 1"
       inkscape:vp_y="0 : 1000 : 0"
       inkscape:vp_x="0 : 0.5 : 1"
       sodipodi:type="inkscape:persp3d" />
    <inkscape:perspective
       id="perspective6393"
       inkscape:persp3d-origin="0.5 : 0.33333333 : 1"
       inkscape:vp_z="1 : 0.5 : 1"
       inkscape:vp_y="0 : 1000 : 0"
       inkscape:vp_x="0 : 0.5 : 1"
       sodipodi:type="inkscape:persp3d" />
    <inkscape:perspective
       id="perspective6424"
       inkscape:persp3d-origin="0.5 : 0.33333333 : 1"
       inkscape:vp_z="1 : 0.5 : 1"
       inkscape:vp_y="0 : 1000 : 0"
       inkscape:vp_x="0 : 0.5 : 1"
       sodipodi:type="inkscape:persp3d" />
    <inkscape:perspective
       id="perspective6464"
       inkscape:persp3d-origin="0.5 : 0.33333333 : 1"
       inkscape:vp_z="1 : 0.5 : 1"
       inkscape:vp_y="0 : 1000 : 0"
       inkscape:vp_x="0 : 0.5 : 1"
       sodipodi:type="inkscape:persp3d" />
  </defs>
  <sodipodi:namedview
     id="base"
     pagecolor="#ffffff"
     bordercolor="#666666"
     borderopacity="1.0"
     inkscape:pageopacity="0.0"
     inkscape:pageshadow="2"
     inkscape:zoom="7.9195959"
     inkscape:cx="34.595249"
     inkscape:cy="23.259436"
     inkscape:document-units="px"
     inkscape:current-layer="g7205"
     showgrid="false"
     inkscape:window-width="1920"
     inkscape:window-height="1018"
     inkscape:window-x="-8"
     inkscape:window-y="-8"
     inkscape:window-maximized="1" />
  <metadata
     id="metadata4696">
    <rdf:RDF>
      <cc:Work
         rdf:about="">
        <dc:format>image/svg+xml</dc:format>
        <dc:type
           rdf:resource="http://purl.org/dc/dcmitype/StillImage" />
        <dc:title>Team Fortress 2 WinterBoard: Game Center</dc:title>
      </cc:Work>
    </rdf:RDF>
  </metadata>
  <g
     inkscape:label="Layer 1"
     inkscape:groupmode="layer"
     id="layer1"
     transform="translate(-334.35714,-455.29075)">
    <g
       id="g3181"
       transform="translate(54.971573,163.32366)"
       inkscape:export-filename="C:\Users\Lasse\Documents\My Dropbox\Public\iconmontage.png"
       inkscape:export-xdpi="349.72098"
       inkscape:export-ydpi="349.72098">
      <g
         style="font-size:10.31457615px;font-style:normal;font-variant:normal;font-weight:normal;font-stretch:normal;text-align:start;line-height:125%;writing-mode:lr-tb;text-anchor:start;fill:#ffffff;fill-opacity:1;stroke:none;font-family:TF2 Build;-inkscape-font-specification:TF2 Build"
         id="text4536-8">
        <g
           id="g5166"
           transform="translate(-44.483523,2.6884599)">
          <g
             inkscape:export-ydpi="349"
             inkscape:export-xdpi="349"
             inkscape:export-filename="C:\Users\Lasse\Documents\My Dropbox\Public\iconmontage.png"
             id="flowRoot5763-2-4-2"
             style="font-size:40px;font-style:normal;font-weight:normal;fill:#f6e7c1;fill-opacity:1;stroke:none;font-family:Bitstream Vera Sans"
             inkscape:transform-center-y="-3.5279857"
             transform="matrix(-0.30942042,-0.30942042,0.30942042,-0.30942042,344.48308,554.92556)">
            <g
               id="g7205"
               transform="matrix(-1.6159244,1.6159244,-1.6159244,-1.6159244,1223.4756,1164.8901)"
               inkscape:export-filename="C:\Users\Lasse\Documents\My Dropbox\Public\iconmontage.png"
               inkscape:export-xdpi="349"
               inkscape:export-ydpi="349">
              <g
                 id="g5683"
                 transform="translate(-219.89276,-97.951658)">
                <path
                   id="path3774-0-4-5-7-6-1-2-1-8-2"
                   d="m 227.40635,571.31384 c -5.523,0 -10,4.47699 -10,10 l 0,37 c 0,5.52301 4.477,9.99999 10,10 l 37,0 c 5.523,0 10,-4.47699 10,-10 l 0,-37 c 0,-5.523 -4.477,-9.99999 -10,-10 l -37,0 z"
                   style="fill:#f4722b;fill-opacity:1;fill-rule:evenodd" />
                <path
                   sodipodi:nodetypes="cccccc"
                   id="path3774-0-4-5-7-6-1-2-1-4-1-0"
                   d="m 245.90171,599.7913 28.50454,0.002 -3e-5,-18.47937 c 7e-5,-5.52302 -4.47694,-10.00001 -10.00001,-9.99999 l -18.49215,-4e-5 -0.0124,28.47744 z"
                   style="fill:#5a5a5a;fill-opacity:1;fill-rule:evenodd" />
                <path
                   sodipodi:nodetypes="cccccc"
                   id="path3774-0-4-5-7-6-1-2-1-4-1-3-9"
                   d="m 245.91085,599.83643 -28.50456,-0.002 3e-5,18.47935 c -6e-5,5.52307 4.47696,10.00006 10.00003,10.00004 l 18.49214,2e-5 0.0124,-28.47742 z"
                   style="fill:#5a5a5a;fill-opacity:1;fill-rule:evenodd" />
                <path
                   style="fill:#f6e7c1;fill-opacity:1"
                   d="m 250.62534,594.42576 c 0.0217,-0.18166 0.0229,-0.1829 0.45923,-0.48041 l 0.43741,-0.29825 0.0998,-0.29228 0.0998,-0.29228 0.28201,-0.12221 0.28213,-0.12233 0.12357,-0.41062 c 0.068,-0.22589 0.13978,-0.45035 0.15943,-0.49881 0.0199,-0.0493 0.25166,-0.234 0.52657,-0.41976 l 0.49098,-0.33169 0.37342,-0.57837 c 0.22277,-0.34497 0.42495,-0.61278 0.50107,-0.66363 0.07,-0.0468 0.25662,-0.12472 0.41434,-0.17308 l 0.28677,-0.0878 0.50638,-0.68845 c 0.27864,-0.37872 0.093,-0.43634 1.53417,-2.3959 1.44117,-1.95955 3.86854,-5.25988 5.39414,-7.33404 3.05132,-4.14844 2.88862,-3.95466 3.43472,-4.09207 0.3469,-0.0872 0.96514,-0.12081 1.1313,-0.0617 0.0653,0.0233 0.22836,0.12269 0.36199,0.22106 0.13373,0.0983 0.4221,0.30146 0.64074,0.45154 0.34297,0.23553 0.42508,0.31441 0.59932,0.5758 0.32493,0.48747 0.39333,0.67429 0.48332,1.32 0.0697,0.49864 0.0715,0.59424 0.021,0.79527 -0.0318,0.12563 -0.11538,0.30062 -0.18568,0.38884 -0.0703,0.0883 -3.24865,3.11282 -7.06302,6.72138 -3.81437,3.60857 -5.41386,4.77321 -5.50127,4.85608 -0.12954,0.12276 -0.15744,0.17615 -0.15165,0.28993 0.007,0.13272 -0.0295,0.17397 -0.75019,0.85517 l -0.75712,0.71567 0.0225,0.16586 c 0.0207,0.1532 0.0139,0.16908 -0.0934,0.20832 -0.0868,0.0317 -0.1731,0.0226 -0.3434,-0.0365 -0.1252,-0.0434 -0.22941,-0.0927 -0.23175,-0.10956 -0.003,-0.0167 0.33124,-0.36601 0.74094,-0.77565 0.40998,-0.40982 0.76349,-0.77568 0.78582,-0.81315 0.0539,-0.0906 0.0267,-0.26816 -0.0602,-0.3917 -0.0868,-0.12375 -0.4515,-0.38273 -0.52485,-0.37281 -0.0605,0.008 -0.83482,0.80187 -1.07215,1.09882 -0.0843,0.10538 -0.24159,0.26662 -0.34961,0.35823 -0.30166,0.25579 -0.42475,0.42343 -0.3682,0.50152 0.0744,0.10306 0.0666,0.12775 -0.10527,0.30312 l -0.16181,0.16551 -0.10984,-0.0646 -0.10983,-0.0646 -0.10382,0.33008 c -0.10965,0.34888 -0.15691,0.40462 -0.44387,0.52366 -0.0934,0.0388 -0.1632,0.0891 -0.15516,0.11167 0.008,0.0226 0.0366,0.13932 0.0629,0.25933 0.0581,0.26282 0.0948,0.30057 0.338,0.34825 l 0.18825,0.0369 0.19434,-0.24316 c 0.26904,-0.33669 0.49946,-0.41695 0.53088,-0.18492 0.0118,0.0867 -0.0622,0.20685 -0.3697,0.60017 -0.21139,0.27043 -0.42216,0.58589 -0.46832,0.70102 -0.20467,0.51127 -0.33048,0.74202 -0.42722,0.78374 -0.17489,0.0754 -0.52403,0.0923 -0.76245,0.0367 -0.33706,-0.0784 -0.61279,-0.27491 -0.72007,-0.51291 -0.10087,-0.22366 -0.14844,-0.55206 -0.11698,-0.81044 z m 5.42363,-4.69961 0.15235,0.0867 1.02174,-1.046 c 0.56182,-0.57522 0.52168,-0.31495 1.85742,-1.68941 2.05363,-2.1131 5.62489,-5.78309 7.82512,-8.04149 0.46948,-0.48194 0.59598,-0.5911 0.7014,-0.60536 0.2808,-0.0382 0.27177,-0.19719 -0.0285,-0.51073 -0.0851,-0.0888 -0.2217,-0.25098 -0.30415,-0.36007 -0.21127,-0.28101 -0.65637,-1.08536 -0.75373,-1.36207 l -0.0821,-0.23307 -0.21326,0.002 c -0.43719,0.005 -0.42667,-0.004 -1.18948,1.0094 -0.38133,0.50678 -2.03349,2.72493 -3.67158,4.92927 -1.63806,2.20435 -3.6075,4.8523 -4.37677,5.88451 -2.09072,2.80551 -1.10129,1.77328 -1.09584,1.81333 0.002,0.0202 0.0736,0.0752 0.15742,0.1228 z m -2.36388,3.25504 0.24891,-0.24493 0.20837,0.0196 c 0.28923,0.0273 0.4801,0.11587 0.49566,0.23013 0.0341,0.25158 -0.33453,0.3651 -1.00347,0.30913 -0.10521,-0.009 -0.19287,-0.0279 -0.19491,-0.0425 -0.002,-0.0147 0.10842,-0.13665 0.24544,-0.27142 z"
                   id="path5493-7"
                   sodipodi:nodetypes="ccccccccscccscccssssssssssssscccsssssssssscccccssscccssssssccccssssscccssssccccsssc" />
                <path
                   sodipodi:nodetypes="csssscccsssssssssssssssssssssssssscccsssssssssssssscccsssccsscccsssssssssssscccssssssscccsscccsscccssssssscccsssssssscccssssssssssssssccccccccsssssscccscccsssccsscccscccsscsccccccssssssssssssssssssssccssssssccsscccsscccccssccsssssccsssssssccccsscccssccssscccsccssssssccssssssccsscccssccccscccsssc"
                   id="path5524-3"
                   d="m 231.65307,622.92583 c -0.052,-0.0224 -0.10887,-0.0637 -0.1265,-0.092 -0.0293,-0.047 -0.15875,-1.32408 -0.17311,-1.70856 -0.006,-0.1558 0.005,-0.18539 0.2141,-0.61326 0.12112,-0.24725 0.22078,-0.47555 0.22147,-0.50731 7.2e-4,-0.0318 -0.0685,-0.81095 -0.15373,-1.73151 l -0.15498,-1.67376 -0.35628,-0.25296 c -0.53931,-0.38292 -0.44838,-0.35179 -1.06747,-0.36546 -0.48696,-0.0108 -0.57918,-0.0208 -0.9931,-0.10805 -0.53781,-0.11339 -0.46532,-0.09 -0.95283,-0.30807 -0.5846,-0.26157 -0.7049,-0.32615 -0.77836,-0.41785 -0.18907,-0.23601 -0.59515,-0.8468 -0.61806,-0.92964 -0.0145,-0.0521 -0.15934,-0.79534 -0.32204,-1.65154 -0.16271,-0.85621 -0.30862,-1.5962 -0.32427,-1.64443 -0.0156,-0.0482 -0.0667,-0.12817 -0.11344,-0.17764 -0.0752,-0.0797 -0.12191,-0.0983 -0.40708,-0.16294 -0.50755,-0.11502 -0.70792,-0.17454 -0.95283,-0.2831 -0.12548,-0.0556 -0.33684,-0.14687 -0.4697,-0.20278 -0.13286,-0.0559 -0.28384,-0.1283 -0.33551,-0.16086 -0.15484,-0.0976 -0.76169,-0.6402 -0.90232,-0.80684 -0.072,-0.0854 -0.21031,-0.24045 -0.30721,-0.34456 -0.27387,-0.29426 -0.26806,-0.27985 -0.23876,-0.59183 0.0327,-0.34837 0.0382,-0.37489 0.3396,-1.63726 0.14097,-0.59048 0.27463,-1.09451 0.297,-1.12006 0.0224,-0.0256 0.0817,-0.0542 0.1319,-0.0636 0.0689,-0.0129 0.13443,-0.0652 0.26787,-0.21372 0.20422,-0.22727 0.27356,-0.26049 0.47229,-0.22627 0.47404,0.0816 0.63389,0.11254 0.71354,0.13793 0.0693,0.0221 0.13943,0.096 0.31099,0.32765 0.12182,0.16452 0.23949,0.31397 0.26149,0.3321 0.0343,0.0283 4.37342,0.91323 10.70414,2.1831 1.27702,0.25616 1.74256,0.35942 1.7768,0.39412 0.0255,0.0258 0.21401,0.40935 0.41888,0.85222 0.20488,0.44286 0.42592,0.91353 0.49121,1.04593 l 0.11871,0.24073 0.50996,0.20296 c 0.28048,0.11162 0.62471,0.26905 0.76495,0.34982 0.2296,0.13226 0.2558,0.15534 0.26324,0.23189 0.01,0.10384 -0.10687,0.34706 -0.17769,0.36954 -0.0577,0.0183 -0.17592,-0.021 -0.47137,-0.15645 -0.11625,-0.0534 -0.22741,-0.0969 -0.24702,-0.0969 -0.0535,0 -0.17237,0.059 -0.17237,0.0856 0,0.0128 0.12079,0.27992 0.26841,0.59363 0.14761,0.31371 0.2684,0.59125 0.2684,0.61678 0,0.0255 -0.0274,0.0703 -0.0609,0.0993 -0.0524,0.0456 -0.55166,0.34522 -1.24661,0.74823 -0.19365,0.1123 -0.19365,0.1123 -0.24695,0.29285 -0.12618,0.42733 -0.27068,0.95574 -0.27068,0.98981 0,0.0204 0.13821,0.51083 0.30714,1.09004 0.90839,3.11469 0.86978,2.97121 0.96575,3.58954 0.0493,0.31738 0.14232,0.94231 0.20679,1.38874 l 0.11722,0.81169 -0.46936,0.46992 c -0.25813,0.25846 -0.50727,0.48792 -0.55361,0.50991 -0.0671,0.0319 -0.69047,0.0672 -3.06011,0.17361 -1.63671,0.0734 -3.11473,0.14004 -3.28449,0.1479 -0.24083,0.0111 -0.32942,0.006 -0.40311,-0.0264 z m 2.80532,-0.43004 c 1.15145,-0.0509 2.39549,-0.10526 2.76455,-0.12074 0.36905,-0.0154 0.71043,-0.0342 0.75862,-0.0417 0.0685,-0.0106 0.17576,-0.1 0.49016,-0.40819 l 0.40256,-0.39461 -0.11934,-0.81863 c -0.27976,-1.91897 -0.17846,-1.48444 -1.02528,-4.39778 -0.24179,-0.83184 -0.43962,-1.54599 -0.43962,-1.587 0,-0.041 0.0771,-0.34313 0.17142,-0.67138 0.12816,-0.44628 0.18741,-0.61238 0.23485,-0.65847 0.0349,-0.0339 0.34727,-0.22738 0.69418,-0.42997 0.34692,-0.2026 0.64475,-0.38184 0.66186,-0.39832 0.0234,-0.0226 -0.004,-0.10463 -0.11221,-0.33191 -0.0788,-0.16607 -0.14716,-0.30205 -0.15188,-0.30217 -0.0394,-8.2e-4 -1.6128,-0.32014 -1.62158,-0.32893 -0.0118,-0.0118 -0.32784,-2.20179 -0.31957,-2.21399 0.002,-0.004 0.17869,0.0294 0.3915,0.0736 0.36503,0.0758 0.3889,0.0777 0.42165,0.0336 0.078,-0.10513 0.0697,-0.16554 -0.0409,-0.2964 l -0.10657,-0.12614 -2.61426,-0.5283 c -1.43784,-0.29056 -2.6228,-0.52911 -2.63322,-0.5301 -0.0104,-8.1e-4 -0.0687,-0.087 -0.12956,-0.1912 -0.0609,-0.10417 -0.13686,-0.20039 -0.16894,-0.21382 -0.0712,-0.0298 -3.14937,-0.64363 -3.2275,-0.64358 -0.0306,2e-5 -0.0836,0.0297 -0.11766,0.0659 -0.0341,0.0363 -0.10562,0.096 -0.15901,0.13272 -0.0857,0.059 -0.11116,0.0641 -0.21785,0.043 -0.0664,-0.0131 -1.19458,-0.23789 -2.507,-0.4996 l -2.38622,-0.47584 -0.0716,0.0801 c -0.0905,0.10126 -0.0853,0.26968 0.009,0.29191 0.065,0.0153 4.48236,0.91228 4.72092,0.9586 0.17585,0.0341 0.17402,0.0293 0.12719,0.34257 l -0.0261,0.17446 0.17684,0.34893 c 0.0973,0.19191 0.19077,0.36251 0.20779,0.37912 0.0324,0.0316 2.78657,0.62739 2.90042,0.62739 0.036,0 0.20942,-0.0721 0.38527,-0.16004 l 0.31971,-0.16004 0.1076,-0.23586 c 0.0591,-0.12971 0.12299,-0.2751 0.14182,-0.32308 0.019,-0.0484 0.0537,-0.0874 0.0779,-0.0875 0.024,-1.5e-4 0.29434,0.0507 0.60065,0.11315 0.50578,0.10303 0.55688,0.11846 0.5563,0.16805 -3e-4,0.0301 0.0739,0.53489 0.16511,1.12191 0.0912,0.58702 0.16037,1.07269 0.15379,1.07926 -0.0186,0.0186 -7.49056,-1.47531 -7.55604,-1.51066 -0.0581,-0.0314 -0.28467,-0.36872 -0.58618,-0.87279 l -0.16105,-0.26924 -0.42944,-0.23723 c -0.23619,-0.13048 -0.47274,-0.24903 -0.52568,-0.26346 -0.0529,-0.0145 -0.4213,-0.0784 -0.81862,-0.14196 -0.64663,-0.10358 -0.72422,-0.1112 -0.7397,-0.0725 -0.0266,0.0664 -0.10311,0.53716 -0.10686,0.65771 -0.002,0.0863 0.03,0.16522 0.16675,0.40261 0.13889,0.24107 0.21952,0.34372 0.43952,0.55953 0.44034,0.43196 0.51677,0.48411 1.03548,0.7065 0.39153,0.16787 0.5606,0.22314 1.02814,0.33616 0.63214,0.15278 0.65503,0.16519 0.84458,0.45783 l 0.10865,0.16772 0.29592,1.54332 c 0.16275,0.84883 0.30955,1.60686 0.32621,1.68451 0.0228,0.10602 0.0874,0.22302 0.25948,0.46971 0.12604,0.18068 0.25948,0.36104 0.29653,0.4008 0.0389,0.0418 0.2575,0.15848 0.51795,0.27651 0.38244,0.17333 0.50878,0.21669 0.8352,0.2866 0.3435,0.0736 0.45196,0.0842 1.01534,0.0996 0.54598,0.0149 0.64336,0.024 0.72468,0.0679 0.17645,0.0951 1.05354,0.7258 1.09288,0.78583 0.0216,0.0329 0.0445,0.10565 0.051,0.16157 0.04,0.34728 0.30553,3.29655 0.30553,3.39379 0,0.0943 -0.0448,0.20964 -0.21755,0.56051 -0.25213,0.51205 -0.23991,0.41176 -0.15857,1.30211 0.0296,0.324 0.0538,0.61635 0.0539,0.64968 0,0.0583 0.007,0.06 0.18129,0.0457 0.0996,-0.008 1.12326,-0.0565 2.27471,-0.10738 z m -2.04302,-0.35016 c -0.11038,-0.0545 -0.14111,-0.13009 -0.16036,-0.39477 l -0.016,-0.22032 0.18859,-0.30175 c 0.10371,-0.16596 0.21443,-0.34774 0.24603,-0.40397 l 0.0574,-0.10223 -0.14907,-1.2467 c -0.082,-0.68569 -0.26966,-2.2794 -0.41704,-3.54157 -0.14739,-1.26216 -0.31166,-2.66749 -0.36505,-3.12295 -0.0533,-0.45545 -0.0903,-0.85513 -0.082,-0.88817 0.0225,-0.0897 0.72628,-0.73961 0.80095,-0.73963 0.0981,-6e-5 4.37388,0.86072 4.46611,0.89909 0.12799,0.0533 0.44,0.5529 0.43855,0.70229 -4.4e-4,0.0419 -0.10708,0.49952 -0.23703,1.01697 l -0.23628,0.94082 0.19549,0.83065 c 0.10752,0.45685 0.35389,1.50098 0.54748,2.32028 0.1936,0.8193 0.44234,1.92709 0.55275,2.46175 l 0.20078,0.9721 -0.19153,0.2392 c -0.10534,0.13156 -0.22363,0.25382 -0.26286,0.2717 -0.0392,0.0179 -0.22839,0.0439 -0.42035,0.0577 -0.5746,0.0415 -4.84027,0.29204 -4.96109,0.29138 -0.0615,-2.9e-4 -0.14947,-0.0192 -0.19549,-0.0419 z m 3.4972,-3.40606 c 0.18265,-0.13155 0.25363,-0.20063 0.29078,-0.28301 0.027,-0.06 0.10821,-0.20809 0.18041,-0.32922 0.15125,-0.25381 0.15242,-0.27789 0.0368,-0.75706 l -0.0648,-0.26839 -0.22395,-0.21165 c -0.12318,-0.11639 -0.26019,-0.22656 -0.30448,-0.24481 -0.0443,-0.0182 -0.23149,-0.0669 -0.41602,-0.10812 l -0.3355,-0.0749 -0.24157,0.0485 c -0.13286,0.0267 -0.26572,0.0599 -0.29524,0.0736 -0.0673,0.0315 -0.46186,0.53218 -0.50966,0.64685 -0.035,0.0839 -0.0995,0.54167 -0.0996,0.70652 0,0.0979 0.21895,0.45733 0.35933,0.58982 0.0489,0.0462 0.19142,0.15181 0.31676,0.23485 l 0.22791,0.15099 0.41863,0 0.41863,0 0.24164,-0.17403 z m -6.78199,-3.44939 c -0.51751,-0.11084 -0.55713,-0.12512 -0.75709,-0.27293 -0.27398,-0.20252 -0.4195,-0.37961 -0.59312,-0.72178 -0.19679,-0.3878 -0.23157,-0.51946 -0.25125,-0.95123 -0.0156,-0.34358 -0.0145,-0.35284 0.0719,-0.60391 0.12522,-0.36374 0.16671,-0.43507 0.38757,-0.66615 0.1434,-0.15004 0.27431,-0.25209 0.48091,-0.37485 0.42153,-0.25049 0.44348,-0.25651 0.94292,-0.25873 0.46911,-0.002 0.60509,0.024 0.89935,0.17254 0.23528,0.11877 0.22581,0.084 0.1958,0.71849 -0.0297,0.62831 -0.021,0.59936 -0.2972,0.98672 -0.24194,0.3393 -0.24602,0.34332 -0.63795,0.62862 -0.34124,0.2484 -0.53815,0.3501 -0.67783,0.3501 -0.0298,0 -0.0342,0.0226 -0.0196,0.10065 0.0103,0.0554 0.0241,0.10604 0.0306,0.11263 0.0548,0.0556 1.10994,-0.42644 1.28115,-0.5852 0.0421,-0.0391 0.17181,-0.19358 0.28828,-0.34346 0.27303,-0.35137 0.34503,-0.41195 0.48944,-0.41182 0.25392,1.5e-4 0.34951,0.14956 0.35216,0.55013 0.002,0.41043 -0.19211,0.7927 -0.58242,1.14277 -0.18726,0.16796 -0.27862,0.22615 -0.54525,0.3473 -0.40471,0.1839 -0.5297,0.19336 -1.0584,0.0802 z m 0.65777,-0.34731 c 0.26534,-0.10625 0.36889,-0.17564 0.59031,-0.3956 0.16942,-0.16832 0.36781,-0.45077 0.27776,-0.39546 -0.0199,0.0122 -0.0845,0.0541 -0.14357,0.0931 -0.24691,0.16293 -0.74893,0.4035 -1.09319,0.52387 -0.20267,0.0708 -0.36396,0.1334 -0.35838,0.13896 0.009,0.009 0.45511,0.10771 0.50769,0.11215 0.0123,8.1e-4 0.11102,-0.0336 0.21938,-0.077 z m -1.32353,-0.9267 c 0.0763,-0.0226 0.15764,-0.0417 0.1808,-0.0424 0.0971,-0.002 0.24493,-0.08 0.48496,-0.25349 0.35133,-0.25394 0.38024,-0.28305 0.61117,-0.61544 l 0.20358,-0.29304 0.0252,-0.46842 c 0.0285,-0.53038 0.0412,-0.49483 -0.19575,-0.54629 -0.25504,-0.0554 -0.49729,-0.0421 -0.76494,0.0421 -0.23646,0.0743 -0.24672,0.0811 -0.48494,0.3208 l -0.24336,0.24486 -0.1149,0.329 -0.1149,0.329 0.0105,0.35544 c 0.01,0.33484 0.0158,0.36749 0.10235,0.56377 0.0895,0.20292 0.0928,0.20662 0.12672,0.14184 0.0239,-0.0457 0.0782,-0.0794 0.17355,-0.1077 z m 8.21256,-2.49761 c -0.0786,-0.0192 -0.15072,-0.0426 -0.16023,-0.0521 -0.0348,-0.0348 -0.23718,-2.18849 -0.20567,-2.18849 0.0166,0 0.0986,0.0137 0.18229,0.0306 0.14898,0.0299 0.1521,0.0324 0.1521,0.12152 0,0.0844 0.25288,1.93407 0.28285,2.06898 0.0159,0.0712 -0.0261,0.0745 -0.25134,0.0196 z m -0.58407,-0.11946 c -0.0507,-0.0205 -0.0642,-0.0819 -0.14295,-0.64918 -0.12369,-0.89142 -0.21476,-1.59061 -0.20803,-1.59733 0.003,-0.003 0.0712,0.009 0.15106,0.0265 0.12805,0.0284 0.1477,0.0418 0.16555,0.11252 0.0111,0.0441 0.0635,0.50903 0.11642,1.03309 0.0529,0.52405 0.10286,0.98605 0.11102,1.02664 0.0135,0.0669 0.007,0.0736 -0.0611,0.0721 -0.0417,-8.2e-4 -0.10115,-0.0119 -0.13196,-0.0243 z m -0.45869,-0.0883 -0.13895,-0.0268 -0.018,-0.20456 c -0.01,-0.11251 -0.0578,-0.60918 -0.10622,-1.10372 -0.0485,-0.49454 -0.0841,-0.90359 -0.0792,-0.909 0.005,-0.006 0.0669,7.2e-4 0.1378,0.0138 l 0.12882,0.0237 -0.008,0.12038 c -0.005,0.0662 0.0528,0.56037 0.12749,1.09814 0.15021,1.08143 0.14359,1.02321 0.11567,1.01831 -0.0111,-0.002 -0.0827,-0.0155 -0.15906,-0.0303 z m -0.49181,-0.0975 c -0.0632,-0.0175 -0.0683,-0.0328 -0.0868,-0.25902 -0.0109,-0.13222 -0.0667,-0.63295 -0.1241,-1.11272 -0.0574,-0.47977 -0.10055,-0.87668 -0.0958,-0.88202 0.005,-0.006 0.0601,0.007 0.12323,0.0269 l 0.11466,0.0365 0.086,0.89914 c 0.0473,0.49454 0.0946,0.99276 0.10499,1.10716 0.0204,0.22391 0.0206,0.22365 -0.12218,0.18406 z m -0.4241,-0.083 c -0.0487,-0.0115 -0.096,-0.0284 -0.10507,-0.0375 -0.0161,-0.0161 -0.19319,-1.95528 -0.19474,-2.13238 -7.3e-4,-0.0869 0.002,-0.0888 0.0865,-0.0707 0.048,0.0103 0.0922,0.0233 0.0982,0.0288 0.011,0.0101 0.0445,0.28708 0.17516,1.44642 0.0382,0.33953 0.076,0.65658 0.0838,0.70455 0.0154,0.0946 0.01,0.0971 -0.14387,0.0608 z m -0.50607,-0.0995 c -0.0319,-0.007 -0.0643,-0.0377 -0.0721,-0.0702 -0.0207,-0.0853 -0.33972,-2.12612 -0.33972,-2.17304 0,-0.0325 0.0227,-0.0355 0.1275,-0.0165 0.22118,0.0399 0.24147,0.0486 0.25825,0.1107 0.009,0.0333 0.0525,0.48342 0.0966,1.00009 0.0441,0.51667 0.085,0.99075 0.0909,1.05349 0.0114,0.12198 0.002,0.12741 -0.16139,0.0955 z m 5.69032,0.28077 c 0.009,-0.0329 0.007,-0.0685 -0.003,-0.0788 -0.0277,-0.0272 -1.05818,-0.42824 -1.07001,-0.41641 -0.006,0.006 0.0329,0.10247 0.0852,0.21565 l 0.0951,0.20577 0.0835,-0.0431 c 0.12849,-0.0664 0.23139,-0.0526 0.49275,0.0663 0.13232,0.0602 0.25427,0.10971 0.271,0.11005 0.0168,2.8e-4 0.0375,-0.0263 0.0461,-0.0593 z m -15.10499,-5.49796 0.0529,-0.10931 -0.13489,-0.1396 c -0.0742,-0.0768 -0.16671,-0.18224 -0.20563,-0.23435 -0.0682,-0.0913 -0.0827,-0.097 -0.40242,-0.15631 l -0.33168,-0.0616 -0.15741,0.16746 c -0.14405,0.15327 -0.15612,0.17539 -0.14224,0.26094 0.008,0.0514 0.0197,0.098 0.0253,0.10359 0.01,0.01 1.16016,0.27134 1.21484,0.27604 0.0155,0.002 0.052,-0.0467 0.0812,-0.10687 z"
                   style="fill:#f6e7c1;fill-opacity:1" />
                <path
                   sodipodi:nodetypes="csssssssssccsssscccsssccsssccssccsssccssccsscccssccssccssccssc"
                   id="path5540-7"
                   d="m 260.75527,596.67502 c -0.75443,-0.16393 -1.60825,-0.76342 -2.06295,-1.44846 -0.35302,-0.53183 -0.50048,-1.03875 -0.50733,-1.74404 -0.007,-0.68481 0.0614,-0.98768 0.35572,-1.5822 0.25336,-0.51187 0.92732,-1.19347 1.41181,-1.42782 1.37435,-0.66476 2.82329,-0.43191 3.87889,0.62338 0.47638,0.47625 0.76653,1.01079 0.90598,1.66911 0.11378,0.53714 0.10841,0.83075 -0.0272,1.4901 -0.13216,0.64228 -0.1514,0.68479 -0.53576,1.1836 -0.38181,0.49549 -0.50352,0.59712 -1.04663,0.87396 -0.80605,0.41086 -1.59484,0.53134 -2.37248,0.36237 z m 0.52099,-0.67537 c 0.32579,-0.43522 0.3978,-0.71041 0.22548,-0.86161 -0.14886,-0.13062 -0.27536,-0.053 -0.49024,0.30069 -0.10571,0.17402 -0.22803,0.37254 -0.27184,0.44118 -0.0659,0.10322 -0.0666,0.14049 -0.004,0.21575 0.13103,0.15788 0.38434,0.11291 0.54072,-0.096 l 10e-6,0 z m 0.48279,-1.15069 c 0.13715,-0.17725 0.12742,-0.27221 -0.0365,-0.35701 -0.14838,-0.0767 -0.17234,-0.075 -0.25693,0.0185 -0.12155,0.13432 -0.11857,0.27495 0.007,0.34832 0.13587,0.0791 0.2195,0.0763 0.28608,-0.01 z m -0.0692,-0.6985 c 0.0939,-0.0687 0.0997,-0.10125 0.041,-0.23013 -0.0726,-0.15931 -0.1819,-0.18715 -0.36019,-0.0917 -0.10911,0.0584 -0.10293,0.17416 0.0176,0.32995 0.0724,0.0935 0.16606,0.091 0.30158,-0.008 z m -0.30785,-0.92515 c 0.0846,-0.18564 -0.0267,-0.33087 -0.23491,-0.30666 -0.10499,0.0122 -0.15429,0.0563 -0.16756,0.14991 -0.0406,0.28613 0.28563,0.41317 0.40247,0.15675 z m 2.97947,-0.45881 c 0.0379,-0.0457 0.0605,-0.14281 0.0502,-0.21575 -0.0144,-0.10143 -0.0611,-0.13674 -0.19877,-0.15013 -0.15488,-0.015 -0.18553,0.005 -0.21989,0.14158 -0.0612,0.24387 0.21345,0.41107 0.36846,0.2243 z m -3.51848,-0.10097 c 0.18603,-0.18603 -0.10086,-0.50307 -0.30323,-0.33511 -0.0894,0.0742 -0.11951,0.29593 -0.0497,0.36579 0.0625,0.0625 0.27846,0.0437 0.35287,-0.0307 z m -1.73482,-0.25226 c 0.2007,-0.30631 -0.19746,-0.54177 -0.40795,-0.24124 -0.1119,0.15975 -0.11291,0.2433 -0.004,0.35194 0.11039,0.11039 0.30088,0.0592 0.41223,-0.1107 l -2e-5,0 z m 4.73549,0.008 c 0.10993,-0.13245 0.0512,-0.34557 -0.10122,-0.36717 -0.25449,-0.0361 -0.38285,0.18553 -0.20849,0.3599 0.1127,0.11269 0.22012,0.11521 0.30971,0.007 z m -3.90593,-0.034 c 0.22055,-0.11804 0.10392,-0.45825 -0.15711,-0.45825 -0.19328,0 -0.28162,0.20118 -0.16588,0.37783 0.10135,0.15468 0.15791,0.16876 0.32299,0.0804 z m 3.50379,-0.68461 c 0.0883,-0.16507 0.0743,-0.22163 -0.0804,-0.32298 -0.22982,-0.15058 -0.46801,0.0381 -0.39596,0.31365 0.043,0.16447 0.38971,0.17127 0.47638,0.009 z m -0.23808,-0.68298 c 0.0228,-0.16085 -0.0812,-0.29888 -0.2252,-0.29888 -0.13432,0 -0.22925,0.17312 -0.18587,0.33899 0.0484,0.18496 0.3838,0.15223 0.41107,-0.0401 z"
                   style="fill:#f6e7c1;fill-opacity:1" />
                <path
                   id="path5556-2"
                   d="m 259.74852,604.85003 c -0.012,0.0126 -0.12363,0.10392 -0.23587,0.23581 -0.2221,0.26078 -1.08907,1.07018 -1.44149,1.32648 -0.81149,0.5902 -1.8289,0.93727 -3.04022,1.06118 -0.19732,0.0207 -0.57383,0.0389 -0.99593,0.0295 -0.57743,-0.0121 -0.69596,-0.0287 -0.96973,-0.0884 -0.33572,-0.0733 -0.4198,-0.0667 -0.44555,-0.0295 -0.11414,0.16446 -0.25903,3.62393 -0.18346,4.48054 0.25514,2.89012 0.55807,4.50505 1.10077,5.9544 0.20067,0.5359 0.36171,0.89341 0.68143,1.44439 0.35764,0.61628 0.63643,1.01738 1.02214,1.47386 0.64096,0.75853 1.20306,1.24922 2.33258,2.00445 0.91532,0.61199 1.32362,0.85382 1.88704,1.12014 l 0.28829,0.1179 0.20967,-0.0884 c 0.28612,-0.12829 0.68555,-0.31456 1.04836,-0.53059 0.43895,-0.26142 1.55474,-1.02242 1.91324,-1.29701 0.70772,-0.54205 1.4364,-1.33753 1.96566,-2.12235 0.30221,-0.44813 0.80341,-1.33936 0.96973,-1.73916 0.50411,-1.21181 0.86052,-2.73987 1.07456,-4.65741 0.19787,-1.77646 0.20149,-1.99976 0.18346,-3.15406 -0.0191,-1.21997 -0.14367,-2.94792 -0.20967,-3.00668 -0.0323,-0.0289 -0.0757,-0.0239 -0.34072,0.0295 -0.52534,0.10538 -0.86162,0.13592 -1.44148,0.1179 -0.62542,-0.0195 -1.05105,-0.0714 -1.52011,-0.17686 -0.68905,-0.15493 -1.52358,-0.50287 -2.04429,-0.85485 -0.33678,-0.22765 -1.15983,-0.97924 -1.4939,-1.35594 -0.16054,-0.18097 -0.30251,-0.3077 -0.31451,-0.29478 z m -0.0262,0.47163 c 0.0115,-1.4e-4 0.19223,0.18201 0.41934,0.41269 0.65557,0.66586 1.01434,0.94977 1.54632,1.26751 0.56135,0.3353 1.37974,0.63346 2.07049,0.73693 0.91304,0.13684 1.62407,0.14349 2.385,0 0.21558,-0.0406 0.34948,-0.0451 0.36693,-0.0295 0.0155,0.0137 0.0578,0.18113 0.0786,0.3832 0.0862,0.83653 0.10735,1.56843 0.10484,2.74138 -0.003,1.21049 -0.007,1.23038 -0.13105,2.38766 -0.0686,0.63727 -0.15025,1.3021 -0.18346,1.50334 -0.17539,1.06299 -0.4253,2.11376 -0.70764,2.88876 -0.58192,1.59737 -1.70862,3.15162 -2.9878,4.12682 -0.28602,0.21805 -1.201,0.82481 -1.62495,1.09066 -0.363,0.22763 -0.93433,0.54762 -1.12697,0.61903 -0.18887,0.0701 -0.20055,0.0755 -0.34072,0.0295 -0.38088,-0.12501 -1.03309,-0.47404 -1.86082,-1.03169 -1.26408,-0.85163 -1.71088,-1.24975 -2.41121,-2.09289 -0.56922,-0.68526 -1.17283,-1.75342 -1.4939,-2.59399 -0.28834,-0.75487 -0.554,-1.76015 -0.73385,-2.80035 -0.10098,-0.58394 -0.11008,-0.7175 -0.23588,-1.91601 l -0.13104,-1.03171 0.0262,-1.53282 c 0.0141,-1.49107 0.0312,-2.04158 0.10484,-2.56451 0.0411,-0.29174 0.0126,-0.2801 0.55038,-0.17688 0.34208,0.0649 0.41956,0.0886 1.02215,0.0884 0.4797,-2e-4 0.76047,-0.0241 1.02214,-0.0589 0.88325,-0.11783 1.67461,-0.3768 2.385,-0.79588 0.33057,-0.19501 0.93438,-0.71723 1.54632,-1.32648 0.18012,-0.1793 0.32923,-0.32409 0.34072,-0.32425 z m 0,0.32425 c -0.01,0 -0.22352,0.20043 -0.47176,0.44216 -0.85433,0.83186 -1.31911,1.1804 -2.04429,1.50334 -0.99901,0.44497 -2.30457,0.59302 -3.51198,0.41268 -0.26926,-0.0405 -0.48505,-0.0705 -0.49797,-0.0589 -0.0269,0.0256 -0.10651,0.88416 -0.15725,1.73915 -0.0545,0.918 -0.0164,2.34873 0.0786,3.21301 0.0427,0.38823 0.0869,0.85589 0.10483,1.03171 0.1357,1.32528 0.50235,2.93518 0.8911,3.86153 0.66337,1.58067 1.68588,2.86829 2.9616,3.80256 0.75959,0.55629 1.79604,1.23268 2.30637,1.47386 0.3348,0.15819 0.42539,0.17421 0.65522,0.0589 0.6575,-0.32965 1.89495,-1.15273 2.6733,-1.76863 0.49549,-0.39209 1.16546,-1.1513 1.59874,-1.76864 0.28847,-0.41105 0.82514,-1.34394 0.99593,-1.76864 0.29975,-0.74531 0.50753,-1.50257 0.70764,-2.56451 0.12249,-0.65002 0.18825,-1.17664 0.3145,-2.44661 0.0803,-0.80884 0.0786,-0.99934 0.0786,-1.85708 0,-0.90581 -0.0222,-1.78695 -0.10484,-2.65295 -0.0192,-0.20143 -0.0491,-0.35372 -0.0524,-0.35372 -0.003,0 -0.13346,8e-4 -0.2883,0.0295 -0.87374,0.16174 -1.9125,0.15287 -2.80434,-0.0589 -0.56777,-0.13487 -1.12711,-0.36894 -1.59874,-0.64851 -0.30059,-0.17818 -0.9187,-0.71607 -1.44148,-1.23805 -0.20542,-0.20509 -0.38282,-0.3832 -0.39313,-0.3832 z m -5.84457,2.71191 c 0.20265,0 0.34072,0.18476 0.34072,0.41268 0,0.22791 -0.13807,0.41269 -0.34072,0.41269 -0.20265,0 -0.39313,-0.18478 -0.39313,-0.41269 0,-0.22792 0.19048,-0.41268 0.39313,-0.41268 z m 11.66292,0 c 0.20264,0 0.36692,0.18476 0.36692,0.41268 0,0.22791 -0.16428,0.41269 -0.36692,0.41269 -0.20265,0 -0.36692,-0.18478 -0.36692,-0.41269 0,-0.22792 0.16427,-0.41268 0.36692,-0.41268 z m -5.76594,13.67744 c 0.20265,0 0.34072,0.18477 0.34072,0.41269 0,0.22791 -0.13807,0.41268 -0.34072,0.41268 -0.20265,0 -0.39313,-0.18477 -0.39313,-0.41268 0,-0.22792 0.19048,-0.41269 0.39313,-0.41269 z"
                   style="fill:#5a5a5a;fill-opacity:1" />
                <path
                   sodipodi:nodetypes="cssssssssssssssssssccsssscccsssscccsssccccccccccsssssssssssscccsssssssscccsssssscccccssssscccsssssscccccssscccsccsssssssccsssssccsssssccsscccscc"
                   id="path5613-6"
                   d="m 231.08046,595.49368 c -1.84096,-0.11193 -3.39894,-0.43329 -4.80163,-0.99041 -1.8655,-0.74093 -3.15085,-1.90384 -3.46421,-3.13422 -0.0886,-0.34774 -0.0612,-1.08924 0.0532,-1.43936 0.18158,-0.55595 0.68569,-1.2334 1.27906,-1.71885 0.27226,-0.22275 0.35786,-0.26312 0.35786,-0.16879 0,0.0284 0.0689,0.54623 0.1531,1.15067 0.13842,0.99361 0.14786,1.1115 0.0985,1.22969 -0.25808,0.61766 -0.0874,1.22999 0.5053,1.8128 0.95106,0.93521 2.74963,1.57583 5.13995,1.83079 0.72417,0.0772 2.3527,0.0876 3.06481,0.0195 2.96046,-0.28316 5.16225,-1.21623 5.77282,-2.44639 0.13558,-0.27317 0.14335,-0.3092 0.14233,-0.65952 -0.001,-0.41774 -0.0777,-0.63719 -0.34221,-0.98192 -0.0779,-0.10154 -0.14165,-0.21028 -0.14165,-0.24166 0,-0.0711 0.37985,-1.68082 0.41997,-1.77978 0.026,-0.0642 0.0618,-0.0464 0.31871,0.15872 1.56538,1.24982 1.93046,2.77496 0.99797,4.16906 -1.07585,1.60841 -3.6681,2.77735 -6.9068,3.11452 -0.55582,0.0579 -2.17528,0.10386 -2.64704,0.0752 z m -0.34915,-2.59398 c -0.86842,-0.1182 -1.10261,-0.18219 -2.56047,-0.69964 -0.32801,-0.11642 -0.77473,-0.32412 -1.27774,-0.59407 -0.91736,-0.49232 -1.33601,-0.82432 -1.58678,-1.25837 -0.14004,-0.24238 -0.15449,-0.2987 -0.2434,-0.94862 -0.37626,-2.75049 -0.72623,-5.15746 -0.95015,-6.53486 l -0.0797,-0.4902 0.0862,-0.16931 c 0.0474,-0.0931 0.12848,-0.22479 0.18011,-0.2926 0.21184,-0.27826 0.78235,-0.62124 1.4308,-0.86018 0.3251,-0.1198 1.36463,-0.39375 1.49408,-0.39375 0.0497,0 0.0736,-0.0274 0.0736,-0.0842 0,-0.0463 -0.11512,-0.72261 -0.25582,-1.5029 l -0.25582,-1.41871 0.12135,-0.10131 c 0.0668,-0.0557 0.19496,-0.12441 0.28492,-0.15263 0.09,-0.0282 0.17961,-0.0652 0.19921,-0.0822 0.0207,-0.0179 -0.0167,-0.11499 -0.0888,-0.231 -0.0684,-0.11009 -0.11939,-0.20302 -0.11323,-0.20652 0.31764,-0.0965 0.48523,-0.22086 0.56823,0.13756 l 0.0539,0.25704 0.19289,0.0228 c 0.10609,0.0126 0.24783,0.0549 0.31499,0.0942 l 0.12211,0.0713 0.0489,0.63808 c 0.0269,0.35094 0.0881,1.02104 0.13601,1.48911 l 0.0872,0.85103 0.25217,-0.0169 c 0.13869,-0.009 1.01158,-0.0165 1.93975,-0.0159 1.76916,10e-4 2.199,0.0281 3.45275,0.2168 2.49359,0.37541 4.44346,1.13884 5.06644,1.98365 0.21603,0.29296 0.26124,0.50341 0.20892,0.97242 -0.0922,0.82691 -0.20452,1.67169 -0.28971,2.17982 -0.0501,0.29872 -0.10261,0.63914 -0.11673,0.7565 -0.0141,0.11735 -0.0847,0.43159 -0.15675,0.69831 -0.0721,0.26671 -0.22815,0.87773 -0.3468,1.35782 -0.23697,0.95893 -0.54169,1.92402 -0.74213,2.35047 -0.0996,0.21197 -0.19839,0.34102 -0.43126,0.5635 -0.34784,0.33232 -0.82376,0.60625 -0.98254,0.56552 -0.0523,-0.0134 -0.32298,-0.19513 -0.60147,-0.40381 -0.2785,-0.20869 -1.0603,-0.74604 -1.73734,-1.19412 l -1.23098,-0.8147 0.0246,-0.27156 c 0.0135,-0.14936 0.0367,-0.28454 0.0514,-0.30039 0.0208,-0.0224 2.68298,1.88101 3.2033,2.2903 0.13136,0.10332 0.21747,0.10797 0.32852,0.0177 0.0685,-0.0556 0.10444,-0.18357 0.1991,-0.70801 0.15917,-0.88186 0.36607,-2.39457 0.44837,-3.27818 0.0854,-0.91722 0.0916,-2.1565 0.0116,-2.33254 -0.0614,-0.13516 -0.52257,-0.4996 -1.16075,-0.91731 -0.41821,-0.27374 -1.57718,-0.86478 -2.09493,-1.06835 -0.43319,-0.17033 -2.20428,-0.73054 -2.40528,-0.76082 l -0.17458,-0.0263 0.15988,0.16676 c 0.23052,0.24046 0.70375,0.83227 0.78002,0.97547 0.11595,0.21772 0.47974,1.00692 0.59589,1.29269 0.0837,0.20585 0.11299,0.34182 0.11297,0.52374 -2e-5,0.13513 -0.13902,1.29316 -0.30889,2.5734 -0.16987,1.28023 -0.37967,2.86584 -0.46622,3.52357 -0.16364,1.24361 -0.20941,1.42332 -0.39041,1.53288 -0.12402,0.0751 -0.72865,0.0891 -1.18155,0.0275 z m 0.87289,-0.59455 c 0,-0.0271 0.43315,-3.23855 0.48306,-3.58158 l 0.0203,-0.13966 -0.36799,-0.0242 c -0.3818,-0.0251 -0.49101,-0.0625 -0.76845,-0.26351 -0.23403,-0.16953 -0.48489,-0.2283 -0.97454,-0.2283 -0.23632,0 -0.48824,-0.0168 -0.55983,-0.0373 -0.16145,-0.0463 -0.81302,-0.53148 -0.93967,-0.6997 -0.26305,-0.34942 -0.5519,-0.6158 -0.78398,-0.72301 -0.23338,-0.10782 -0.25939,-0.11115 -0.86717,-0.11115 l -0.62658,0 -0.14932,-0.11964 c -0.0821,-0.0658 -0.27331,-0.2987 -0.42484,-0.51756 -0.3223,-0.46549 -0.71376,-0.88142 -0.71376,-0.75837 0,0.0428 0.11306,1.02384 0.25124,2.18012 0.17723,1.48304 0.27447,2.16844 0.33011,2.32674 0.0656,0.18658 0.14163,0.28739 0.45126,0.59819 0.31996,0.32116 0.46551,0.43 1.03368,0.77295 0.82759,0.49952 0.75895,0.46778 1.8714,0.86561 l 0.93108,0.33298 0.7953,0.074 c 0.95944,0.0892 1.00867,0.0918 1.00867,0.0534 z m 5.71951,-1.12168 c 0.35499,-0.17566 0.39669,-0.24371 0.6779,-1.10629 0.16382,-0.50252 0.58568,-2.1501 0.58568,-2.2874 0,-0.021 -0.0917,0.0391 -0.20367,0.13349 -0.11202,0.0944 -0.3526,0.26993 -0.53463,0.38999 l -0.33095,0.21829 -0.24467,1.32969 c -0.13457,0.73133 -0.25305,1.36024 -0.26328,1.39758 -0.0249,0.0908 -0.0195,0.0895 0.31362,-0.0754 z m -8.86718,-8.92467 c 0.0692,-0.0514 0.10598,-0.11895 0.11378,-0.2089 0.0102,-0.11813 -0.37094,-4.03366 -0.39502,-4.05774 -0.005,-0.005 -0.13944,0.0178 -0.29803,0.0514 -0.17204,0.0365 -0.38599,0.0537 -0.53042,0.0427 -0.23167,-0.0177 -0.24121,-0.0149 -0.22188,0.0643 0.0111,0.0455 0.18282,0.98886 0.38159,2.09628 0.3,1.67145 0.37393,2.02291 0.43525,2.06888 0.0982,0.0737 0.38111,0.0423 0.51473,-0.057 z m -0.47539,-4.5133 c 0.22817,-0.11308 0.27635,-0.24495 0.11227,-0.30733 -0.16269,-0.0619 -0.25499,-0.0459 -0.33685,0.0581 -0.0886,0.11269 -0.25211,0.12895 -0.32291,0.0321 -0.0441,-0.0603 -0.0565,-0.0596 -0.17476,0.01 -0.18733,0.10973 -0.23213,0.20037 -0.13551,0.27416 0.12025,0.0918 0.61553,0.0533 0.85776,-0.0668 z m 8.53062,11.75505 c -0.12802,-0.0835 -0.91467,-0.57295 -1.74811,-1.0876 -1.49178,-0.92118 -1.51507,-0.93751 -1.49856,-1.05005 0.009,-0.0644 0.0359,-0.10674 0.0605,-0.097 0.0444,0.0176 3.48629,2.07852 3.5087,2.10091 0.0216,0.0215 -0.0393,0.29179 -0.065,0.28863 -0.0136,-0.002 -0.12953,-0.0714 -0.25755,-0.15493 z m 0.13578,-2.3378 c -1.40786,-0.64065 -3.01448,-1.4062 -3.0551,-1.45576 -0.0267,-0.0326 -0.0485,-0.0803 -0.0485,-0.10612 0,-0.0271 0.74611,0.2508 1.76464,0.65724 l 1.76464,0.70417 5.5e-4,0.18428 c 3.8e-4,0.10135 -0.0126,0.18419 -0.0286,0.18408 -0.016,-1.1e-4 -0.19495,-0.0756 -0.39765,-0.16789 l -2e-5,0 z"
                   style="fill:#5a5a5a;fill-opacity:1" />
                <path
                   sodipodi:nodetypes="csssssc"
                   id="path5613-4-0"
                   d="m 226.68888,576.74108 c -0.19937,-0.0808 -0.21541,-0.25234 -0.0619,-0.6614 0.14931,-0.39781 0.0985,-0.76079 -0.14244,-1.01836 -0.11649,-0.1245 -0.0965,-0.12827 0.26944,-0.0507 0.44339,0.094 0.76488,0.30408 0.89136,0.58253 0.0863,0.19003 0.096,0.5889 0.0189,0.77364 -0.12419,0.29722 -0.65908,0.50249 -0.97534,0.3743 z"
                   style="fill:#f6e7c1;fill-opacity:1" />
              </g>
            </g>
          </g>
        </g>
      </g>
    </g>
  </g>
</svg>
