<?xml version="1.0" encoding="UTF-8" standalone="no"?>
<!-- Created with Inkscape (http://www.inkscape.org/) -->

<svg
   xmlns:dc="http://purl.org/dc/elements/1.1/"
   xmlns:cc="http://creativecommons.org/ns#"
   xmlns:rdf="http://www.w3.org/1999/02/22-rdf-syntax-ns#"
   xmlns:svg="http://www.w3.org/2000/svg"
   xmlns="http://www.w3.org/2000/svg"
   xmlns:sodipodi="http://sodipodi.sourceforge.net/DTD/sodipodi-0.dtd"
   xmlns:inkscape="http://www.inkscape.org/namespaces/inkscape"
   width="57"
   height="57"
   id="svg8154"
   version="1.1"
   inkscape:version="0.47 r22583"
   sodipodi:docname="New document 53">
  <title
     id="title8179">Team Fortress 2 WinterBoard: Google Mobile</title>
  <defs
     id="defs8156">
    <inkscape:perspective
       sodipodi:type="inkscape:persp3d"
       inkscape:vp_x="0 : 526.18109 : 1"
       inkscape:vp_y="0 : 1000 : 0"
       inkscape:vp_z="744.09448 : 526.18109 : 1"
       inkscape:persp3d-origin="372.04724 : 350.78739 : 1"
       id="perspective8162" />
    <inkscape:perspective
       id="perspective8146"
       inkscape:persp3d-origin="0.5 : 0.33333333 : 1"
       inkscape:vp_z="1 : 0.5 : 1"
       inkscape:vp_y="0 : 1000 : 0"
       inkscape:vp_x="0 : 0.5 : 1"
       sodipodi:type="inkscape:persp3d" />
  </defs>
  <sodipodi:namedview
     id="base"
     pagecolor="#ffffff"
     bordercolor="#666666"
     borderopacity="1.0"
     inkscape:pageopacity="0.0"
     inkscape:pageshadow="2"
     inkscape:zoom="0.35"
     inkscape:cx="126.35714"
     inkscape:cy="119.92857"
     inkscape:document-units="px"
     inkscape:current-layer="layer1"
     showgrid="false"
     inkscape:window-width="550"
     inkscape:window-height="483"
     inkscape:window-x="25"
     inkscape:window-y="25"
     inkscape:window-maximized="0" />
  <metadata
     id="metadata8159">
    <rdf:RDF>
      <cc:Work
         rdf:about="">
        <dc:format>image/svg+xml</dc:format>
        <dc:type
           rdf:resource="http://purl.org/dc/dcmitype/StillImage" />
        <dc:title>Team Fortress 2 WinterBoard: Google Mobile</dc:title>
      </cc:Work>
    </rdf:RDF>
  </metadata>
  <g
     inkscape:label="Layer 1"
     inkscape:groupmode="layer"
     id="layer1"
     transform="translate(-248.64286,-595.29075)">
    <g
       id="g7970"
       transform="translate(-261.06427,-1.137516)">
      <path
         clip-rule="evenodd"
         d="m 520.84313,598.17828 34.728,-10e-6 c 5.1839,0 9.386,4.2021 9.386,9.38597 l 0,34.72807 c 10e-6,5.18385 -4.2021,9.38597 -9.386,9.38596 l -34.728,10e-6 c -5.1839,0 -9.386,-4.2021 -9.386,-9.38597 l 0,-34.72808 c 0,-5.18386 4.2021,-9.38595 9.386,-9.38595 z"
         id="path3774-0-4-5-7-6-1-2-4-7"
         style="fill:#89411d;fill-opacity:1;fill-rule:evenodd;stroke-width:0.5;stroke-miterlimit:4;stroke-dasharray:none"
         inkscape:export-filename="C:\Users\Lasse\Documents\My Dropbox\Public\iconmontage.png"
         inkscape:export-xdpi="349"
         inkscape:export-ydpi="349" />
      <path
         id="path3774-0-4-5-7-6-3-2-7-2-2"
         d="m 519.70713,596.42827 c -5.523,0 -10,4.477 -10,10.00001 l 0,36.99999 c 0,5.52301 4.477,10 10.00001,10 l 37,0 c 5.52299,0 9.99999,-4.47699 9.99999,-10 l 0,-37 c 0,-5.52298 -4.477,-10 -10,-10 l -37,0 z m 2.875,4.40625 31.25,0 c 4.6677,0 8.4688,3.76979 8.4688,8.4375 l 0,31.28125 c 0,4.66773 -3.8011,8.4375 -8.4688,8.4375 l -31.25,0 c -4.6677,0 -8.4687,-3.76976 -8.4687,-8.4375 l 0,-31.28125 c 0,-4.6677 3.80101,-8.4375 8.4687,-8.4375 z"
         style="fill:#f4722b;fill-opacity:1;fill-rule:evenodd;stroke-width:0.5;stroke-miterlimit:4;stroke-dasharray:none"
         inkscape:export-filename="C:\Users\Lasse\Documents\My Dropbox\Public\iconmontage.png"
         inkscape:export-xdpi="349"
         inkscape:export-ydpi="349" />
      <path
         style="fill:#f6e7c1;fill-opacity:1;stroke:none"
         d="m 551.95078,612.98934 c 0.10806,-0.20304 -3.08483,-2.3105 -7.49539,-3.0657 -3.86368,-0.66156 -8.69265,-0.77078 -12.80864,1.4046 -1.0301,0.54442 -1.80528,1.06743 -2.52165,1.6102 -1.95177,1.47879 -2.95363,2.93086 -3.76226,4.08185 -0.8576,1.22069 -1.50376,3.0549 -1.7716,3.8893 -0.32646,1.017 -0.39207,1.99683 -0.54025,3.04618 -0.0965,0.68327 -0.078,1.42232 -0.0427,2.19376 0.0792,1.72875 0.45417,3.61301 1.27628,5.34146 0.61956,1.30265 1.42867,2.52467 2.21002,3.63412 1.27764,1.81411 3.37631,2.98735 4.60375,3.61923 0.96314,0.49582 2.15807,1.03314 4.19349,1.36812 2.30857,0.37992 5.71453,0.3716 11.168,-0.48157 1.50906,-0.23609 3.16035,-0.73188 5.00704,-1.11233 0.15361,-0.0317 0.2488,-0.0819 0.3707,-0.11351 0.11327,-0.0294 0.21418,-0.0116 0.21019,-0.095 -0.11548,-2.41679 -0.0734,-5.1246 -0.0249,-6.34048 0.007,-0.18496 0.0517,-0.75715 0.0538,-0.99913 0.002,-0.21588 0.11444,-0.18999 0.2289,-0.28969 l 1.1289,-1.11277 -8.83765,-0.12901 -3.09641,1.74172 6.14443,-0.25803 0,6.82177 c 0,0 -2.49255,1.03886 -5.82154,0.96763 -2.44914,-0.0524 -5.39465,-0.61763 -8.2413,-2.75774 -4.46747,-3.35866 -6.03421,-8.00998 -6.05994,-11.36836 -0.013,-1.69165 -0.0574,-2.9861 0.0768,-3.5331 0.11821,-0.4818 0.30859,-1.65199 0.81876,-2.91738 0.69187,-1.71602 1.86251,-3.50188 4.01839,-4.97022 1.3222,-0.90052 3.09963,-1.73576 5.19391,-1.91768 2.40976,-0.20934 4.11272,0.0629 5.53622,0.61587 3.51026,1.36379 4.21322,2.50944 4.72062,2.9079 0.0249,0.0196 0.13799,0.10331 0.0966,0.1632 -0.0496,0.0718 -0.0558,0.15053 -0.0795,0.19349 -0.22333,0.40365 -0.85572,1.45761 -0.85572,1.45761 l 1.33855,-0.14514 3.5641,-3.4512 z"
         id="path3640-6"
         sodipodi:nodetypes="csssssssssssssssssccccccsssssssssssccc" />
    </g>
  </g>
</svg>
