<?xml version="1.0" encoding="UTF-8" standalone="no"?>
<!-- Created with Inkscape (http://www.inkscape.org/) -->

<svg
   xmlns:dc="http://purl.org/dc/elements/1.1/"
   xmlns:cc="http://creativecommons.org/ns#"
   xmlns:rdf="http://www.w3.org/1999/02/22-rdf-syntax-ns#"
   xmlns:svg="http://www.w3.org/2000/svg"
   xmlns="http://www.w3.org/2000/svg"
   xmlns:sodipodi="http://sodipodi.sourceforge.net/DTD/sodipodi-0.dtd"
   xmlns:inkscape="http://www.inkscape.org/namespaces/inkscape"
   width="57"
   height="57"
   id="svg4773"
   version="1.1"
   inkscape:version="0.47+devel r9541"
   sodipodi:docname="Nyt dokument 7">
  <title
     id="title4810">Team Fortress 2 WinterBoard: GuitarToolkit</title>
  <defs
     id="defs4775" />
  <sodipodi:namedview
     id="base"
     pagecolor="#ffffff"
     bordercolor="#666666"
     borderopacity="1.0"
     inkscape:pageopacity="0.0"
     inkscape:pageshadow="2"
     inkscape:zoom="7.9195959"
     inkscape:cx="22.259009"
     inkscape:cy="10.883168"
     inkscape:document-units="px"
     inkscape:current-layer="layer1"
     showgrid="false"
     fit-margin-top="0"
     fit-margin-left="0"
     fit-margin-right="0"
     fit-margin-bottom="0"
     inkscape:window-width="1920"
     inkscape:window-height="1018"
     inkscape:window-x="-8"
     inkscape:window-y="-8"
     inkscape:window-maximized="1" />
  <metadata
     id="metadata4778">
    <rdf:RDF>
      <cc:Work
         rdf:about="">
        <dc:format>image/svg+xml</dc:format>
        <dc:type
           rdf:resource="http://purl.org/dc/dcmitype/StillImage" />
        <dc:title>Team Fortress 2 WinterBoard: GuitarToolkit</dc:title>
      </cc:Work>
    </rdf:RDF>
  </metadata>
  <g
     inkscape:label="Layer 1"
     inkscape:groupmode="layer"
     id="layer1"
     transform="translate(-346.5,-503.86218)">
    <g
       id="g4680"
       transform="translate(-160.57888,284.01527)">
      <path
         style="fill:#8a421e"
         inkscape:connector-curvature="0"
         id="path3774-0-9-9-6-4-4"
         export-ydpi="180"
         export-xdpi="180"
         export-filename="C:\Users\Lasse\Documents\My Dropbox\Projects\tf2_iphone\messages_114x114.png"
         d="m 517.07888,219.84691 h 37 c 5.522,0 10,4.479 10,10 v 37 c 0,5.523 -4.478,10 -10,10 h -37 c -5.523,0 -10,-4.477 -10,-10 v -37 c 0,-5.521 4.477,-10 10,-10 z" />
      <path
         style="fill:#f3732c"
         inkscape:connector-curvature="0"
         id="path3774-0-4-5-7-7-0-1-2-0-8-7"
         d="m 517.07888,219.84691 c -5.523,0 -10,4.479 -10,10 v 37 c 0,5.523 4.477,10 10,10 h 37 c 5.522,0 10,-4.477 10,-10 v -37 c 0,-5.521 -4.478,-10 -10,-10 h -37 z m 2.875,4.406 h 31.282 c 4.667,0 8.438,3.77 8.438,8.438 v 31.281 c 0,4.668 -3.771,8.469 -8.438,8.469 h -31.282 c -4.668,0 -8.438,-3.801 -8.438,-8.469 v -31.281 c 0.001,-4.668 3.77,-8.438 8.438,-8.438 z" />
      <path
         style="fill:#f5e6c1"
         inkscape:connector-curvature="0"
         id="path6109"
         nodetypes="csssssssssssssssccssssscccssssssssssssssssccssssssssscccsssccccsssssscccccccccccccscccsssscccscccccsscccssssccsssssssccssssscccsccscccsssssssscccccsssssssccssssccssssccsssccccssssssccssssc"
         d="m 546.4,232.55988 c -0.37112,2e-5 -0.84573,0.0195 -1.50783,0.0566 -0.96187,0.0567 -2.11811,0.12305 -2.56929,0.1484 -3.34669,0.18358 -4.2119,0.22854 -5.01465,0.26755 -2.20801,0.11133 -2.99852,0.15627 -4.23973,0.23632 -0.72705,0.0469 -2.94285,0.16797 -4.92333,0.26755 -1.98094,0.0996 -4.25777,0.22463 -5.0605,0.27345 -0.80222,0.0508 -1.82767,0.11328 -2.27927,0.1406 -1.7759,0.10936 -2.42965,0.30273 -3.21088,0.94532 -0.18804,0.15626 -0.30124,0.28321 -0.2505,0.28318 0.26513,0 6.64896,-0.36722 7.15429,-0.41014 0.32564,-0.0293 2.27444,-0.15234 4.33055,-0.27344 8.85741,-0.52924 11.33301,-0.68159 11.76175,-0.72658 0.25098,-0.0274 1.54295,-0.11131 2.8721,-0.18556 3.30467,-0.18749 5.21486,-0.32224 5.37699,-0.37697 0.20706,-0.0703 -0.84179,-0.46291 -1.56249,-0.584 -0.24052,-0.0408 -0.50609,-0.0623 -0.87721,-0.0623 z m 5.2402,0.91799 c -0.75582,0.0137 -2.15431,0.10352 -4.89551,0.29097 -1.0781,0.0723 -3.31444,0.21678 -4.96972,0.31444 -1.65432,0.0997 -3.23437,0.20513 -3.50977,0.23246 -0.27539,0.0273 -2.10153,0.14841 -4.05715,0.26955 -4.93313,0.3086 -10.27544,0.65433 -12.76463,0.82421 -1.15333,0.0781 -2.93801,0.19339 -3.96579,0.25395 l -1.86919,0.10739 0.0171,4.19335 c 0.01,2.30665 0.0439,4.69924 0.0767,5.31834 0.0332,0.61721 0.0796,1.10159 0.10304,1.07816 0.0235,-0.0234 0.11915,-0.87694 0.21334,-1.89648 0.33834,-3.6582 0.53709,-5.88081 0.59861,-6.71682 0.0532,-0.7266 0.0908,-0.86526 0.25634,-0.96681 0.13084,-0.082 0.88137,-0.15621 2.33646,-0.22855 1.17824,-0.0586 3.08591,-0.16408 4.23927,-0.23636 1.15327,-0.0723 3.65624,-0.21482 5.56201,-0.31447 1.90523,-0.0996 3.68997,-0.20308 3.96582,-0.23046 0.27585,-0.0274 2.10157,-0.12886 4.05764,-0.22849 1.95509,-0.0977 3.78123,-0.20115 4.05666,-0.22655 0.57525,-0.0566 8.7383,-0.50193 9.18366,-0.50192 0.37112,-3e-5 0.35843,-0.0234 1.28519,2.5078 2.36035,6.44919 2.44529,6.66989 2.53512,6.58004 0.042,-0.0411 -0.96293,-8.31638 -1.16209,-9.57029 -0.0879,-0.55276 -0.12692,-0.62887 -0.37886,-0.75978 -0.13291,-0.0683 -0.32823,-0.10538 -0.91422,-0.0937 z m -1.60546,1.97068 c -0.0254,-2e-5 -0.0537,0.004 -0.0879,0.004 -0.35158,-2e-5 -5.01755,0.25586 -6.71293,0.3672 -0.80172,0.0527 -2.93557,0.17383 -4.74021,0.26951 -1.80569,0.0976 -4.34959,0.24019 -5.65328,0.31639 -3.25632,0.1914 -6.56787,0.37894 -11.34573,0.64259 -2.22754,0.12109 -4.08249,0.25584 -4.12252,0.29493 -0.0665,0.0664 -0.31206,2.54495 -0.80369,8.09184 -0.10207,1.15433 -0.23044,2.22073 -0.28471,2.37112 -0.0542,0.15037 -0.15725,1.40238 -0.22799,2.78126 -0.0703,1.37893 -0.2119,3.83984 -0.31352,5.47069 l -0.18209,2.96487 0.53861,1.77537 c 1.03903,3.42967 1.48532,4.87497 1.52976,4.94724 0.0244,0.039 0.23584,0.0488 0.47022,0.0215 0.23442,-0.0269 1.18654,-0.1094 2.11425,-0.18557 0.02,1e-5 0.042,-0.004 0.0625,-0.004 l 0.003,0.0371 28.52885,-2.64452 -10e-6,-0.01 c 2.62895,-0.24609 4.61719,-0.42777 4.75003,-0.42969 0.0615,3e-5 0.22173,-0.17379 0.35647,-0.38671 0.26858,-0.4297 0.56831,-0.83983 2.52348,-3.46288 0.73732,-0.98831 1.33987,-1.86327 1.33984,-1.94531 1e-5,-0.47657 -0.67773,-2.42578 -3.6934,-10.66212 -1.48631,-4.06249 -2.92775,-8 -3.2022,-8.75192 -0.64169,-1.75796 -0.6671,-1.87325 -0.84679,-1.87323 l 0,0 z m -1.35545,2.12303 c 0.81056,-0.0157 1.7031,0.88863 1.7031,1.88278 l 2.71293,11.51953 c 3e-5,1.02737 -0.68169,1.90818 -1.52931,1.97848 l -17.92484,1.72853 c -0.84816,0.0704 -1.53319,-0.70317 -1.53318,-1.72853 l -0.70901,-12.12111 c -4e-5,-1.02737 0.68452,-1.90824 1.53274,-1.97658 l 15.66747,-1.27732 c 0.0273,-0.002 0.0537,-0.006 0.0801,-0.006 z m -27.7827,0.0918 c 0.17379,0.008 0.22367,0.25978 0.22511,0.99021 5.1e-4,0.33206 0.0298,0.73828 0.0625,0.90036 l 0.0571,0.3008 1.33348,-0.0645 c 1.23875,-0.0566 2.26566,-0.25779 2.60691,-0.50979 0.0503,-0.0371 0.41018,-0.16216 0.80082,-0.27537 0.39059,-0.11522 0.73148,-0.24218 0.75785,-0.28513 0.0264,-0.0429 0.10746,-0.0762 0.17968,-0.0762 0.0972,-3e-5 0.13084,0.11918 0.13084,0.46286 l 2e-5,0.46482 1.13966,-0.0645 c 0.62695,-0.0371 1.14352,-0.0508 1.14842,-0.0312 0.005,0.0176 0.10203,1.10939 0.21635,2.42385 l 0.20801,4.29299 0.0826,-0.11325 -0.17096,0.43356 -3.94628,0.18949 c -0.7017,0.0351 -1.68655,0.10354 -2.18799,0.15235 -1.20263,0.11721 -5.35985,0.36326 -5.40189,0.32228 -0.0186,-0.0195 -0.0581,-1.6387 -0.0884,-3.59959 l -0.0571,-3.56638 0.33643,1e-5 c 0.4048,-3e-5 0.40722,-0.043 0.0567,-0.86327 -0.14898,-0.34956 -0.27048,-0.66602 -0.27056,-0.70115 -2e-5,-0.0859 0.45704,-0.23049 1.5728,-0.49806 0.51322,-0.12303 1.01956,-0.2461 1.12545,-0.27347 0.0302,-0.008 0.0576,-0.0137 0.0825,-0.0117 z m -0.27054,0.36136 c -0.41212,0.0234 -1.90139,0.35739 -2.13134,0.49221 -0.0161,0.01 0.43117,0.96486 0.99415,2.12303 0.56345,1.15822 1.07521,2.1055 1.13724,2.10546 0.0615,2e-5 0.19435,-0.0723 0.29343,-0.15824 0.17726,-0.15824 0.17624,-0.18556 0.0224,-2.32612 -0.0854,-1.1914 -0.1816,-2.19336 -0.21335,-2.22459 -0.005,-0.006 -0.0161,-0.01 -0.0342,-0.0117 -0.0176,-0.002 -0.0411,-0.002 -0.0684,-6e-5 z m 5.84624,1.19335 c -0.10354,0.0119 -0.27491,0.0644 -0.43851,0.13677 -0.21824,0.0977 -0.54836,0.22654 -0.73243,0.28516 -0.18408,0.0586 -0.37405,0.15628 -0.42136,0.21676 -0.0586,0.0742 0.10986,0.57612 0.5156,1.54491 0.34177,0.81643 0.65286,1.43558 0.72067,1.43552 0.066,-3e-5 0.25735,-0.0566 0.4273,-0.12888 l 0.31052,-0.13083 -0.0424,-1.25974 c -0.0538,-1.59571 -0.10741,-2.0352 -0.2593,-2.09379 -0.0166,-0.006 -0.0454,-0.01 -0.08,-0.006 z m 0.71823,2.16015 c -0.13766,-1e-5 -0.14989,0.0743 -0.0942,0.67191 0.0717,0.7656 0.0857,0.74812 -0.66646,0.98442 l -0.48732,0.15044 -0.17094,-0.27932 c -0.0937,-0.15426 -0.25829,-0.51957 -0.36766,-0.81255 -0.10936,-0.29298 -0.23094,-0.53316 -0.2705,-0.53322 -0.0396,3e-5 -0.18412,0.13278 -0.31935,0.29492 -0.21536,0.25584 -0.24022,0.34963 -0.20507,0.77344 0.0469,0.56251 0.27686,0.86911 0.84622,1.1328 0.76806,0.35353 1.8423,0.14255 2.35055,-0.4629 0.19725,-0.2344 0.24803,-0.38476 0.24809,-0.75194 -4e-5,-0.41214 -0.0386,-0.49802 -0.35594,-0.81444 -0.195,-0.19534 -0.42199,-0.35352 -0.50743,-0.35356 z m -5.83547,0.18162 c -0.0273,1e-5 -0.0484,0.26754 -0.0483,0.59571 l -4e-5,0.59569 -0.41845,0.17972 c -0.22999,0.0976 -0.47121,0.1797 -0.53564,0.17965 -0.065,1e-5 -0.22311,-0.24609 -0.35347,-0.54685 -0.13035,-0.30076 -0.27298,-0.54688 -0.31639,-0.54687 -0.13674,-3e-5 -0.29057,0.4492 -0.29054,0.84766 5.3e-4,0.48045 0.24802,0.89453 0.64945,1.09183 0.38865,0.19143 1.27686,0.20311 1.62989,0.0195 0.71285,-0.36716 0.94872,-1.24416 0.49605,-1.8359 -0.19884,-0.26171 -0.64552,-0.58011 -0.81255,-0.58015 z m 2.06001,6.19148 c 1.77099,-0.0273 3.43748,1.02152 4.08591,2.74219 0.83007,2.20314 0.31548,5.22069 -1.93456,6.06834 -2.25004,0.84765 -5.38427,-0.79687 -6.21434,-3 -0.8296,-2.2031 0.32277,-4.6738 2.57326,-5.5215 0.49221,-0.1855 0.99414,-0.28127 1.48973,-0.28903 z m -0.0683,0.82027 c -0.43649,0.008 -0.88961,0.0899 -1.33354,0.25783 -1.77441,0.66799 -2.74903,2.43362 -2.17923,3.94535 0.56934,1.51168 2.4678,2.19338 4.24221,1.52539 1.77493,-0.66988 2.75193,-2.43551 2.18258,-3.94729 -0.42719,-1.13279 -1.60198,-1.79883 -2.91202,-1.78128 z m 33.62055,8.02151 c 0.40139,0.004 0.44431,0.12301 0.35649,0.46675 -0.0654,0.25785 0.13185,0.23048 -4.83497,0.63277 -2.34663,0.18943 -4.23048,0.35154 -5.21976,0.44532 -0.0176,0 -0.0185,10e-6 -0.0351,0.002 l -17.87253,1.55864 -0.0342,-0.0332 -1.9829,0.15621 c -2.56738,0.20113 -5.92626,0.47852 -8.48482,0.707 -1.11967,0.0996 -2.06889,0.16018 -2.1113,0.13283 -0.086,-0.0527 -0.22318,-0.58398 -0.16507,-0.64065 0.0386,-0.0391 1.5352,-0.17577 5.95464,-0.54491 1.5044,-0.12498 3.41215,-0.28909 4.23978,-0.36325 0.82717,-0.0742 1.56491,-0.13668 1.63814,-0.13672 0.0147,-0.002 0.0215,-0.008 0.0229,-0.0176 l 18.52197,-1.60935 c -0.008,0.0195 -0.0147,0.0352 -0.0108,0.039 0.0224,0.0234 0.50878,0 1.0791,-0.0507 0.57225,-0.0508 2.51756,-0.21874 4.3223,-0.37114 1.80668,-0.15236 3.64453,-0.30663 4.08591,-0.34379 0.22252,-0.0194 0.39638,-0.0311 0.53013,-0.0292 z" />
      <path
         style="fill:#f5e6c1"
         inkscape:connector-curvature="0"
         id="path6181"
         d="m 541.9605,249.94071 -2.30468,-9.90239 3.55664,9.3594 -1.25196,0.54299 z" />
      <path
         style="fill:#f3732c"
         inkscape:connector-curvature="0"
         id="path6183"
         d="m 534.94585,248.55596 c 0.0215,0.18751 -0.11333,0.3574 -0.30074,0.37887 -0.18751,0.0215 -0.35694,-0.11329 -0.37842,-0.30079 -0.0215,-0.18751 0.11324,-0.35739 0.30075,-0.37887 0.1875,-0.0215 0.35693,0.11329 0.37841,0.30079 z" />
      <path
         style="fill:#f3732c"
         inkscape:connector-curvature="0"
         id="path6183-7"
         d="m 537.18513,245.13409 c 0.0215,0.1875 -0.11333,0.35739 -0.30074,0.37886 -0.18751,0.0215 -0.3574,-0.11332 -0.37887,-0.30074 -0.0215,-0.18751 0.11324,-0.35739 0.30074,-0.37887 0.18751,-0.0215 0.35739,0.11324 0.37887,0.30075 z" />
      <path
         style="fill:#f3732c"
         inkscape:connector-curvature="0"
         id="path6183-3"
         d="m 539.5269,242.61653 c 0.0215,0.1875 -0.11324,0.35738 -0.30075,0.37886 -0.1875,0.0215 -0.35739,-0.11332 -0.37886,-0.30074 -0.0215,-0.1875 0.11323,-0.35739 0.30074,-0.37887 0.18751,-0.0215 0.35739,0.11324 0.37887,0.30075 z" />
      <path
         style="fill:#f3732c"
         inkscape:connector-curvature="0"
         id="path6183-9"
         d="m 542.03572,241.55009 c 0.0215,0.18751 -0.11324,0.35739 -0.30074,0.37887 -0.18751,0.0215 -0.3574,-0.11333 -0.37887,-0.30074 -0.0215,-0.18742 0.11333,-0.3574 0.30074,-0.37887 0.18842,-0.0215 0.35739,0.11324 0.37887,0.30074 z" />
      <path
         style="fill:#f3732c"
         inkscape:connector-curvature="0"
         id="path6183-8"
         d="m 544.7203,242.02281 c 0.0215,0.18751 -0.11333,0.3574 -0.30074,0.37887 -0.18751,0.0215 -0.3574,-0.11333 -0.37887,-0.30074 -0.0215,-0.18751 0.11324,-0.35739 0.30074,-0.37887 0.18741,-0.0216 0.35739,0.11323 0.37887,0.30074 z" />
      <path
         style="fill:#f3732c"
         inkscape:connector-curvature="0"
         id="path6183-2"
         d="m 547.57189,243.94464 c 0.0215,0.1875 -0.11333,0.3574 -0.30074,0.37887 -0.18751,0.0215 -0.3574,-0.11333 -0.37887,-0.30075 -0.0215,-0.18741 0.11333,-0.35739 0.30074,-0.37886 0.18741,-0.0216 0.35739,0.11323 0.37887,0.30074 z" />
      <path
         style="fill:#f3732c"
         inkscape:connector-curvature="0"
         id="path6183-0"
         d="m 550.52592,246.77281 c 0.0215,0.18751 -0.11226,0.35544 -0.30077,0.37694 -0.18751,0.0215 -0.35648,-0.11325 -0.37796,-0.30075 -0.0215,-0.18751 0.11328,-0.35547 0.30078,-0.37695 0.18759,-0.0216 0.35648,0.11325 0.37795,0.30076 z" />
    </g>
  </g>
</svg>
