<?xml version="1.0" encoding="UTF-8" standalone="no"?>
<!-- Created with Inkscape (http://www.inkscape.org/) -->

<svg
   xmlns:dc="http://purl.org/dc/elements/1.1/"
   xmlns:cc="http://creativecommons.org/ns#"
   xmlns:rdf="http://www.w3.org/1999/02/22-rdf-syntax-ns#"
   xmlns:svg="http://www.w3.org/2000/svg"
   xmlns="http://www.w3.org/2000/svg"
   xmlns:sodipodi="http://sodipodi.sourceforge.net/DTD/sodipodi-0.dtd"
   xmlns:inkscape="http://www.inkscape.org/namespaces/inkscape"
   width="57.000019"
   height="57"
   id="svg6251"
   version="1.1"
   inkscape:version="0.47+devel r9541"
   sodipodi:docname="Nyt dokument 21">
  <title
     id="title6276">Team Fortress 2 WinterBoard: Tabs</title>
  <defs
     id="defs6253" />
  <sodipodi:namedview
     id="base"
     pagecolor="#ffffff"
     bordercolor="#666666"
     borderopacity="1.0"
     inkscape:pageopacity="0.0"
     inkscape:pageshadow="2"
     inkscape:zoom="2.8"
     inkscape:cx="19.587599"
     inkscape:cy="13.21301"
     inkscape:document-units="px"
     inkscape:current-layer="layer1"
     showgrid="false"
     fit-margin-top="0"
     fit-margin-left="0"
     fit-margin-right="0"
     fit-margin-bottom="0"
     inkscape:window-width="1920"
     inkscape:window-height="1018"
     inkscape:window-x="-8"
     inkscape:window-y="-8"
     inkscape:window-maximized="1" />
  <metadata
     id="metadata6256">
    <rdf:RDF>
      <cc:Work
         rdf:about="">
        <dc:format>image/svg+xml</dc:format>
        <dc:type
           rdf:resource="http://purl.org/dc/dcmitype/StillImage" />
        <dc:title>Team Fortress 2 WinterBoard: Tabs</dc:title>
      </cc:Work>
    </rdf:RDF>
  </metadata>
  <g
     inkscape:label="Layer 1"
     inkscape:groupmode="layer"
     id="layer1"
     transform="translate(-120.07142,-229.57647)">
    <g
       id="g6146"
       transform="translate(-476.80998,-288.31596)">
      <path
         inkscape:connector-curvature="0"
         clip-rule="evenodd"
         d="m 606.8814,517.89243 h 37 c 5.523,0 10,4.477 10,10 v 37 c 0,5.523 -4.477,10 -10,10 h -37 c -5.523,0 -10,-4.477 -10,-10 v -37 c 0,-5.523 4.477,-10 10,-10 z"
         id="path3774-0-9-9-6-4-71"
         style="fill:#5a5a5a;fill-rule:evenodd;stroke-width:0.5;stroke-miterlimit:4;stroke-dasharray:none"
         inkscape:export-filename="C:\Users\Lasse\Documents\My Dropbox\Projects\tf2_iphone\messages_114x114.png"
         inkscape:export-xdpi="180"
         inkscape:export-ydpi="180" />
      <path
         inkscape:connector-curvature="0"
         style="fill:#89411d;fill-opacity:1;fill-rule:evenodd;stroke-width:0.5;stroke-miterlimit:4;stroke-dasharray:none"
         d="m 606.88142,517.89243 c -5.523,0 -10,4.477 -10,10 l 0,37 c 0,5.523 4.477,10 10,10 l 37,0 c 5.52301,0 10,-4.477 10,-10 l 0,-37 c 0,-5.523 -4.47699,-10 -10,-10 l -37,0 z m 2.875,4.40625 31.28125,0 c 4.66773,0 8.4375,3.76978 8.4375,8.4375 l 0,31.28125 c 0,4.66772 -3.76977,8.46875 -8.4375,8.46875 l -31.28125,0 c -4.66771,0 -8.4375,-3.80103 -8.4375,-8.46875 l 0,-31.28125 c 0,-4.66772 3.76979,-8.4375 8.4375,-8.4375 z"
         id="path3774-0-4-5-7-7-0-1-2-0-8-1" />
      <path
         style="fill:#333333;fill-opacity:1;fill-rule:evenodd;stroke:none;stroke-width:1;marker:none;visibility:visible;display:inline;overflow:visible;enable-background:accumulate"
         d="m 635.19128,554.84058 c -5.48391,-1.98807 -8.94583,-1.0197 -12.65247,1.3754 -3.85751,2.49259 -5.98056,5.69284 -4.39006,6.52225 0.0206,0.0109 0.0427,0.0213 0.064,0.0319 0.0222,0.0103 0.0435,0.0207 0.0663,0.0309 1.74638,0.77891 10.10363,0.58351 17.04526,-0.42255 9.53644,-1.22521 8.18894,-3.67267 2.73126,-6.31763 -1.01549,-0.49035 -1.96693,-0.89495 -2.86429,-1.22027 z"
         id="path3333-5"
         inkscape:connector-curvature="0" />
      <path
         style="fill:#f6e7c1;fill-opacity:1;fill-rule:evenodd;stroke:none;stroke-width:1;marker:none;visibility:visible;display:inline;overflow:visible;enable-background:accumulate"
         d="m 618.43446,530.81403 c -9.19284,-0.0223 -10.31005,5.09646 -8.64346,13.71284 1.73444,8.96702 6.54263,18.12321 9.74164,18.71333 0.0418,0.008 0.0839,0.0137 0.12563,0.0203 0.0418,0.006 0.0833,0.0117 0.12562,0.0162 3.23479,0.3437 10.44691,-7.06774 14.65903,-15.17166 6.11742,-10.77091 -0.2702,-15.29881 -10.82357,-16.85943 -1.95989,-0.28625 -3.68059,-0.42791 -5.18489,-0.43156 z"
         id="path3333"
         inkscape:connector-curvature="0" />
      <path
         sodipodi:nodetypes="cssssssssccccssssscsscssssssscssssscsssscscc"
         inkscape:connector-curvature="0"
         id="path6095"
         d="m 619.19704,553.46712 c -3.05301,-0.98749 -5.4213,-3.49889 -6.27672,-6.65608 -0.19075,-0.70396 -0.2186,-1.02475 -0.21486,-2.47406 0.005,-1.53783 0.0243,-1.73076 0.26562,-2.52164 0.67797,-2.22212 2.05171,-4.09351 3.91522,-5.33345 0.89976,-0.59867 1.55355,-0.90289 2.69582,-1.25435 0.75644,-0.23275 0.95867,-0.25334 2.53483,-0.25819 1.87816,-0.006 2.42912,0.0956 3.8855,0.71542 1.37536,0.58529 3.00234,1.90243 3.92894,3.18074 0.51182,0.70606 1.23207,2.26855 1.46948,3.18772 1.14895,5.10944 -2.764,10.42584 -6.80978,11.56863 -1.90925,0.47317 -3.63919,0.33944 -5.39405,-0.15474 z m 4.77546,-1.28486 c 1.58268,-0.40767 3.22967,-1.46238 4.21007,-2.69612 0.77104,-0.97028 1.67221,-2.81936 1.47174,-3.01983 -0.0786,-0.0786 -1.35443,0.66272 -2.96986,1.72556 -2.51385,1.65393 -5.55835,4.0195 -5.35489,4.16071 0.18059,0.12533 1.9337,0.0128 2.64294,-0.17023 z m -3.22022,-0.96051 c 2.36451,-1.97724 5.36061,-4.07824 7.78773,-5.46113 0.75886,-0.43236 1.39453,-0.79804 1.4126,-0.8126 0.0185,-0.0148 0.0288,-0.38735 0.0243,-0.82841 -0.0266,-2.47054 -1.41512,-4.97787 -3.49937,-6.31955 -0.62509,-0.40237 -1.52995,-0.84521 -1.59471,-0.78045 -0.0231,0.0231 0.0912,0.40499 0.25383,0.84875 0.26449,0.72155 0.29644,0.92248 0.30226,1.90112 0.007,1.23493 -0.12435,1.80059 -0.67531,2.90226 -0.98907,1.97738 -3.08633,4.06187 -6.08287,6.04585 -0.68626,0.45436 -1.42492,0.9257 -1.64144,1.04739 -0.21652,0.12178 -0.39367,0.26855 -0.39367,0.32633 0,0.13642 0.6712,0.69533 1.37733,1.14706 0.48128,0.30786 1.49266,0.79003 1.68274,0.80224 0.0344,10e-4 0.50549,-0.36627 1.04671,-0.81886 z m -3.51269,-2.87293 c 5.18801,-3.24956 7.62336,-6.56742 7.00982,-9.55001 -0.13969,-0.67868 -0.80074,-2.04241 -1.0565,-2.1793 -0.33363,-0.17855 -2.27649,-0.0513 -3.07424,0.20152 -2.80264,0.88783 -4.75005,2.93166 -5.54037,5.81465 -0.23821,0.86897 -0.23288,3.03822 0.0105,3.8899 0.2777,0.97556 1.07483,2.56922 1.28513,2.56922 0.0966,0 0.7116,-0.33569 1.36664,-0.74598 z"
         style="fill:#f4722b;fill-opacity:1" />
    </g>
  </g>
</svg>
