<?xml version="1.0" encoding="UTF-8" standalone="no"?>
<!-- Created with Inkscape (http://www.inkscape.org/) -->

<svg
   xmlns:dc="http://purl.org/dc/elements/1.1/"
   xmlns:cc="http://creativecommons.org/ns#"
   xmlns:rdf="http://www.w3.org/1999/02/22-rdf-syntax-ns#"
   xmlns:svg="http://www.w3.org/2000/svg"
   xmlns="http://www.w3.org/2000/svg"
   xmlns:sodipodi="http://sodipodi.sourceforge.net/DTD/sodipodi-0.dtd"
   xmlns:inkscape="http://www.inkscape.org/namespaces/inkscape"
   width="57.000019"
   height="57"
   id="svg5959"
   version="1.1"
   inkscape:version="0.47 r22583"
   sodipodi:docname="New document 24">
  <title
     id="title5990">Team Fortress 2 WinterBoard: Guitar Hero</title>
  <defs
     id="defs5961">
    <inkscape:perspective
       sodipodi:type="inkscape:persp3d"
       inkscape:vp_x="0 : 526.18109 : 1"
       inkscape:vp_y="0 : 1000 : 0"
       inkscape:vp_z="744.09448 : 526.18109 : 1"
       inkscape:persp3d-origin="372.04724 : 350.78739 : 1"
       id="perspective5967" />
    <inkscape:perspective
       id="perspective5948"
       inkscape:persp3d-origin="0.5 : 0.33333333 : 1"
       inkscape:vp_z="1 : 0.5 : 1"
       inkscape:vp_y="0 : 1000 : 0"
       inkscape:vp_x="0 : 0.5 : 1"
       sodipodi:type="inkscape:persp3d" />
  </defs>
  <sodipodi:namedview
     id="base"
     pagecolor="#ffffff"
     bordercolor="#666666"
     borderopacity="1.0"
     inkscape:pageopacity="0.0"
     inkscape:pageshadow="2"
     inkscape:zoom="0.7"
     inkscape:cx="-8.2869465"
     inkscape:cy="35.624205"
     inkscape:document-units="px"
     inkscape:current-layer="layer1"
     showgrid="false"
     inkscape:window-width="575"
     inkscape:window-height="483"
     inkscape:window-x="50"
     inkscape:window-y="50"
     inkscape:window-maximized="0" />
  <metadata
     id="metadata5964">
    <rdf:RDF>
      <cc:Work
         rdf:about="">
        <dc:format>image/svg+xml</dc:format>
        <dc:type
           rdf:resource="http://purl.org/dc/dcmitype/StillImage" />
        <dc:title>Team Fortress 2 WinterBoard: Guitar Hero</dc:title>
      </cc:Work>
    </rdf:RDF>
  </metadata>
  <g
     inkscape:label="Layer 1"
     inkscape:groupmode="layer"
     id="layer1"
     transform="translate(-437.21428,-546.71933)">
    <path
       inkscape:export-ydpi="180"
       inkscape:export-xdpi="180"
       inkscape:export-filename="C:\Users\Lasse\Documents\My Dropbox\Projects\tf2_iphone\messages_114x114.png"
       style="fill:#5a5a5a;fill-rule:evenodd;stroke-width:0.5;stroke-miterlimit:4;stroke-dasharray:none"
       id="path3774-0-9-9-6-4-7"
       d="m 447.21428,546.71933 h 37 c 5.523,0 10,4.477 10,10 v 37 c 0,5.523 -4.477,10 -10,10 h -37 c -5.523,0 -10,-4.477 -10,-10 v -37 c 0,-5.523 4.477,-10 10,-10 z"
       clip-rule="evenodd" />
    <path
       style="fill:#f6e7c1;fill-opacity:1"
       d="m 445.71972,551.66757 c -0.45705,0 -0.73305,0.29726 -0.59375,0.65625 0.33851,0.87228 0.94752,2.625 0.90625,2.625 -0.0271,0 -0.89233,-0.70392 -1.90625,-1.5625 -1.01392,-0.85858 -1.91555,-1.5535 -2,-1.5625 -0.0845,-0.01 -0.22617,-0.0567 -0.3125,-0.0937 -0.0863,-0.0371 -0.36688,-0.0477 -0.625,-0.0312 -0.36062,0.023 -0.47471,0.0544 -0.5,0.1875 -0.0279,0.14689 0.0401,0.17605 0.375,0.15625 0.24657,-0.0145 0.44928,0.0381 0.53125,0.125 0.10501,0.11145 2.37644,2.75161 2.90625,3.375 0.10265,0.12078 0.0931,0.19087 0,0.4375 -0.0639,0.1692 -0.12522,0.3125 -0.15625,0.3125 -0.031,0 -0.19497,-0.15801 -0.375,-0.34375 -0.24538,-0.2532 -0.41472,-0.3125 -0.65625,-0.3125 -0.2786,0 -0.30071,0.0102 -0.21875,0.15625 0.0521,0.0929 0.33761,0.45121 0.65625,0.78125 0.51849,0.53703 0.93944,1.25072 4.0625,7 1.9193,3.53323 3.48828,6.45775 3.46875,6.46875 -0.0195,0.011 -0.60782,0.2813 -1.3125,0.625 -1.1274,0.54992 -1.35741,0.7036 -1.8125,1.21875 -0.58064,0.65728 -1.17172,1.78648 -1.65625,3.125 -0.25737,0.71101 -0.3135,1.04458 -0.3125,1.59375 0.002,1.09671 0.23855,1.63931 1.40625,3.375 0.57094,0.84864 1.17297,1.91561 1.375,2.34375 0.3298,0.6989 0.38896,0.92028 0.5625,2.34375 0.10631,0.87202 0.28933,2.86729 0.375,4.40625 0.20849,3.74553 0.36702,4.97144 0.9375,6.5 0.81335,2.1793 2.35107,4.08165 4.1875,5.1875 l 0.53125,0.3125 5.78125,0 5.78125,0 1.0625,-0.53125 c 3.1645,-1.57395 6.34366,-3.9455 7.375,-5.5 0.61188,-0.92226 0.69696,-1.15771 1.03125,-2.3125 0.30824,-1.06477 0.32327,-2.06347 0.0625,-4.0625 l -0.15625,-1.375 -0.71875,-1.125 c -1.09619,-1.73748 -2.36552,-3.13028 -4.71875,-5.15625 -2.08641,-1.79625 -4.23318,-3.97106 -5.15625,-5.1875 -0.37889,-0.49933 -0.59745,-0.9175 -0.84375,-1.625 -0.48226,-1.3853 -0.67797,-1.78294 -1.09375,-2.25 -0.13162,-0.14787 -0.20931,-0.19473 -0.28125,-0.25 l -0.0937,-0.0937 -0.34375,-0.28125 c -0.17112,-0.0946 -7.26939,-2.38686 -7.3125,-2.34375 -0.0231,0.0231 0.0542,0.20002 0.15625,0.375 l 0.1875,0.3125 1.4375,0.21875 c 1.99248,0.28617 4.31155,1.51704 4.65625,1.6875 0.57998,0.25355 0.6643,0.46263 1,0.71875 0.44141,0.49948 0.69485,1.03486 1.09375,2.25 0.17997,0.54824 0.41892,1.03828 0.75,1.5 0.83277,1.16141 3.17375,3.55674 5.34375,5.4375 2.3368,2.02532 3.67837,3.45858 4.65625,5.03125 l 0.625,1 0.15625,1.25 c 0.26014,1.92466 0.24046,2.86699 -0.0937,3.90625 -0.39761,1.23643 -0.90576,2.0793 -1.71875,2.875 -0.59721,0.5845 -2.22245,1.70855 -2.5625,1.78125 -0.0615,0.0131 -0.22304,-0.35912 -0.375,-0.875 l -0.28125,-0.9375 0.21875,-0.1875 c 0.22796,-0.24265 0.1658,-0.48433 -0.15625,-0.78125 -0.18451,-0.17013 -0.28356,-0.188 -0.6875,-0.125 l -0.46875,0.0623 -0.59375,-1.25 c -0.33219,-0.69585 -0.94909,-2.00408 -1.375,-2.90625 l -0.78125,-1.65625 0.59375,-0.25 c 0.32762,-0.14571 0.76664,-0.3434 0.96875,-0.4375 l 0.375,-0.1875 -0.5,-0.6875 c -0.29765,-0.41188 -0.58698,-0.6875 -0.6875,-0.6875 -0.0936,0 -0.51354,0.12493 -0.9375,0.28125 l -0.78125,0.28125 -0.125,-0.21875 c -0.49597,-0.75889 -1.71875,-2.77495 -1.71875,-2.84375 0,-0.0458 0.21668,-0.12555 0.46875,-0.15625 0.94049,-0.11467 1.50642,-0.31891 1.9375,-0.75 0.37893,-0.37893 0.41613,-0.48888 0.46875,-1.0625 0.0489,-0.53361 0.0185,-0.69289 -0.1875,-1.15625 -0.25284,-0.56883 -2.2181,-3.29723 -2.46875,-3.4375 -0.08,-0.0448 -0.30894,-0.25377 -0.53125,-0.46875 -0.71174,-0.68831 -2.5017,-1.75429 -3.75,-2.21875 -0.6303,-0.23453 -1.20454,-0.40625 -1.25,-0.40625 -0.2038,0 0.51007,1.02798 0.90625,1.3125 0.53138,0.3816 1.04314,1.06771 1.25,1.6875 0.12744,0.38183 0.14872,0.56386 0.0625,0.90625 -0.0584,0.23209 -0.154,0.40825 -0.1875,0.40625 -0.0525,-0.004 -2.09924,-3.33852 -2.1875,-3.5625 -0.0177,-0.045 0.0322,-0.0669 0.125,-0.0312 0.0934,0.0358 0.15389,0.018 0.125,-0.0312 -0.0287,-0.0488 -0.99727,-1.69273 -2.125,-3.65625 -1.83775,-3.19978 -4.89561,-8.40123 -5.84375,-9.9375 -0.19651,-0.31841 -1.03534,-1.70866 -1.875,-3.09375 -1.44611,-2.3855 -1.50777,-2.51228 -1.40625,-2.78125 0.0995,-0.26349 0.0344,-0.43229 -0.84375,-2.0625 l -0.96875,-1.75 -0.3125,0 z m 1.5,0 c -0.38404,0.004 -0.77916,0.0398 -0.8125,0.0937 -0.0316,0.0511 0.0539,0.25718 0.1875,0.46875 0.23119,0.36614 0.28253,0.4044 0.8125,0.4375 0.30617,0.0193 0.67224,0.0222 0.8125,0.0312 0.14121,0.0101 0.28442,-0.0207 0.3125,-0.0937 0.0525,-0.13683 -0.27798,-0.75033 -0.46875,-0.875 -0.0805,-0.0526 -0.4597,-0.0669 -0.84375,-0.0625 z m -8.375,0.5 0,0.5 c 0,0.2813 0.0271,0.5271 0.0625,0.5625 0.0883,0.0884 0.10866,0.0956 0.8125,-0.125 0.34305,-0.10751 0.6912,-0.26225 0.78125,-0.34375 0.12238,-0.1108 0.27132,-0.1109 0.59375,-0.0625 0.29218,0.0439 0.45186,0.0155 0.5,-0.0625 0.16069,-0.26 -0.19646,-0.34955 -1.46875,-0.40625 l -1.28125,-0.0625 z m 6.9375,0.40625 c -0.0123,-0.11035 0.25847,0.30183 0.8125,1.15625 0.45447,0.70085 0.73708,1.21957 0.71875,1.34375 -0.062,0.42001 -0.27898,0.26784 -0.625,-0.46875 -0.60133,-1.28012 -0.89399,-1.9209 -0.90625,-2.03125 z m 1.5625,0.25 c -0.1961,-0.006 -0.34851,0.005 -0.375,0.0312 -0.0244,0.0244 0.0885,0.27894 0.25,0.5625 0.28628,0.50249 0.33119,0.53342 0.96875,0.6875 0.35977,0.0869 0.6395,0.15025 0.65625,0.15625 0.0168,0.006 0.1161,-0.0389 0.21875,-0.0937 0.2292,-0.12266 0.27639,-0.84861 0.0625,-1.0625 -0.0984,-0.0984 -1.19292,-0.26268 -1.78125,-0.28125 z m -6.375,0.0625 c -0.14962,0.0251 -0.12673,0.17156 0.0937,0.40625 0.1233,0.13131 0.33977,0.21875 0.5,0.21875 0.53367,0 0.20971,-0.51295 -0.375,-0.59375 -0.0916,-0.0127 -0.16887,-0.0396 -0.21875,-0.0312 z m 2.25,0.40625 0.28125,0.1875 c 0.13997,0.0977 0.66137,0.52831 1.1875,0.96875 l 0.96875,0.8125 5.5,9.65625 c 3.02213,5.31222 5.51407,9.70965 5.53125,9.78125 0.11836,0.49369 -0.44774,-0.39102 -2.65625,-4.28125 -1.37831,-2.42786 -3.8409,-6.80518 -5.5,-9.71875 -1.6591,-2.9136 -3.03125,-5.30905 -3.03125,-5.34375 0,-0.0347 -0.39086,-0.42217 -0.875,-0.84375 -0.48413,-0.42158 -0.98558,-0.87574 -1.125,-1 l -0.28125,-0.21875 z m -2.96875,0.40625 c -0.70489,0.02 -0.63938,0.13688 -0.28125,0.5625 0.2486,0.29549 0.26119,0.3125 0.78125,0.25 0.35344,-0.0425 0.59252,-0.13098 0.6875,-0.25 0.10685,-0.13386 0.29138,-0.1666 0.71875,-0.1875 0.43768,-0.0214 0.59375,-0.0781 0.59375,-0.1875 0,-0.12139 -0.25656,-0.13395 -1.53125,-0.15625 -0.42305,-0.007 -0.73378,-0.0379 -0.96875,-0.0312 z m 2,0.5625 c -0.36387,0 -0.38526,0.0594 -0.15625,0.3125 0.15107,0.16698 0.8125,0.27097 0.8125,0.125 0,-0.18775 -0.3676,-0.4375 -0.65625,-0.4375 z m 6.5,0.40625 c -0.81915,0 -0.85775,-0.0139 -0.75,0.1875 0.0604,0.11263 0.0924,0.35037 0.0625,0.5 -0.0509,0.25467 -0.0229,0.2755 0.3125,0.3125 0.19706,0.0227 0.65978,0.0362 1.03125,0.0312 0.60808,-0.009 0.69278,-0.037 0.71875,-0.21875 0.0171,-0.1197 -0.11245,-0.3193 -0.28125,-0.5 -0.27692,-0.29671 -0.28326,-0.3125 -1.09375,-0.3125 z m -5.53125,0.3125 c -0.26533,-0.0143 -0.91786,-0.01 -1.46875,0.0312 l -1,0.0937 0.40625,0.5 c 0.37028,0.46732 0.42357,0.52155 0.6875,0.46875 0.16025,-0.0321 0.40522,-0.0625 0.53125,-0.0625 0.18943,0 0.21875,-0.0459 0.21875,-0.28125 0,-0.27888 0.019,-0.2841 0.5625,-0.3125 0.48083,-0.0251 0.5625,-0.0515 0.5625,-0.21875 0,-0.1638 -0.0906,-0.19645 -0.5,-0.21875 z m 1.8125,0.28125 c 0.0136,-0.007 0.0295,-0.002 0.0937,0.0625 0.17535,0.17545 11.09375,19.55125 11.09375,19.6875 0,0.27711 -0.24946,-0.0501 -1.09375,-1.5625 -0.51053,-0.91455 -2.95987,-5.29471 -5.46875,-9.75 -2.50887,-4.45528 -4.59931,-8.20393 -4.625,-8.3125 -0.0208,-0.0877 -0.0136,-0.11769 0,-0.125 z m 1.03125,0.15625 c 0.0519,0 0.57186,0.85343 1.15625,1.875 0.5844,1.02157 2.56306,4.4769 4.40625,7.6875 1.84319,3.21062 3.82337,6.66858 4.40625,7.6875 0.58289,1.01891 1.05348,1.90205 1.03125,1.96875 -0.0472,0.1416 -0.20951,-0.10148 -4,-6.71875 -1.5807,-2.75954 -3.8026,-6.61727 -4.9375,-8.59375 -2.18819,-3.81086 -2.20943,-3.90625 -2.0625,-3.90625 z m 0.4375,0 c 0.0809,0.0108 0.29209,0.24311 0.53125,0.65625 0.20736,0.35822 1.49275,2.6072 2.875,4.96875 1.38225,2.36151 3.71993,6.32656 5.1875,8.84375 2.37766,4.0782 2.96427,5.17354 2.46875,4.59375 -0.0829,-0.0969 -0.35082,-0.50352 -0.5625,-0.875 -0.21167,-0.37148 -2.67342,-4.58734 -5.46875,-9.375 -2.79533,-4.78766 -5.0625,-8.7217 -5.0625,-8.75 0,-0.0513 0.004,-0.0661 0.0312,-0.0625 z m 0.40625,0.0937 c 0.0188,-0.0102 0.0986,0.0307 0.1875,0.125 0.0721,0.0765 1.61808,2.63608 3.4375,5.6875 l 5.375,9 c 1.13911,1.91046 2.15083,3.60914 2.25,3.75 0.0992,0.14086 0.1875,0.28555 0.1875,0.34375 0,0.31693 -0.33922,-0.15202 -1.875,-2.71875 -1.72265,-2.87905 -7.28195,-12.19862 -8.78125,-14.71875 -0.56361,-0.94739 -0.83769,-1.43815 -0.78125,-1.46875 z m -1.875,0.90625 c 0.0609,0.002 0.13536,0.0842 0.25,0.25 0.10092,0.14593 2.43883,4.29744 5.1875,9.25 4.40259,7.93261 4.96861,9.03388 4.875,9.21875 -0.41959,0.8287 -0.51122,1.45102 -0.34375,2.25 0.0877,0.41821 1.10041,1.52375 1.84375,2 0.95518,0.61197 1.1657,0.70185 1.625,0.78125 0.37119,0.0642 0.40386,0.103 0.96875,1.09375 0.32305,0.56658 1.31652,2.28143 2.1875,3.78125 0.87099,1.49983 1.83686,3.21614 2.15625,3.8125 0.84274,1.57355 3.61135,6.6425 3.71875,6.8125 0.0503,0.0796 0.15754,0.25561 0.21875,0.375 0.10701,0.20874 0.36515,0.25985 0.5,0.125 0.0356,-0.0356 -0.0118,-0.15612 -0.0937,-0.28125 -0.082,-0.12514 -0.12443,-0.2629 -0.0937,-0.3125 0.0307,-0.0496 -0.0441,-0.16905 -0.15625,-0.28125 -0.2578,-0.25781 -3.10015,-5.39862 -3.09375,-5.59375 0.003,-0.0796 -0.12631,-0.31899 -0.28125,-0.53125 -0.15494,-0.21227 -0.38638,-0.60495 -0.5,-0.84375 -0.11362,-0.2388 -0.21247,-0.44215 -0.25,-0.46875 -0.17127,-0.12109 -4.33597,-7.4698 -4.25,-7.5 0.0534,-0.0189 0.10875,-0.0189 0.125,0 0.0909,0.10503 4.12942,7.16463 4.21875,7.375 0.0589,0.13881 0.18205,0.32405 0.25,0.40625 0.0679,0.0823 0.26365,0.42656 0.4375,0.75 1.96531,3.65625 3.32306,6.15893 3.59375,6.59375 0.38074,0.6116 0.60095,0.7363 0.5,0.3125 -0.0364,-0.15287 -0.0782,-0.38608 -0.0937,-0.53125 -0.0156,-0.14517 -0.15326,-0.37982 -0.28125,-0.5 -0.35785,-0.33601 -2.93277,-5.25472 -2.8125,-5.375 0.13315,-0.13315 -0.18695,-0.71565 -0.4375,-0.78125 -0.26149,-0.0684 -0.49344,-0.54443 -0.3125,-0.65625 0.11006,-0.068 0.13559,-0.093 0.0312,-0.21875 -0.0694,-0.0836 -0.2243,-0.15625 -0.3125,-0.15625 -0.0882,0 -0.22913,-0.13532 -0.3125,-0.28125 -0.0834,-0.14593 -0.98787,-1.747 -2.03125,-3.5625 -2.01199,-3.50103 -2.05308,-3.59375 -1.90625,-3.59375 0.0518,0 0.99115,1.50987 2.09375,3.375 1.1026,1.86514 2.09047,3.49675 2.1875,3.59375 0.097,0.097 0.307,0.49175 0.5,0.875 0.19301,0.38326 0.46701,0.86171 0.59375,1.0625 0.12675,0.20078 0.21875,0.411 0.21875,0.5 0,0.16012 2.09047,4.2819 2.21875,4.375 0.0366,0.0265 0.28236,0.44726 0.53125,0.90625 0.468,0.86314 0.68324,1.12732 0.78125,0.96875 0.0621,-0.10047 -0.2735,-0.96004 -0.46875,-1.1875 -0.0683,-0.0796 -0.74945,-1.32678 -1.5,-2.78125 -0.95653,-1.85364 -1.33105,-2.66875 -1.25,-2.71875 0.0848,-0.0524 0.064,-0.1823 -0.0937,-0.4375 -0.11833,-0.19151 -0.26622,-0.30995 -0.3125,-0.28125 -0.12065,0.0746 -0.38207,-0.50619 -0.3125,-0.6875 0.0645,-0.16797 -0.12538,-0.452 -0.25,-0.375 -0.0433,0.0268 -0.43664,-0.55075 -0.875,-1.28125 -0.87536,-1.45875 -3.31175,-5.44626 -3.53125,-5.78125 -0.0845,-0.12898 -0.12015,-0.2144 -0.0625,-0.25 0.0518,-0.032 0.99591,1.39587 2.09375,3.1875 1.09784,1.79162 2.1065,3.40801 2.25,3.59375 0.32389,0.4192 1.3782,2.35384 1.375,2.53125 -0.004,0.21175 2.06445,4.43945 2.125,4.34375 0.0304,-0.0481 0.26704,0.35998 0.53125,0.9375 0.48467,1.05934 0.70722,1.32357 0.59375,0.71875 -0.0388,-0.20711 -0.0364,-0.32125 0.0312,-0.34375 0.0696,-0.0232 0.0341,-0.2339 -0.125,-0.59375 -0.13507,-0.30546 -0.23052,-0.5267 -0.1875,-0.5 0.043,0.0266 0.23239,0.35123 0.40625,0.75 0.17387,0.39876 0.35972,0.7163 0.40625,0.6875 0.0466,-0.0287 0.0637,-0.15183 0.0312,-0.28125 -0.051,-0.20331 -0.0251,-0.25 0.1875,-0.25 0.31916,0 0.41298,0.16039 0.21875,0.375 -0.20309,0.22441 -0.21139,0.24265 0.125,1.375 0.15921,0.53589 0.28125,1.0545 0.28125,1.125 0,0.0705 -0.19524,0.23303 -0.4375,0.375 l -0.4375,0.25 -0.34375,-0.3125 c -0.18343,-0.17779 -0.571,-0.63785 -0.875,-1 -0.52993,-0.63128 -0.57014,-0.64325 -0.90625,-0.59375 -0.3738,0.055 -0.62083,-0.10039 -0.53125,-0.34375 0.0269,-0.073 0.019,-0.20225 -0.0312,-0.28125 -0.0759,-0.11936 -0.16451,-0.092 -0.46875,0.1875 -0.20131,0.18498 -0.39097,0.37015 -0.4375,0.40625 -0.0465,0.0361 0.0787,0.28406 0.28125,0.53125 0.35571,0.43405 0.39285,0.4333 0.78125,0.375 l 0.40625,-0.0625 0.6875,0.78125 0.6875,0.75 -0.625,0.40625 c -0.50633,0.32252 -0.82637,0.43967 -2.03125,0.71875 -1.72523,0.39964 -2.94543,0.46903 -4.875,0.28125 -1.20243,-0.11702 -1.3815,-0.17502 -2.34375,-0.59375 -0.82068,-0.35712 -1.35333,-0.66058 -2.46875,-1.5 -1.29718,-0.97622 -1.48782,-1.17693 -2.34375,-2.28125 l -0.9375,-1.21875 -0.625,-1.8125 -0.65625,-1.84375 -0.1875,-3.09375 c -0.33481,-5.40647 -0.37419,-5.85769 -0.625,-6.96875 -0.30355,-1.34473 -0.93786,-2.5497 -2.1875,-4.1875 -0.47416,-0.62143 -0.99403,-1.42093 -1.15625,-1.78125 -0.26216,-0.5823 -0.27376,-0.72936 -0.21875,-1.25 0.0557,-0.52748 0.11159,-0.63156 0.5625,-1.15625 0.4609,-0.53631 0.61519,-0.66124 2.125,-1.40625 0.90216,-0.44516 1.66906,-0.8035 1.6875,-0.8125 0.0184,-0.01 -0.0329,-0.15652 -0.125,-0.3125 -0.10563,-0.17875 -0.24354,-0.2762 -0.34375,-0.25 -0.23436,0.0613 -7.1322,-12.66668 -7.0625,-13.03125 0.0307,-0.16071 0.0641,-0.22088 0.125,-0.21875 z m 12.5625,18.34375 c 0.0234,-0.0234 0.65288,0.99563 1.40625,2.25 0.75337,1.25436 1.34001,2.285 1.3125,2.3125 -0.0623,0.0623 -0.0504,0.0373 -1.53125,-2.46875 -0.67038,-1.13446 -1.2109,-2.07035 -1.1875,-2.09375 z m -0.5625,0.0937 c 0.0517,-0.0517 0.0333,-0.0479 1.53125,2.46875 0.67269,1.13021 1.2084,2.09355 1.1875,2.15625 -0.0485,0.14535 -0.10026,0.0746 -1.5625,-2.46875 -0.66825,-1.1623 -1.1793,-2.13325 -1.15625,-2.15625 z m -0.53125,0.1875 c 0.0779,-0.0489 0.24731,0.25606 1.40625,2.28125 0.67675,1.18257 1.20934,2.1656 1.1875,2.1875 -0.0218,0.022 -0.1009,0.006 -0.15625,-0.0312 -0.1749,-0.11665 -2.52557,-4.2831 -2.46875,-4.375 0.0102,-0.0165 0.0201,-0.0555 0.0312,-0.0625 z m -0.40625,0.5 c 0.0224,0.006 0.0357,0.0334 0.0625,0.0625 0.0698,0.0756 0.50016,0.80245 0.96875,1.625 0.46859,0.82256 0.92964,1.64004 1.03125,1.8125 0.10147,0.17248 0.17004,0.31257 0.125,0.3125 -0.0451,-8e-5 -0.46651,-0.21875 -0.90625,-0.5 -1.49671,-0.95728 -2.00016,-1.91646 -1.5625,-2.9375 0.12605,-0.294 0.21404,-0.39167 0.28125,-0.375 z m 3.3125,1.3125 c 0.0379,0 1.06694,1.61362 1.3125,2.0625 0.0218,0.0399 0.0261,0.0625 0,0.0625 -0.0261,0 -0.28403,-0.37941 -0.5625,-0.84375 -0.27847,-0.46435 -0.58012,-0.94309 -0.65625,-1.0625 -0.0761,-0.1193 -0.12123,-0.21875 -0.0937,-0.21875 z m 1.6875,2.8125 c 0.0987,-0.0987 0.29287,0.20698 2.375,3.59375 2.39009,3.8877 2.53669,4.12504 3.125,5.25 0.4096,0.78321 2.84375,5.9744 2.84375,6.0625 0,0.0218 -0.0499,0.0312 -0.0937,0.0312 -0.0951,0 -2.78678,-5.59711 -2.75,-5.71875 0.0354,-0.11716 -0.1272,-0.44878 -0.46875,-0.875 -0.15946,-0.19898 -0.28354,-0.37265 -0.25,-0.40625 0.0866,-0.0866 -0.10959,-0.4325 -0.25,-0.4375 -0.0645,-0.003 -0.4195,-0.54462 -0.8125,-1.21875 -0.39299,-0.67411 -1.40709,-2.34548 -2.25,-3.71875 -0.8429,-1.37328 -1.49862,-2.5327 -1.46875,-2.5625 z m 6.46875,7.34375 c 0.0938,0.006 0.16657,0.0485 0.28125,0.15625 0.12712,0.11942 0.213,0.2711 0.1875,0.3125 -0.0255,0.0413 -0.28451,0.12735 -0.5625,0.21875 -0.27798,0.0914 -0.53526,0.19735 -0.59375,0.21875 -0.13779,0.0506 -0.48183,-0.43355 -0.375,-0.53125 0.0447,-0.0409 0.31123,-0.1583 0.59375,-0.25 0.25491,-0.0827 0.37495,-0.13135 0.46875,-0.125 z m -4.34375,1.03125 c -0.0638,0 -0.65545,0.19868 -1.3125,0.4375 -0.65705,0.2388 -1.20231,0.4375 -1.21875,0.4375 -0.1098,0 0.0281,0.34434 0.46875,1.125 0.27861,0.49356 0.55124,0.9055 0.59375,0.90625 0.0865,0.002 1.77437,-0.72576 2.1875,-0.9375 l 0.28125,-0.125 -0.1875,-0.40625 c -0.10751,-0.21076 -0.24252,-0.37571 -0.28125,-0.375 -0.0387,5.8e-4 -0.51973,0.16331 -1.09375,0.375 -0.57401,0.21168 -1.07595,0.40625 -1.09375,0.40625 -0.0672,0 -0.23347,-0.6131 -0.1875,-0.6875 0.0264,-0.0428 0.44716,-0.21078 0.9375,-0.375 0.49034,-0.16425 0.96311,-0.3317 1.03125,-0.375 0.14428,-0.0915 0.0457,-0.40625 -0.125,-0.40625 z m 6.53125,7 c -0.0253,0.0253 -0.035,0.0684 0,0.125 0.0952,0.15394 0.15899,0.13878 0.0937,-0.0312 -0.0314,-0.0819 -0.0684,-0.11905 -0.0937,-0.0937 z"
       id="path4637"
       sodipodi:nodetypes="cssssssssssssssssssssssssssscccccsscccsssscccscccccssscccssscccscccccccccscccssssssssssssssssssssccccsssssscccssssscccsssccssssssccsssccccccssssscccssssssccssccsssssscccccsssssccsssssccssssssccsssssssccsccssssccsssssssssssssssssssssssssssssssssssssssssssssssssssssssssssssssssssssscccssssssscccccsssscccccssssssssssccsssccsssccssssccssssssccssssccssssssssssccssssssccsssscccssssssccssc" />
    <path
       id="path3774-0-4-5-7-7-0-1-2-0-8-9"
       d="m 447.21429,546.71933 c -5.523,0 -10,4.477 -10,10 l 0,37 c 0,5.523 4.477,10 10,10 l 37,0 c 5.52301,0 10,-4.477 10,-10 l 0,-37 c 0,-5.523 -4.47699,-10 -10,-10 l -37,0 z m 2.875,4.40625 31.28125,0 c 4.66773,0 8.4375,3.76978 8.4375,8.4375 l 0,31.28125 c 0,4.66772 -3.76977,8.46875 -8.4375,8.46875 l -31.28125,0 c -4.66771,0 -8.4375,-3.80103 -8.4375,-8.46875 l 0,-31.28125 c 0,-4.66772 3.76979,-8.4375 8.4375,-8.4375 z"
       style="fill:#f4722b;fill-opacity:1;fill-rule:evenodd;stroke-width:0.5;stroke-miterlimit:4;stroke-dasharray:none" />
    <path
       style="font-size:40px;font-style:normal;font-variant:normal;font-weight:normal;font-stretch:normal;text-align:start;line-height:125%;writing-mode:lr-tb;text-anchor:start;fill:#f6e7c1;fill-opacity:1;stroke:#89411d;stroke-width:0.40000001;stroke-miterlimit:4;stroke-opacity:1;stroke-dasharray:none;font-family:Bitstream Vera Sans;-inkscape-font-specification:TF2 Build"
       d="m 472.15449,583.06803 c -2.51924,-0.59134 -2.34615,-3.60692 0.30537,-5.3207 0.957,-0.61853 1.92946,-0.8827 3.03567,-0.82463 l 0.89747,0.0471 0.11648,-0.62604 c 0.064,-0.34432 0.25269,-2.97335 0.41924,-5.8423 0.25251,-4.34933 0.33029,-5.23092 0.46801,-5.30421 0.44746,-0.23817 10.73976,-3.47046 11.0507,-3.47046 l 0.35919,0 -0.0661,1.21943 c -0.0364,0.67069 -0.14463,4.0241 -0.24044,7.45205 l -0.17418,6.23263 c -0.53936,1.35853 -1.51468,2.29642 -2.77433,3.00906 -1.81128,0.86828 -4.55624,0.76623 -4.71221,-1.66997 0.0233,-2.47582 3.76831,-4.82732 6.11376,-3.83887 0.15427,0.065 0.18618,-0.0508 0.2426,-0.88056 0.20318,-2.98778 0.41643,-7.74242 0.35023,-7.8086 -0.0425,-0.0425 -2.14766,0.95771 -4.67826,2.22261 l -4.60109,2.29979 -7.7e-4,0.46084 c 0,0.25347 -0.0964,2.39437 -0.21289,4.75756 -0.16872,3.42081 -0.24965,4.39306 -0.39696,4.76932 -0.93883,2.00922 -3.2267,3.58042 -5.5011,3.11595 l 1e-4,0 -4.5e-4,0 z"
       id="path2830"
       sodipodi:nodetypes="cscccsscccccccssscccscccc" />
    <path
       id="path3774-0-4-5-7-7-0-1-2-0-8-9-3"
       d="m 447.2143,546.71933 c -5.523,0 -10,4.477 -10,10 l 0,37 c 0,5.523 4.477,10 10,10 l 37,0 c 5.52301,0 10,-4.477 10,-10 l 0,-37 c 0,-5.523 -4.47699,-10 -10,-10 l -37,0 z m 2.875,4.40625 31.28125,0 c 4.66773,0 8.4375,3.76978 8.4375,8.4375 l 0,31.28125 c 0,4.66772 -3.76977,8.46875 -8.4375,8.46875 l -31.28125,0 c -4.66771,0 -8.4375,-3.80103 -8.4375,-8.46875 l 0,-31.28125 c 0,-4.66772 3.76979,-8.4375 8.4375,-8.4375 z"
       style="fill:#f4722b;fill-opacity:1;fill-rule:evenodd;stroke-width:0.5;stroke-miterlimit:4;stroke-dasharray:none" />
    <path
       style="font-size:40px;font-style:normal;font-variant:normal;font-weight:normal;font-stretch:normal;text-align:start;line-height:125%;writing-mode:lr-tb;text-anchor:start;fill:#f6e7c1;fill-opacity:1;stroke:#89411d;stroke-width:0.40000001;stroke-miterlimit:4;stroke-opacity:1;stroke-dasharray:none;font-family:Bitstream Vera Sans;-inkscape-font-specification:TF2 Build"
       d="m 462.94491,569.1561 c -1.11869,-0.26259 -1.04183,-1.60168 0.1356,-2.3627 0.42496,-0.27466 0.85679,-0.39197 1.34801,-0.36618 l 0.39853,0.0209 0.0517,-0.27799 c 0.0284,-0.1529 0.11221,-1.32034 0.18617,-2.59432 0.11212,-1.93135 0.14666,-2.32282 0.20782,-2.35537 0.1987,-0.10576 4.76906,-1.54108 4.90714,-1.54108 l 0.1595,0 -0.0294,0.54149 c -0.0162,0.29783 -0.0642,1.78693 -0.10677,3.30914 l -0.0774,2.76764 c -0.23951,0.60327 -0.6726,1.01974 -1.23196,1.3362 -0.80431,0.38556 -2.02323,0.34025 -2.09249,-0.74156 0.0103,-1.09941 1.67335,-2.14361 2.71486,-1.70468 0.0685,0.0289 0.0827,-0.0226 0.10773,-0.39102 0.0902,-1.32675 0.18492,-3.43808 0.15552,-3.46746 -0.0189,-0.0189 -0.95369,0.42527 -2.07741,0.98696 l -2.04315,1.02124 -3.5e-4,0.20464 c 0,0.11255 -0.0428,1.06323 -0.0945,2.11263 -0.0749,1.51903 -0.11085,1.95077 -0.17627,2.11785 -0.41689,0.8922 -1.43284,1.58991 -2.4428,1.38366 l 4e-5,0 -2e-4,0 z"
       id="path2830-3"
       sodipodi:nodetypes="cscccsscccccccssscccscccc" />
    <path
       style="font-size:40px;font-style:normal;font-variant:normal;font-weight:normal;font-stretch:normal;text-align:start;line-height:125%;writing-mode:lr-tb;text-anchor:start;fill:#f6e7c1;fill-opacity:1;stroke:#89411d;stroke-width:0.40000001;stroke-miterlimit:4;stroke-opacity:1;stroke-dasharray:none;font-family:Bitstream Vera Sans;-inkscape-font-specification:TF2 Build"
       d="m 454.55229,596.02358 c -1.74652,-0.40996 -1.62652,-2.50058 0.21171,-3.6887 0.66346,-0.42881 1.33764,-0.61195 2.10455,-0.57169 l 0.62218,0.0327 0.0808,-0.43401 c 0.0444,-0.23871 0.17519,-2.06135 0.29066,-4.05031 0.17505,-3.01527 0.22898,-3.62646 0.32445,-3.67727 0.31022,-0.16511 7.44559,-2.40597 7.66115,-2.40597 l 0.24902,0 -0.0459,0.8454 c -0.0253,0.46497 -0.10027,2.7898 -0.16669,5.1663 l -0.12076,4.32091 c -0.37392,0.94184 -1.05008,1.59205 -1.92336,2.0861 -1.25572,0.60196 -3.15872,0.53121 -3.26685,-1.15774 0.0162,-1.71642 2.61247,-3.34665 4.2385,-2.66139 0.10695,0.0451 0.12907,-0.0352 0.16819,-0.61046 0.14086,-2.07135 0.28871,-5.36761 0.24281,-5.41349 -0.0295,-0.0295 -1.48892,0.66395 -3.24331,1.54087 l -3.18981,1.59438 -5.4e-4,0.31949 c 0,0.17572 -0.0668,1.65995 -0.14759,3.29829 -0.11697,2.37155 -0.17307,3.04559 -0.2752,3.30644 -0.65086,1.39294 -2.23698,2.48221 -3.81376,2.1602 l 7e-5,0 -3.2e-4,0 z"
       id="path2830-9"
       sodipodi:nodetypes="cscccsscccccccssscccscccc" />
  </g>
</svg>
