<?xml version="1.0" encoding="UTF-8" standalone="no"?>
<!-- Created with Inkscape (http://www.inkscape.org/) -->

<svg
   xmlns:dc="http://purl.org/dc/elements/1.1/"
   xmlns:cc="http://creativecommons.org/ns#"
   xmlns:rdf="http://www.w3.org/1999/02/22-rdf-syntax-ns#"
   xmlns:svg="http://www.w3.org/2000/svg"
   xmlns="http://www.w3.org/2000/svg"
   xmlns:sodipodi="http://sodipodi.sourceforge.net/DTD/sodipodi-0.dtd"
   xmlns:inkscape="http://www.inkscape.org/namespaces/inkscape"
   width="57"
   height="57"
   id="svg8763"
   version="1.1"
   inkscape:version="0.47 r22583"
   sodipodi:docname="New document 42">
  <title
     id="title8790">Team Fortress 2 WinterBoard: IMDB</title>
  <defs
     id="defs8765">
    <inkscape:perspective
       sodipodi:type="inkscape:persp3d"
       inkscape:vp_x="0 : 526.18109 : 1"
       inkscape:vp_y="0 : 1000 : 0"
       inkscape:vp_z="744.09448 : 526.18109 : 1"
       inkscape:persp3d-origin="372.04724 : 350.78739 : 1"
       id="perspective8771" />
    <inkscape:perspective
       id="perspective8754"
       inkscape:persp3d-origin="0.5 : 0.33333333 : 1"
       inkscape:vp_z="1 : 0.5 : 1"
       inkscape:vp_y="0 : 1000 : 0"
       inkscape:vp_x="0 : 0.5 : 1"
       sodipodi:type="inkscape:persp3d" />
  </defs>
  <sodipodi:namedview
     id="base"
     pagecolor="#ffffff"
     bordercolor="#666666"
     borderopacity="1.0"
     inkscape:pageopacity="0.0"
     inkscape:pageshadow="2"
     inkscape:zoom="1.4"
     inkscape:cx="20.871393"
     inkscape:cy="2.2475519"
     inkscape:document-units="px"
     inkscape:current-layer="layer1"
     showgrid="false"
     inkscape:window-width="550"
     inkscape:window-height="483"
     inkscape:window-x="200"
     inkscape:window-y="200"
     inkscape:window-maximized="0" />
  <metadata
     id="metadata8768">
    <rdf:RDF>
      <cc:Work
         rdf:about="">
        <dc:format>image/svg+xml</dc:format>
        <dc:type
           rdf:resource="http://purl.org/dc/dcmitype/StillImage" />
        <dc:title>Team Fortress 2 WinterBoard: IMDB</dc:title>
      </cc:Work>
    </rdf:RDF>
  </metadata>
  <g
     inkscape:label="Layer 1"
     inkscape:groupmode="layer"
     id="layer1"
     transform="translate(-374.35714,-486.71933)">
    <g
       transform="translate(-383.97003,-51.381185)"
       style="fill:#f6e7c1;fill-opacity:1"
       id="g8740">
      <path
         style="fill:#f4722b;fill-opacity:1;fill-rule:evenodd;stroke-width:0.5;stroke-miterlimit:4;stroke-dasharray:none"
         d="m 768.32717,538.10051 c -5.523,0 -10,4.477 -10,10 l 0,37 c 0,5.523 4.477,10 10,10 l 37,0 c 5.52301,0 10,-4.477 10,-10 l 0,-37 c 0,-5.523 -4.47699,-10 -10,-10 l -37,0 z"
         id="path3774-0-9-9-6-4-71-4-4" />
      <g
         transform="matrix(0.31459098,0,0,0.31459098,576.68128,411.103)"
         id="g8704">
        <path
           style="fill:#89411d;fill-opacity:1"
           d="m 604.9463,459.26911 c -1.46248,7.70118 -3.80419,8.70484 -9.83553,9.83293 v 50.36013 c 6.03341,0.7906 9.71681,3.8073 9.83864,9.83812 h 126.09551 c 0.4557,-5.69644 4.47659,-9.047 9.83864,-9.83812 v -50.36013 c -6.02823,-0.4588 -9.37724,-3.4698 -9.83864,-9.83293 H 604.9463 z"
           id="path8" />
        <path
           style="fill:#f6e7c1;fill-opacity:1"
           d="m 607.25,267 0,0.625 0,40.28125 0,0.625 0.59375,0 10.5,0 0.625,0 0,-0.625 0,-40.28125 0,-0.625 -0.625,0 -10.5,0 -0.59375,0 z m 14.65625,0 0,0.625 0,40.28125 0,0.625 0.625,0 9.125,0 0.625,0 0,-0.625 0.0312,-17.96875 2.59375,18.0625 0.0625,0.53125 0.5625,0 6.53125,0 0.53125,0 0.0625,-0.53125 2.4375,-18.0625 0.0312,17.96875 0,0.625 0.625,0 9.125,0 0.625,0 0,-0.625 0,-40.28125 0,-0.625 -0.625,0 -13.625,0 -0.5625,0 -0.0625,0.53125 -1.84375,14.3125 -0.8125,-5.75 c -0.30224,-2.05399 -0.59232,-3.92731 -0.84375,-5.65625 L 636.6875,267.53125 636.625,267 l -0.53125,0 -13.5625,0 -0.625,0 z m 36.53125,0 0,0.625 0,40.28125 0,0.625 0.625,0 13.15625,0 c 2.56879,0 4.45031,-0.12164 5.75,-0.40625 1.32975,-0.29758 2.48864,-0.84826 3.40625,-1.59375 0.94197,-0.76882 1.59548,-1.84583 1.96875,-3.1875 0.35926,-1.29503 0.53125,-3.70834 0.53125,-7.40625 l 0,-14.125 c 0,-3.88661 -0.10217,-6.43128 -0.34375,-7.78125 -0.25092,-1.40285 -0.90673,-2.68974 -1.90625,-3.84375 -1.00626,-1.14831 -2.44736,-1.97158 -4.34375,-2.46875 C 675.43462,267.23765 672.02709,267 666.875,267 l -7.8125,0 -0.625,0 z m 27.8125,0 0,0.625 0,40.28125 0,0.625 0.625,0 9.375,0 0.46875,0 0.125,-0.46875 0.375,-1.40625 c 0.68536,0.67602 1.42972,1.2253 2.21875,1.625 1.10839,0.5599 2.31688,0.84375 3.59375,0.84375 1.77301,0 3.31961,-0.49242 4.625,-1.4375 1.31576,-0.95494 2.17717,-2.09257 2.53125,-3.40625 0.34683,-1.24422 0.5,-3.08665 0.5,-5.59375 l 0,-14.84375 c 0,-2.43088 -0.0438,-4.07818 -0.15625,-4.875 -0.12338,-0.83414 -0.47927,-1.67326 -1.0625,-2.53125 -0.5967,-0.87095 -1.46929,-1.58192 -2.59375,-2.0625 -1.0918,-0.46036 -2.39061,-0.6875 -3.84375,-0.6875 -1.27791,0 -2.48018,0.2675 -3.59375,0.78125 -0.66566,0.31106 -1.31214,0.70914 -1.90625,1.21875 l 0,-8.0625 0,-0.625 -0.625,0 -10.03125,0 -0.625,0 z m 28.25,2.28125 c -1.67088,0 -3.03125,1.36259 -3.03125,3.0625 0,1.72687 1.36037,3.0625 3.03125,3.0625 1.68902,0 3.03125,-1.33563 3.03125,-3.0625 0,-1.69991 -1.32705,-3.0625 -3,-3.0625 l -0.0312,0 z m 0,0.46875 0.0312,0 c 1.35982,0 2.4375,1.15305 2.4375,2.59375 0,1.44329 -1.07768,2.60725 -2.4375,2.59375 -1.36034,0 -2.46875,-1.13646 -2.46875,-2.59375 0,-1.42722 1.09323,-2.59375 2.4375,-2.59375 z m -0.125,0.875 c -0.41007,0 -0.68258,0.0507 -0.96875,0.0937 l 0,3.40625 0.53125,0 0,-1.46875 0.375,0 c 0.43755,0 0.6691,0.15672 0.75,0.59375 0.0705,0.44792 0.13215,0.76716 0.21875,0.875 l 0.59375,0 c -0.0565,-0.10784 -0.13785,-0.31496 -0.21875,-0.84375 -0.0674,-0.50495 -0.29721,-0.78725 -0.59375,-0.84375 l 0,-0.0312 c 0.36705,-0.10784 0.6875,-0.36148 0.6875,-0.8125 0,-0.32661 -0.13846,-0.56996 -0.34375,-0.71875 -0.20271,-0.15138 -0.51593,-0.25 -1.03125,-0.25 z m -0.0312,0.40625 c 0.61278,0 0.8125,0.32276 0.8125,0.625 0,0.41785 -0.36199,0.5625 -0.8125,0.5625 l -0.40625,0 0,-1.15625 c 0.0975,-0.016 0.22792,-0.0312 0.40625,-0.0312 z M 670.125,275.125 c 0.87147,0.043 1.23036,0.1634 1.375,0.25 0.25766,0.15138 0.4217,0.39695 0.5,0.75 0.0736,0.32142 0.15625,1.16911 0.15625,3.375 l 0,15.6875 c 0,3.48536 -0.3079,4.39222 -0.4375,4.625 -0.17367,0.30846 -0.74302,0.52895 -1.59375,0.59375 l 0,-25.28125 z m 28.28125,5.6875 c 0.44792,0 0.61869,0.13445 0.71875,0.375 0.10575,0.2504 0.28125,0.9848 0.28125,3.09375 l 0,13.875 c 0,2.44852 -0.1562,3.25168 -0.25,3.5 -0.0669,0.17575 -0.20122,0.34375 -0.6875,0.34375 -0.46036,0 -0.57745,-0.154 -0.65625,-0.34375 -0.10057,-0.23536 -0.28125,-0.95865 -0.28125,-3.15625 l 0,-14.21875 c 0,-2.37853 0.1795,-3.01694 0.25,-3.1875 0.0394,-0.0949 0.10917,-0.28125 0.625,-0.28125 z"
           transform="translate(9.3271694,206.10051)"
           id="path24" />
      </g>
    </g>
  </g>
</svg>
