<?xml version="1.0" encoding="UTF-8" standalone="no"?>
<!-- Created with Inkscape (http://www.inkscape.org/) -->

<svg
   xmlns:dc="http://purl.org/dc/elements/1.1/"
   xmlns:cc="http://creativecommons.org/ns#"
   xmlns:rdf="http://www.w3.org/1999/02/22-rdf-syntax-ns#"
   xmlns:svg="http://www.w3.org/2000/svg"
   xmlns="http://www.w3.org/2000/svg"
   xmlns:sodipodi="http://sodipodi.sourceforge.net/DTD/sodipodi-0.dtd"
   xmlns:inkscape="http://www.inkscape.org/namespaces/inkscape"
   width="57"
   height="57"
   id="svg6648"
   version="1.1"
   inkscape:version="0.47 r22583"
   sodipodi:docname="ipod.svg">
  <defs
     id="defs6650">
    <inkscape:perspective
       sodipodi:type="inkscape:persp3d"
       inkscape:vp_x="0 : 526.18109 : 1"
       inkscape:vp_y="0 : 1000 : 0"
       inkscape:vp_z="744.09448 : 526.18109 : 1"
       inkscape:persp3d-origin="372.04724 : 350.78739 : 1"
       id="perspective6656" />
    <inkscape:perspective
       id="perspective6639"
       inkscape:persp3d-origin="0.5 : 0.33333333 : 1"
       inkscape:vp_z="1 : 0.5 : 1"
       inkscape:vp_y="0 : 1000 : 0"
       inkscape:vp_x="0 : 0.5 : 1"
       sodipodi:type="inkscape:persp3d" />
  </defs>
  <sodipodi:namedview
     id="base"
     pagecolor="#ffffff"
     bordercolor="#666666"
     borderopacity="1.0"
     inkscape:pageopacity="0.0"
     inkscape:pageshadow="2"
     inkscape:zoom="2.8"
     inkscape:cx="16.343379"
     inkscape:cy="-16.137166"
     inkscape:document-units="px"
     inkscape:current-layer="layer1"
     showgrid="false"
     inkscape:window-width="1920"
     inkscape:window-height="1018"
     inkscape:window-x="-8"
     inkscape:window-y="-8"
     inkscape:window-maximized="1" />
  <metadata
     id="metadata6653">
    <rdf:RDF>
      <cc:Work
         rdf:about="">
        <dc:format>image/svg+xml</dc:format>
        <dc:type
           rdf:resource="http://purl.org/dc/dcmitype/StillImage" />
      </cc:Work>
    </rdf:RDF>
  </metadata>
  <g
     inkscape:label="Layer 1"
     inkscape:groupmode="layer"
     id="layer1"
     transform="translate(-571.5,-495.29075)">
    <g
       id="g6572"
       transform="translate(91.90975,87.292914)">
      <path
         inkscape:export-ydpi="349"
         inkscape:export-xdpi="349"
         inkscape:export-filename="C:\Users\Lasse\Documents\My Dropbox\Public\iconmontage.png"
         style="fill:#89411d;fill-opacity:1;fill-rule:evenodd;stroke-width:0.5;stroke-miterlimit:4;stroke-dasharray:none"
         id="path3774-0-3-10-7"
         d="m 489.59025,407.99784 h 37 c 5.523,0 10,4.477 10,10 v 37 c 0,5.523 -4.477,10 -10,10 h -37 c -5.523,0 -10,-4.477 -10,-10 v -37 c 0,-5.523 4.477,-10 10,-10 z"
         clip-rule="evenodd" />
      <path
         id="rect6505"
         d="m 498.55685,414.86981 19.06682,0 c 2.216,0 4,1.784 4,4 l 0,35.96168 c 0,2.216 -1.784,4 -4,4 l -19.06682,0 c -2.216,0 -4,-1.784 -4,-4 l 0,-35.96168 c 0,-2.216 1.784,-4 4,-4 z"
         style="fill:#f6e7c1;fill-opacity:1;stroke:none" />
      <path
         id="rect6505-2"
         d="m 498.05495,417.83157 20.07062,0 c 0.6648,0 1.2,0.5352 1.2,1.2 l 0,10.89093 c 0,0.6648 -0.5352,1.2 -1.2,1.2 l -20.07062,0 c -0.6648,0 -1.2,-0.5352 -1.2,-1.2 l 0,-10.89093 c 0,-0.6648 0.5352,-1.2 1.2,-1.2 z"
         style="fill:#5a5a5a;fill-opacity:1;stroke:none" />
      <path
         id="path6529"
         d="m 508.10581,435.69244 c -5.12563,0 -9.28125,4.15562 -9.28125,9.28125 0,5.12563 4.15562,9.28125 9.28125,9.28125 5.12563,0 9.25,-4.15562 9.25,-9.28125 0,-5.12563 -4.12437,-9.28125 -9.25,-9.28125 z m 0,6.28125 c 1.65973,0 3,1.34027 3,3 0,1.65973 -1.34027,3 -3,3 -1.65973,0 -3.03125,-1.34027 -3.03125,-3 0,-1.65973 1.37152,-3 3.03125,-3 z"
         style="fill:#5a5a5a;fill-opacity:1;stroke:none" />
    </g>
  </g>
</svg>
