<?xml version="1.0" encoding="UTF-8" standalone="no"?>
<!-- Created with Inkscape (http://www.inkscape.org/) -->

<svg
   xmlns:dc="http://purl.org/dc/elements/1.1/"
   xmlns:cc="http://creativecommons.org/ns#"
   xmlns:rdf="http://www.w3.org/1999/02/22-rdf-syntax-ns#"
   xmlns:svg="http://www.w3.org/2000/svg"
   xmlns="http://www.w3.org/2000/svg"
   xmlns:sodipodi="http://sodipodi.sourceforge.net/DTD/sodipodi-0.dtd"
   xmlns:inkscape="http://www.inkscape.org/namespaces/inkscape"
   width="57"
   height="57"
   id="svg2"
   version="1.1"
   inkscape:version="0.47 r22583"
   sodipodi:docname="ireddit.svg">
  <title
     id="title2984">Team Fortress 2 WinterBoard: iReddit Free</title>
  <defs
     id="defs4">
    <inkscape:perspective
       sodipodi:type="inkscape:persp3d"
       inkscape:vp_x="0 : 526.18109 : 1"
       inkscape:vp_y="0 : 1000 : 0"
       inkscape:vp_z="744.09448 : 526.18109 : 1"
       inkscape:persp3d-origin="372.04724 : 350.78739 : 1"
       id="perspective10" />
    <inkscape:perspective
       id="perspective2824"
       inkscape:persp3d-origin="0.5 : 0.33333333 : 1"
       inkscape:vp_z="1 : 0.5 : 1"
       inkscape:vp_y="0 : 1000 : 0"
       inkscape:vp_x="0 : 0.5 : 1"
       sodipodi:type="inkscape:persp3d" />
    <inkscape:perspective
       id="perspective2859"
       inkscape:persp3d-origin="0.5 : 0.33333333 : 1"
       inkscape:vp_z="1 : 0.5 : 1"
       inkscape:vp_y="0 : 1000 : 0"
       inkscape:vp_x="0 : 0.5 : 1"
       sodipodi:type="inkscape:persp3d" />
    <inkscape:perspective
       id="perspective2897"
       inkscape:persp3d-origin="0.5 : 0.33333333 : 1"
       inkscape:vp_z="1 : 0.5 : 1"
       inkscape:vp_y="0 : 1000 : 0"
       inkscape:vp_x="0 : 0.5 : 1"
       sodipodi:type="inkscape:persp3d" />
    <inkscape:perspective
       id="perspective2919"
       inkscape:persp3d-origin="0.5 : 0.33333333 : 1"
       inkscape:vp_z="1 : 0.5 : 1"
       inkscape:vp_y="0 : 1000 : 0"
       inkscape:vp_x="0 : 0.5 : 1"
       sodipodi:type="inkscape:persp3d" />
    <inkscape:perspective
       id="perspective2944"
       inkscape:persp3d-origin="0.5 : 0.33333333 : 1"
       inkscape:vp_z="1 : 0.5 : 1"
       inkscape:vp_y="0 : 1000 : 0"
       inkscape:vp_x="0 : 0.5 : 1"
       sodipodi:type="inkscape:persp3d" />
    <inkscape:perspective
       id="perspective4186"
       inkscape:persp3d-origin="0.5 : 0.33333333 : 1"
       inkscape:vp_z="1 : 0.5 : 1"
       inkscape:vp_y="0 : 1000 : 0"
       inkscape:vp_x="0 : 0.5 : 1"
       sodipodi:type="inkscape:persp3d" />
    <inkscape:perspective
       id="perspective4754"
       inkscape:persp3d-origin="0.5 : 0.33333333 : 1"
       inkscape:vp_z="1 : 0.5 : 1"
       inkscape:vp_y="0 : 1000 : 0"
       inkscape:vp_x="0 : 0.5 : 1"
       sodipodi:type="inkscape:persp3d" />
    <inkscape:perspective
       id="perspective4837"
       inkscape:persp3d-origin="0.5 : 0.33333333 : 1"
       inkscape:vp_z="1 : 0.5 : 1"
       inkscape:vp_y="0 : 1000 : 0"
       inkscape:vp_x="0 : 0.5 : 1"
       sodipodi:type="inkscape:persp3d" />
    <inkscape:perspective
       id="perspective4861"
       inkscape:persp3d-origin="0.5 : 0.33333333 : 1"
       inkscape:vp_z="1 : 0.5 : 1"
       inkscape:vp_y="0 : 1000 : 0"
       inkscape:vp_x="0 : 0.5 : 1"
       sodipodi:type="inkscape:persp3d" />
    <inkscape:perspective
       id="perspective4861-7"
       inkscape:persp3d-origin="0.5 : 0.33333333 : 1"
       inkscape:vp_z="1 : 0.5 : 1"
       inkscape:vp_y="0 : 1000 : 0"
       inkscape:vp_x="0 : 0.5 : 1"
       sodipodi:type="inkscape:persp3d" />
  </defs>
  <sodipodi:namedview
     id="base"
     pagecolor="#ffffff"
     bordercolor="#666666"
     borderopacity="1.0"
     inkscape:pageopacity="0.0"
     inkscape:pageshadow="2"
     inkscape:zoom="7.9195959"
     inkscape:cx="31.500022"
     inkscape:cy="20.716792"
     inkscape:document-units="px"
     inkscape:current-layer="g2977"
     showgrid="false"
     inkscape:window-width="1920"
     inkscape:window-height="1018"
     inkscape:window-x="-8"
     inkscape:window-y="-8"
     inkscape:window-maximized="1" />
  <metadata
     id="metadata7">
    <rdf:RDF>
      <cc:Work
         rdf:about="">
        <dc:format>image/svg+xml</dc:format>
        <dc:type
           rdf:resource="http://purl.org/dc/dcmitype/StillImage" />
        <dc:title>Team Fortress 2 WinterBoard: iReddit Free</dc:title>
      </cc:Work>
    </rdf:RDF>
  </metadata>
  <g
     inkscape:label="Layer 1"
     inkscape:groupmode="layer"
     id="layer1"
     transform="translate(-502.92857,-554.57647)">
    <g
       id="g2977">
      <path
         inkscape:export-ydpi="349"
         inkscape:export-xdpi="349"
         inkscape:export-filename="C:\Users\Lasse\Documents\My Dropbox\Public\iconmontage.png"
         style="font-size:10.31457615000000100px;font-style:normal;font-variant:normal;font-weight:normal;font-stretch:normal;text-align:start;line-height:125%;writing-mode:lr-tb;text-anchor:start;fill:#eddfbb;fill-opacity:1;fill-rule:evenodd;stroke:none;font-family:TF2 Build;-inkscape-font-specification:TF2 Build"
         id="path3774-0-4-5-7-6-37-2-1-7-5-1"
         d="m 514.06453,556.32647 h 34.72807 c 5.18387,0 9.38597,4.20209 9.38597,9.38596 v 34.72807 c 0,5.18386 -4.2021,9.38597 -9.38597,9.38597 h -34.72807 c -5.18386,0 -9.38596,-4.2021 -9.38596,-9.38597 v -34.72807 c 0,-5.18386 4.2021,-9.38596 9.38596,-9.38596 z"
         clip-rule="evenodd" />
      <path
         inkscape:export-ydpi="349"
         inkscape:export-xdpi="349"
         inkscape:export-filename="C:\Users\Lasse\Documents\My Dropbox\Public\iconmontage.png"
         style="font-size:10.31457615000000100px;font-style:normal;font-variant:normal;font-weight:normal;font-stretch:normal;text-align:start;line-height:125%;writing-mode:lr-tb;text-anchor:start;fill:#f4722b;fill-opacity:1;fill-rule:evenodd;stroke:none;font-family:TF2 Build;-inkscape-font-specification:TF2 Build"
         d="m 512.92857,554.57647 c -5.523,0 -10,4.477 -10,10 l 0,37 c 0,5.52301 4.477,10 10,10 l 37,0 c 5.523,0 10,-4.47699 10,-10 l 0,-37 c 0,-5.523 -4.477,-10 -10,-10 l -37,0 z m 2.875,4.40625 31.25,0 c 4.66771,0 8.46875,3.76979 8.46875,8.4375 l 0,31.28125 c 0,4.66772 -3.80104,8.4375 -8.46875,8.4375 l -31.25,0 c -4.66771,0 -8.46875,-3.76978 -8.46875,-8.4375 l 0,-31.28125 c 0,-4.66771 3.80104,-8.4375 8.46875,-8.4375 z"
         id="path3774-0-4-5-7-6-3-88-9-1-4-7-3" />
      <path
         id="path3855"
         d="m 525.50669,582.96709 c -1.491,0 -2.6875,1.22776 -2.6875,2.71875 0,1.491 1.1965,2.68751 2.6875,2.68751 1.49099,0 2.6875,-1.19651 2.6875,-2.68751 0,-1.49099 -1.19651,-2.71875 -2.6875,-2.71875 z m 11.90625,0 c -1.49101,0 -2.71875,1.22776 -2.71875,2.71875 0,1.491 1.22774,2.68751 2.71875,2.68751 1.491,0 2.6875,-1.19651 2.6875,-2.68751 0,-1.49099 -1.1965,-2.71875 -2.6875,-2.71875 z"
         style="fill:#f4722b;fill-opacity:1;stroke:none"
         sodipodi:nodetypes="csssccsssc" />
      <path
         sodipodi:nodetypes="cccccccsscssssscsssccccsssccsssccsssssssccccsccscccccsccscc"
         id="path3855-5"
         d="m 544.88168,566.5296 c -1.51245,0 -2.79277,0.9334 -3.34375,2.24999 l -6.96874,-1.625 -0.59376,-0.125 -0.21874,0.56251 -2.84375,8.56249 c -4.61606,0.0628 -8.78548,1.2649 -11.90625,3.25 -0.78073,-0.67933 -1.7988,-1.09374 -2.90625,-1.09374 -2.4152,0 -4.37499,1.95979 -4.375,4.375 0,1.5462 0.7869,2.90338 2,3.6875 -0.0954,0.49331 -0.15625,0.98689 -0.15625,1.49999 0,3.33634 2.0936,6.31681 5.31249,8.40625 3.2189,2.08944 7.57517,3.34375 12.40626,3.34375 4.83108,0 9.24985,-1.25431 12.46875,-3.34375 3.2189,-2.08944 5.28125,-5.06991 5.28125,-8.40625 0,-0.4928 -0.0693,-0.9629 -0.15626,-1.4375 0.0875,-0.0526 0.42924,-0.22039 0.46876,-0.25 1.07236,-0.8034 1.78125,-2.0633 1.78125,-3.49999 0,-2.41521 -1.95981,-4.375 -4.375,-4.375 -1.15361,0 -2.23895,0.4268 -3.03125,1.15625 -2.99318,-1.93195 -7.01522,-3.12325 -11.4375,-3.28125 l 2.5625,-7.59376 6.40625,1.46875 c -0.002,0.0516 0,0.10407 0,0.15626 0,2.01661 1.60838,3.62499 3.62499,3.62499 2.01663,0 3.6875,-1.60838 3.6875,-3.62499 0,-2.01662 -1.67087,-3.6875 -3.6875,-3.6875 z m 0,1.28125 c 1.32158,0 2.40626,1.08468 2.40626,2.40625 0,1.32156 -1.08468,2.37499 -2.40626,2.37499 -1.32156,0 -2.37499,-1.05343 -2.37499,-2.37499 0,-1.32157 1.05343,-2.40625 2.37499,-2.40625 z m -13.59374,9.65625 c 4.59863,0 8.75806,1.20315 11.71874,3.125 2.9607,1.92184 4.71875,4.49658 4.71875,7.28124 0,2.78466 -1.75805,5.35942 -4.71875,7.28125 -2.96068,1.92183 -7.12011,3.125 -11.71874,3.125 -4.59863,0 -8.75806,-1.20317 -11.71875,-3.125 -2.96069,-1.92183 -4.65625,-4.49659 -4.65625,-7.28125 0,-2.78466 1.69556,-5.3594 4.65625,-7.28124 2.96069,-1.92185 7.12012,-3.125 11.71875,-3.125 z m -15.1875,2.1875 c 0.65684,0 1.25141,0.21239 1.75,0.56249 -1.74404,1.34282 -3.03241,2.97276 -3.71875,4.78126 -0.65175,-0.56523 -1.0625,-1.37909 -1.0625,-2.3125 0,-1.69081 1.34045,-3.03124 3.03125,-3.03125 z m 30.65625,0 c 1.69079,1e-5 3.03125,1.34044 3.03125,3.03125 0,1.00844 -0.49925,1.88297 -1.25,2.4375 -0.6508,-1.82579 -1.92535,-3.45236 -3.65626,-4.81251 0.5151,-0.4091 1.16222,-0.65624 1.87501,-0.65624 z m -9.31255,12.375 c -0.0902,0.0185 -0.18686,0.0653 -0.28125,0.125 -1.56034,1.32698 -3.75224,1.88577 -5.93749,1.81249 -2.18526,-0.0733 -4.08982,-0.68644 -5.40626,-1.75 -0.63758,-0.49335 -1.58108,0.55397 -0.9375,1.06251 1.64007,1.32502 3.82472,2.01138 6.28125,2.09375 2.45653,0.0824 5.03136,-0.53519 6.9375,-2.15626 0.46584,-0.52812 -0.0248,-1.31715 -0.65625,-1.18749 z"
         style="fill:#89411d;fill-opacity:1;stroke:none" />
      <text
         xml:space="preserve"
         style="font-size:40px;font-style:normal;font-variant:normal;font-weight:normal;font-stretch:normal;text-align:start;line-height:125%;writing-mode:lr-tb;text-anchor:start;fill:#89411d;fill-opacity:1;stroke:none;font-family:Bitstream Vera Sans;-inkscape-font-specification:TF2 Build"
         x="692.88489"
         y="579.49341"
         id="text3722"
         sodipodi:linespacing="125%"><tspan
           y="579.49341"
           x="692.88489"
           sodipodi:role="line"
           id="tspan3724" /></text>
      <text
         sodipodi:linespacing="125%"
         id="text3722-5"
         y="601.10052"
         x="704.84918"
         style="font-size:40px;font-style:normal;font-variant:normal;font-weight:normal;font-stretch:normal;text-align:start;line-height:125%;writing-mode:lr-tb;text-anchor:start;fill:#89411d;fill-opacity:1;stroke:none;font-family:Bitstream Vera Sans;-inkscape-font-specification:TF2 Build"
         xml:space="preserve"><tspan
           id="tspan3724-1"
           sodipodi:role="line"
           x="704.84918"
           y="601.10052" /></text>
      <text
         sodipodi:linespacing="125%"
         id="text3722-1"
         y="577.18121"
         x="671.13647"
         style="font-size:40px;font-style:normal;font-variant:normal;font-weight:normal;font-stretch:normal;text-align:start;line-height:125%;writing-mode:lr-tb;text-anchor:start;fill:#89411d;fill-opacity:1;stroke:none;font-family:Bitstream Vera Sans;-inkscape-font-specification:TF2 Build"
         xml:space="preserve"><tspan
           id="tspan3724-15"
           sodipodi:role="line"
           x="671.13647"
           y="577.18121" /></text>
    </g>
  </g>
</svg>
