<?xml version="1.0" encoding="UTF-8" standalone="no"?>
<!-- Created with Inkscape (http://www.inkscape.org/) -->

<svg
   xmlns:dc="http://purl.org/dc/elements/1.1/"
   xmlns:cc="http://creativecommons.org/ns#"
   xmlns:rdf="http://www.w3.org/1999/02/22-rdf-syntax-ns#"
   xmlns:svg="http://www.w3.org/2000/svg"
   xmlns="http://www.w3.org/2000/svg"
   xmlns:sodipodi="http://sodipodi.sourceforge.net/DTD/sodipodi-0.dtd"
   xmlns:inkscape="http://www.inkscape.org/namespaces/inkscape"
   width="57"
   height="57"
   id="svg42038"
   version="1.1"
   inkscape:version="0.47 r22583"
   sodipodi:docname="New document 20">
  <title
     id="title42067">Team Fortress 2 WinterBoard: LinkedIn</title>
  <defs
     id="defs42040">
    <inkscape:perspective
       sodipodi:type="inkscape:persp3d"
       inkscape:vp_x="0 : 526.18109 : 1"
       inkscape:vp_y="0 : 1000 : 0"
       inkscape:vp_z="744.09448 : 526.18109 : 1"
       inkscape:persp3d-origin="372.04724 : 350.78739 : 1"
       id="perspective42046" />
    <inkscape:perspective
       id="perspective42028"
       inkscape:persp3d-origin="0.5 : 0.33333333 : 1"
       inkscape:vp_z="1 : 0.5 : 1"
       inkscape:vp_y="0 : 1000 : 0"
       inkscape:vp_x="0 : 0.5 : 1"
       sodipodi:type="inkscape:persp3d" />
  </defs>
  <sodipodi:namedview
     id="base"
     pagecolor="#ffffff"
     bordercolor="#666666"
     borderopacity="1.0"
     inkscape:pageopacity="0.0"
     inkscape:pageshadow="2"
     inkscape:zoom="0.35"
     inkscape:cx="63.499999"
     inkscape:cy="-37.214283"
     inkscape:document-units="px"
     inkscape:current-layer="layer1"
     showgrid="false"
     inkscape:window-width="550"
     inkscape:window-height="483"
     inkscape:window-x="225"
     inkscape:window-y="225"
     inkscape:window-maximized="0" />
  <metadata
     id="metadata42043">
    <rdf:RDF>
      <cc:Work
         rdf:about="">
        <dc:format>image/svg+xml</dc:format>
        <dc:type
           rdf:resource="http://purl.org/dc/dcmitype/StillImage" />
        <dc:title>Team Fortress 2 WinterBoard: LinkedIn</dc:title>
      </cc:Work>
    </rdf:RDF>
  </metadata>
  <g
     inkscape:label="Layer 1"
     inkscape:groupmode="layer"
     id="layer1"
     transform="translate(-311.5,-438.1479)">
    <g
       id="g5264"
       transform="translate(-527.92091,-132.29636)"
       style="fill:#89411d;fill-opacity:1">
      <path
         style="fill:#89411d;fill-opacity:1;fill-rule:evenodd;stroke-width:0.5;stroke-miterlimit:4;stroke-dasharray:none"
         d="m 841.34375,364.34375 c -5.523,0 -10,4.47699 -10,10 l 0,37 c 0,5.52301 4.47699,10 10,10 l 37,0 c 5.52299,0 10,-4.47699 10,-10 l 0,-37 c 0,-5.52298 -4.477,-10 -10,-10 l -37,0 z"
         transform="translate(8.0771615,206.10051)"
         id="path3774-0-4-5-7-6-1-2-4-7-0" />
    </g>
    <g
       transform="matrix(1.6050054,0,0,1.6050054,-327.28098,17.647647)"
       id="g31822"
       style="fill:#f6e7c1;fill-opacity:1">
      <rect
         style="fill:#f6e7c1;fill-opacity:1"
         x="407"
         y="276"
         width="4"
         height="14"
         id="rect31824" />
      <path
         style="fill:#f6e7c1;fill-opacity:1"
         d="m 422.27,276.798 c -1.489,-0.836 -3.687,-0.906 -5.27,-0.184 V 276 h -4 v 14 h 4 v -8.954 l 1.648,-0.793 c 0.404,-0.194 1.29,-0.177 1.665,0.034 0.283,0.158 0.687,0.813 0.687,1.213 v 8.5 h 4 v -8.5 c 0,-1.838 -1.148,-3.816 -2.73,-4.702 z"
         id="path31826" />
      <circle
         style="fill:#f6e7c1;fill-opacity:1"
         sodipodi:ry="2.5"
         sodipodi:rx="2.5"
         sodipodi:cy="272"
         sodipodi:cx="409"
         cx="409"
         cy="272"
         r="2.5"
         id="circle31828"
         d="m 411.5,272 c 0,1.38071 -1.11929,2.5 -2.5,2.5 -1.38071,0 -2.5,-1.11929 -2.5,-2.5 0,-1.38071 1.11929,-2.5 2.5,-2.5 1.38071,0 2.5,1.11929 2.5,2.5 z" />
    </g>
  </g>
</svg>
