<?xml version="1.0" encoding="UTF-8" standalone="no"?>
<!-- Created with Inkscape (http://www.inkscape.org/) -->

<svg
   xmlns:dc="http://purl.org/dc/elements/1.1/"
   xmlns:cc="http://creativecommons.org/ns#"
   xmlns:rdf="http://www.w3.org/1999/02/22-rdf-syntax-ns#"
   xmlns:svg="http://www.w3.org/2000/svg"
   xmlns="http://www.w3.org/2000/svg"
   xmlns:xlink="http://www.w3.org/1999/xlink"
   xmlns:sodipodi="http://sodipodi.sourceforge.net/DTD/sodipodi-0.dtd"
   xmlns:inkscape="http://www.inkscape.org/namespaces/inkscape"
   width="57"
   height="57"
   id="svg4691"
   version="1.1"
   inkscape:version="0.47 r22583"
   sodipodi:docname="maps.svg">
  <title
     id="title4746">Team Fortress 2 WinterBoard: Maps</title>
  <defs
     id="defs4693">
    <inkscape:perspective
       sodipodi:type="inkscape:persp3d"
       inkscape:vp_x="0 : 526.18109 : 1"
       inkscape:vp_y="0 : 1000 : 0"
       inkscape:vp_z="744.09448 : 526.18109 : 1"
       inkscape:persp3d-origin="372.04724 : 350.78739 : 1"
       id="perspective4699" />
    <inkscape:perspective
       id="perspective4677"
       inkscape:persp3d-origin="0.5 : 0.33333333 : 1"
       inkscape:vp_z="1 : 0.5 : 1"
       inkscape:vp_y="0 : 1000 : 0"
       inkscape:vp_x="0 : 0.5 : 1"
       sodipodi:type="inkscape:persp3d" />
    <inkscape:perspective
       id="perspective4756"
       inkscape:persp3d-origin="0.5 : 0.33333333 : 1"
       inkscape:vp_z="1 : 0.5 : 1"
       inkscape:vp_y="0 : 1000 : 0"
       inkscape:vp_x="0 : 0.5 : 1"
       sodipodi:type="inkscape:persp3d" />
    <inkscape:perspective
       id="perspective4851"
       inkscape:persp3d-origin="0.5 : 0.33333333 : 1"
       inkscape:vp_z="1 : 0.5 : 1"
       inkscape:vp_y="0 : 1000 : 0"
       inkscape:vp_x="0 : 0.5 : 1"
       sodipodi:type="inkscape:persp3d" />
    <inkscape:perspective
       id="perspective4900"
       inkscape:persp3d-origin="0.5 : 0.33333333 : 1"
       inkscape:vp_z="1 : 0.5 : 1"
       inkscape:vp_y="0 : 1000 : 0"
       inkscape:vp_x="0 : 0.5 : 1"
       sodipodi:type="inkscape:persp3d" />
    <linearGradient
       inkscape:collect="always"
       xlink:href="#linearGradient5030"
       id="linearGradient5129"
       gradientUnits="userSpaceOnUse"
       x1="410.35025"
       y1="314.85373"
       x2="414.24854"
       y2="310.50735" />
    <linearGradient
       inkscape:collect="always"
       id="linearGradient5030">
      <stop
         style="stop-color:#ffffff;stop-opacity:1;"
         offset="0"
         id="stop5032" />
      <stop
         style="stop-color:#ffffff;stop-opacity:0;"
         offset="1"
         id="stop5034" />
    </linearGradient>
    <clipPath
       clipPathUnits="userSpaceOnUse"
       id="clipPath4221">
      <path
         clip-path="none"
         id="path4223"
         d="m 350.71619,7.5327627 0.5,6.2500013 c 0.1259,0.21284 0.27878,0.40676 0.375,0.625 0.10068,0.22831 0.0565,0.48536 0.125,0.71875 0.0478,0.54251 0.18749,1.07147 0.1875,1.625 0,0.29868 -0.0797,0.5794 -0.0937,0.875 -0.0781,0.36206 -0.0642,0.71205 -0.21875,1.0625 -0.30449,0.69059 -0.76544,1.36528 -1.34375,2 -0.57829,0.63471 -1.27235,1.21667 -2.09375,1.78125 -0.8214,0.56457 -1.77873,1.11357 -2.8125,1.59375 -1.03379,0.48018 -2.15952,0.89973 -3.375,1.28125 -1.21549,0.38152 -2.50851,0.73138 -3.875,1 -1.36649,0.26861 -2.79445,0.48356 -4.28125,0.625 -1.48678,0.14143 -3.01736,0.1875 -4.59375,0.1875 -1.57639,0 -3.13821,-0.04608 -4.625,-0.1875 -1.48679,-0.14143 -2.91476,-0.3564 -4.28125,-0.625 -1.36648,-0.26861 -2.65952,-0.61848 -3.875,-1 -1.21548,-0.38152 -2.34123,-0.80108 -3.375,-1.28125 -1.03379,-0.48018 -1.99111,-1.02918 -2.8125,-1.59375 -0.82139,-0.56457 -1.51547,-1.14655 -2.09375,-1.78125 -0.57829,-0.63471 -1.03923,-1.30942 -1.34375,-2 -0.29585,-0.671 -0.42871,-1.35202 -0.4375,-2.0625 5.5e-4,-0.08277 0.0296,-0.16746 0.0312,-0.25 0.0228,-0.61377 0.11066,-1.22721 0.34375,-1.8125 l 0.65625,-6.2500013 c -14.72852,7.2167413 -24.75,21.2767213 -24.75,37.4375013 0,14.16064 7.7147,26.6987 19.53125,34.4375 -11.7661,-7.74752 -19.40625,-20.30544 -19.40625,-34.4375 0,-0.08593 0.0307,-0.16418 0.0312,-0.25 0.0183,1.47325 0.324,2.92112 0.9375,4.3125 0.6314,1.43199 1.55087,2.80888 2.75,4.125 1.19914,1.31612 2.67177,2.54806 4.375,3.71875 1.70323,1.17069 3.6376,2.28556 5.78125,3.28125 2.14365,0.99569 4.47958,1.89638 7,2.6875 2.52042,0.79112 5.22897,1.47427 8.0625,2.03125 2.83353,0.55698 5.79202,0.98798 8.875,1.28125 3.08298,0.29327 6.29373,0.4375 9.5625,0.4375 3.26877,0 6.44827,-0.14423 9.53125,-0.4375 3.08298,-0.29327 6.07272,-0.72427 8.90625,-1.28125 2.83353,-0.55698 5.51083,-1.24013 8.03125,-2.03125 2.52042,-0.79112 4.85635,-1.69181 7,-2.6875 2.14365,-0.99569 4.10927,-2.11056 5.8125,-3.28125 1.70323,-1.17069 3.14461,-2.40263 4.34375,-3.71875 1.19914,-1.31612 2.14985,-2.69301 2.78125,-4.125 0.32041,-0.72667 0.33815,-1.49923 0.5,-2.25 -0.0882,1.85802 -0.28368,3.6809 -0.625,5.46875 0.46332,-2.3702 0.71875,-4.78936 0.71875,-7.28125 0,-16.78071 -10.77593,-31.27856 -26.4375,-38.2187513 z m 25.71875,45.5000013 c -0.22324,1.16937 -0.48624,2.33394 -0.8125,3.46875 0.32968,-1.1281 0.5853,-2.30648 0.8125,-3.46875 z m -0.90625,3.71875 c -0.15153,0.51389 -0.32793,1.02507 -0.5,1.53125 0.17532,-0.50869 0.34527,-1.01482 0.5,-1.53125 z m -1.03125,3 c -0.24414,0.62724 -0.5067,1.26094 -0.78125,1.875 0.27425,-0.61697 0.53855,-1.24455 0.78125,-1.875 z m -72.28125,20.4375 c 2.14203,1.401147 4.38985,2.652347 6.78125,3.718747 -2.3834,-1.06993 -4.6475,-2.31541 -6.78125,-3.718747 z m 10.5,5.187497 c 1.24574,0.43966 2.51812,0.84269 3.8125,1.1875 -1.30092,-0.34916 -2.56116,-0.74239 -3.8125,-1.1875 z"
         style="fill:#b6343c;fill-opacity:1;fill-rule:evenodd;stroke:none" />
    </clipPath>
    <filter
       color-interpolation-filters="sRGB"
       inkscape:collect="always"
       id="filter4969"
       x="-0.052747332"
       width="1.1054947"
       y="-0.19039562"
       height="1.3807913">
      <feGaussianBlur
         inkscape:collect="always"
         stdDeviation="2.0499811"
         id="feGaussianBlur4971" />
    </filter>
    <inkscape:perspective
       id="perspective8569"
       inkscape:persp3d-origin="0.5 : 0.33333333 : 1"
       inkscape:vp_z="1 : 0.5 : 1"
       inkscape:vp_y="0 : 1000 : 0"
       inkscape:vp_x="0 : 0.5 : 1"
       sodipodi:type="inkscape:persp3d" />
  </defs>
  <sodipodi:namedview
     id="base"
     pagecolor="#ffffff"
     bordercolor="#666666"
     borderopacity="1.0"
     inkscape:pageopacity="0.0"
     inkscape:pageshadow="2"
     inkscape:zoom="7.9195959"
     inkscape:cx="-21.876878"
     inkscape:cy="29.732009"
     inkscape:document-units="px"
     inkscape:current-layer="text4536-8"
     showgrid="false"
     inkscape:window-width="1920"
     inkscape:window-height="1018"
     inkscape:window-x="-8"
     inkscape:window-y="-8"
     inkscape:window-maximized="1" />
  <metadata
     id="metadata4696">
    <rdf:RDF>
      <cc:Work
         rdf:about="">
        <dc:format>image/svg+xml</dc:format>
        <dc:type
           rdf:resource="http://purl.org/dc/dcmitype/StillImage" />
        <dc:title>Team Fortress 2 WinterBoard: Maps</dc:title>
      </cc:Work>
    </rdf:RDF>
  </metadata>
  <g
     inkscape:label="Layer 1"
     inkscape:groupmode="layer"
     id="layer1"
     transform="translate(-334.35714,-455.29075)">
    <g
       id="g3181"
       transform="translate(54.971573,163.32366)"
       inkscape:export-filename="C:\Users\Lasse\Documents\My Dropbox\Public\iconmontage.png"
       inkscape:export-xdpi="349.72098"
       inkscape:export-ydpi="349.72098">
      <g
         style="font-size:10.31457615px;font-style:normal;font-variant:normal;font-weight:normal;font-stretch:normal;text-align:start;line-height:125%;writing-mode:lr-tb;text-anchor:start;fill:#ffffff;fill-opacity:1;stroke:none;font-family:TF2 Build;-inkscape-font-specification:TF2 Build"
         id="text4536-8">
        <g
           transform="translate(279.23918,13.950815)"
           id="g8549">
          <path
             inkscape:export-ydpi="90"
             inkscape:export-xdpi="90"
             inkscape:export-filename="C:\Users\Lasse\Documents\My Dropbox\Projects\tf2_iphone\clock_57x57.png"
             style="fill:#5a5a5a;fill-opacity:1;fill-rule:evenodd"
             id="path3774-0-3-1"
             d="m 10.14639,278.01264 h 37 c 5.523,0 10,4.477 10,10 v 37 c 0,5.523 -4.477,10 -10,10 h -37 c -5.523,0 -10,-4.477 -10,-10 v -37 c 0,-5.523 4.477,-10 10,-10 z"
             clip-rule="evenodd" />
          <path
             inkscape:export-ydpi="90"
             inkscape:export-xdpi="90"
             inkscape:export-filename="C:\Users\Lasse\Documents\My Dropbox\Projects\tf2_iphone\maps_57x57.png"
             sodipodi:nodetypes="csccccccccccccccccccccccccccccscccccccccccccccccccccccccccccccccccccccc"
             id="path3774-0-3-1-3-8"
             d="m 45.048901,295.20741 c -13.2694,0 -24.0625,10.79313 -24.0625,24.0625 0,6.02854 2.231,11.52395 5.9062,15.75 l 5.8438,0 5.7812,-6.84375 c 2.4084,1.99907 4.6158,4.20659 6.5938,6.6875 -0.09,0.0543 -0.1906,0.1026 -0.2812,0.15625 l 2.3124,0 c 0.594,0 1.1846,-0.0882 1.75,-0.1875 2.5373,-1.84776 4.8057,-3.9224 6.75,-6.25 l 0.625,0.53125 c 0.36057,-0.73534 0.58963,-1.56141 0.7186,-2.3124 0.1063,-0.58434 0.1562,-1.16623 0.1562,-1.78125 l 0,-2.09375 c -0.5593,0.91329 -1.1531,1.80267 -1.7812,2.65625 l -8.5312,-7.25 4.375,-5.125 c 1.8693,1.45863 3.8417,2.76646 5.9374,3.96875 l 0,-2.4375 c -1.6015,-0.97511 -3.1391,-2.02611 -4.5937,-3.15625 l 4.5937,-5.4375 0,-3.21875 -6.2187,7.28125 c -2.0104,-1.71429 -3.8908,-3.59679 -5.5937,-5.65625 2.9182,-1.80362 6.2285,-3.30005 9.9687,-4.46875 0.6378,0.34256 1.2544,0.74253 1.8437,1.15625 l 0,-2.75 c -3.5578,-2.08734 -7.6738,-3.28125 -12.0937,-3.28125 l 2e-4,-1e-4 z m -1.125,2.34375 c 0.3706,-0.0186 0.7497,0 1.125,0 2.5901,0 5.0439,0.45128 7.3437,1.28125 -3.0754,1.12271 -5.8602,2.47314 -8.375,4.0625 -1.1695,-1.55531 -2.2446,-3.19387 -3.25,-4.9375 1.0203,-0.20208 2.0899,-0.35226 3.1563,-0.40625 z m -5.3437,0.96875 c 0.011,-0.002 0.021,0.002 0.031,0 1.1113,1.97685 2.3409,3.84061 3.6562,5.59375 -2.2201,1.57862 -4.2282,3.33874 -6,5.28125 l -6.5624,-5.53125 c 2.449,-2.43304 5.4945,-4.29308 8.875,-5.34375 l 2e-4,0 z m -10.3126,6.9375 6.625,5.5625 c -2.1639,2.66111 -3.9694,5.63679 -5.4374,8.84375 -1.9368,-0.94698 -3.9643,-1.80635 -6.0626,-2.5625 0.4013,-4.48743 2.1658,-8.56039 4.875,-11.84375 z m 15.2813,0.25 c 1.83,2.23359 3.8595,4.27334 6.0313,6.125 l -4.375,5.15625 -7.3438,-6.25 c 1.6957,-1.84957 3.5477,-3.53487 5.6875,-5.03125 z m -7.0937,6.65625 7.4062,6.21875 -5.625,6.65625 c -2.1602,-1.64401 -4.4889,-3.125 -6.9375,-4.4375 1.3868,-3.08416 3.103,-5.90257 5.1563,-8.4375 z m -13.1563,7.15625 c 1.8437,0.686 3.6074,1.44603 5.3125,2.28125 -1.0334,2.55597 -1.8716,5.25698 -2.5312,8.09375 -1.7248,-3.07115 -2.7366,-6.61033 -2.7813,-10.375 z m 22.125,0.46875 8.625,7.25 c -2.0429,2.45416 -4.3962,4.61713 -7.1563,6.5 -2.1086,-2.66684 -4.4521,-5.04521 -7.0312,-7.1875 l 5.5625,-6.5625 z m -14.9375,2.8125 c 2.2578,1.21725 4.382,2.55489 6.375,4.0625 l -6.875,8.09375 c -0.8306,-0.79738 -1.5855,-1.67381 -2.2812,-2.59375 0.6733,-3.40645 1.6102,-6.58653 2.7812,-9.5625 z"
             style="fill:#f6e7c1;fill-opacity:1;fill-rule:evenodd" />
          <path
             id="path4829"
             d="m 24.712366,305.67024 4.927915,4.53941 -8.550055,-2.83774 3.62214,-1.70167 z"
             style="fill:#999999;fill-opacity:1;stroke:none" />
          <path
             sodipodi:nodetypes="cssssssssscccssssscc"
             id="path3339"
             d="m 23.633854,308.39951 c -1.740716,2.22374 -3.782204,3.50995 -5.103742,3.21555 -0.30708,-0.0684 -0.580595,-0.21212 -0.901471,-0.47367 -1.306097,-1.06459 -2.039398,-2.6303 -2.091508,-4.46566 -0.0067,-0.23544 0.03334,-0.9797 0.05185,-0.96411 0.02892,0.0244 0.921049,0.40043 1.016919,0.48238 0.484503,0.41412 1.231115,-0.19288 2.166929,-1.20249 0.289889,-0.31274 0.696518,-0.84673 0.87259,-1.22685 0.367086,-0.79251 0.454517,-1.2326 0.367738,-1.76808 -0.05815,-0.35884 -0.03537,-0.4502 -0.344937,-0.58108 -0.395466,-0.16719 -0.468081,-0.45088 -0.68855,-0.5742 l -0.1995,-0.17371 0.287603,-0.23094 c 1.465657,-0.84245 3.125541,-1.10378 4.597728,-0.72385 0.623174,0.16082 0.953622,0.30719 1.497354,0.66327 0.514066,0.33664 0.515825,0.33816 0.636962,0.5482 0.155098,0.26892 0.31096,0.99981 0.307393,1.44147 -0.0087,1.07252 -0.365592,2.34119 -1.06678,3.79177 -0.168684,0.34896 -1.153499,1.9187 -1.406579,2.242 l 0,0 z"
             style="fill:#f4722b;fill-opacity:1;fill-rule:nonzero;stroke:none;stroke-width:5;marker:none;visibility:visible;display:inline;overflow:visible;enable-background:accumulate" />
          <path
             style="fill:#f4722b;fill-opacity:1;fill-rule:nonzero;stroke:none;stroke-width:5;marker:none;visibility:visible;display:inline;overflow:visible;enable-background:accumulate"
             d="m 23.633854,308.39951 c -1.740716,2.22374 -3.782204,3.50995 -5.103741,3.21555 -0.30708,-0.0684 -0.580594,-0.21212 -0.901471,-0.47367 -1.306097,-1.06459 -2.039398,-2.63029 -2.091509,-4.46566 -0.0067,-0.23544 0.03334,-0.9797 0.05185,-0.96411 0.02892,0.0244 0.730921,0.62235 0.826791,0.70429 0.484504,0.41412 1.503256,-0.013 2.43907,-1.0226 0.289888,-0.31275 0.88613,-1.19934 1.062201,-1.57946 0.367087,-0.79251 0.523695,-1.53446 0.436915,-2.06994 -0.05815,-0.35884 -0.216795,-0.57012 -0.526364,-0.701 -0.395465,-0.16719 -0.527524,-0.22948 -0.747993,-0.3528 l -0.229479,-0.12836 0.217651,-0.1251 c 1.465657,-0.84245 3.125543,-1.10378 4.597729,-0.72385 0.623174,0.16082 0.953623,0.30719 1.497355,0.66327 0.514065,0.33664 0.515824,0.33816 0.636961,0.5482 0.155097,0.26892 0.310959,0.99981 0.307392,1.44147 -0.0087,1.07252 -0.365592,2.34119 -1.06678,3.79177 -0.168684,0.34896 -1.153499,1.9187 -1.406579,2.242 l 0,0 z"
             id="path4237" />
          <path
             id="path3997"
             d="m 12.663868,297.24525 c -0.248239,0.70878 -0.623085,1.4664 -1.11742,2.21429 -0.4597,0.69549 -0.968814,1.30443 -1.484363,1.79342 l 6.0912,5.01216 c 0.05037,0.0724 0.115241,0.13003 0.185171,0.18008 0.0095,0.007 0.01716,0.0165 0.02679,0.0229 0.08368,0.0538 0.173471,0.0909 0.274689,0.10813 0.104177,0.0177 0.218572,0.016 0.337357,-0.003 0.118784,-0.0185 0.240349,-0.0547 0.369709,-0.10704 0.129362,-0.0524 0.267398,-0.12179 0.4033,-0.20547 0.135901,-0.0837 0.271821,-0.18278 0.410226,-0.2953 0.138407,-0.11252 0.279102,-0.23654 0.415977,-0.37541 0.136875,-0.13888 0.272231,-0.28908 0.403539,-0.45183 0.131309,-0.16274 0.257271,-0.34162 0.378977,-0.52575 0.121706,-0.18413 0.234493,-0.36647 0.332761,-0.55105 0.09827,-0.18459 0.183407,-0.36798 0.257532,-0.54833 0.07413,-0.18035 0.133086,-0.3584 0.182365,-0.52983 0.04928,-0.17143 0.08718,-0.33531 0.110911,-0.49314 0.02373,-0.15782 0.03351,-0.31203 0.03098,-0.45156 -0.0025,-0.13953 -0.01692,-0.26553 -0.04641,-0.38209 -0.02949,-0.11655 -0.07271,-0.22248 -0.129867,-0.31136 -0.029,-0.0451 -0.07095,-0.0705 -0.107218,-0.10759 -0.03345,-0.0245 -0.06008,-0.0554 -0.09497,-0.0785 -0.06465,-0.0427 -0.137231,-0.0673 -0.204286,-0.10355 -0.03255,-0.01 -0.05916,-0.035 -0.09361,-0.0409 -0.03292,-0.006 -0.06737,-0.003 -0.101955,-0.004 l -6.831391,-3.76534 z"
             style="fill:#f4722b;fill-opacity:1;fill-rule:evenodd;stroke:none" />
          <path
             id="path19345"
             d="m 5.8885961,301.7412 1.1206068,0.74069 0.00723,-0.0109 c 1.0435788,0.61991 3.0849141,-0.69968 4.5924241,-2.98043 1.507458,-2.28067 1.918996,-4.6722 0.939827,-5.38945 l 0.0072,-0.0109 -0.970949,-0.64177 c 0.834084,0.55131 0.271521,2.87435 -1.256155,5.18561 -1.5276795,2.31126 -3.4444246,3.73922 -4.2785088,3.18791 -0.050955,-0.0337 -0.094558,-0.0743 -0.1351816,-0.12082 l -0.026539,0.0402 z m 5.6963849,-8.29285 -0.149658,-0.0989 -0.01448,0.0219 c 0.05867,0.0192 0.113202,0.0433 0.164134,0.077 z"
             style="fill:#f4722b;fill-opacity:1;fill-rule:evenodd;stroke:none" />
          <path
             sodipodi:type="arc"
             style="fill:#f4722b;fill-opacity:1;fill-rule:evenodd;stroke:none"
             id="path5171"
             sodipodi:cx="401.51016"
             sodipodi:cy="9.8854446"
             sodipodi:rx="32.358974"
             sodipodi:ry="13.720205"
             d="m 433.86914,9.8854446 c 0,7.5774604 -14.48761,13.7202054 -32.35898,13.7202054 -17.87137,0 -32.35897,-6.142745 -32.35897,-13.7202054 0,-7.5774601 14.4876,-13.7202053 32.35897,-13.7202053 17.87137,0 32.35898,6.1427452 32.35898,13.7202053 z"
             transform="matrix(0.08552593,-0.12939421,0.1101312,0.07279362,-26.589855,348.88397)" />
          <path
             sodipodi:nodetypes="ccccc"
             id="path4831"
             d="m 10.482766,300.71741 c 0.185297,-1.0132 0.32526,-1.9008 2.148602,-2.83935 l 5.717283,3.23089 c -1.526473,0.35914 -2.478138,2.68227 -2.659572,3.90906 l -5.206313,-4.3006 z"
             style="fill:#f5b884;fill-opacity:1;stroke:none" />
          <path
             style="font-size:medium;font-style:normal;font-variant:normal;font-weight:normal;font-stretch:normal;text-indent:0;text-align:start;text-decoration:none;line-height:normal;letter-spacing:normal;word-spacing:normal;text-transform:none;direction:ltr;block-progression:tb;writing-mode:lr-tb;text-anchor:start;color:#000000;fill:#f6e7c1;fill-opacity:1;stroke:none;stroke-width:0.30000001;marker:none;visibility:visible;display:inline;overflow:visible;enable-background:accumulate;font-family:Bitstream Vera Sans;-inkscape-font-specification:Bitstream Vera Sans"
             d="m 25.613281,301.03516 -0.1875,-0.30864 c 0.128533,0.42474 -0.02674,1.7924 -0.269531,2.77343 -0.242785,0.98103 -0.675651,2.1204 -1.28125,3.21875 -1.211199,2.1967 -3.427511,4.24865 -5.890625,4.53516 L 18.34375,311.5 c 2.604622,-0.30296 4.574681,-2.38002 5.8125,-4.625 0.61891,-1.12249 1.062864,-2.30379 1.3125,-3.3125 0.249636,-1.00871 0.30727,-1.98956 0.144531,-2.52734 z"
             id="path8501"
             sodipodi:nodetypes="ccssccssc" />
        </g>
      </g>
    </g>
  </g>
</svg>
