<?xml version="1.0" encoding="UTF-8" standalone="no"?>
<!-- Created with Inkscape (http://www.inkscape.org/) -->

<svg
   xmlns:dc="http://purl.org/dc/elements/1.1/"
   xmlns:cc="http://creativecommons.org/ns#"
   xmlns:rdf="http://www.w3.org/1999/02/22-rdf-syntax-ns#"
   xmlns:svg="http://www.w3.org/2000/svg"
   xmlns="http://www.w3.org/2000/svg"
   xmlns:sodipodi="http://sodipodi.sourceforge.net/DTD/sodipodi-0.dtd"
   xmlns:inkscape="http://www.inkscape.org/namespaces/inkscape"
   width="57"
   height="57"
   id="svg42458"
   version="1.1"
   inkscape:version="0.47 r22583"
   sodipodi:docname="shopsavvy.svg">
  <title
     id="title42511">Team Fortress 2 WinterBoard: Pandora</title>
  <defs
     id="defs42460">
    <inkscape:perspective
       sodipodi:type="inkscape:persp3d"
       inkscape:vp_x="0 : 526.18109 : 1"
       inkscape:vp_y="0 : 1000 : 0"
       inkscape:vp_z="744.09448 : 526.18109 : 1"
       inkscape:persp3d-origin="372.04724 : 350.78739 : 1"
       id="perspective42466" />
    <inkscape:perspective
       id="perspective42436"
       inkscape:persp3d-origin="0.5 : 0.33333333 : 1"
       inkscape:vp_z="1 : 0.5 : 1"
       inkscape:vp_y="0 : 1000 : 0"
       inkscape:vp_x="0 : 0.5 : 1"
       sodipodi:type="inkscape:persp3d" />
    <inkscape:perspective
       id="perspective42529"
       inkscape:persp3d-origin="0.5 : 0.33333333 : 1"
       inkscape:vp_z="1 : 0.5 : 1"
       inkscape:vp_y="0 : 1000 : 0"
       inkscape:vp_x="0 : 0.5 : 1"
       sodipodi:type="inkscape:persp3d" />
  </defs>
  <sodipodi:namedview
     id="base"
     pagecolor="#ffffff"
     bordercolor="#666666"
     borderopacity="1.0"
     inkscape:pageopacity="0.0"
     inkscape:pageshadow="2"
     inkscape:zoom="5.6"
     inkscape:cx="26.437243"
     inkscape:cy="25.282227"
     inkscape:document-units="px"
     inkscape:current-layer="g42409"
     showgrid="false"
     inkscape:window-width="1920"
     inkscape:window-height="1018"
     inkscape:window-x="-8"
     inkscape:window-y="-8"
     inkscape:window-maximized="1" />
  <metadata
     id="metadata42463">
    <rdf:RDF>
      <cc:Work
         rdf:about="">
        <dc:format>image/svg+xml</dc:format>
        <dc:type
           rdf:resource="http://purl.org/dc/dcmitype/StillImage" />
        <dc:title>Team Fortress 2 WinterBoard: Pandora</dc:title>
      </cc:Work>
    </rdf:RDF>
  </metadata>
  <g
     inkscape:label="Layer 1"
     inkscape:groupmode="layer"
     id="layer1"
     transform="translate(-234.35714,-532.43361)">
    <g
       transform="translate(-438.18468,213.12747)"
       id="g42409">
      <g
         id="g6146-3-2"
         transform="matrix(0.91936501,0,0,0.91936501,126.08804,-154.52794)"
         style="fill:#f6e7c1;fill-opacity:1">
        <path
           inkscape:connector-curvature="0"
           clip-rule="evenodd"
           d="m 606.8814,517.89243 h 37 c 5.523,0 10,4.477 10,10 v 37 c 0,5.523 -4.477,10 -10,10 h -37 c -5.523,0 -10,-4.477 -10,-10 v -37 c 0,-5.523 4.477,-10 10,-10 z"
           id="path3774-0-9-9-6-4-71-4-4"
           style="fill:#f6e7c1;fill-opacity:1;fill-rule:evenodd;stroke-width:0.5;stroke-miterlimit:4;stroke-dasharray:none"
           inkscape:export-filename="C:\Users\Lasse\Documents\My Dropbox\Projects\tf2_iphone\messages_114x114.png"
           inkscape:export-xdpi="180"
           inkscape:export-ydpi="180" />
      </g>
      <path
         id="path3774-0-4-5-7-7-0-1-2-0-8-1-6-5"
         d="m 682.54182,319.30614 c -5.523,0 -10,4.477 -10,10 l 0,37 c 0,5.523 4.477,10 10,10 l 37,0 c 5.52301,0 10,-4.477 10,-10 l 0,-37 c 0,-5.523 -4.47699,-10 -10,-10 l -37,0 z m 2.875,4.40625 31.28125,0 c 4.66773,0 8.4375,3.76978 8.4375,8.4375 l 0,31.28125 c 0,4.66772 -3.76977,8.46875 -8.4375,8.46875 l -31.28125,0 c -4.66771,0 -8.4375,-3.80103 -8.4375,-8.46875 l 0,-31.28125 c 0,-4.66772 3.76979,-8.4375 8.4375,-8.4375 z"
         style="fill:#89411d;fill-opacity:1;fill-rule:evenodd;stroke-width:0.5;stroke-miterlimit:4;stroke-dasharray:none"
         inkscape:connector-curvature="0" />
      <g
         transform="matrix(0.87599047,0,0,0.87599047,689.62153,317.18553)"
         style="font-size:40px;font-style:normal;font-weight:normal;line-height:125%;letter-spacing:0;word-spacing:0;fill:#89411d;fill-opacity:1;stroke:none;font-family:Bitstream Vera Sans"
         id="flowRoot42513">
        <path
           d="m 5.7586851,29.150323 c -7.457e-4,1.592584 -0.00815,3.225154 -0.022222,4.897714 -0.014079,1.672579 -0.030375,3.109596 -0.048888,4.311056 -0.018523,1.201469 -0.034819,1.89183 -0.048888,2.071085 -0.042505,0.524161 -0.1875027,0.865823 -0.4349947,1.024985 -0.247501,0.159167 -0.7024946,0.230833 -1.3649822,0.214999 l -1.2799835,0 c -0.1150005,-0.0017 -0.185,0.02167 -0.2099985,0.07 -0.025002,0.04834 -0.035001,0.131667 -0.029998,0.249996 l 0,0.999988 c -0.00667,0.06417 0.00667,0.125832 0.039999,0.184997 0.033331,0.05917 0.1266629,0.09083 0.2799964,0.095 0.184998,-0.005 0.7149932,-0.025 1.5899873,-0.06 0.874987,-0.035 2.184973,-0.055 3.9299619,-0.06 2.1116355,0.005 3.6082845,0.025 4.4899535,0.06 0.881645,0.035 1.438306,0.055 1.669984,0.06 0.1533,-0.0017 0.246621,-0.03833 0.279963,-0.11 0.03331,-0.07167 0.04665,-0.168331 0.04,-0.289996 l 0,-0.919988 c 0.0067,-0.06417 -0.0067,-0.125831 -0.04,-0.184999 -0.03335,-0.05916 -0.126679,-0.09083 -0.279996,-0.095 l -2.239971,0 c -0.359173,0.0017 -0.640836,-0.101664 -0.844989,-0.309996 -0.204175,-0.208329 -0.33584,-0.531658 -0.394995,-0.969988 -0.0131,-0.225427 -0.02248,-0.841221 -0.02815,-1.847384 -0.0057,-1.006154 -0.0091,-2.09009 -0.01037,-3.25181 -0.0012,-1.161705 -0.0017,-2.088605 -0.0015,-2.780705 l 0,-1.759977 c 0.519983,0.07668 1.079975,0.123344 1.679979,0.139998 0.59998,0.01668 1.239971,0.02334 1.919975,0.02 3.418272,-0.02665 6.041569,-0.753311 7.869899,-2.179972 1.828286,-1.426633 2.751607,-3.393272 2.769964,-5.899924 -0.01169,-1.253296 -0.288354,-2.406614 -0.829989,-3.459956 -0.541683,-1.053294 -1.278339,-1.926615 -2.209972,-2.619966 -1.108339,-0.784962 -2.371655,-1.324955 -3.789952,-1.619979 -1.418331,-0.294969 -3.301638,-0.434966 -5.649926,-0.419994 -0.733322,0.005 -1.546637,0.02497 -2.439948,0.05993 -0.8933291,0.03502 -1.5466538,0.05502 -1.9599755,0.05999 -1.9666536,-0.005 -3.3933046,-0.02497 -4.2799574,-0.06 -0.8866591,-0.03497 -1.4333192,-0.05497 -1.6399819,-0.06 -0.080004,-0.0016 -0.1400045,0.02175 -0.180003,0.07007 -0.040001,0.04837 -0.060001,0.131705 -0.059999,0.250007 l 0,0.999987 c -1.3e-6,0.193357 0.079998,0.286689 0.2399969,0.279996 l 2.0799733,0 c 0.4383237,-0.0058 0.7716524,0.05586 0.9999871,0.184999 0.2283254,0.129191 0.3616569,0.360854 0.3999948,0.69499 0.019162,0.332522 0.030828,1.277509 0.034999,2.834964 0.00416,1.557501 0.00583,3.05248 0.005,4.484941 z M 10.79862,16.350488 c 0.331652,-0.151638 0.708314,-0.238304 1.129986,-0.259998 0.421649,-0.02164 0.81831,-0.02831 1.189984,-0.02 0.682448,-0.01824 1.513054,0.156074 2.49182,0.522955 0.978737,0.366935 1.850824,1.036061 2.616263,2.007382 0.765404,0.971369 1.169349,2.35456 1.211836,4.149577 0.01,0.728344 -0.05002,1.451667 -0.179998,2.169972 -0.130018,0.718342 -0.390014,1.381666 -0.77999,1.989975 -0.51001,0.708339 -1.210001,1.331664 -2.099973,1.869976 -0.890004,0.53834 -1.789991,0.821669 -2.699965,0.849989 -0.530006,0.0017 -1.049998,-0.02165 -1.55998,-0.07 -0.510004,-0.04832 -0.949998,-0.131651 -1.319983,-0.249996 z"
           style="font-weight:bold;fill:#89411d;font-family:Adobe Caslon Pro;-inkscape-font-specification:Adobe Caslon Pro"
           id="path42568" />
      </g>
      <g
         transform="matrix(0.17757433,0,0,0.17757433,682.2733,357.65077)"
         style="font-size:40px;font-style:normal;font-weight:normal;line-height:125%;letter-spacing:0;word-spacing:0;fill:#89411d;fill-opacity:1;stroke:none;font-family:Bitstream Vera Sans"
         id="flowRoot42513-3">
        <path
           d="m 9.7186341,30.470306 c 0.6491489,0.07834 1.3508069,0.131677 2.1049739,0.159998 0.754145,0.02835 1.505801,0.04168 2.25497,0.04 3.205775,-0.02499 5.694073,-0.754977 7.464903,-2.189972 1.770788,-1.434965 2.669109,-3.424937 2.694966,-5.969923 -0.0092,-1.159129 -0.280853,-2.250781 -0.81499,-3.274958 -0.534182,-1.024129 -1.275838,-1.865784 -2.224971,-2.524967 -1.086672,-0.765797 -2.293322,-1.294124 -3.619954,-1.584981 -1.326665,-0.290801 -3.093307,-0.429132 -5.299931,-0.414993 -0.715821,0.005 -1.524136,0.02497 -2.4249474,0.05993 -0.9008296,0.03502 -1.5591545,0.05502 -1.9749767,0.05999 -1.8716531,-0.005 -3.2383044,-0.02497 -4.099958,-0.06 -0.8616596,-0.03497 -1.3883202,-0.05497 -1.5799832,-0.06 -0.097503,-7.68e-4 -0.1625034,0.02092 -0.1950025,0.06507 -0.032502,0.0442 -0.047501,0.115872 -0.044999,0.215008 l 0,0.959988 c -0.0025,0.118358 0.012498,0.20169 0.045,0.249996 0.032499,0.04836 0.097498,0.07169 0.1949971,0.07 l 2.2799707,0 c 0.5324893,-0.01331 0.917484,0.03336 1.1549854,0.139997 0.2374916,0.106692 0.3724896,0.353355 0.4049945,0.739991 0.020827,0.318354 0.03916,1.271674 0.054998,2.859963 0.015828,1.588335 0.024161,3.101647 0.025001,4.539942 l 0,4.599941 c -0.00124,1.592584 -0.012104,3.225154 -0.032592,4.897714 -0.020499,1.672579 -0.043215,3.109596 -0.068147,4.311056 -0.024943,1.201469 -0.044696,1.89183 -0.059259,2.071085 -0.040838,0.525828 -0.17917,0.874157 -0.4149955,1.044986 -0.2358351,0.170832 -0.684162,0.249165 -1.3449818,0.234997 l -1.7199779,0 c -0.097501,-8.31e-4 -0.1624997,0.02083 -0.1949977,0.065 -0.032501,0.04417 -0.047501,0.115833 -0.044999,0.214996 l 0,0.999988 c -0.00417,0.08167 0.014165,0.148331 0.054999,0.199997 0.040831,0.05167 0.1291634,0.07833 0.2649969,0.08 0.2024988,-0.005 0.7374942,-0.025 1.604988,-0.06 0.8674868,-0.035 2.1724726,-0.055 3.9149612,-0.06 1.8416392,0.005 3.1682915,0.025 3.9799605,0.06 0.811646,0.035 1.338306,0.055 1.579983,0.06 0.154967,-8.34e-4 0.254955,-0.02917 0.299964,-0.085 0.04498,-0.05583 0.06498,-0.134165 0.06,-0.234997 l 0,-0.959988 c 0.0042,-0.08166 -0.01418,-0.14833 -0.055,-0.199997 -0.04085,-0.05166 -0.129178,-0.07833 -0.264996,-0.08 l -2.559967,0 c -0.417505,0.0017 -0.7325,-0.101664 -0.944988,-0.309996 -0.2125066,-0.208329 -0.3375047,-0.531657 -0.3749949,-0.969987 -0.013589,-0.23876 -0.026429,-0.863443 -0.038518,-1.874051 -0.012108,-1.010599 -0.021984,-2.094534 -0.02963,-3.25181 -0.00766,-1.15726 -0.011614,-2.075272 -0.011851,-2.754038 z m 0,-14.199817 c 0.4374849,-0.134139 0.9724769,-0.215804 1.6049799,-0.244998 0.632481,-0.02914 1.137474,-0.0408 1.51498,-0.035 0.832321,-0.01503 1.807616,0.170642 2.925887,0.557029 1.118241,0.386441 2.105388,1.063963 2.961443,2.032567 0.85602,0.968654 1.306878,2.318758 1.352577,4.050319 0.01165,0.708344 -0.05168,1.411667 -0.189998,2.109973 -0.13835,0.698343 -0.42168,1.341667 -0.849989,1.929975 -0.537511,0.725839 -1.302501,1.354164 -2.294971,1.884975 -0.992503,0.53084 -2.107487,0.80917 -3.344956,0.83499 -0.785836,1.3e-5 -1.494159,-0.02999 -2.124973,-0.09 -0.630835,-0.05998 -1.149161,-0.149984 -1.5549799,-0.269996 z"
           style="fill:#89411d;font-family:Adobe Caslon Pro;-inkscape-font-specification:Adobe Caslon Pro"
           id="path42553" />
        <path
           d="m 43.615386,32.030286 c 0.20146,0.57778 0.478494,1.413324 0.8311,2.506634 0.352568,1.093326 0.691823,2.177756 1.017764,3.253291 0.325901,1.075546 0.549601,1.875535 0.671103,2.39997 0.142477,0.553328 0.117477,0.946656 -0.075,1.179984 -0.192519,0.233332 -0.567513,0.346664 -1.124985,0.339996 l -0.999988,0 c -0.120017,-0.0033 -0.210016,0.01333 -0.269997,0.05 -0.06002,0.03667 -0.09002,0.113333 -0.09,0.229997 l 0,0.919989 c 0.0066,0.239997 0.113314,0.359995 0.319996,0.359995 0.430001,-0.005 1.070009,-0.025 1.920025,-0.06 0.849975,-0.035 2.089963,-0.055 3.719969,-0.06 1.572458,0.005 2.687446,0.025 3.344967,0.06 0.657465,0.035 1.14246,0.055 1.454986,0.06 0.273232,0.0067 0.406536,-0.08667 0.399913,-0.279997 l 0,-0.999988 c 0.0016,-0.08166 -0.0217,-0.14833 -0.07,-0.199997 -0.04836,-0.05166 -0.131694,-0.07833 -0.249997,-0.08 l -1.319983,0 c -0.508354,0.0075 -1.00168,-0.127497 -1.47998,-0.404996 -0.478354,-0.277494 -0.891681,-0.742488 -1.239984,-1.394981 -0.209653,-0.452089 -0.577055,-1.405656 -1.102209,-2.860704 -0.525202,-1.455035 -1.07038,-3.018964 -1.635535,-4.691792 -0.5652,-1.672806 -1.012601,-3.061922 -1.342204,-4.167353 -0.282487,-0.932565 -0.739764,-2.338471 -1.371834,-4.217724 -0.63211,-1.879215 -1.2642,-3.756226 -1.896272,-5.631039 -0.632108,-1.874764 -1.089386,-3.271781 -1.371834,-4.191056 -0.05585,-0.220802 -0.114183,-0.389133 -0.174999,-0.504995 -0.06085,-0.115802 -0.14918,-0.174134 -0.264996,-0.174996 -0.09668,0.0025 -0.183347,0.03753 -0.259997,0.104999 -0.07668,0.06753 -0.163346,0.152528 -0.259996,0.254996 -0.260846,0.313358 -0.729173,0.686686 -1.404983,1.119986 -0.675839,0.433355 -1.314163,0.726685 -1.914974,0.879988 -0.137511,0.04253 -0.23251,0.09753 -0.284997,0.164998 -0.05251,0.06753 -0.07751,0.132526 -0.075,0.194998 0.0042,0.08169 0.03582,0.168357 0.095,0.259996 0.05915,0.09169 0.120819,0.178357 0.184998,0.259997 0.128319,0.22419 0.171652,0.455853 0.129998,0.694991 -0.04168,0.239189 -0.09834,0.460852 -0.169998,0.664991 -0.156059,0.454587 -0.523955,1.460992 -1.10369,3.019221 -0.579757,1.558272 -1.155057,3.100966 -1.725904,4.628088 -0.570865,1.527156 -0.920983,2.47134 -1.050356,2.832556 -0.41383,1.160493 -0.941724,2.577263 -1.583683,4.250315 -0.641973,1.673074 -1.235051,3.199472 -1.779236,4.5792 -0.544196,1.37974 -0.876537,2.209853 -0.997024,2.49034 -0.266667,0.636661 -0.57333,1.103321 -0.919989,1.399982 -0.346665,0.296664 -0.813325,0.443329 -1.399982,0.439994 l -1.399982,0 c -0.08333,-8.31e-4 -0.156664,0.02083 -0.219997,0.065 -0.06333,0.04417 -0.09667,0.115833 -0.1,0.214996 l 0,0.959988 c -8.33e-4,0.118331 0.02083,0.201663 0.065,0.249996 0.04417,0.04833 0.115831,0.07167 0.214996,0.07 0.244164,-0.005 0.675826,-0.025 1.294987,-0.06 0.619158,-0.035 1.640814,-0.055 3.06497,-0.06 1.187481,0.005 2.172469,0.025 2.954968,0.06 0.782484,0.035 1.317478,0.055 1.604985,0.06 0.100811,0.0025 0.179136,-0.0225 0.234975,-0.075 0.05582,-0.0525 0.08415,-0.147498 0.085,-0.284996 l 0,-0.919989 c 0.0067,-0.193329 -0.126674,-0.286661 -0.399995,-0.279996 l -1.879976,0 c -0.441668,-0.0017 -0.778331,-0.07833 -1.009988,-0.229997 -0.23167,-0.151663 -0.348334,-0.368327 -0.349994,-0.649992 0.0025,-0.106663 0.01749,-0.243328 0.045,-0.409995 0.02749,-0.166661 0.05249,-0.323325 0.075,-0.469993 0.09012,-0.343696 0.332087,-1.078501 0.725916,-2.204417 0.393816,-1.125905 0.798748,-2.260704 1.2148,-3.404401 0.416035,-1.143679 0.702451,-1.914038 0.859248,-2.31108 z m -9.31988,-1.439982 c 0.137272,-0.450352 0.533809,-1.576262 1.189613,-3.377735 0.655784,-1.801441 1.307133,-3.576231 1.95405,-5.324376 0.646892,-1.748103 1.025652,-2.767347 1.136281,-3.057737 0.06082,-0.164973 0.129152,-0.304972 0.204997,-0.419996 0.07582,-0.114974 0.154151,-0.174973 0.234998,-0.179997 0.05832,0.0059 0.111651,0.06419 0.159998,0.174998 0.04832,0.110856 0.101651,0.239188 0.159998,0.384995 0.103193,0.312366 0.434547,1.332105 0.99406,3.05922 0.559483,1.727157 1.127871,3.487627 1.705164,5.281413 0.577259,1.793818 0.944168,2.946889 1.100727,3.459215 z"
           style="fill:#89411d;font-family:Adobe Caslon Pro;-inkscape-font-specification:Adobe Caslon Pro"
           id="path42555" />
        <path
           d="m 60.103055,26.830353 c -0.0017,3.585799 -0.01834,6.454093 -0.05,8.604889 -0.03167,2.150811 -0.06834,3.429127 -0.109998,3.83495 -0.09,0.959157 -0.270002,1.610815 -0.539994,1.954975 -0.270001,0.344164 -0.689995,0.505828 -1.259983,0.484994 l -1.359983,0 c -0.0975,0.0025 -0.1625,0.0275 -0.194998,0.075 -0.0325,0.0475 -0.0475,0.1025 -0.045,0.164998 l 0,1.039987 c -0.0017,0.09916 0.01167,0.17083 0.04,0.214996 0.02833,0.04417 0.08166,0.06583 0.159998,0.065 0.289163,-0.005 0.900825,-0.025 1.834986,-0.06 0.934153,-0.035 1.655812,-0.055 2.164979,-0.06 0.609154,0.005 1.340812,0.025 2.194977,0.06 0.854148,0.035 1.415809,0.055 1.684984,0.06 0.135807,0.0017 0.224131,-0.02167 0.264972,-0.07 0.04082,-0.04833 0.05915,-0.131664 0.055,-0.249996 l 0,-0.879989 c 0.0042,-0.119997 -0.01418,-0.209996 -0.055,-0.269997 -0.04084,-0.06 -0.129176,-0.09 -0.264997,-0.09 l -1.199984,0 c -0.524169,8.34e-4 -0.88583,-0.19083 -1.084987,-0.574993 -0.199171,-0.384159 -0.330836,-0.965817 -0.394994,-1.744977 -0.03013,-0.319251 -0.07655,-1.116277 -0.139258,-2.391081 -0.06272,-1.274791 -0.120994,-2.711808 -0.174813,-4.311055 -0.05383,-1.599227 -0.08247,-3.045132 -0.08592,-4.337722 l 0,-8.879886 0.239997,0 c 0.166658,0.216318 0.864426,1.094824 2.093306,2.635522 1.228862,1.540739 2.468845,3.085903 3.719952,4.635495 1.251081,1.549624 1.993293,2.445909 2.226638,2.688855 0.178316,0.195844 0.85164,1.024166 2.019974,2.484968 1.1683,1.460824 2.481615,3.099135 3.93995,4.914937 1.285794,1.61665 2.404112,3.023297 3.354957,4.219945 0.950796,1.196652 1.459122,1.84331 1.52498,1.939976 0.06247,0.09667 0.177472,0.22333 0.344996,0.379994 0.167471,0.156664 0.372468,0.24333 0.614991,0.259997 0.07831,-0.005 0.131638,-0.095 0.159998,-0.269996 0.02831,-0.174998 0.04164,-0.404995 0.04,-0.689991 l 0,-14.959808 c -0.0034,-1.354966 0.0033,-2.884945 0.02,-4.589941 0.01664,-1.704956 0.0633,-3.254934 0.139999,-4.64994 0.03247,-0.756631 0.16747,-1.313291 0.404994,-1.669979 0.237469,-0.356635 0.622464,-0.533299 1.154986,-0.529992 l 1.079986,0 c 0.07997,-0.0016 0.139968,-0.02831 0.179997,-0.08 0.03997,-0.05164 0.05997,-0.118305 0.06,-0.199998 l 0,-0.999987 c 0.0041,-0.08164 -0.0142,-0.148303 -0.055,-0.199997 -0.04086,-0.05164 -0.129195,-0.0783 -0.264996,-0.08 -0.239155,0.005 -0.650793,0.02497 -1.234915,0.05993 -0.58418,0.03502 -1.465834,0.05502 -2.644964,0.05999 -1.268346,-0.005 -2.251669,-0.02497 -2.949971,-0.06 -0.698349,-0.03497 -1.181676,-0.05497 -1.449984,-0.06 -0.160069,9.4e-5 -0.240088,0.08012 -0.240056,0.240076 l 0,1.039986 c -2.2e-5,0.193358 0.07998,0.28669 0.239996,0.279997 l 1.279984,0 c 0.561636,0.0025 1.028296,0.137525 1.399982,0.404995 0.371637,0.267522 0.6383,0.652517 0.79999,1.154984 0.122473,0.456686 0.227472,1.37334 0.314996,2.749965 0.08747,1.37667 0.142472,2.513321 0.164997,3.409956 0.03997,0.965839 0.06997,2.024157 0.09,3.174959 0.01997,1.150834 0.02997,2.599147 0.03,4.344944 l 0,4.759939 -0.159998,0 c -0.394834,-0.517517 -1.209638,-1.540218 -2.444413,-3.068108 -1.234821,-1.527871 -2.44073,-3.015751 -3.617732,-4.463647 -1.17704,-1.447867 -1.876289,-2.310571 -2.09775,-2.588115 -0.238533,-0.306151 -1.014818,-1.311569 -2.328859,-3.016258 -1.314071,-1.704648 -2.614793,-3.391538 -3.902172,-5.060676 -1.2874,-1.669087 -2.010353,-2.603395 -2.168861,-2.802926 -0.15584,-0.179136 -0.324171,-0.310801 -0.504994,-0.394995 -0.180839,-0.08414 -0.399169,-0.125803 -0.654991,-0.124998 -0.236662,0.0033 -0.573319,0.01663 -1.009971,0.03993 -0.436667,0.02335 -0.993326,0.03668 -1.66998,0.03999 -0.675831,-8.04e-4 -1.244159,-0.0091 -1.704984,-0.025 -0.460832,-0.0158 -0.839161,-0.03414 -1.134988,-0.055 -0.296668,-0.0016 -0.533334,-0.0082 -0.709997,-0.01993 -0.176667,-0.01163 -0.313331,-0.01829 -0.409994,-0.01999 -0.0975,2.8e-5 -0.1625,0.02003 -0.194998,0.06 -0.0325,0.04003 -0.0475,0.100027 -0.045,0.179999 l 0,1.039986 c -0.0025,0.06419 0.0125,0.12586 0.045,0.184998 0.0325,0.05919 0.0975,0.09086 0.194998,0.095 l 1.639978,0.04 c 0.739987,0.02503 1.359978,0.355022 1.859976,0.989987 0.499988,0.635017 0.759985,1.545005 0.77999,2.729965 z"
           style="fill:#89411d;font-family:Adobe Caslon Pro;-inkscape-font-specification:Adobe Caslon Pro"
           id="path42557" />
        <path
           d="m 92.219926,27.79034 c -0.0012,1.126667 -0.01655,2.646646 -0.04593,4.559942 -0.02939,1.913317 -0.06544,3.699959 -0.108146,5.359931 -0.04272,1.659982 -0.0847,2.673302 -0.125924,3.03996 -0.08667,0.639994 -0.513331,0.959989 -1.279984,0.959988 l -2.679965,0 c -0.206666,10e-7 -0.313331,0.08 -0.319996,0.239997 l 0,1.039987 c -0.0067,0.19333 0.08666,0.286662 0.279996,0.279996 0.262498,-0.005 0.837493,-0.025 1.724987,-0.06 0.887487,-0.035 2.192473,-0.055 3.91496,-0.06 0.936649,0.005 2.073303,0.025 3.409965,0.06 1.336641,0.035 2.653294,0.055 3.949957,0.06 1.62578,0.08833 3.60407,-0.08834 5.93489,-0.529995 2.33078,-0.44166 4.49908,-1.678309 6.50491,-3.709951 1.31996,-1.41081 2.30994,-2.949122 2.96997,-4.614941 0.65996,-1.665802 0.98995,-3.634108 0.98998,-5.904924 -0.0225,-2.314953 -0.43752,-4.314925 -1.24498,-5.999923 -0.80752,-1.684956 -1.87251,-3.084937 -3.19496,-4.199946 -1.75917,-1.462454 -3.72081,-2.437441 -5.88493,-2.924962 -2.16415,-0.487466 -4.53579,-0.712463 -7.114903,-0.674991 -0.585823,0.005 -1.564135,0.02497 -2.934939,0.05993 -1.370825,0.03502 -2.379145,0.05502 -3.024964,0.05999 -1.787488,-0.005 -3.152473,-0.02497 -4.094958,-0.06 -0.942493,-0.03497 -1.537486,-0.05497 -1.784981,-0.06 -0.08167,-0.0016 -0.148337,0.01175 -0.200003,0.04007 -0.05167,0.02837 -0.07833,0.08171 -0.08,0.160008 l 0,1.079986 c 8.32e-4,0.116693 0.02917,0.193358 0.085,0.229997 0.05583,0.03669 0.134163,0.05336 0.234996,0.05 l 2.199972,0 c 0.536655,-0.01331 0.943316,0.05336 1.219984,0.199997 0.276657,0.146691 0.443322,0.453354 0.499994,0.919988 0.02765,0.286195 0.05678,0.949395 0.08741,1.989603 0.03061,1.040256 0.05678,2.100488 0.07852,3.1807 0.02172,1.080252 0.03308,1.823452 0.03407,2.229602 z m 3.679953,-1.959975 c -2.57e-4,-0.263682 2.37e-4,-0.887377 0.0015,-1.871086 0.0012,-0.983671 0.0047,-2.025138 0.01037,-3.124405 0.0057,-1.099222 0.01505,-1.954025 0.02815,-2.564411 0.01416,-0.440803 0.07582,-0.819131 0.184998,-1.134986 0.109157,-0.315804 0.30082,-0.564133 0.574993,-0.74499 0.375817,-0.191638 0.884143,-0.308303 1.52498,-0.349996 0.640813,-0.04164 1.199138,-0.0583 1.674978,-0.05 2.230793,0.01753 4.199093,0.372523 5.904923,1.064987 1.70579,0.692517 3.08411,1.617504 4.13495,2.774964 0.97663,1.10084 1.76328,2.449155 2.35997,4.044947 0.59663,1.595831 0.90329,3.194143 0.91999,4.794939 -0.0167,1.837489 -0.29336,3.532465 -0.82999,5.084934 -0.53669,1.552488 -1.23335,2.85747 -2.08998,3.91495 -1.01167,1.299988 -2.31832,2.339973 -3.91995,3.11996 -1.60166,0.779991 -3.4283,1.179985 -5.47993,1.199984 -1.011663,-8.32e-4 -1.888317,-0.109164 -2.629962,-0.324996 -0.741669,-0.215829 -1.278328,-0.534158 -1.609979,-0.954987 -0.25584,-0.393325 -0.434171,-0.766653 -0.534994,-1.119986 -0.100842,-0.353325 -0.149174,-0.726653 -0.144997,-1.119985 -0.01359,-0.892081 -0.02643,-2.067868 -0.03852,-3.527363 -0.01211,-1.459478 -0.02199,-2.810077 -0.02963,-4.051799 -0.0077,-1.241699 -0.01161,-1.981935 -0.01185,-2.220712 z"
           style="fill:#89411d;font-family:Adobe Caslon Pro;-inkscape-font-specification:Adobe Caslon Pro"
           id="path42559" />
        <path
           d="m 135.39979,43.750135 c 2.74244,-0.0325 5.04741,-0.567493 6.91491,-1.60498 1.86745,-1.037486 3.40243,-2.382467 4.60494,-4.034948 1.03496,-1.407476 1.79495,-2.852456 2.27997,-4.334945 0.48496,-1.48247 0.72496,-2.957449 0.71999,-4.424942 -0.0459,-2.755782 -0.59419,-5.124082 -1.64498,-7.104909 -1.05085,-1.980784 -2.32916,-3.599095 -3.83495,-4.854937 -1.59833,-1.286623 -3.17165,-2.143278 -4.71994,-2.569968 -1.54833,-0.426633 -2.96164,-0.623296 -4.23994,-0.589991 -1.70166,-0.0558 -3.4883,0.255858 -5.35993,0.934988 -1.87166,0.679185 -3.6983,2.060832 -5.47993,4.144946 -1.50249,1.889997 -2.50747,3.709972 -3.01496,5.45993 -0.5075,1.749994 -0.7425,3.249973 -0.70499,4.499942 0.0675,2.942473 0.69248,5.437438 1.87497,7.484904 1.18248,2.047477 2.51746,3.512457 4.00495,4.394943 1.6183,0.965822 3.20161,1.644146 4.74994,2.034974 1.5483,0.390827 2.83161,0.579158 3.84995,0.564993 z m 0.31999,-1.519981 c -1.20271,0.01901 -2.63282,-0.432339 -4.29031,-1.354057 -1.65752,-0.921715 -3.12614,-2.427867 -4.40587,-4.518461 -1.27974,-2.090581 -1.9543,-4.879677 -2.02368,-8.367298 -8.4e-4,-1.686629 0.33083,-3.423272 0.99499,-5.209934 0.66415,-1.786622 1.6658,-3.343267 3.00496,-4.669939 1.5383,-1.34079 2.89162,-2.089113 4.05995,-2.244972 1.1683,-0.155804 1.92162,-0.194136 2.25997,-0.114998 1.52959,0.0097 3.11031,0.563724 4.74216,1.6622 1.63181,1.098529 3.01697,2.683692 4.1555,4.755494 1.13848,2.071845 1.73255,4.572551 1.7822,7.502127 0.036,1.275798 -0.20052,2.888615 -0.70962,4.838455 -0.50915,1.949857 -1.50717,3.701932 -2.99403,5.256228 -1.48692,1.554304 -3.67899,2.376021 -6.57622,2.465155 z"
           style="fill:#89411d;font-family:Adobe Caslon Pro;-inkscape-font-specification:Adobe Caslon Pro"
           id="path42561" />
        <path
           d="m 157.37243,28.830327 c 0.002,1.894988 -0.002,3.794961 -0.01,5.699926 -0.008,1.904982 -0.0317,3.844955 -0.07,5.819926 -0.01,0.529162 -0.16,0.890823 -0.45,1.084985 -0.29,0.194166 -0.65999,0.285831 -1.10998,0.274997 l -1.63998,0 c -0.0958,8.35e-4 -0.15417,0.02917 -0.175,0.085 -0.0208,0.05583 -0.0292,0.134166 -0.025,0.234997 l 0,0.919988 c -0.007,0.100832 0.007,0.179164 0.04,0.234997 0.0333,0.05583 0.12667,0.08416 0.28,0.085 0.17333,-0.005 0.60666,-0.025 1.29999,-0.06 0.69332,-0.035 1.92664,-0.055 3.69996,-0.06 1.85331,0.005 3.14663,0.025 3.87997,0.06 0.73331,0.035 1.18664,0.055 1.35998,0.06 0.1933,0.0025 0.31662,-0.0225 0.36997,-0.075 0.0533,-0.0525 0.0766,-0.147498 0.07,-0.284996 l 0,-0.879989 c 0.004,-0.100831 -0.0142,-0.179163 -0.055,-0.234997 -0.0408,-0.05583 -0.12918,-0.08417 -0.26499,-0.085 l -2.51997,0 c -0.29918,-0.0125 -0.53084,-0.167496 -0.69499,-0.464994 -0.16418,-0.297495 -0.26584,-0.66249 -0.305,-1.094986 -0.0208,-0.424992 -0.0392,-1.444978 -0.055,-3.059961 -0.0158,-1.614971 -0.0242,-3.074951 -0.025,-4.379943 l 0,-2.239971 c 0.27749,-0.05749 0.52249,-0.09249 0.73499,-0.105 0.21249,-0.01249 0.40749,-0.01749 0.585,-0.015 1.12997,0.01918 2.00996,0.250843 2.63996,0.694991 0.62998,0.444172 1.18997,0.985832 1.67998,1.624979 0.30665,0.382505 0.77331,1.037496 1.39998,1.964975 0.62664,0.927495 1.0133,1.512487 1.15999,1.754978 0.0901,0.148647 0.32763,0.558024 0.71258,1.228132 0.38491,0.670119 0.77651,1.349122 1.1748,2.03701 0.39825,0.687895 0.66244,1.132828 0.79258,1.334798 0.19998,0.297498 0.46997,0.692493 0.80999,1.184985 0.33998,0.492495 0.62997,0.857489 0.86999,1.094986 0.325,-0.0225 0.79502,-0.0475 1.41004,-0.075 0.61497,-0.0275 1.22497,-0.0425 1.82999,-0.045 0.87996,0.005 1.57995,0.025 2.09997,0.06 0.51997,0.035 0.85997,0.055 1.02,0.06 0.13576,-2e-6 0.22407,-0.03 0.26492,-0.09 0.0408,-0.06 0.0591,-0.149998 0.055,-0.269995 l 0,-0.879989 c 0.004,-0.08333 -0.0142,-0.156663 -0.055,-0.219998 -0.0409,-0.06333 -0.12919,-0.09666 -0.26499,-0.1 -0.55752,0.0092 -1.07251,-0.02916 -1.54498,-0.114998 -0.47252,-0.08583 -0.91752,-0.274162 -1.33498,-0.564993 -0.27904,-0.225674 -0.68101,-0.676532 -1.20592,-1.352575 -0.52495,-0.676037 -1.01877,-1.343188 -1.48146,-2.001457 -0.46273,-0.658257 -0.74026,-1.07356 -0.83258,-1.245909 -0.13681,-0.217274 -0.46322,-0.698255 -0.97925,-1.442945 -0.51606,-0.744673 -1.04099,-1.489354 -1.57479,-2.234046 -0.53384,-0.74467 -0.89581,-1.225651 -1.08591,-1.442943 -0.15668,-0.233319 -0.38335,-0.496649 -0.67999,-0.78999 -0.29668,-0.293317 -0.68335,-0.536647 -1.15999,-0.72999 l 0,-0.08 c 2.54828,-0.510813 4.42159,-1.359135 5.61993,-2.544968 1.19829,-1.185801 1.79162,-3.004109 1.77998,-5.454929 -0.004,-0.757468 -0.18586,-1.542457 -0.545,-2.35497 -0.35918,-0.812466 -0.87084,-1.547456 -1.53498,-2.204972 -0.76918,-0.73163 -1.79083,-1.318288 -3.06496,-1.759977 -1.27416,-0.441634 -2.74581,-0.668297 -4.41494,-0.679991 -0.45333,0.005 -1.37664,0.02497 -2.76994,0.05993 -1.39333,0.03502 -2.69664,0.05502 -3.90995,0.05999 -1.65416,-0.005 -2.85581,-0.02497 -3.60497,-0.06 -0.74916,-0.03497 -1.20082,-0.05497 -1.35498,-0.06 -0.0975,-7.68e-4 -0.16251,0.02092 -0.19501,0.06507 -0.0325,0.0442 -0.0475,0.115872 -0.045,0.215008 l 0,0.999987 c -0.002,0.08169 0.0125,0.148359 0.045,0.199998 0.0325,0.05169 0.0975,0.07836 0.195,0.08 l 1.59998,0 c 0.49832,8.6e-4 0.87165,0.169191 1.11998,0.504994 0.24833,0.335855 0.38166,0.834181 0.4,1.49498 0.0192,0.600849 0.0308,1.48917 0.035,2.664966 0.004,1.17584 0.006,2.514154 0.005,4.014948 z m 3.59995,-11.239855 c 0.002,-0.320803 0.0475,-0.589133 0.135,-0.80499 0.0875,-0.215804 0.20249,-0.374135 0.345,-0.474994 0.18415,-0.118306 0.39581,-0.201638 0.63499,-0.249998 0.23915,-0.04831 0.48081,-0.07164 0.72499,-0.07 1.63163,-8.06e-4 2.95828,0.150858 3.97995,0.454994 1.02163,0.304189 1.90829,0.76585 2.65996,1.384982 0.59081,0.49502 1.06914,1.145011 1.43498,1.949976 0.36581,0.805012 0.55414,1.675 0.565,2.609966 0.0276,0.61137 -0.18323,1.437531 -0.63259,2.478485 -0.44939,1.040992 -1.30321,1.988633 -2.56145,2.842927 -1.25827,0.854325 -3.08688,1.307158 -5.48585,1.358502 -0.37001,8.48e-4 -0.69,-0.01082 -0.95999,-0.035 -0.27,-0.02415 -0.55,-0.06582 -0.83999,-0.124999 z"
           style="fill:#89411d;font-family:Adobe Caslon Pro;-inkscape-font-specification:Adobe Caslon Pro"
           id="path42563" />
        <path
           d="m 198.30289,32.030286 c 0.20146,0.57778 0.47849,1.413324 0.8311,2.506634 0.35256,1.093326 0.69182,2.177756 1.01776,3.253291 0.3259,1.075546 0.5496,1.875535 0.6711,2.39997 0.14248,0.553328 0.11748,0.946656 -0.075,1.179984 -0.19251,0.233332 -0.56751,0.346664 -1.12498,0.339996 l -0.99999,0 c -0.12002,-0.0033 -0.21001,0.01333 -0.27,0.05 -0.06,0.03667 -0.09,0.113333 -0.09,0.229997 l 0,0.919989 c 0.007,0.239997 0.11331,0.359995 0.31999,0.359995 0.43,-0.005 1.07001,-0.025 1.92003,-0.06 0.84997,-0.035 2.08996,-0.055 3.71997,-0.06 1.57245,0.005 2.68744,0.025 3.34496,0.06 0.65747,0.035 1.14246,0.055 1.45499,0.06 0.27323,0.0067 0.40654,-0.08667 0.39991,-0.279997 l 0,-0.999988 c 0.002,-0.08166 -0.0217,-0.14833 -0.07,-0.199997 -0.0484,-0.05166 -0.13169,-0.07833 -0.24999,-0.08 l -1.31999,0 c -0.50835,0.0075 -1.00168,-0.127497 -1.47998,-0.404996 -0.47835,-0.277494 -0.89168,-0.742488 -1.23998,-1.394981 -0.20965,-0.452089 -0.57706,-1.405656 -1.10221,-2.860704 -0.5252,-1.455035 -1.07038,-3.018964 -1.63553,-4.691792 -0.5652,-1.672806 -1.01261,-3.061922 -1.34221,-4.167353 -0.28249,-0.932565 -0.73976,-2.338471 -1.37183,-4.217724 -0.63211,-1.879215 -1.2642,-3.756226 -1.89627,-5.631039 -0.63211,-1.874764 -1.08939,-3.271781 -1.37184,-4.191056 -0.0558,-0.220802 -0.11418,-0.389133 -0.175,-0.504995 -0.0609,-0.115802 -0.14918,-0.174134 -0.26499,-0.174996 -0.0967,0.0025 -0.18335,0.03753 -0.26,0.104999 -0.0767,0.06753 -0.16335,0.152528 -0.26,0.254996 -0.26084,0.313358 -0.72917,0.686686 -1.40498,1.119986 -0.67584,0.433355 -1.31416,0.726685 -1.91497,0.879988 -0.13751,0.04253 -0.23251,0.09753 -0.285,0.164998 -0.0525,0.06753 -0.0775,0.132526 -0.075,0.194998 0.004,0.08169 0.0358,0.168357 0.095,0.259996 0.0592,0.09169 0.12082,0.178357 0.185,0.259997 0.12832,0.22419 0.17165,0.455853 0.13,0.694991 -0.0417,0.239189 -0.0983,0.460852 -0.17,0.664991 -0.15606,0.454587 -0.52396,1.460992 -1.10369,3.019221 -0.57976,1.558272 -1.15506,3.100966 -1.72591,4.628088 -0.57086,1.527156 -0.92098,2.47134 -1.05035,2.832556 -0.41383,1.160493 -0.94173,2.577263 -1.58369,4.250315 -0.64197,1.673074 -1.23505,3.199472 -1.77923,4.5792 -0.5442,1.37974 -0.87654,2.209853 -0.99703,2.49034 -0.26666,0.636661 -0.57333,1.103321 -0.91998,1.399982 -0.34667,0.296664 -0.81333,0.443329 -1.39999,0.439994 l -1.39998,0 c -0.0833,-8.31e-4 -0.15666,0.02083 -0.22,0.065 -0.0633,0.04417 -0.0967,0.115833 -0.1,0.214996 l 0,0.959988 c -8.4e-4,0.118331 0.0208,0.201663 0.065,0.249996 0.0442,0.04833 0.11583,0.07167 0.21499,0.07 0.24417,-0.005 0.67583,-0.025 1.29499,-0.06 0.61916,-0.035 1.64081,-0.055 3.06497,-0.06 1.18748,0.005 2.17247,0.025 2.95497,0.06 0.78248,0.035 1.31748,0.055 1.60498,0.06 0.10081,0.0025 0.17914,-0.0225 0.23498,-0.075 0.0558,-0.0525 0.0842,-0.147498 0.085,-0.284996 l 0,-0.919989 c 0.007,-0.193329 -0.12667,-0.286661 -0.39999,-0.279996 l -1.87998,0 c -0.44167,-0.0017 -0.77833,-0.07833 -1.00999,-0.229997 -0.23167,-0.151663 -0.34833,-0.368327 -0.34999,-0.649992 0.002,-0.106663 0.0175,-0.243328 0.045,-0.409995 0.0275,-0.166661 0.0525,-0.323325 0.075,-0.469993 0.0901,-0.343696 0.33209,-1.078501 0.72591,-2.204417 0.39382,-1.125905 0.79875,-2.260704 1.2148,-3.404401 0.41604,-1.143679 0.70245,-1.914038 0.85925,-2.31108 z m -9.31988,-1.439982 c 0.13727,-0.450352 0.53381,-1.576262 1.18961,-3.377735 0.65578,-1.801441 1.30713,-3.576231 1.95405,-5.324376 0.64689,-1.748103 1.02565,-2.767347 1.13628,-3.057737 0.0608,-0.164973 0.12915,-0.304972 0.205,-0.419996 0.0758,-0.114974 0.15415,-0.174973 0.23499,-0.179997 0.0583,0.0059 0.11166,0.06419 0.16,0.174998 0.0483,0.110856 0.10165,0.239188 0.16,0.384995 0.10319,0.312366 0.43455,1.332105 0.99406,3.05922 0.55948,1.727157 1.12787,3.487627 1.70516,5.281413 0.57726,1.793818 0.94417,2.946889 1.10073,3.459215 z"
           style="fill:#89411d;font-family:Adobe Caslon Pro;-inkscape-font-specification:Adobe Caslon Pro"
           id="path42565" />
      </g>
    </g>
  </g>
</svg>
