<?xml version="1.0" encoding="UTF-8" standalone="no"?>
<!-- Created with Inkscape (http://www.inkscape.org/) -->

<svg
   xmlns:dc="http://purl.org/dc/elements/1.1/"
   xmlns:cc="http://creativecommons.org/ns#"
   xmlns:rdf="http://www.w3.org/1999/02/22-rdf-syntax-ns#"
   xmlns:svg="http://www.w3.org/2000/svg"
   xmlns="http://www.w3.org/2000/svg"
   xmlns:sodipodi="http://sodipodi.sourceforge.net/DTD/sodipodi-0.dtd"
   xmlns:inkscape="http://www.inkscape.org/namespaces/inkscape"
   width="57"
   height="57"
   id="svg4691"
   version="1.1"
   inkscape:version="0.47 r22583"
   sodipodi:docname="clock.svg">
  <title
     id="title4746">Team Fortress 2 WinterBoard: Calendar</title>
  <defs
     id="defs4693">
    <inkscape:perspective
       sodipodi:type="inkscape:persp3d"
       inkscape:vp_x="0 : 526.18109 : 1"
       inkscape:vp_y="0 : 1000 : 0"
       inkscape:vp_z="744.09448 : 526.18109 : 1"
       inkscape:persp3d-origin="372.04724 : 350.78739 : 1"
       id="perspective4699" />
    <inkscape:perspective
       id="perspective4677"
       inkscape:persp3d-origin="0.5 : 0.33333333 : 1"
       inkscape:vp_z="1 : 0.5 : 1"
       inkscape:vp_y="0 : 1000 : 0"
       inkscape:vp_x="0 : 0.5 : 1"
       sodipodi:type="inkscape:persp3d" />
    <inkscape:perspective
       id="perspective4756"
       inkscape:persp3d-origin="0.5 : 0.33333333 : 1"
       inkscape:vp_z="1 : 0.5 : 1"
       inkscape:vp_y="0 : 1000 : 0"
       inkscape:vp_x="0 : 0.5 : 1"
       sodipodi:type="inkscape:persp3d" />
  </defs>
  <sodipodi:namedview
     id="base"
     pagecolor="#ffffff"
     bordercolor="#666666"
     borderopacity="1.0"
     inkscape:pageopacity="0.0"
     inkscape:pageshadow="2"
     inkscape:zoom="7.9195959"
     inkscape:cx="-6.7877246"
     inkscape:cy="29.732009"
     inkscape:document-units="px"
     inkscape:current-layer="text4536-8"
     showgrid="false"
     inkscape:window-width="1920"
     inkscape:window-height="1018"
     inkscape:window-x="-8"
     inkscape:window-y="-8"
     inkscape:window-maximized="1" />
  <metadata
     id="metadata4696">
    <rdf:RDF>
      <cc:Work
         rdf:about="">
        <dc:format>image/svg+xml</dc:format>
        <dc:type
           rdf:resource="http://purl.org/dc/dcmitype/StillImage" />
        <dc:title>Team Fortress 2 WinterBoard: Calendar</dc:title>
      </cc:Work>
    </rdf:RDF>
  </metadata>
  <g
     inkscape:label="Layer 1"
     inkscape:groupmode="layer"
     id="layer1"
     transform="translate(-334.35714,-455.29075)">
    <g
       id="g3181"
       transform="translate(54.971573,163.32366)"
       inkscape:export-filename="C:\Users\Lasse\Documents\My Dropbox\Public\iconmontage.png"
       inkscape:export-xdpi="349.72098"
       inkscape:export-ydpi="349.72098">
      <g
         style="font-size:10.31457615px;font-style:normal;font-variant:normal;font-weight:normal;font-stretch:normal;text-align:start;line-height:125%;writing-mode:lr-tb;text-anchor:start;fill:#ffffff;fill-opacity:1;stroke:none;font-family:TF2 Build;-inkscape-font-specification:TF2 Build"
         id="text4536-8">
        <g
           id="g3192"
           transform="translate(-98.962423,-29.75403)"
           inkscape:export-filename="C:\Users\Lasse\Documents\My Dropbox\Public\iconmontage.png"
           inkscape:export-xdpi="349.72098"
           inkscape:export-ydpi="349.72098">
          <path
             inkscape:export-ydpi="90"
             inkscape:export-xdpi="90"
             inkscape:export-filename="C:\Users\Lasse\Documents\My Dropbox\Projects\tf2_iphone\photos_57x57.png"
             style="fill:#5a5a5a;fill-rule:evenodd"
             id="path3774"
             d="m 388.34799,321.72112 h 37 c 5.523,0 10,4.477 10,10 v 37 c 0,5.523 -4.477,10 -10,10 h -37 c -5.523,0 -10,-4.477 -10,-10 v -37 c 0,-5.523 4.477,-10 10,-10 z"
             clip-rule="evenodd" />
          <g
             id="g5211"
             transform="translate(0.12598799,-1.1098037)">
            <path
               style="fill:#f6e7c1;fill-opacity:1"
               d="m 383.87008,368.9894 c 5.91569,-12.69074 4.63076,-27.95944 1.31816,-41.04503 l 20.16419,3.63674 c 7.47235,1.39891 10.14144,1.89375 13.81587,2.56145 1.46618,0.26643 2.71679,0.50735 2.77921,0.53539 8.59934,17.29752 2.79693,31.48541 -0.83855,41.52368 -12.58519,-1.67186 -24.91832,-4.26649 -37.23888,-7.21223 z"
               id="path4756-4-4-1"
               sodipodi:nodetypes="cccsccc"
               inkscape:export-filename="C:\Users\Lasse\Documents\My Dropbox\Projects\tf2_iphone\photos_57x57.png"
               inkscape:export-xdpi="90"
               inkscape:export-ydpi="90" />
            <path
               style="fill:#f6e7c1;fill-opacity:1;stroke:#5a5a5a;stroke-width:0.93698502;stroke-opacity:1"
               d="m 386.98236,371.24239 c 4.39137,-13.29533 1.33009,-28.30909 -3.48971,-40.91763 l 20.4511,1.25427 c 7.58466,0.51568 10.29329,0.69507 14.02059,0.92858 1.48728,0.0931 2.75747,0.18624 2.82274,0.20679 10.56273,16.17349 6.4589,30.94247 4.022,41.33694 -12.69436,-0.18899 -25.24625,-1.32388 -37.82672,-2.80895 z"
               id="path4756-4-4-1-7"
               sodipodi:nodetypes="cccsccc"
               inkscape:export-filename="C:\Users\Lasse\Documents\My Dropbox\Projects\tf2_iphone\photos_57x57.png"
               inkscape:export-xdpi="90"
               inkscape:export-ydpi="90" />
            <path
               style="fill:#f6e7c1;fill-opacity:1;stroke:#5a5a5a;stroke-width:0.93698502;stroke-opacity:1"
               d="m 388.48159,367.96844 c 5.03967,-13.06339 2.72016,-28.20948 -1.47397,-41.03973 l 20.36471,2.25814 c 7.55013,0.88792 10.24668,1.20024 13.95799,1.61672 1.4809,0.16618 2.74499,0.32156 2.80917,0.3453 9.75486,16.6732 4.92995,31.22258 1.98501,41.48469 -12.66973,-0.81282 -25.15065,-2.5634 -37.64291,-4.66512 z"
               id="path4756-4-4"
               sodipodi:nodetypes="cccsccc"
               inkscape:export-filename="C:\Users\Lasse\Documents\My Dropbox\Projects\tf2_iphone\photos_57x57.png"
               inkscape:export-xdpi="90"
               inkscape:export-ydpi="90" />
            <path
               style="fill:#f6e7c1;fill-opacity:1;stroke:#000000;stroke-width:0.10216912px;stroke-linecap:butt;stroke-linejoin:miter;stroke-opacity:1"
               d="m 400.66549,354.92152 -0.36121,-2.52856 c 0,0 0.97531,-1.69774 0.97531,-2.02284 0,-0.3251 0.28896,-3.251 0.28896,-3.251 l -1.37268,-1.87836 -3.14265,-0.39735 -2.05893,-1.19203 -0.43345,-2.34794 -0.57793,-3.9012 0.28897,-2.49244 1.51707,-4.44303 2.42023,0.14449 1.51717,0.46959 0,1.37264 1.7338,1.51713 -0.75849,2.02285 c 0,0 -0.46962,1.26428 -0.50579,1.51714 -0.0365,0.25285 -0.0365,1.48101 -0.0365,1.48101 l 3.75665,1.26427 1.80614,0.39735 1.26427,-4.44304 2.52855,-0.28897 2.16734,0.79468 0.50569,3.14264 -0.28897,1.76998 3.28713,1.01143 1.98679,2.31183 1.58931,2.02284 5.30999,0.72245 1.66165,0.25285 0.46961,1.26428 0.0721,1.55325 -0.57803,0.79469 -2.09509,0.50572 -1.62549,0.90306 c 0,0 -3.82889,0.10836 -4.22627,0.10836 -0.39737,0 -3.21489,-0.14449 -3.21489,-0.14449 l 2.3479,2.45631 1.48109,1.69774 0,0.25287 -0.75858,0.0722 -17.04975,-1.87836 0.10841,-0.61408 z"
               id="path4780-4"
               inkscape:export-filename="C:\Users\Lasse\Documents\My Dropbox\Projects\tf2_iphone\photos_57x57.png"
               inkscape:export-xdpi="90"
               inkscape:export-ydpi="90" />
            <path
               style="fill:#f3732d;fill-opacity:1;stroke:#000000;stroke-width:0.10216912px;stroke-linecap:butt;stroke-linejoin:miter;stroke-opacity:1"
               d="m 425.48144,347.98605 c -0.14448,-0.0361 -4.40692,-0.68632 -4.40692,-0.68632 0,0 -2.23958,-0.14449 -2.38406,-0.25285 -0.14449,-0.10838 -1.66156,-2.20347 -1.76997,-2.34795 -0.10841,-0.14449 -2.02286,-2.78141 -2.16734,-2.81754 -0.14448,-0.0361 -2.4563,-0.72244 -2.4563,-0.72244 0,0 -0.2529,-1.66163 -0.2529,-1.87836 0,-0.21673 -0.10831,-2.23958 -0.21672,-2.52856 -0.10832,-0.28897 -2.0951,-0.79468 -2.0951,-0.79468 l -1.55324,0 -1.76996,1.22815 c 0,0 -0.14449,2.52856 -0.14449,2.67305 0,0.14448 -0.28896,0.93918 -0.43345,0.93918 -0.14448,0 -5.02102,-1.33653 -5.02102,-1.33653 l -1.08362,-0.72244 0.43345,-2.38406 1.2281,-1.30041 c 0,0 -0.0721,-1.73387 -0.3612,-1.80611 -0.28897,-0.0722 -1.01139,-0.6502 -1.01139,-0.6502 l -0.43354,-0.72245 -0.0722,-1.30039 22.68479,2.6008 2.31182,6.06853 1.80613,8.52485 -0.83082,0.21673 z"
               id="path4782-4"
               inkscape:export-filename="C:\Users\Lasse\Documents\My Dropbox\Projects\tf2_iphone\photos_57x57.png"
               inkscape:export-xdpi="90"
               inkscape:export-ydpi="90" />
            <path
               style="fill:#f3732d;fill-opacity:1;stroke:#000000;stroke-width:0.10216912px;stroke-linecap:butt;stroke-linejoin:miter;stroke-opacity:1"
               d="m 415.40333,353.33214 3.17881,4.26243 7.00771,0.86693 0.8669,-6.42975 c 0,0 -0.36121,-0.6502 -0.65017,-0.6502 -0.28897,0 -1.2282,0 -1.2282,0 l -0.72242,0.50571 -1.01138,0.86693 -1.87837,0.72244 -3.25106,0 -2.31182,-0.14449 z"
               id="path4784-2"
               inkscape:export-filename="C:\Users\Lasse\Documents\My Dropbox\Projects\tf2_iphone\photos_57x57.png"
               inkscape:export-xdpi="90"
               inkscape:export-ydpi="90" />
            <path
               style="fill:#f3732d;fill-opacity:1;stroke:#000000;stroke-width:0.10216912px;stroke-linecap:butt;stroke-linejoin:miter;stroke-opacity:1"
               d="m 395.82512,330.61126 -4.51533,-0.75857 -0.36121,1.19204 0.68634,1.87835 2.49247,10.04198 0.83083,5.59894 0.10831,5.9963 c 0,0 0.75859,0.54183 0.93914,0.54183 0.18066,0 4.55141,0.50571 4.55141,0.50571 0,0 0.10841,-1.80611 -0.0356,-1.91447 -0.14448,-0.10837 -0.0721,-1.91449 -0.0721,-1.91449 l 0.9753,-1.15591 c 0,0 0.36121,-1.76998 0.39729,-2.27569 0.0365,-0.50572 0.21681,-1.6255 0,-1.76999 -0.21673,-0.1445 -1.51708,-1.19204 -1.51708,-1.19204 l -1.76996,-0.6502 -3.43162,-0.6502 -0.28906,-2.42019 -0.65017,-5.81568 1.66165,-5.23772 z"
               id="path4786-9"
               inkscape:export-filename="C:\Users\Lasse\Documents\My Dropbox\Projects\tf2_iphone\photos_57x57.png"
               inkscape:export-xdpi="90"
               inkscape:export-ydpi="90" />
            <path
               style="fill:#3f4040;fill-opacity:1"
               d="m 426.05703,358.74831 c 0,-0.0131 0.0365,-0.19713 0.0815,-0.40899 0.14355,-0.68228 0.46268,-2.98306 0.51834,-3.73663 0.18374,-2.48865 0.074,-6.25012 -0.23828,-8.14118 -0.0731,-0.44225 -0.19836,-1.22301 -0.27847,-1.735 -0.31061,-1.983 -0.83523,-3.95781 -1.83274,-6.89858 -0.65729,-1.93789 -1.79732,-5.0726 -1.872,-5.14723 -0.0131,-0.0135 -0.8982,-0.11242 -1.96589,-0.21981 -1.06769,-0.10739 -3.59231,-0.36648 -5.6102,-0.57575 -2.0178,-0.20928 -8.22748,-0.84947 -13.79916,-1.42266 -5.57169,-0.57319 -10.23347,-1.05677 -10.3594,-1.07464 -0.20324,-0.0289 -0.22657,-0.021 -0.20633,0.069 0.0122,0.0558 0.0862,0.43416 0.16313,0.84074 0.15957,0.83968 0.31052,1.45557 0.66432,2.71055 0.62497,2.21651 1.50405,5.98515 2.06924,8.87091 0.47702,2.43515 0.63893,3.40148 0.91778,5.47587 l 0.33853,2.5189 0,2.21773 c 0,1.21975 -0.0169,2.43974 -0.0412,2.71108 l -0.044,0.49336 2.89153,0.31929 c 6.21362,0.6861 12.9481,1.46712 17.78604,2.06271 1.20468,0.14831 2.89256,0.33271 3.75094,0.40978 0.85827,0.077 2.54625,0.24937 3.75093,0.38289 1.20469,0.13353 2.28897,0.25183 2.40937,0.2629 0.34603,0.0318 0.90353,0.0409 0.90353,0.0147 l 0,0 z m -1.20468,-0.86757 c -0.28615,-0.0234 -1.5182,-0.1519 -2.73796,-0.28542 -1.21977,-0.13353 -2.44488,-0.25952 -2.7226,-0.27997 l -0.50485,-0.0372 -0.0815,-0.27974 c -0.0553,-0.18957 -0.19273,-0.41365 -0.42604,-0.69504 -0.53099,-0.64038 -1.52598,-1.8814 -1.98145,-2.47133 l -0.41068,-0.53199 0.26339,0.10384 c 0.46165,0.18197 1.06254,0.27565 1.76847,0.27572 0.38763,3e-5 0.84722,0.0355 1.08371,0.0837 0.68447,0.13938 1.91464,0.16634 2.46418,0.054 0.54692,-0.11182 1.02665,-0.29414 1.36669,-0.51944 0.33609,-0.22266 0.79915,-0.68633 0.87973,-0.88085 0.0768,-0.18586 0.12593,-0.1943 0.4164,-0.0718 0.1219,0.0514 0.36327,0.0898 0.568,0.0902 0.37479,8.3e-4 0.6067,-0.0858 0.98168,-0.36642 0.10325,-0.0773 0.19217,-0.13462 0.19761,-0.12745 0.0178,0.0238 -0.13156,2.91004 -0.1666,3.21643 -0.0778,0.6785 -0.36102,2.578 -0.39803,2.66828 -0.0356,0.0877 -0.09,0.0929 -0.55994,0.0544 z m -9.93869,-1.03011 c -1.23486,-0.14575 -3.34167,-0.40141 -4.68193,-0.56814 -1.34017,-0.16672 -2.74134,-0.33217 -3.1136,-0.36768 -0.48751,-0.0465 -0.70958,-0.0912 -0.794,-0.15962 l -0.11712,-0.0951 0.13689,-0.0271 c 0.075,-0.0149 0.50653,-0.0522 0.95825,-0.083 1.11633,-0.0761 2.1844,-0.34935 3.43068,-0.87787 0.50147,-0.21265 1.21611,-0.50981 1.588,-0.66034 0.37199,-0.15052 0.88573,-0.36038 1.14172,-0.46633 0.25598,-0.10597 0.52265,-0.19308 0.59255,-0.19358 0.33281,-0.003 0.59498,0.25749 1.94349,1.92668 1.6431,2.03374 1.51351,1.85244 1.3174,1.84389 -0.0862,-0.004 -1.16757,-0.12612 -2.40233,-0.27186 z m -9.96615,-1.17592 c -0.33122,-0.0407 -1.12532,-0.13477 -1.76462,-0.20912 -0.63922,-0.0743 -1.1837,-0.14845 -1.20993,-0.16465 -0.0946,-0.0585 -0.11413,-1.17898 -0.0618,-3.55486 0.0525,-2.4053 0.0543,-2.42149 0.18721,-2.69364 0.074,-0.15059 0.20548,-0.35897 0.29271,-0.46309 l 0.15854,-0.1893 0.24989,0.79165 c 0.13736,0.4354 0.28044,0.89637 0.31783,1.02437 0.0656,0.22608 0.074,0.23272 0.29805,0.23272 0.12659,0 0.34341,0.0156 0.48199,0.0346 l 0.25186,0.0345 0.35474,1.07434 c 0.19508,0.59089 0.53015,1.62877 0.74462,2.30642 0.21439,0.67763 0.43608,1.37375 0.49258,1.54692 l 0.10278,0.31487 -0.14701,-0.006 c -0.0806,-0.003 -0.41808,-0.0392 -0.7494,-0.0798 l 0,10e-6 z m -5.06515,-0.61385 c -0.10541,-0.008 -1.11183,-0.11372 -2.23649,-0.2332 -1.12467,-0.11946 -2.07336,-0.21721 -2.10822,-0.2172 -0.0469,0 -0.0637,-0.59125 -0.0637,-2.28618 l 0,-2.28618 -0.20605,-1.59902 c -0.11328,-0.87946 -0.2171,-1.63102 -0.23068,-1.67013 -0.0131,-0.0391 -0.0881,-0.54758 -0.16538,-1.12989 -0.0778,-0.58232 -0.174,-1.21748 -0.21466,-1.41145 l -0.074,-0.35268 0.44957,0.43162 c 0.24727,0.23739 0.55854,0.49482 0.69178,0.57208 0.13323,0.0772 0.69805,0.2955 1.25518,0.485 l 1.01307,0.34454 0.90869,0.0201 0.90878,0.0202 0.75071,0.75217 0.75071,0.75218 -0.19058,0.28326 c -0.25083,0.37268 -0.29524,0.63071 -0.34978,2.03153 -0.045,1.1619 -0.0469,1.17308 -0.17999,1.25945 -0.074,0.048 -0.2394,0.18297 -0.36777,0.30009 -0.37001,0.33755 -0.40674,0.53997 -0.38622,2.12679 0.0169,1.26806 0.0234,1.34003 0.14429,1.56713 0.0693,0.13091 0.11909,0.24201 0.10954,0.24688 -0.009,0.005 -0.10382,0.002 -0.20923,-0.007 l 0,0 z m 6.06116,-0.43578 c -0.0806,-0.26981 -0.1472,-0.519 -0.1472,-0.55377 0,-0.0419 0.13399,-0.0635 0.39701,-0.0642 1.26436,-0.003 2.73646,-0.36004 4.11345,-0.99758 0.4431,-0.20514 0.87009,-0.34392 1.67018,-0.54284 0.59114,-0.14698 1.20421,-0.2826 1.36237,-0.30137 l 0.28747,-0.0341 0,0.38213 0,0.38213 -1.24572,0.6048 c -2.29561,1.11448 -3.72751,1.53463 -5.41081,1.58765 l -0.87954,0.0277 -0.14721,-0.49055 z m -4.51776,-0.12886 c -0.0999,-0.0207 -0.24156,-0.094 -0.31492,-0.16293 -0.13221,-0.12426 -0.13324,-0.13351 -0.13324,-1.17611 0,-0.94963 0.0103,-1.06344 0.10391,-1.18145 0.12331,-0.15497 0.48264,-0.35624 0.53774,-0.30118 0.0525,0.0528 0.0778,2.45602 0.0281,2.68 -0.0375,0.16934 -0.0497,0.17725 -0.22141,0.14167 z m 4.69214,-0.96693 -0.52724,-0.0178 -0.30837,-0.9153 c -0.16959,-0.50343 -0.30817,-0.93467 -0.30789,-0.95832 0,-0.0639 0.44376,-0.24217 1.06554,-0.42888 0.54326,-0.16315 0.59283,-0.16766 3.83592,-0.35006 1.80698,-0.10163 3.40866,-0.19977 3.55933,-0.21809 0.15057,-0.0184 1.29641,-0.26647 2.54626,-0.55143 1.24984,-0.28498 2.31547,-0.52779 2.36794,-0.5396 0.16482,-0.037 0.44245,0.20003 0.55648,0.47522 0.059,0.14194 0.0963,0.2687 0.0834,0.28169 -0.0131,0.0129 -1.13244,0.27333 -2.48769,0.57855 -3.37812,0.76081 -5.90826,1.35821 -6.26928,1.4803 -0.16594,0.0561 -0.84385,0.3277 -1.50639,0.60351 -1.33914,0.55743 -1.48053,0.60279 -1.83443,0.5882 -0.13549,-0.006 -0.48367,-0.0182 -0.77357,-0.0279 z m 13.23116,-0.92283 c -0.19592,-0.0481 -0.69318,-0.0889 -1.23204,-0.10125 -1.17676,-0.0269 -1.37924,-0.0866 -1.85232,-0.54596 l -0.35025,-0.34008 0.75905,-0.22768 c 0.41743,-0.12523 1.03884,-0.30107 1.38084,-0.39074 l 0.62187,-0.16307 -0.0375,0.25063 c -0.0206,0.13784 -0.0515,0.28617 -0.0675,0.32962 -0.0244,0.0643 0.009,0.0718 0.18243,0.0404 0.74912,-0.13599 1.06189,-0.54325 1.06123,-1.38184 0,-0.37834 -0.13717,-0.55665 -0.65776,-0.8569 -0.409,-0.23594 -0.47234,-0.25645 -0.69018,-0.22378 -0.13193,0.0198 -0.23987,0.0189 -0.23987,-0.002 0,-0.0824 0.23462,-0.41132 0.32982,-0.46227 0.13136,-0.0703 0.93539,-0.07 1.12063,4.1e-4 0.21429,0.0815 0.55582,0.37236 0.85031,0.72418 0.22066,0.26366 0.27267,0.30059 0.32851,0.23335 0.0525,-0.0632 0.0478,-0.12617 -0.0225,-0.30061 -0.19152,-0.47861 -0.39953,-0.72408 -0.80084,-0.94503 -0.20923,-0.11522 -0.17446,-0.18411 0.20548,-0.40676 l 0.241,-0.14122 0.31098,0.21283 c 0.27379,0.18737 0.34153,0.2737 0.5666,0.72173 0.14064,0.27991 0.27219,0.6064 0.29233,0.72555 0.0412,0.24646 0.0937,0.26927 0.21551,0.0949 0.11787,-0.16829 0.10729,-0.27518 -0.0796,-0.80657 -0.0899,-0.25455 -0.16323,-0.47016 -0.16323,-0.47913 0,-0.0411 0.28222,-0.0101 0.40103,0.044 0.16707,0.0761 0.67407,1.10667 0.73807,1.50031 0.0244,0.15059 0.0431,0.69706 0.0412,1.2144 l 0,0.94061 -0.16425,0.17277 c -0.09,0.095 -0.37376,0.27547 -0.62975,0.40099 l -0.4654,0.2282 -0.93089,0.0103 c -0.66498,0.007 -1.02478,-0.0127 -1.2595,-0.0704 l 0,4e-5 z m 4.65448,-1.65531 -0.6023,-0.26091 -0.0309,-0.59986 c -0.0234,-0.45998 -0.06,-0.66371 -0.15563,-0.87366 -0.0684,-0.15059 -0.17194,-0.39234 -0.22966,-0.53722 l -0.10494,-0.26343 1.02722,0.0171 1.02731,0.017 0.44535,0.21003 c 0.50428,0.23788 0.51112,0.25085 0.51225,0.98315 0,0.46972 -0.10242,0.68051 -0.58225,1.18915 -0.44497,0.47172 -0.48339,0.47519 -1.30634,0.11873 z m -19.2646,-0.0542 c -0.045,-0.11202 -0.10907,-0.30601 -0.14271,-0.43108 -0.0731,-0.27239 -0.0506,-0.33663 0.62919,-1.80689 0.50475,-1.09095 0.69955,-1.6888 0.80852,-2.48141 l 0.0712,-0.52021 0.55105,1.09518 c 0.30302,0.60234 0.59798,1.13748 0.65542,1.18918 0.16706,0.15042 0.67341,0.18387 1.08727,0.0719 0.48471,-0.13121 0.73095,-0.32274 0.92247,-0.71768 0.0862,-0.17836 0.16284,-0.33088 0.16959,-0.33892 0.009,-0.008 0.1562,0.0721 0.33216,0.17796 0.28578,0.17213 0.36083,0.19254 0.7063,0.19206 0.28915,-4.1e-4 0.45566,-0.0327 0.66076,-0.12822 0.28222,-0.13143 0.59124,-0.43174 0.65683,-0.63823 0.0244,-0.0765 0.0665,-0.10586 0.12143,-0.0847 0.31914,0.12248 0.58178,0.15156 0.7941,0.088 0.7136,-0.2138 1.0899,-0.85623 0.84488,-1.44255 -0.13568,-0.32475 -1.71619,-2.38162 -1.90911,-2.4844 -0.24502,-0.13063 -0.82867,-0.1331 -1.07866,-0.005 -0.10279,0.0528 -0.19545,0.0875 -0.20585,0.0771 -0.0103,-0.0104 0.0206,-0.19534 0.0693,-0.41094 0.0656,-0.29123 0.11169,-0.39199 0.1785,-0.39199 0.18843,0 1.28067,0.22942 2.63049,0.55252 1.51885,0.36356 1.48821,0.35009 2.05987,0.90652 0.26217,0.25519 0.41864,0.48768 0.76664,1.13929 0.24043,0.45026 0.60332,1.0663 0.80628,1.36896 0.20304,0.30267 0.36935,0.60185 0.36964,0.66484 0,0.0925 -0.0618,0.13353 -0.32467,0.213 -0.43485,0.13166 -0.53511,0.20453 -1.02441,0.74418 -0.3315,0.36572 -0.48039,0.59008 -0.71698,1.08083 -0.27884,0.5785 -0.31482,0.62721 -0.54616,0.73924 l -0.24765,0.11994 -0.37339,-0.41038 -0.37348,-0.41039 0.0291,0.24611 c 0.0159,0.13536 0.0787,0.43818 0.14017,0.67296 0.0609,0.23476 0.1,0.43787 0.0862,0.45136 -0.10747,0.10748 -3.60121,0.36247 -6.23123,0.45479 l -1.39639,0.049 -0.43804,0.19048 c -0.24099,0.10475 -0.57756,0.24233 -0.74809,0.30573 l -0.30995,0.11525 -0.0815,-0.20369 0,-1e-5 z m -1.35198,-1.07361 c 0,-0.0428 0.24109,-0.55411 0.53577,-1.13625 0.846,-1.67125 0.9114,-2.02675 0.98955,-5.37199 0.0262,-1.10755 0.0572,-2.02407 0.0703,-2.03672 0.0131,-0.0127 0.17634,0.0156 0.36374,0.0628 l 0.34069,0.0858 0.0112,2.08778 c 0.0131,2.45941 0.009,2.6709 -0.10147,3.21033 -0.0909,0.45495 -0.85678,2.43774 -1.11567,2.88852 l -0.1651,0.28749 -0.46437,0 c -0.36477,0 -0.46427,-0.0167 -0.46427,-0.0779 z m 12.02246,-0.5656 c 0.62272,-1.15527 0.82941,-1.37475 1.80229,-1.91423 l 0.5352,-0.29677 0.61907,0.37311 c 0.65692,0.39595 0.6528,0.38561 0.20304,0.5065 -0.1279,0.0344 -0.29355,0.12834 -0.36814,0.20881 -0.15657,0.16886 -0.46718,0.73132 -0.46718,0.84599 0,0.20352 -0.14692,0.25968 -1.32555,0.50666 -0.65383,0.13699 -1.20403,0.24907 -1.22286,0.24907 -0.0187,0 0.0824,-0.21561 0.22413,-0.47914 z m -12.29353,-0.45175 c -0.0675,-0.22588 -0.21822,-0.72768 -0.33609,-1.1151 -0.11778,-0.38742 -0.2142,-0.73981 -0.2142,-0.78308 0,-0.0433 -0.45997,-0.54591 -1.02216,-1.11698 l -1.02215,-1.03832 0.25055,-0.24007 c 0.13783,-0.13203 0.27884,-0.29301 0.31351,-0.35774 0.0562,-0.1045 0.0215,-0.096 -0.30986,0.0764 -0.47871,0.24909 -0.78913,0.30377 -1.72433,0.30377 l -0.7614,0 -0.80974,-0.26792 c -1.00801,-0.33354 -1.18285,-0.42262 -1.59831,-0.81437 -0.27416,-0.25857 -0.33816,-0.3529 -0.36205,-0.53394 -0.0525,-0.39993 0,-0.42765 1.47866,-0.74113 0.71773,-0.15242 1.36687,-0.3007 1.44267,-0.3295 0.20801,-0.0791 1.05608,-0.87329 1.16552,-1.09149 0.0525,-0.10541 0.11159,-0.25657 0.13071,-0.33592 l 0.0347,-0.14426 0.98533,-0.04 0.98533,-0.04 0.26676,0.17117 c 0.14664,0.0941 0.31108,0.22018 0.36524,0.28007 0.0824,0.0908 0.16772,0.10863 0.5145,0.10734 0.36833,-9.4e-4 0.49238,0.0283 1.08653,0.26011 l 0.6706,0.26164 0,0.32855 c 0,0.85561 -0.11806,3.31715 -0.1934,4.05215 -0.12199,1.18912 -0.19564,1.42746 -0.88751,2.87482 l -0.32729,0.68449 -0.12181,-0.41069 0,0 0,0 0,0 0,0 z m 22.44829,-1.36427 c -0.25093,-0.14279 -0.95357,-0.23574 -1.88915,-0.24992 -0.69599,-0.0106 -1.0661,-0.0397 -1.2595,-0.0993 -0.15057,-0.0464 -0.40927,-0.10172 -0.57493,-0.12292 -0.19471,-0.0249 -0.47065,-0.12693 -0.7806,-0.28858 -0.57868,-0.30177 -0.96622,-0.35639 -1.40614,-0.19819 l -0.27528,0.099 -0.20642,-0.17643 c -0.11347,-0.097 -0.30368,-0.24343 -0.42258,-0.3253 -0.56763,-0.39084 -0.91515,-0.87652 -1.72771,-2.41475 -0.32494,-0.61512 -0.40477,-0.72089 -0.91637,-1.2148 -0.30827,-0.29755 -0.65982,-0.5917 -0.78135,-0.65367 -0.12143,-0.0619 -0.75633,-0.23796 -1.41082,-0.3911 -0.65458,-0.15313 -1.21208,-0.29891 -1.23907,-0.32394 -0.029,-0.0266 -0.0178,-0.1548 0.0253,-0.30861 0.099,-0.34996 0.0806,-0.78384 -0.0525,-1.23615 l -0.10888,-0.3707 0.11047,-0.24986 c 0.34753,-0.78567 0.0553,-2.04636 -0.63424,-2.73589 -0.38576,-0.38576 -0.86297,-0.6158 -1.35282,-0.65214 -0.26367,-0.0196 -0.47496,-0.0813 -0.79025,-0.23107 -0.37705,-0.17905 -0.49164,-0.20702 -0.92509,-0.22581 -0.60051,-0.026 -0.97643,0.0697 -1.4348,0.36554 -0.17569,0.11333 -0.43842,0.26538 -0.58384,0.33785 -0.62309,0.3105 -0.93043,0.89456 -1.02075,1.94018 -0.029,0.33736 -0.089,0.60364 -0.18805,0.83588 -0.18993,0.44554 -0.27107,0.8981 -0.23097,1.28828 0.0178,0.17329 0.0103,0.31486 -0.0169,0.31486 -0.22703,0 -0.93389,-0.18977 -1.29079,-0.34653 -0.24099,-0.10582 -0.6379,-0.23014 -0.88217,-0.27626 -0.27435,-0.0518 -0.5903,-0.16022 -0.82651,-0.28359 -0.35109,-0.18341 -0.42989,-0.20215 -0.96585,-0.2295 -0.4877,-0.0249 -0.58346,-0.0442 -0.58261,-0.11775 0,-0.0484 -0.0637,-0.38709 -0.14393,-0.75269 l -0.14495,-0.66471 0.28166,-0.33852 c 0.38988,-0.46847 0.49023,-0.69027 0.6409,-1.41715 0.0778,-0.37437 0.19208,-0.74397 0.28147,-0.90858 0.13239,-0.24417 0.15057,-0.33667 0.15067,-0.77032 0,-0.57446 -0.0881,-0.78921 -0.47365,-1.15695 -0.49304,-0.46976 -0.74584,-0.60438 -1.31871,-0.70214 l -0.20539,-0.035 0,-0.31923 c 0,-0.17558 0.0159,-0.39919 0.0356,-0.49693 l 0.0356,-0.17769 0.29365,0.0345 c 0.16144,0.0189 1.14959,0.12122 2.19583,0.22722 1.04623,0.10599 2.29655,0.24111 2.77834,0.30026 0.4819,0.0591 1.66475,0.18199 2.62843,0.27296 2.11038,0.19923 5.77193,0.57498 6.68061,0.68559 0.3614,0.0439 1.80295,0.19127 3.20337,0.3273 1.40042,0.13604 2.74274,0.27171 2.98289,0.3015 0.24015,0.0298 0.54814,0.0545 0.68447,0.055 0.13633,5.1e-4 0.28034,0.0215 0.31998,0.0466 0.0393,0.0251 0.17887,0.35128 0.3092,0.72471 0.13034,0.37343 0.32917,0.90073 0.44189,1.17179 0.21363,0.51366 1.43696,4.11092 1.61339,4.74437 0.0553,0.20002 0.18852,0.65588 0.29515,1.01303 0.42417,1.42142 0.58374,2.17424 1.01963,4.81102 0.11946,0.72282 0.22928,1.38198 0.24399,1.4648 0.0281,0.15676 -0.0337,0.18929 -0.18965,0.10053 z m -18.52391,-0.92037 c -0.77011,-1.3873 -0.86062,-1.5809 -0.86062,-1.84082 0,-0.49153 0.51646,-0.84961 1.13347,-0.78594 0.17577,0.0182 0.37207,0.0774 0.45125,0.13631 0.0834,0.0622 0.35549,0.52415 0.67556,1.14827 l 0.53549,1.04411 -0.37114,0.0389 c -0.46999,0.0492 -0.70311,0.16763 -1.01681,0.51657 l -0.24999,0.27806 -0.29721,-0.53544 z m 2.16771,-0.60476 c -0.41536,-0.71247 -1.05701,-1.95467 -1.05701,-2.04627 0,-0.12947 0.27641,-0.51834 0.43176,-0.6075 0.19677,-0.11291 0.75858,-0.15836 0.97625,-0.079 0.1426,0.052 0.32653,0.28441 0.97193,1.22781 0.43785,0.64002 0.79606,1.1726 0.79606,1.18353 0,0.011 -0.1249,-0.003 -0.27744,-0.0305 -0.57615,-0.10472 -1.1896,0.14207 -1.423,0.57244 l -0.1398,0.25778 -0.27875,-0.47825 z m 1.88625,-1.35166 c -0.74013,-1.00653 -0.79803,-1.14105 -0.61279,-1.42375 0.0469,-0.0717 0.18299,-0.16938 0.30227,-0.21711 0.22394,-0.0896 0.68831,-0.11575 0.79606,-0.0449 0.0337,0.0221 0.38463,0.48378 0.78013,1.02589 l 0.71905,0.98566 -0.23256,0.0443 c -0.5115,0.0974 -0.63462,0.15185 -0.82877,0.3668 -0.10869,0.12025 -0.20379,0.21728 -0.21138,0.21561 -0.009,-0.002 -0.32804,-0.43029 -0.71201,-0.95251 z m -4.9694,-1.91846 0,-1.06695 0.34228,0.0335 c 0.18824,0.0185 0.35793,0.0489 0.37714,0.0677 0.0187,0.0187 0.11918,0.40754 0.22235,0.86408 l 0.18749,0.83006 -0.28888,0.0361 c -0.15882,0.0199 -0.40674,0.0959 -0.55085,0.16906 -0.1442,0.0732 -0.26826,0.13308 -0.27575,0.1332 -0.009,1.1e-4 -0.0141,-0.47989 -0.0141,-1.06672 z m 1.28751,-0.14237 c -0.11066,-0.45431 -0.19105,-0.83623 -0.17859,-0.84872 0.0122,-0.0125 0.22385,0.006 0.46971,0.0406 l 0.44704,0.0632 0.0543,0.19686 c 0.03,0.10826 0.0693,0.34469 0.0871,0.52539 l 0.0319,0.32856 -0.24202,0.2601 c -0.39916,0.42884 -0.43439,0.39904 -0.66957,-0.56592 z m 1.23429,0.0955 c 0,-0.0349 0.059,-0.21068 0.12809,-0.39056 l 0.12518,-0.32707 0.32373,-0.0668 c 0.17803,-0.0367 0.46924,-0.11749 0.64708,-0.17945 0.17793,-0.0619 0.38398,-0.11266 0.4579,-0.11266 0.12537,0 0.13193,0.0138 0.0974,0.20535 -0.059,0.32785 -0.25008,0.94466 -0.29243,0.94376 -0.0215,-4e-4 -0.13727,-0.0364 -0.25777,-0.0797 -0.27941,-0.10067 -0.58149,-0.10256 -0.94457,-0.006 -0.21017,0.0559 -0.28672,0.0594 -0.28466,0.013 z m -14.3488,-0.27207 c 0,-0.12528 0.0206,-0.19506 0.0543,-0.17473 0.0693,0.0428 0.0693,0.19408 0,0.30117 -0.0394,0.061 -0.0534,0.0284 -0.0543,-0.12644 z m 1.43237,-0.79427 c -0.59142,-0.26179 -0.72129,-0.37866 -0.72166,-0.64945 0,-0.11522 -0.074,-0.71464 -0.16398,-1.33205 -0.19405,-1.33124 -0.2067,-2.0438 -0.059,-3.3129 0.0928,-0.79341 0.12912,-0.94853 0.38923,-1.64276 0.27079,-0.72257 0.29412,-0.8264 0.40721,-1.80704 0.0665,-0.57222 0.14879,-1.09414 0.18393,-1.15981 0.0356,-0.0657 0.13577,-0.17057 0.22366,-0.23311 0.0881,-0.0626 0.21438,-0.22683 0.28128,-0.36509 0.10991,-0.22685 0.13661,-0.24841 0.27369,-0.22098 0.0834,0.0167 0.37817,0.0475 0.65458,0.0683 0.28475,0.0215 0.51085,0.064 0.5219,0.0982 0.0384,0.11948 0.18984,1.78036 0.18984,2.08354 0,0.22056 0.0187,0.29908 0.0637,0.27134 0.0469,-0.0287 0.0534,-0.35107 0.0262,-1.21547 l -0.0366,-1.17642 0.25477,0.035 c 0.14017,0.0192 0.33778,0.0349 0.43917,0.0349 l 0.1843,0 -0.014,1.41859 c -0.0141,1.40484 -0.0131,1.41987 0.10915,1.55046 0.16313,0.17464 0.15536,0.33245 -0.0328,0.66797 -0.1799,0.32038 -0.30808,0.68098 -0.25936,0.72966 0.0187,0.0184 0.10766,-0.0378 0.19846,-0.12475 0.16847,-0.16136 0.33122,-0.58729 0.4074,-1.06593 0.0562,-0.35212 0.15095,-0.47004 0.53389,-0.66331 0.33797,-0.17064 0.33891,-0.17076 0.52181,-0.0722 0.19508,0.10507 0.56106,0.47904 0.56106,0.57337 0,0.0311 -0.0986,0.24258 -0.21906,0.46995 -0.18253,0.34452 -0.21907,0.46612 -0.21907,0.72967 0,0.38087 -0.0347,0.43779 -0.90944,1.48804 -0.59198,0.7109 -0.73328,0.92881 -0.73328,1.13095 0,0.0617 0.074,0.0173 0.23481,-0.14047 0.12911,-0.12673 0.26263,-0.23043 0.29674,-0.23043 0.12349,0 0.39934,1.08187 0.39934,1.566 0,0.3755 -0.19124,1.1513 -0.34743,1.40916 -0.11553,0.1908 -0.87374,0.91271 -0.95863,0.91271 -0.0234,0 -0.50944,0.0859 -1.07969,0.19092 -0.57015,0.10502 -1.06132,0.18968 -1.0914,0.18816 -0.03,-0.002 -0.25992,-0.0936 -0.51075,-0.20462 z m 12.11953,-0.15053 c -0.65814,-0.12927 -0.62966,-0.11454 -0.62966,-0.32614 l 0,-0.19062 0.78969,0 0.78979,0 0.0581,-0.17797 c 0.26086,-0.80516 0.29131,-1.3661 0.098,-1.80302 -0.14729,-0.33288 -0.13165,-0.37323 0.14486,-0.37394 0.25223,-6.2e-4 0.55938,-0.12827 0.73759,-0.30651 0.10232,-0.1023 0.19255,-0.18601 0.20052,-0.18601 0.009,0 0.0843,0.1014 0.17062,0.22534 0.0862,0.12394 0.33563,0.34646 0.55507,0.49449 0.21935,0.14804 0.39878,0.27811 0.39878,0.28905 0,0.011 -0.10466,-0.005 -0.23265,-0.0339 -0.32298,-0.0747 -0.79972,-0.0235 -1.07116,0.11492 -0.28494,0.14538 -0.52546,0.54464 -0.60698,1.00753 -0.0506,0.28523 -0.044,0.36029 0.045,0.56289 0.0571,0.12857 0.20426,0.34309 0.32738,0.47669 0.12312,0.13361 0.22394,0.25865 0.22394,0.27787 0,0.0657 -1.61471,0.0248 -1.99878,-0.0506 z m 2.39905,-0.13963 c -0.30817,-0.056 -0.4876,-0.18272 -0.64895,-0.45816 -0.28588,-0.48781 -0.0947,-1.32722 0.35727,-1.56915 0.34706,-0.18572 0.97934,-0.10662 1.27973,0.1601 0.18281,0.16234 0.30668,0.50949 0.30799,0.86333 0,0.27408 -0.0272,0.37553 -0.16004,0.58563 -0.23986,0.37824 -0.60894,0.51414 -1.136,0.41825 z m -3.23409,-0.66461 c -0.35615,-0.38165 -0.43598,-1.15007 -0.17269,-1.66195 l 0.13792,-0.2683 0.6692,-0.0154 c 0.36805,-0.008 0.76523,0.0105 0.88264,0.0421 0.19283,0.0519 0.22272,0.0851 0.31033,0.34394 0.12368,0.36565 0.12321,0.97722 0,1.27012 -0.17297,0.40785 -0.18459,0.41268 -0.9903,0.41268 -0.67735,0 -0.72823,-0.007 -0.83617,-0.1232 l 10e-5,0 z m 3.86703,-2.00789 c -0.61167,-0.19655 -0.96988,-1.09882 -0.63444,-1.59809 0.10851,-0.16142 0.1592,-0.18828 0.38295,-0.20274 0.24408,-0.0157 0.2721,-0.003 0.52293,0.24835 0.1695,0.16956 0.29787,0.3615 0.35624,0.53294 0.10869,0.31879 0.11938,0.79153 0.0206,0.92607 -0.0815,0.11097 -0.43533,0.16201 -0.64868,0.0934 z m 0.33975,-0.42002 c 0.15338,-0.18481 0,-0.72558 -0.26751,-0.97154 -0.25186,-0.22782 -0.55338,0.0344 -0.48133,0.41864 0.045,0.23866 0.39925,0.63987 0.56538,0.63987 0.0609,0 0.14373,-0.0392 0.18346,-0.087 z m -4.07645,0.1828 c -0.0562,-0.20856 -0.0384,-0.86542 0.03,-1.09145 0.0365,-0.1218 0.14824,-0.28805 0.25871,-0.3851 l 0.19451,-0.17077 0.0375,0.13233 c 0.0206,0.0728 0.0403,0.24322 0.044,0.37875 0.009,0.27502 0.13483,0.59092 0.38482,0.95426 0.0918,0.13353 0.16707,0.25683 0.16707,0.27398 0,0.0172 -0.24362,0.0312 -0.54121,0.0312 -0.51496,0 -0.54289,-0.006 -0.57427,-0.1232 z m 1.51576,0.0303 c -0.29421,-0.0572 -0.77189,-0.81188 -0.8222,-1.29904 -0.0253,-0.24673 -0.0112,-0.30282 0.113,-0.45064 0.0778,-0.0929 0.27051,-0.22409 0.42745,-0.29162 0.5264,-0.22645 1.06873,-0.0543 1.39836,0.4436 0.18861,0.285 0.23986,0.81477 0.10438,1.07694 -0.19799,0.38286 -0.74032,0.61416 -1.22099,0.52076 z m 0.65336,-0.55462 c 0.23275,-0.13546 0.2915,-0.38908 0.15929,-0.68793 -0.17334,-0.39201 -0.56144,-0.52995 -0.85078,-0.3024 -0.69862,0.5496 -0.0778,1.43819 0.69149,0.99033 z m -16.10405,-0.62191 c -0.13109,-0.52152 -0.38211,-1.53962 -0.55798,-2.26243 -0.17587,-0.72281 -0.47824,-1.86864 -0.67191,-2.54628 -0.34631,-1.21178 -0.52312,-1.99713 -0.46306,-2.05717 0.0253,-0.0251 3.31037,0.28115 3.45448,0.32209 0.0244,0.007 -0.0309,0.10808 -0.12331,0.22458 -0.22787,0.28666 -0.31717,0.62064 -0.4149,1.55095 -0.10053,0.95776 -0.14195,1.14977 -0.37863,1.75705 -0.34912,0.89564 -0.52668,1.84627 -0.57278,3.06598 l -0.0337,0.89346 -0.23828,-0.94822 z"
               id="path4756-3"
               sodipodi:nodetypes="cssssssssssssssccccccsssscccscccscccsssssssssssccsscccsssssssccsssscccsscccsccccccsscccsscccscccccccsssssscccsssscccccccccsssssccccssssssssssssccsccccccsscssssssssscccssssssscccccccccccsccccccsccsscccsssssssssssssssssssssssscccccssccccccccssscccsccccccccsssssccsscccsscccssssscccccsscccsccccccccscccssssssscccssssssssssssssscccssssccccccsssssssssssssscccccccccccccccsssccccccccccssccccccccssccccccccccccccsssssscccccccccssssssssssccccccssssssssssssssssssscccccccssssssssssssscccccsscccccssssccccccsscccccccccccsssscccccsscccccccccsssscccccc"
               inkscape:export-filename="C:\Users\Lasse\Documents\My Dropbox\Projects\tf2_iphone\photos_57x57.png"
               inkscape:export-xdpi="90"
               inkscape:export-ydpi="90" />
          </g>
        </g>
      </g>
    </g>
  </g>
</svg>
