<?xml version="1.0" encoding="UTF-8" standalone="no"?>
<!-- Created with Inkscape (http://www.inkscape.org/) -->

<svg
   xmlns:dc="http://purl.org/dc/elements/1.1/"
   xmlns:cc="http://creativecommons.org/ns#"
   xmlns:rdf="http://www.w3.org/1999/02/22-rdf-syntax-ns#"
   xmlns:svg="http://www.w3.org/2000/svg"
   xmlns="http://www.w3.org/2000/svg"
   xmlns:xlink="http://www.w3.org/1999/xlink"
   xmlns:sodipodi="http://sodipodi.sourceforge.net/DTD/sodipodi-0.dtd"
   xmlns:inkscape="http://www.inkscape.org/namespaces/inkscape"
   width="57"
   height="57"
   id="svg4691"
   version="1.1"
   inkscape:version="0.47 r22583"
   sodipodi:docname="phone.svg">
  <title
     id="title4746">Team Fortress 2 WinterBoard: Safari</title>
  <defs
     id="defs4693">
    <inkscape:perspective
       sodipodi:type="inkscape:persp3d"
       inkscape:vp_x="0 : 526.18109 : 1"
       inkscape:vp_y="0 : 1000 : 0"
       inkscape:vp_z="744.09448 : 526.18109 : 1"
       inkscape:persp3d-origin="372.04724 : 350.78739 : 1"
       id="perspective4699" />
    <inkscape:perspective
       id="perspective4677"
       inkscape:persp3d-origin="0.5 : 0.33333333 : 1"
       inkscape:vp_z="1 : 0.5 : 1"
       inkscape:vp_y="0 : 1000 : 0"
       inkscape:vp_x="0 : 0.5 : 1"
       sodipodi:type="inkscape:persp3d" />
    <inkscape:perspective
       id="perspective4756"
       inkscape:persp3d-origin="0.5 : 0.33333333 : 1"
       inkscape:vp_z="1 : 0.5 : 1"
       inkscape:vp_y="0 : 1000 : 0"
       inkscape:vp_x="0 : 0.5 : 1"
       sodipodi:type="inkscape:persp3d" />
    <inkscape:perspective
       id="perspective4851"
       inkscape:persp3d-origin="0.5 : 0.33333333 : 1"
       inkscape:vp_z="1 : 0.5 : 1"
       inkscape:vp_y="0 : 1000 : 0"
       inkscape:vp_x="0 : 0.5 : 1"
       sodipodi:type="inkscape:persp3d" />
    <inkscape:perspective
       id="perspective4900"
       inkscape:persp3d-origin="0.5 : 0.33333333 : 1"
       inkscape:vp_z="1 : 0.5 : 1"
       inkscape:vp_y="0 : 1000 : 0"
       inkscape:vp_x="0 : 0.5 : 1"
       sodipodi:type="inkscape:persp3d" />
    <linearGradient
       inkscape:collect="always"
       xlink:href="#linearGradient5030"
       id="linearGradient5129"
       gradientUnits="userSpaceOnUse"
       x1="410.35025"
       y1="314.85373"
       x2="414.24854"
       y2="310.50735" />
    <linearGradient
       inkscape:collect="always"
       id="linearGradient5030">
      <stop
         style="stop-color:#ffffff;stop-opacity:1;"
         offset="0"
         id="stop5032" />
      <stop
         style="stop-color:#ffffff;stop-opacity:0;"
         offset="1"
         id="stop5034" />
    </linearGradient>
    <clipPath
       clipPathUnits="userSpaceOnUse"
       id="clipPath4221">
      <path
         clip-path="none"
         id="path4223"
         d="m 350.71619,7.5327627 0.5,6.2500013 c 0.1259,0.21284 0.27878,0.40676 0.375,0.625 0.10068,0.22831 0.0565,0.48536 0.125,0.71875 0.0478,0.54251 0.18749,1.07147 0.1875,1.625 0,0.29868 -0.0797,0.5794 -0.0937,0.875 -0.0781,0.36206 -0.0642,0.71205 -0.21875,1.0625 -0.30449,0.69059 -0.76544,1.36528 -1.34375,2 -0.57829,0.63471 -1.27235,1.21667 -2.09375,1.78125 -0.8214,0.56457 -1.77873,1.11357 -2.8125,1.59375 -1.03379,0.48018 -2.15952,0.89973 -3.375,1.28125 -1.21549,0.38152 -2.50851,0.73138 -3.875,1 -1.36649,0.26861 -2.79445,0.48356 -4.28125,0.625 -1.48678,0.14143 -3.01736,0.1875 -4.59375,0.1875 -1.57639,0 -3.13821,-0.04608 -4.625,-0.1875 -1.48679,-0.14143 -2.91476,-0.3564 -4.28125,-0.625 -1.36648,-0.26861 -2.65952,-0.61848 -3.875,-1 -1.21548,-0.38152 -2.34123,-0.80108 -3.375,-1.28125 -1.03379,-0.48018 -1.99111,-1.02918 -2.8125,-1.59375 -0.82139,-0.56457 -1.51547,-1.14655 -2.09375,-1.78125 -0.57829,-0.63471 -1.03923,-1.30942 -1.34375,-2 -0.29585,-0.671 -0.42871,-1.35202 -0.4375,-2.0625 5.5e-4,-0.08277 0.0296,-0.16746 0.0312,-0.25 0.0228,-0.61377 0.11066,-1.22721 0.34375,-1.8125 l 0.65625,-6.2500013 c -14.72852,7.2167413 -24.75,21.2767213 -24.75,37.4375013 0,14.16064 7.7147,26.6987 19.53125,34.4375 -11.7661,-7.74752 -19.40625,-20.30544 -19.40625,-34.4375 0,-0.08593 0.0307,-0.16418 0.0312,-0.25 0.0183,1.47325 0.324,2.92112 0.9375,4.3125 0.6314,1.43199 1.55087,2.80888 2.75,4.125 1.19914,1.31612 2.67177,2.54806 4.375,3.71875 1.70323,1.17069 3.6376,2.28556 5.78125,3.28125 2.14365,0.99569 4.47958,1.89638 7,2.6875 2.52042,0.79112 5.22897,1.47427 8.0625,2.03125 2.83353,0.55698 5.79202,0.98798 8.875,1.28125 3.08298,0.29327 6.29373,0.4375 9.5625,0.4375 3.26877,0 6.44827,-0.14423 9.53125,-0.4375 3.08298,-0.29327 6.07272,-0.72427 8.90625,-1.28125 2.83353,-0.55698 5.51083,-1.24013 8.03125,-2.03125 2.52042,-0.79112 4.85635,-1.69181 7,-2.6875 2.14365,-0.99569 4.10927,-2.11056 5.8125,-3.28125 1.70323,-1.17069 3.14461,-2.40263 4.34375,-3.71875 1.19914,-1.31612 2.14985,-2.69301 2.78125,-4.125 0.32041,-0.72667 0.33815,-1.49923 0.5,-2.25 -0.0882,1.85802 -0.28368,3.6809 -0.625,5.46875 0.46332,-2.3702 0.71875,-4.78936 0.71875,-7.28125 0,-16.78071 -10.77593,-31.27856 -26.4375,-38.2187513 z m 25.71875,45.5000013 c -0.22324,1.16937 -0.48624,2.33394 -0.8125,3.46875 0.32968,-1.1281 0.5853,-2.30648 0.8125,-3.46875 z m -0.90625,3.71875 c -0.15153,0.51389 -0.32793,1.02507 -0.5,1.53125 0.17532,-0.50869 0.34527,-1.01482 0.5,-1.53125 z m -1.03125,3 c -0.24414,0.62724 -0.5067,1.26094 -0.78125,1.875 0.27425,-0.61697 0.53855,-1.24455 0.78125,-1.875 z m -72.28125,20.4375 c 2.14203,1.401147 4.38985,2.652347 6.78125,3.718747 -2.3834,-1.06993 -4.6475,-2.31541 -6.78125,-3.718747 z m 10.5,5.187497 c 1.24574,0.43966 2.51812,0.84269 3.8125,1.1875 -1.30092,-0.34916 -2.56116,-0.74239 -3.8125,-1.1875 z"
         style="fill:#b6343c;fill-opacity:1;fill-rule:evenodd;stroke:none" />
    </clipPath>
    <filter
       color-interpolation-filters="sRGB"
       inkscape:collect="always"
       id="filter4969"
       x="-0.052747332"
       width="1.1054947"
       y="-0.19039562"
       height="1.3807913">
      <feGaussianBlur
         inkscape:collect="always"
         stdDeviation="2.0499811"
         id="feGaussianBlur4971" />
    </filter>
    <inkscape:perspective
       id="perspective4991"
       inkscape:persp3d-origin="0.5 : 0.33333333 : 1"
       inkscape:vp_z="1 : 0.5 : 1"
       inkscape:vp_y="0 : 1000 : 0"
       inkscape:vp_x="0 : 0.5 : 1"
       sodipodi:type="inkscape:persp3d" />
    <inkscape:perspective
       id="perspective5070"
       inkscape:persp3d-origin="0.5 : 0.33333333 : 1"
       inkscape:vp_z="1 : 0.5 : 1"
       inkscape:vp_y="0 : 1000 : 0"
       inkscape:vp_x="0 : 0.5 : 1"
       sodipodi:type="inkscape:persp3d" />
    <inkscape:perspective
       id="perspective5104"
       inkscape:persp3d-origin="0.5 : 0.33333333 : 1"
       inkscape:vp_z="1 : 0.5 : 1"
       inkscape:vp_y="0 : 1000 : 0"
       inkscape:vp_x="0 : 0.5 : 1"
       sodipodi:type="inkscape:persp3d" />
    <inkscape:perspective
       id="perspective5227"
       inkscape:persp3d-origin="0.5 : 0.33333333 : 1"
       inkscape:vp_z="1 : 0.5 : 1"
       inkscape:vp_y="0 : 1000 : 0"
       inkscape:vp_x="0 : 0.5 : 1"
       sodipodi:type="inkscape:persp3d" />
    <inkscape:perspective
       id="perspective5326"
       inkscape:persp3d-origin="0.5 : 0.33333333 : 1"
       inkscape:vp_z="1 : 0.5 : 1"
       inkscape:vp_y="0 : 1000 : 0"
       inkscape:vp_x="0 : 0.5 : 1"
       sodipodi:type="inkscape:persp3d" />
    <inkscape:perspective
       id="perspective5375"
       inkscape:persp3d-origin="0.5 : 0.33333333 : 1"
       inkscape:vp_z="1 : 0.5 : 1"
       inkscape:vp_y="0 : 1000 : 0"
       inkscape:vp_x="0 : 0.5 : 1"
       sodipodi:type="inkscape:persp3d" />
    <inkscape:perspective
       id="perspective5419"
       inkscape:persp3d-origin="0.5 : 0.33333333 : 1"
       inkscape:vp_z="1 : 0.5 : 1"
       inkscape:vp_y="0 : 1000 : 0"
       inkscape:vp_x="0 : 0.5 : 1"
       sodipodi:type="inkscape:persp3d" />
    <inkscape:perspective
       id="perspective5523"
       inkscape:persp3d-origin="0.5 : 0.33333333 : 1"
       inkscape:vp_z="1 : 0.5 : 1"
       inkscape:vp_y="0 : 1000 : 0"
       inkscape:vp_x="0 : 0.5 : 1"
       sodipodi:type="inkscape:persp3d" />
    <inkscape:perspective
       id="perspective5584"
       inkscape:persp3d-origin="0.5 : 0.33333333 : 1"
       inkscape:vp_z="1 : 0.5 : 1"
       inkscape:vp_y="0 : 1000 : 0"
       inkscape:vp_x="0 : 0.5 : 1"
       sodipodi:type="inkscape:persp3d" />
    <inkscape:perspective
       id="perspective6073"
       inkscape:persp3d-origin="0.5 : 0.33333333 : 1"
       inkscape:vp_z="1 : 0.5 : 1"
       inkscape:vp_y="0 : 1000 : 0"
       inkscape:vp_x="0 : 0.5 : 1"
       sodipodi:type="inkscape:persp3d" />
    <inkscape:perspective
       id="perspective6129"
       inkscape:persp3d-origin="0.5 : 0.33333333 : 1"
       inkscape:vp_z="1 : 0.5 : 1"
       inkscape:vp_y="0 : 1000 : 0"
       inkscape:vp_x="0 : 0.5 : 1"
       sodipodi:type="inkscape:persp3d" />
  </defs>
  <sodipodi:namedview
     id="base"
     pagecolor="#ffffff"
     bordercolor="#666666"
     borderopacity="1.0"
     inkscape:pageopacity="0.0"
     inkscape:pageshadow="2"
     inkscape:zoom="11.2"
     inkscape:cx="23.227581"
     inkscape:cy="29.388177"
     inkscape:document-units="px"
     inkscape:current-layer="g7205"
     showgrid="false"
     inkscape:window-width="1920"
     inkscape:window-height="1018"
     inkscape:window-x="-8"
     inkscape:window-y="-8"
     inkscape:window-maximized="1" />
  <metadata
     id="metadata4696">
    <rdf:RDF>
      <cc:Work
         rdf:about="">
        <dc:format>image/svg+xml</dc:format>
        <dc:type
           rdf:resource="http://purl.org/dc/dcmitype/StillImage" />
        <dc:title>Team Fortress 2 WinterBoard: Safari</dc:title>
      </cc:Work>
    </rdf:RDF>
  </metadata>
  <g
     inkscape:label="Layer 1"
     inkscape:groupmode="layer"
     id="layer1"
     transform="translate(-334.35714,-455.29075)">
    <g
       id="g3181"
       transform="translate(54.971573,163.32366)"
       inkscape:export-filename="C:\Users\Lasse\Documents\My Dropbox\Public\iconmontage.png"
       inkscape:export-xdpi="349.72098"
       inkscape:export-ydpi="349.72098">
      <g
         style="font-size:10.31457615px;font-style:normal;font-variant:normal;font-weight:normal;font-stretch:normal;text-align:start;line-height:125%;writing-mode:lr-tb;text-anchor:start;fill:#ffffff;fill-opacity:1;stroke:none;font-family:TF2 Build;-inkscape-font-specification:TF2 Build"
         id="text4536-8">
        <g
           id="g5166"
           transform="translate(-44.483523,2.6884599)">
          <g
             inkscape:export-ydpi="349"
             inkscape:export-xdpi="349"
             inkscape:export-filename="C:\Users\Lasse\Documents\My Dropbox\Public\iconmontage.png"
             id="flowRoot5763-2-4-2"
             style="font-size:40px;font-style:normal;font-weight:normal;fill:#f6e7c1;fill-opacity:1;stroke:none;font-family:Bitstream Vera Sans"
             inkscape:transform-center-y="-3.5279857"
             transform="matrix(-0.30942042,-0.30942042,0.30942042,-0.30942042,344.48308,554.92556)">
            <g
               id="g7205"
               transform="matrix(-1.6159244,1.6159244,-1.6159244,-1.6159244,1223.4756,1164.8901)"
               inkscape:export-filename="C:\Users\Lasse\Documents\My Dropbox\Public\iconmontage.png"
               inkscape:export-xdpi="349"
               inkscape:export-ydpi="349">
              <g
                 id="g5402"
                 transform="translate(-147.64903,3.2419715)">
                <path
                   inkscape:export-ydpi="180"
                   inkscape:export-xdpi="180"
                   inkscape:export-filename="C:\Users\Lasse\Documents\My Dropbox\Projects\tf2_iphone\messages_114x114.png"
                   style="fill:#5a5a5a;fill-rule:evenodd"
                   id="path3774-0-4-5-6-0"
                   d="m 156.99914,473.1119 h 32.64725 c 4.87326,0 8.82357,3.95032 8.82357,8.82358 v 32.64724 c 0,4.87326 -3.95031,8.82358 -8.82357,8.82358 h -32.64725 c -4.87326,0 -8.82357,-3.95032 -8.82357,-8.82358 v -32.64724 c 0,-4.87326 3.95031,-8.82358 8.82357,-8.82358 z"
                   clip-rule="evenodd" />
                <path
                   id="path3774-0-4-5-7-7-0"
                   d="m 155.16259,470.12021 c -5.523,0 -10,4.477 -10,10 l 0,37 c 0,5.523 4.477,10 10,10 l 37,0 c 5.523,0 10,-4.477 10,-10 l 0,-37 c 0,-5.523 -4.477,-10 -10,-10 l -37,0 z m 2.875,4.40625 31.28125,0 c 4.66772,0 8.4375,3.76978 8.4375,8.4375 l 0,31.28125 c 0,4.66772 -3.76978,8.46875 -8.4375,8.46875 l -31.28125,0 c -4.66771,0 -8.4375,-3.80103 -8.4375,-8.46875 l 0,-31.28125 c 0,-4.66772 3.76979,-8.4375 8.4375,-8.4375 z"
                   style="fill:#f6e7c1;fill-opacity:1;fill-rule:evenodd" />
                <path
                   transform="matrix(0.12178062,0,0,0.12178062,228.55522,394.93569)"
                   d="m -310.37569,881.61798 c 0,77.53128 -62.85152,140.38282 -140.38279,140.38282 -77.53128,0 -140.3828,-62.85154 -140.3828,-140.38282 0,-77.53128 62.85152,-140.3828 140.3828,-140.3828 77.53127,0 140.38279,62.85152 140.38279,140.3828 z"
                   sodipodi:ry="140.3828"
                   sodipodi:rx="140.3828"
                   sodipodi:cy="881.61798"
                   sodipodi:cx="-450.75848"
                   style="fill:#5a5a5a;fill-opacity:1;stroke:none"
                   sodipodi:type="arc"
                   id="path5132" />
                <path
                   id="path4588-9"
                   d="m 171.98242,493.46041 0,0.01 -0.3115,5.60965 0.0526,-0.01 c -0.1903,0.1117 -0.36949,0.23887 -0.53599,0.37939 l -2.85891,-1.05638 -0.005,-0.004 0,0.004 0.004,0.002 1.94689,2.17624 c -0.20396,0.37585 -0.34624,0.78634 -0.41743,1.21583 l -5.02666,2.31416 -0.006,9.2e-4 -0.005,0.004 0.0109,-0.002 5.52351,0.30509 c 0.20017,0.3343 0.44826,0.63314 0.73293,0.88934 l -1.04887,2.83849 0,0.003 0,0.004 0.004,-0.005 2.31903,-2.0754 c 0.23729,0.0867 0.48356,0.15144 0.73684,0.19053 l 2.24526,4.87759 0,0.01 0,-0.005 0.004,0.005 0,-0.01 0.29793,-5.36128 c 0.25316,-0.148 0.48613,-0.32364 0.69646,-0.5214 l 3.02384,1.1175 0,-9.1e-4 -2.12852,-2.37861 c 0.13361,-0.30157 0.23056,-0.62121 0.28386,-0.95224 l 4.97222,-2.28734 0.0109,-0.002 -0.006,-0.002 -0.006,9.1e-4 -5.46621,-0.30332 c -0.19506,-0.32842 -0.43637,-0.62419 -0.71302,-0.87793 l 1.0674,-2.88763 0,-9.1e-4 -2.35155,2.10438 c -0.23893,-0.0883 -0.48831,-0.15314 -0.74364,-0.19304 l 0.0526,-0.01 -2.3491,-5.10364 0,-0.01 0,0.006 -0.004,-0.005 z m 5.39598,3.21159 0.004,-0.002 0,-0.004 -0.004,0.005 z m 1.98524,9.69197 0.005,0.005 0,-0.004 -0.004,-8.1e-4 z m -6.32679,-7.3662 c 1.89109,-0.35967 3.71064,0.87836 4.07029,2.76946 0.31647,1.66384 -0.60411,3.27175 -2.11785,3.87924 l -0.66269,0.12604 -0.004,4e-4 -0.6627,0.12604 c -1.63091,-0.01 -3.07767,-1.16722 -3.3941,-2.83092 -0.35965,-1.8911 0.87836,-3.71065 2.76948,-4.07032 z"
                   style="font-size:medium;font-style:normal;font-variant:normal;font-weight:normal;font-stretch:normal;text-indent:0;text-align:start;text-decoration:none;line-height:normal;letter-spacing:normal;word-spacing:normal;text-transform:none;direction:ltr;block-progression:tb;writing-mode:lr-tb;text-anchor:start;color:#000000;fill:#f6e7c1;fill-opacity:1;stroke:none;stroke-width:15.19166756;marker:none;visibility:visible;display:inline;overflow:visible;enable-background:accumulate;font-family:Bitstream Vera Sans;-inkscape-font-specification:Bitstream Vera Sans" />
                <flowRoot
                   transform="matrix(0.0855422,-0.01624779,0.01624779,0.0855422,255.22982,380.18235)"
                   style="font-size:40px;font-style:normal;font-weight:normal;fill:#f6e7c1;fill-opacity:1;stroke:none;font-family:Bitstream Vera Sans"
                   id="flowRoot4795"
                   xml:space="preserve"><flowRegion
                     id="flowRegion4797"><rect
                       style="fill:#f6e7c1;fill-opacity:1"
                       y="1029.7347"
                       x="-1196.4247"
                       height="224.85995"
                       width="404.46509"
                       id="rect4799" /></flowRegion><flowPara
                     style="fill:#f6e7c1;fill-opacity:1;font-family:TF2 Build;-inkscape-font-specification:TF2 Build"
                     id="flowPara4801">N</flowPara></flowRoot>                <flowRoot
                   inkscape:transform-center-x="-0.67089549"
                   transform="matrix(0.084419,-0.02132818,0.02132818,0.084419,253.88681,400.90141)"
                   style="font-size:40px;font-style:normal;font-weight:normal;fill:#f6e7c1;fill-opacity:1;stroke:none;font-family:Bitstream Vera Sans"
                   id="flowRoot4795-3"
                   xml:space="preserve"
                   inkscape:transform-center-y="-0.040144253"><flowRegion
                     id="flowRegion4797-8"><rect
                       style="fill:#f6e7c1;fill-opacity:1"
                       y="1029.7347"
                       x="-1196.4247"
                       height="224.85995"
                       width="404.46509"
                       id="rect4799-7" /></flowRegion><flowPara
                     style="fill:#f6e7c1;fill-opacity:1;font-family:TF2 Build;-inkscape-font-specification:TF2 Build"
                     id="flowPara4801-4">S</flowPara></flowRoot>                <flowRoot
                   transform="matrix(0.02687479,0.08282031,-0.08282031,0.02687479,305.34511,569.90147)"
                   style="font-size:40px;font-style:normal;font-weight:normal;fill:#f6e7c1;fill-opacity:1;stroke:none;font-family:Bitstream Vera Sans"
                   id="flowRoot4795-2"
                   xml:space="preserve"><flowRegion
                     id="flowRegion4797-7"><rect
                       style="fill:#f6e7c1;fill-opacity:1"
                       y="1029.7347"
                       x="-1196.4247"
                       height="224.85995"
                       width="404.46509"
                       id="rect4799-79" /></flowRegion><flowPara
                     style="fill:#f6e7c1;fill-opacity:1;font-family:TF2 Build;-inkscape-font-specification:TF2 Build"
                     id="flowPara4801-3">E</flowPara></flowRoot>                <flowRoot
                   transform="matrix(-0.02580495,-0.08315987,0.08315987,-0.02580495,43.041637,433.69193)"
                   style="font-size:40px;font-style:normal;font-weight:normal;fill:#f6e7c1;fill-opacity:1;stroke:none;font-family:Bitstream Vera Sans"
                   id="flowRoot4795-2-1"
                   xml:space="preserve"><flowRegion
                     id="flowRegion4797-7-9"><rect
                       style="fill:#f6e7c1;fill-opacity:1"
                       y="1029.7347"
                       x="-1196.4247"
                       height="224.85995"
                       width="404.46509"
                       id="rect4799-79-8" /></flowRegion><flowPara
                     style="fill:#f6e7c1;fill-opacity:1;font-family:TF2 Build;-inkscape-font-specification:TF2 Build"
                     id="flowPara4801-3-6">W</flowPara></flowRoot>                <path
                   sodipodi:nodetypes="ccccccccccsssssscccsssscccsccccccccccccccccccc"
                   id="path4925-6"
                   d="m 167.85096,482.02097 -0.31984,-1.43742 1.35082,-0.30055 1.35083,-0.30056 0.31981,1.43743 0.3198,1.43741 -1.35079,0.30055 -1.35082,0.30055 -0.31981,-1.43741 z m -1.26226,0.15068 c -2.23969,-0.86829 -3.46207,-3.43817 -2.74106,-5.76273 0.55677,-1.7951 2.36738,-3.20827 4.17445,-3.25811 1.53259,-0.0422 2.81742,0.48379 3.78119,1.54818 0.71846,0.79351 1.18297,2.0103 1.183,3.0989 0,0.7792 -0.24272,1.68275 -0.62691,2.33379 -0.28717,0.48665 -0.80546,1.15627 -0.91358,1.18033 -0.0234,0.006 -0.11567,-0.31874 -0.20496,-0.71991 l -0.16226,-0.72941 0.20303,-0.42043 c 0.50379,-1.04296 0.54368,-2.06287 0.11757,-3.00554 -0.66431,-1.46971 -2.24045,-2.2496 -3.83115,-1.89569 -0.92988,0.2069 -1.62034,0.69844 -2.10866,1.50113 -0.43899,0.72158 -0.56777,1.26602 -0.50093,2.11809 0.0727,0.92813 0.66903,1.91755 1.49005,2.47242 l 0.43142,0.29158 0.1565,0.70336 c 0.0861,0.38685 0.12885,0.7095 0.0951,0.71701 -0.0338,0.007 -0.27799,-0.0704 -0.54279,-0.17297 z m 0.0181,-3.12735 -0.24663,-1.10837 1.93967,-0.43156 1.93963,-0.43157 0.24664,1.10837 0.24659,1.10837 -1.93964,0.43157 -1.93966,0.43156 -0.2466,-1.10837 z m -0.3738,-1.67987 -0.0732,-0.32906 1.93964,-0.43155 1.93962,-0.43157 0.0732,0.32906 0.0732,0.32905 -1.93963,0.43156 -1.93963,0.43155 -0.0732,-0.32904 z"
                   style="fill:#5a5a5a;fill-opacity:1;stroke:#5a5a5a;stroke-width:2;stroke-miterlimit:4;stroke-opacity:1;stroke-dasharray:none" />
                <path
                   sodipodi:nodetypes="ccccccccccsssssscccsssscccsccccccccccccccccccc"
                   id="path4925"
                   d="m 167.85096,482.02097 -0.31984,-1.43742 1.35082,-0.30055 1.35083,-0.30056 0.31981,1.43743 0.3198,1.43741 -1.35079,0.30055 -1.35082,0.30055 -0.31981,-1.43741 z m -1.26226,0.15068 c -2.23969,-0.86829 -3.46207,-3.43817 -2.74106,-5.76273 0.55677,-1.7951 2.36738,-3.20827 4.17445,-3.25811 1.53259,-0.0422 2.81742,0.48379 3.78119,1.54818 0.71846,0.79351 1.18297,2.0103 1.183,3.0989 0,0.7792 -0.24272,1.68275 -0.62691,2.33379 -0.28717,0.48665 -0.80546,1.15627 -0.91358,1.18033 -0.0234,0.006 -0.11567,-0.31874 -0.20496,-0.71991 l -0.16226,-0.72941 0.20303,-0.42043 c 0.50379,-1.04296 0.54368,-2.06287 0.11757,-3.00554 -0.66431,-1.46971 -2.24045,-2.2496 -3.83115,-1.89569 -0.92988,0.2069 -1.62034,0.69844 -2.10866,1.50113 -0.43899,0.72158 -0.56777,1.26602 -0.50093,2.11809 0.0727,0.92813 0.66903,1.91755 1.49005,2.47242 l 0.43142,0.29158 0.1565,0.70336 c 0.0861,0.38685 0.12885,0.7095 0.0951,0.71701 -0.0338,0.007 -0.27799,-0.0704 -0.54279,-0.17297 z m 0.0181,-3.12735 -0.24663,-1.10837 1.93967,-0.43156 1.93963,-0.43157 0.24664,1.10837 0.24659,1.10837 -1.93964,0.43157 -1.93966,0.43156 -0.2466,-1.10837 z m -0.3738,-1.67987 -0.0732,-0.32906 1.93964,-0.43155 1.93962,-0.43157 0.0732,0.32906 0.0732,0.32905 -1.93963,0.43156 -1.93963,0.43155 -0.0732,-0.32904 z"
                   style="fill:#f4722b;fill-opacity:1;stroke:none" />
                <path
                   id="path4588"
                   d="m 173.66261,483.22664 c -10.51124,0 -19.0739,8.56267 -19.0739,19.07389 0,10.51123 8.56266,19.0739 19.0739,19.0739 10.51123,0 19.07389,-8.56267 19.07389,-19.0739 0,-10.51122 -8.56266,-19.07389 -19.07389,-19.07389 z m 0,3.95407 c 8.37239,0 15.11601,6.74744 15.11601,15.11982 0,8.3724 -6.74362,15.11603 -15.11601,15.11603 -8.3724,0 -15.1198,-6.74363 -15.1198,-15.11603 0,-8.37238 6.7474,-15.11982 15.1198,-15.11982 z"
                   style="font-size:medium;font-style:normal;font-variant:normal;font-weight:normal;font-stretch:normal;text-indent:0;text-align:start;text-decoration:none;line-height:normal;letter-spacing:normal;word-spacing:normal;text-transform:none;direction:ltr;block-progression:tb;writing-mode:lr-tb;text-anchor:start;color:#000000;fill:#f4722b;fill-opacity:1;fill-rule:nonzero;stroke:none;stroke-width:32.49760437;marker:none;visibility:visible;display:inline;overflow:visible;enable-background:accumulate;font-family:Bitstream Vera Sans;-inkscape-font-specification:Bitstream Vera Sans" />
                <rect
                   inkscape:export-ydpi="349"
                   inkscape:export-xdpi="349"
                   inkscape:export-filename="C:\Users\Lasse\Documents\My Dropbox\Public\iconmontage.png"
                   transform="matrix(-0.4782476,0.87822505,-0.77405422,0.63311931,0,0)"
                   y="-1049.4662"
                   x="1316.4536"
                   height="14.250418"
                   width="14.228861"
                   id="rect3592-5-2"
                   style="fill:#f6e7c1;fill-opacity:1;stroke:none" />
                <path
                   sodipodi:nodetypes="ccccscc"
                   inkscape:export-ydpi="349"
                   inkscape:export-xdpi="349"
                   inkscape:export-filename="C:\Users\Lasse\Documents\My Dropbox\Public\iconmontage.png"
                   id="path3640-2-4"
                   d="m 182.65604,491.70208 -10.92215,9.01601 c 4.24892,3.4485 0.0121,-0.0285 4.23768,3.43113 l 6.80502,-12.42479 c -0.008,-0.006 -0.0153,-0.0132 -0.0234,-0.0197 -0.008,-0.006 -0.0153,-0.0132 -0.0234,-0.0197 l -0.0737,0.017 z"
                   style="fill:#f4722b;fill-opacity:1;stroke:none" />
                <path
                   inkscape:export-ydpi="349"
                   inkscape:export-xdpi="349"
                   inkscape:export-filename="C:\Users\Lasse\Documents\My Dropbox\Public\iconmontage.png"
                   transform="matrix(-0.07890304,0.22758087,-0.22758087,-0.07890304,326.74977,400.5161)"
                   d="m 615.18292,461.17041 c 0,4.04472 -3.27889,7.32361 -7.32361,7.32361 -4.04471,0 -7.3236,-3.27889 -7.3236,-7.32361 0,-4.04472 3.27889,-7.32361 7.3236,-7.32361 4.04472,0 7.32361,3.27889 7.32361,7.32361 z"
                   sodipodi:ry="7.323606"
                   sodipodi:rx="7.323606"
                   sodipodi:cy="461.17041"
                   sodipodi:cx="607.85931"
                   id="path3653-3-8"
                   style="fill:#5a5a5a;fill-opacity:1;stroke:none"
                   sodipodi:type="arc" />
              </g>
            </g>
          </g>
        </g>
      </g>
    </g>
  </g>
</svg>
