<?xml version="1.0" encoding="UTF-8" standalone="no"?>
<!-- Created with Inkscape (http://www.inkscape.org/) -->

<svg
   xmlns:dc="http://purl.org/dc/elements/1.1/"
   xmlns:cc="http://creativecommons.org/ns#"
   xmlns:rdf="http://www.w3.org/1999/02/22-rdf-syntax-ns#"
   xmlns:svg="http://www.w3.org/2000/svg"
   xmlns="http://www.w3.org/2000/svg"
   xmlns:sodipodi="http://sodipodi.sourceforge.net/DTD/sodipodi-0.dtd"
   xmlns:inkscape="http://www.inkscape.org/namespaces/inkscape"
   width="57.000019"
   height="57"
   id="svg4596"
   version="1.1"
   inkscape:version="0.47 r22583"
   sodipodi:docname="twitter.svg">
  <title
     id="title4621">Team Fortress 2 WinterBoard: Twitter</title>
  <defs
     id="defs4598">
    <inkscape:perspective
       sodipodi:type="inkscape:persp3d"
       inkscape:vp_x="0 : 526.18109 : 1"
       inkscape:vp_y="0 : 1000 : 0"
       inkscape:vp_z="744.09448 : 526.18109 : 1"
       inkscape:persp3d-origin="372.04724 : 350.78739 : 1"
       id="perspective4604" />
    <inkscape:perspective
       id="perspective4588"
       inkscape:persp3d-origin="0.5 : 0.33333333 : 1"
       inkscape:vp_z="1 : 0.5 : 1"
       inkscape:vp_y="0 : 1000 : 0"
       inkscape:vp_x="0 : 0.5 : 1"
       sodipodi:type="inkscape:persp3d" />
    <inkscape:perspective
       id="perspective6031"
       inkscape:persp3d-origin="0.5 : 0.33333333 : 1"
       inkscape:vp_z="1 : 0.5 : 1"
       inkscape:vp_y="0 : 1000 : 0"
       inkscape:vp_x="0 : 0.5 : 1"
       sodipodi:type="inkscape:persp3d" />
    <inkscape:perspective
       id="perspective6053"
       inkscape:persp3d-origin="0.5 : 0.33333333 : 1"
       inkscape:vp_z="1 : 0.5 : 1"
       inkscape:vp_y="0 : 1000 : 0"
       inkscape:vp_x="0 : 0.5 : 1"
       sodipodi:type="inkscape:persp3d" />
    <filter
       color-interpolation-filters="sRGB"
       id="filter3629-2">
      <feGaussianBlur
         id="feGaussianBlur3631-8"
         stdDeviation="1.9268105"
         inkscape:collect="always" />
    </filter>
    <filter
       color-interpolation-filters="sRGB"
       id="filter6059">
      <feGaussianBlur
         id="feGaussianBlur6061"
         stdDeviation="1.9268105"
         inkscape:collect="always" />
    </filter>
    <filter
       color-interpolation-filters="sRGB"
       id="filter6063">
      <feGaussianBlur
         id="feGaussianBlur6065"
         stdDeviation="1.9268105"
         inkscape:collect="always" />
    </filter>
    <filter
       color-interpolation-filters="sRGB"
       id="filter6067">
      <feGaussianBlur
         id="feGaussianBlur6069"
         stdDeviation="1.9268105"
         inkscape:collect="always" />
    </filter>
  </defs>
  <sodipodi:namedview
     id="base"
     pagecolor="#ffffff"
     bordercolor="#666666"
     borderopacity="1.0"
     inkscape:pageopacity="0.0"
     inkscape:pageshadow="2"
     inkscape:zoom="1.4"
     inkscape:cx="-186.53726"
     inkscape:cy="-40.868613"
     inkscape:document-units="px"
     inkscape:current-layer="g4522"
     showgrid="false"
     inkscape:window-width="1920"
     inkscape:window-height="1018"
     inkscape:window-x="-8"
     inkscape:window-y="-8"
     inkscape:window-maximized="1" />
  <metadata
     id="metadata4601">
    <rdf:RDF>
      <cc:Work
         rdf:about="">
        <dc:format>image/svg+xml</dc:format>
        <dc:type
           rdf:resource="http://purl.org/dc/dcmitype/StillImage" />
        <dc:title>Team Fortress 2 WinterBoard: Twitter</dc:title>
      </cc:Work>
    </rdf:RDF>
  </metadata>
  <g
     inkscape:label="Layer 1"
     inkscape:groupmode="layer"
     id="layer1"
     transform="translate(-346.49999,-503.86218)">
    <g
       id="g4522"
       transform="translate(-58.774178,8.6686926)">
      <path
         clip-rule="evenodd"
         d="m -6.822582,454.75253 h 37 c 5.523,0 10,4.477 10,10 v 37 c 0,5.523 -4.477,10 -10,10 h -37 c -5.523,0 -10,-4.477 -10,-10 v -37 c 0,-5.523 4.477,-10 10,-10 z"
         id="path3774-0-9-9-6-4"
         style="fill:#89411d;fill-rule:evenodd;stroke-width:0.50000000000000000;stroke-miterlimit:4;stroke-dasharray:none;fill-opacity:1"
         inkscape:export-filename="C:\Users\Lasse\Documents\My Dropbox\Projects\tf2_iphone\messages_114x114.png"
         inkscape:export-xdpi="180"
         inkscape:export-ydpi="180"
         transform="translate(422.09675,40.44096)" />
      <path
         style="fill:#f4722b;fill-opacity:1;fill-rule:evenodd;stroke-width:0.5;stroke-miterlimit:4;stroke-dasharray:none"
         d="m 415.27418,495.19349 c -5.523,0 -10,4.477 -10,10 l 0,37 c 0,5.523 4.477,10 10,10 l 37,0 c 5.52301,0 10,-4.477 10,-10 l 0,-37 c 0,-5.523 -4.47699,-10 -10,-10 l -37,0 z m 2.875,4.40625 31.28125,0 c 4.66773,0 8.4375,3.76978 8.4375,8.4375 l 0,31.28125 c 0,4.66772 -3.76977,8.46875 -8.4375,8.46875 l -31.28125,0 c -4.66771,0 -8.4375,-3.80103 -8.4375,-8.46875 l 0,-31.28125 c 0,-4.66772 3.76979,-8.4375 8.4375,-8.4375 z"
         id="path3774-0-4-5-7-7-0-1-2-0-8" />
      <path
         sodipodi:nodetypes="ccccssssccccccccsssssscccccccccccc"
         id="path2872"
         d="m 425.74246,509.64253 c -1.28609,0 -2.32099,0.76203 -2.32099,1.71112 l 0,2.55792 c 0,5.36854 0.007,10.55118 0.007,15.88495 0.24589,1.87601 1.14662,3.65711 2.56011,5.0566 1.55162,1.53625 3.42545,2.48667 5.64891,2.86504 0.0432,0.007 0.57954,0.0117 1.35354,0.0154 0.004,3e-5 0.007,-10e-6 0.011,0 0.0675,0.007 0.13699,0.011 0.20622,0.011 l 8.79913,0 c 1.16672,0 2.106,-0.93928 2.106,-2.106 l 0,-1.09908 c 0.018,-0.29306 0.0191,-0.59316 0,-0.85994 l 0,-0.81388 c 0,-1.16673 -0.93928,-2.106 -2.106,-2.106 l -0.72613,0 c -0.56842,-0.0331 -1.63509,-0.0488 -3.78203,-0.0637 -4.28902,-0.0296 -4.57483,-0.0511 -5.3352,-0.39926 -0.57582,-0.26362 -0.96031,-0.66272 -1.28993,-1.34039 -0.15811,-0.32507 -0.32122,-0.72654 -0.36416,-0.89285 -0.0644,-0.24932 -0.13139,-2.34581 -0.13163,-3.49684 -1e-5,-0.0959 -8.3e-4,-0.18647 0,-0.26764 0.002,-0.24349 0.011,-0.41256 0.0242,-0.46507 l 0.009,-0.0373 11.58301,0 c 1.16673,0 2.106,-0.93927 2.106,-2.106 l 0,-2.74657 c 0,-1.16672 -0.93927,-2.106 -2.106,-2.106 l -11.54133,0 -0.0373,-1.18683 c -0.0112,-0.22439 -0.0241,-0.44939 -0.0373,-0.67348 l 0,-3.62407 c 0,-0.9491 -1.0349,-1.71113 -2.32098,-1.71113 l -2.31441,0 z"
         style="fill:#f6e7c1;fill-opacity:1" />
    </g>
  </g>
</svg>
