<?xml version="1.0" encoding="UTF-8" standalone="no"?>
<!-- Created with Inkscape (http://www.inkscape.org/) -->

<svg
   xmlns:dc="http://purl.org/dc/elements/1.1/"
   xmlns:cc="http://creativecommons.org/ns#"
   xmlns:rdf="http://www.w3.org/1999/02/22-rdf-syntax-ns#"
   xmlns:svg="http://www.w3.org/2000/svg"
   xmlns="http://www.w3.org/2000/svg"
   xmlns:xlink="http://www.w3.org/1999/xlink"
   xmlns:sodipodi="http://sodipodi.sourceforge.net/DTD/sodipodi-0.dtd"
   xmlns:inkscape="http://www.inkscape.org/namespaces/inkscape"
   width="57"
   height="57"
   id="svg4691"
   version="1.1"
   inkscape:version="0.47 r22583"
   sodipodi:docname="compass.svg">
  <title
     id="title4746">Team Fortress 2 WinterBoard: Voice Memos</title>
  <defs
     id="defs4693">
    <inkscape:perspective
       sodipodi:type="inkscape:persp3d"
       inkscape:vp_x="0 : 526.18109 : 1"
       inkscape:vp_y="0 : 1000 : 0"
       inkscape:vp_z="744.09448 : 526.18109 : 1"
       inkscape:persp3d-origin="372.04724 : 350.78739 : 1"
       id="perspective4699" />
    <inkscape:perspective
       id="perspective4677"
       inkscape:persp3d-origin="0.5 : 0.33333333 : 1"
       inkscape:vp_z="1 : 0.5 : 1"
       inkscape:vp_y="0 : 1000 : 0"
       inkscape:vp_x="0 : 0.5 : 1"
       sodipodi:type="inkscape:persp3d" />
    <inkscape:perspective
       id="perspective4756"
       inkscape:persp3d-origin="0.5 : 0.33333333 : 1"
       inkscape:vp_z="1 : 0.5 : 1"
       inkscape:vp_y="0 : 1000 : 0"
       inkscape:vp_x="0 : 0.5 : 1"
       sodipodi:type="inkscape:persp3d" />
    <inkscape:perspective
       id="perspective4851"
       inkscape:persp3d-origin="0.5 : 0.33333333 : 1"
       inkscape:vp_z="1 : 0.5 : 1"
       inkscape:vp_y="0 : 1000 : 0"
       inkscape:vp_x="0 : 0.5 : 1"
       sodipodi:type="inkscape:persp3d" />
    <inkscape:perspective
       id="perspective4900"
       inkscape:persp3d-origin="0.5 : 0.33333333 : 1"
       inkscape:vp_z="1 : 0.5 : 1"
       inkscape:vp_y="0 : 1000 : 0"
       inkscape:vp_x="0 : 0.5 : 1"
       sodipodi:type="inkscape:persp3d" />
    <linearGradient
       inkscape:collect="always"
       xlink:href="#linearGradient5030"
       id="linearGradient5129"
       gradientUnits="userSpaceOnUse"
       x1="410.35025"
       y1="314.85373"
       x2="414.24854"
       y2="310.50735" />
    <linearGradient
       inkscape:collect="always"
       id="linearGradient5030">
      <stop
         style="stop-color:#ffffff;stop-opacity:1;"
         offset="0"
         id="stop5032" />
      <stop
         style="stop-color:#ffffff;stop-opacity:0;"
         offset="1"
         id="stop5034" />
    </linearGradient>
    <clipPath
       clipPathUnits="userSpaceOnUse"
       id="clipPath4221">
      <path
         clip-path="none"
         id="path4223"
         d="m 350.71619,7.5327627 0.5,6.2500013 c 0.1259,0.21284 0.27878,0.40676 0.375,0.625 0.10068,0.22831 0.0565,0.48536 0.125,0.71875 0.0478,0.54251 0.18749,1.07147 0.1875,1.625 0,0.29868 -0.0797,0.5794 -0.0937,0.875 -0.0781,0.36206 -0.0642,0.71205 -0.21875,1.0625 -0.30449,0.69059 -0.76544,1.36528 -1.34375,2 -0.57829,0.63471 -1.27235,1.21667 -2.09375,1.78125 -0.8214,0.56457 -1.77873,1.11357 -2.8125,1.59375 -1.03379,0.48018 -2.15952,0.89973 -3.375,1.28125 -1.21549,0.38152 -2.50851,0.73138 -3.875,1 -1.36649,0.26861 -2.79445,0.48356 -4.28125,0.625 -1.48678,0.14143 -3.01736,0.1875 -4.59375,0.1875 -1.57639,0 -3.13821,-0.04608 -4.625,-0.1875 -1.48679,-0.14143 -2.91476,-0.3564 -4.28125,-0.625 -1.36648,-0.26861 -2.65952,-0.61848 -3.875,-1 -1.21548,-0.38152 -2.34123,-0.80108 -3.375,-1.28125 -1.03379,-0.48018 -1.99111,-1.02918 -2.8125,-1.59375 -0.82139,-0.56457 -1.51547,-1.14655 -2.09375,-1.78125 -0.57829,-0.63471 -1.03923,-1.30942 -1.34375,-2 -0.29585,-0.671 -0.42871,-1.35202 -0.4375,-2.0625 5.5e-4,-0.08277 0.0296,-0.16746 0.0312,-0.25 0.0228,-0.61377 0.11066,-1.22721 0.34375,-1.8125 l 0.65625,-6.2500013 c -14.72852,7.2167413 -24.75,21.2767213 -24.75,37.4375013 0,14.16064 7.7147,26.6987 19.53125,34.4375 -11.7661,-7.74752 -19.40625,-20.30544 -19.40625,-34.4375 0,-0.08593 0.0307,-0.16418 0.0312,-0.25 0.0183,1.47325 0.324,2.92112 0.9375,4.3125 0.6314,1.43199 1.55087,2.80888 2.75,4.125 1.19914,1.31612 2.67177,2.54806 4.375,3.71875 1.70323,1.17069 3.6376,2.28556 5.78125,3.28125 2.14365,0.99569 4.47958,1.89638 7,2.6875 2.52042,0.79112 5.22897,1.47427 8.0625,2.03125 2.83353,0.55698 5.79202,0.98798 8.875,1.28125 3.08298,0.29327 6.29373,0.4375 9.5625,0.4375 3.26877,0 6.44827,-0.14423 9.53125,-0.4375 3.08298,-0.29327 6.07272,-0.72427 8.90625,-1.28125 2.83353,-0.55698 5.51083,-1.24013 8.03125,-2.03125 2.52042,-0.79112 4.85635,-1.69181 7,-2.6875 2.14365,-0.99569 4.10927,-2.11056 5.8125,-3.28125 1.70323,-1.17069 3.14461,-2.40263 4.34375,-3.71875 1.19914,-1.31612 2.14985,-2.69301 2.78125,-4.125 0.32041,-0.72667 0.33815,-1.49923 0.5,-2.25 -0.0882,1.85802 -0.28368,3.6809 -0.625,5.46875 0.46332,-2.3702 0.71875,-4.78936 0.71875,-7.28125 0,-16.78071 -10.77593,-31.27856 -26.4375,-38.2187513 z m 25.71875,45.5000013 c -0.22324,1.16937 -0.48624,2.33394 -0.8125,3.46875 0.32968,-1.1281 0.5853,-2.30648 0.8125,-3.46875 z m -0.90625,3.71875 c -0.15153,0.51389 -0.32793,1.02507 -0.5,1.53125 0.17532,-0.50869 0.34527,-1.01482 0.5,-1.53125 z m -1.03125,3 c -0.24414,0.62724 -0.5067,1.26094 -0.78125,1.875 0.27425,-0.61697 0.53855,-1.24455 0.78125,-1.875 z m -72.28125,20.4375 c 2.14203,1.401147 4.38985,2.652347 6.78125,3.718747 -2.3834,-1.06993 -4.6475,-2.31541 -6.78125,-3.718747 z m 10.5,5.187497 c 1.24574,0.43966 2.51812,0.84269 3.8125,1.1875 -1.30092,-0.34916 -2.56116,-0.74239 -3.8125,-1.1875 z"
         style="fill:#b6343c;fill-opacity:1;fill-rule:evenodd;stroke:none" />
    </clipPath>
    <filter
       color-interpolation-filters="sRGB"
       inkscape:collect="always"
       id="filter4969"
       x="-0.052747332"
       width="1.1054947"
       y="-0.19039562"
       height="1.3807913">
      <feGaussianBlur
         inkscape:collect="always"
         stdDeviation="2.0499811"
         id="feGaussianBlur4971" />
    </filter>
    <inkscape:perspective
       id="perspective4991"
       inkscape:persp3d-origin="0.5 : 0.33333333 : 1"
       inkscape:vp_z="1 : 0.5 : 1"
       inkscape:vp_y="0 : 1000 : 0"
       inkscape:vp_x="0 : 0.5 : 1"
       sodipodi:type="inkscape:persp3d" />
    <inkscape:perspective
       id="perspective5070"
       inkscape:persp3d-origin="0.5 : 0.33333333 : 1"
       inkscape:vp_z="1 : 0.5 : 1"
       inkscape:vp_y="0 : 1000 : 0"
       inkscape:vp_x="0 : 0.5 : 1"
       sodipodi:type="inkscape:persp3d" />
    <inkscape:perspective
       id="perspective5104"
       inkscape:persp3d-origin="0.5 : 0.33333333 : 1"
       inkscape:vp_z="1 : 0.5 : 1"
       inkscape:vp_y="0 : 1000 : 0"
       inkscape:vp_x="0 : 0.5 : 1"
       sodipodi:type="inkscape:persp3d" />
    <inkscape:perspective
       id="perspective5227"
       inkscape:persp3d-origin="0.5 : 0.33333333 : 1"
       inkscape:vp_z="1 : 0.5 : 1"
       inkscape:vp_y="0 : 1000 : 0"
       inkscape:vp_x="0 : 0.5 : 1"
       sodipodi:type="inkscape:persp3d" />
    <inkscape:perspective
       id="perspective5326"
       inkscape:persp3d-origin="0.5 : 0.33333333 : 1"
       inkscape:vp_z="1 : 0.5 : 1"
       inkscape:vp_y="0 : 1000 : 0"
       inkscape:vp_x="0 : 0.5 : 1"
       sodipodi:type="inkscape:persp3d" />
    <inkscape:perspective
       id="perspective5375"
       inkscape:persp3d-origin="0.5 : 0.33333333 : 1"
       inkscape:vp_z="1 : 0.5 : 1"
       inkscape:vp_y="0 : 1000 : 0"
       inkscape:vp_x="0 : 0.5 : 1"
       sodipodi:type="inkscape:persp3d" />
    <inkscape:perspective
       id="perspective5419"
       inkscape:persp3d-origin="0.5 : 0.33333333 : 1"
       inkscape:vp_z="1 : 0.5 : 1"
       inkscape:vp_y="0 : 1000 : 0"
       inkscape:vp_x="0 : 0.5 : 1"
       sodipodi:type="inkscape:persp3d" />
    <inkscape:perspective
       id="perspective5456"
       inkscape:persp3d-origin="0.5 : 0.33333333 : 1"
       inkscape:vp_z="1 : 0.5 : 1"
       inkscape:vp_y="0 : 1000 : 0"
       inkscape:vp_x="0 : 0.5 : 1"
       sodipodi:type="inkscape:persp3d" />
    <linearGradient
       inkscape:collect="always"
       xlink:href="#linearGradient9195-9"
       id="linearGradient6460"
       gradientUnits="userSpaceOnUse"
       gradientTransform="matrix(0.33801571,0,0,0.33801571,153.9842,383.06206)"
       x1="279.57233"
       y1="122.73773"
       x2="281.87045"
       y2="138.91281" />
    <linearGradient
       inkscape:collect="always"
       id="linearGradient9195-9">
      <stop
         style="stop-color:#888a85;stop-opacity:1;"
         offset="0"
         id="stop9197-5" />
      <stop
         style="stop-color:#888a85;stop-opacity:0;"
         offset="1"
         id="stop9199-5" />
    </linearGradient>
  </defs>
  <sodipodi:namedview
     id="base"
     pagecolor="#ffffff"
     bordercolor="#666666"
     borderopacity="1.0"
     inkscape:pageopacity="0.0"
     inkscape:pageshadow="2"
     inkscape:zoom="3.959798"
     inkscape:cx="-48.035953"
     inkscape:cy="40.458869"
     inkscape:document-units="px"
     inkscape:current-layer="flowRoot5763-2-4-2"
     showgrid="false"
     inkscape:window-width="1920"
     inkscape:window-height="1018"
     inkscape:window-x="-8"
     inkscape:window-y="-8"
     inkscape:window-maximized="1" />
  <metadata
     id="metadata4696">
    <rdf:RDF>
      <cc:Work
         rdf:about="">
        <dc:format>image/svg+xml</dc:format>
        <dc:type
           rdf:resource="http://purl.org/dc/dcmitype/StillImage" />
        <dc:title>Team Fortress 2 WinterBoard: Voice Memos</dc:title>
      </cc:Work>
    </rdf:RDF>
  </metadata>
  <g
     inkscape:label="Layer 1"
     inkscape:groupmode="layer"
     id="layer1"
     transform="translate(-334.35714,-455.29075)">
    <g
       id="g3181"
       transform="translate(54.971573,163.32366)"
       inkscape:export-filename="C:\Users\Lasse\Documents\My Dropbox\Public\iconmontage.png"
       inkscape:export-xdpi="349.72098"
       inkscape:export-ydpi="349.72098">
      <g
         style="font-size:10.31457615px;font-style:normal;font-variant:normal;font-weight:normal;font-stretch:normal;text-align:start;line-height:125%;writing-mode:lr-tb;text-anchor:start;fill:#ffffff;fill-opacity:1;stroke:none;font-family:TF2 Build;-inkscape-font-specification:TF2 Build"
         id="text4536-8">
        <g
           id="g5166"
           transform="translate(-44.483523,2.6884599)">
          <g
             inkscape:export-ydpi="349"
             inkscape:export-xdpi="349"
             inkscape:export-filename="C:\Users\Lasse\Documents\My Dropbox\Public\iconmontage.png"
             id="flowRoot5763-2-4-2"
             style="font-size:40px;font-style:normal;font-weight:normal;fill:#f6e7c1;fill-opacity:1;stroke:none;font-family:Bitstream Vera Sans"
             inkscape:transform-center-y="-3.5279857"
             transform="matrix(-0.30942042,-0.30942042,0.30942042,-0.30942042,344.48308,554.92556)">
            <g
               id="g6447"
               transform="matrix(-1.6159244,1.6159244,-1.6159244,-1.6159244,1435.1398,661.55156)"
               inkscape:export-filename="C:\Users\Lasse\Documents\My Dropbox\Public\iconmontage.png"
               inkscape:export-xdpi="349"
               inkscape:export-ydpi="349">
              <path
                 inkscape:export-ydpi="349"
                 inkscape:export-xdpi="349"
                 inkscape:export-filename="C:\Users\Lasse\Documents\My Dropbox\Public\iconmontage.png"
                 style="fill:#5a5a5a;fill-opacity:1;fill-rule:evenodd"
                 id="path3774-0-4-5-7-6-1-5"
                 d="m 229.88596,384.84937 h 34.72808 c 5.18387,0 9.38596,4.20209 9.38596,9.38596 v 34.72807 c 0,5.18386 -4.20209,9.38597 -9.38596,9.38597 h -34.72808 c -5.18386,0 -9.38596,-4.2021 -9.38596,-9.38597 v -34.72807 c 0,-5.18386 4.2021,-9.38596 9.38596,-9.38596 z"
                 clip-rule="evenodd" />
              <rect
                 y="428.88049"
                 x="246.70227"
                 height="8.125"
                 width="2.4375"
                 id="rect6274-6"
                 style="fill:#f6e7c1;fill-opacity:1;stroke:none" />
              <path
                 inkscape:export-ydpi="349"
                 inkscape:export-xdpi="349"
                 inkscape:export-filename="C:\Users\Lasse\Documents\My Dropbox\Public\iconmontage.png"
                 style="fill:#f6e7c1;fill-opacity:1;fill-rule:evenodd"
                 d="m 228.75,383.11218 c -5.523,0 -10,4.477 -10,10 l 0,37 c 0,5.52301 4.477,10 10,10 l 37,0 c 5.523,0 10,-4.47699 10,-10 l 0,-37 c 0,-5.523 -4.477,-10 -10,-10 l -37,0 z m 2.875,4.40625 31.25,0 c 4.66772,0 8.46875,3.76979 8.46875,8.4375 l 0,31.28125 c 0,4.66772 -3.80103,8.4375 -8.46875,8.4375 l -31.25,0 c -4.66771,0 -8.46875,-3.76978 -8.46875,-8.4375 l 0,-31.28125 c 0,-4.66771 3.80104,-8.4375 8.46875,-8.4375 z"
                 id="path3774-0-4-5-7-6-3-1-0" />
              <path
                 id="path9185-5"
                 d="m 248.21515,425.58007 1.91211,0 0.0297,4.39186 -4.6309,1.43407 0.0896,-0.9859 2.59925,-4.84003 z"
                 style="fill:url(#linearGradient6460);fill-opacity:1;fill-rule:evenodd;stroke:none" />
              <path
                 sodipodi:nodetypes="ccccscc"
                 style="fill:#89411d;fill-opacity:1;fill-rule:evenodd;stroke:none"
                 d="m 245.98172,424.73436 3.23773,-1.33975 0.64852,0.20892 0.82818,5.16448 c 0,0 -0.47187,0.65551 -2.03494,0.76714 -1.56303,0.11162 -2.2329,-1.22813 -2.2329,-1.22813 l -0.44659,-3.57266 z"
                 id="path9118-9" />
              <path
                 id="path6272-4"
                 d="m 236.38678,420.45113 -2.56937,-16.00133 11.18821,-6.58879 9.15816,1.75022 0.21368,0.47827 3.55133,15.69097 c 0,0 -12.76984,5.15144 -13.69085,5.49681 -0.92101,0.34539 -7.7134,-0.92099 -7.85116,-0.82615 z"
                 style="fill:#89411d;fill-opacity:1;stroke:none" />
              <path
                 sodipodi:nodetypes="cscccccccccccccccccccccccccccccccccssccccscccccsscccsccccsscccscccsscccsccccsscccsccccsscccsccccsscccscccsscccsccssccc"
                 id="path8886-6"
                 d="m 248.41734,394.88204 c -0.26953,-0.006 -0.55454,0.0156 -0.84504,0.0527 -4.64771,0.59152 -11.49253,3.54917 -13.85863,8.87288 0,0 0.11539,0.71201 0.12673,0.78169 l 3.62311,-1.98582 0.15842,0.92954 -3.63366,1.98582 c 0.0334,0.20464 0.13884,0.79531 0.19015,1.10911 l 3.63366,-1.98584 0.14784,0.92954 -3.63366,1.98582 c 0.0558,0.34197 0.0932,0.57162 0.15847,0.97182 l 3.64422,-1.9964 0.15844,0.91899 -3.6548,2.00696 c 0.0856,0.52644 0.0972,0.57899 0.19015,1.15136 l 3.65479,-1.99638 0.15845,0.92954 -3.66537,2.00695 c 0.0707,0.43669 0.10824,0.67707 0.17956,1.11969 l 3.67594,-2.00697 0.15843,0.92954 -3.67591,2.01752 c 0.0576,0.35813 0.10186,0.6821 0.15844,1.03516 l 3.68649,-2.01752 0.15845,0.92953 -3.68649,2.02808 c 0.0563,0.35213 0.11526,0.71834 0.16902,1.05635 l 3.69705,-2.02814 0.15843,0.92955 -3.7076,2.02812 c 0.0719,0.45468 0.12646,0.83948 0.19013,1.24642 l 3.72873,-2.03864 0.14785,0.92954 -3.72874,2.03865 c 0.13885,0.89896 0.25431,1.66966 0.30635,2.05978 0.33799,2.5351 5.23921,5.23926 7.43633,4.39417 2.19709,-0.84501 11.15451,-3.97162 11.15451,-3.97162 0,0 3.3531,-2.04489 2.73583,-6.53851 l -0.0211,0.0318 -0.39084,-0.24294 c -2.06053,-1.33554 -5.69655,-1.06725 -8.80952,-0.36969 -3.113,0.69755 -5.67233,1.75343 -5.67233,1.75343 l -0.43308,0.17957 -0.0422,-0.10563 -0.13729,-0.82395 0.25352,-0.10563 c 0,0 2.61652,-1.08839 5.82019,-1.80626 1.60187,-0.35899 3.3605,-0.64491 5.02799,-0.63379 1.53951,0.0104 3.00339,0.27201 4.20407,0.95066 l -0.3697,-0.82393 -0.39082,-0.2429 c -2.06054,-1.33555 -5.69658,-1.0673 -8.80955,-0.36969 -3.11297,0.69753 -5.67231,1.7534 -5.67231,1.7534 l -0.26408,0.10564 -0.15844,-0.92953 0.0633,-0.0319 c 0,0 2.61652,-1.08837 5.82022,-1.80631 1.60184,-0.35893 3.36049,-0.64488 5.02798,-0.63374 1.60783,0.0104 3.1335,0.29812 4.36252,1.0457 l -0.40139,-0.91895 -0.39084,-0.24297 c -2.06054,-1.33549 -5.69656,-1.06725 -8.80954,-0.36971 -3.11299,0.69761 -5.67231,1.75348 -5.67231,1.75348 l -0.19015,0.0738 -0.15843,-0.92952 c 0.026,-0.0104 2.62206,-1.09204 5.80963,-1.80631 1.60185,-0.35893 3.36051,-0.64488 5.02797,-0.63376 1.6045,0.0104 3.12429,0.3016 4.35198,1.04572 l -0.30634,-1.08797 -0.39081,-0.24299 c -2.06055,-1.33552 -5.69657,-1.06723 -8.80954,-0.36968 -3.11299,0.69755 -5.67234,1.75349 -5.67234,1.75349 l -0.22183,0.0951 -0.15843,-0.94014 0.0211,-0.0104 c 0,0 2.61652,-1.08839 5.82022,-1.80627 1.60184,-0.35893 3.3605,-0.64491 5.02797,-0.63377 1.52207,0.0104 2.96881,0.26786 4.16183,0.92954 -0.0714,-0.30705 -0.14987,-0.60298 -0.22183,-0.90843 l -0.0739,-0.0527 c -2.06054,-1.33553 -5.69654,-1.0673 -8.80955,-0.36976 -3.11298,0.69761 -5.67231,1.75348 -5.67231,1.75348 l -0.41196,0.16901 -0.15845,-0.94012 0.21128,-0.0845 c 0,0 2.61649,-1.08837 5.8202,-1.80629 1.60183,-0.35894 3.36051,-0.64486 5.02799,-0.63377 1.36362,0.009 2.66656,0.22043 3.78154,0.73942 -0.0695,-0.29088 -0.12191,-0.54077 -0.19016,-0.82395 l -0.0634,-0.0318 c -2.06053,-1.33555 -5.69654,-1.06727 -8.80953,-0.36972 -3.11299,0.69761 -5.67232,1.75349 -5.67232,1.75349 l -0.29576,0.12672 -0.15846,-0.9401 0.0951,-0.0425 c 0,0 2.61654,-1.08844 5.82022,-1.8063 1.60186,-0.35896 3.36051,-0.64489 5.02798,-0.63376 1.35122,0.009 2.64159,0.22016 3.74986,0.72885 -0.0662,-0.27112 -0.11683,-0.5048 -0.17957,-0.76055 l -0.21125,-0.12673 c -2.06055,-1.3355 -5.69657,-1.06726 -8.80954,-0.36971 -3.11296,0.6976 -5.67232,1.75347 -5.67232,1.75347 l -0.0316,0.0104 -0.15845,-0.92955 c 0.42304,-0.17124 2.74345,-1.09132 5.65118,-1.74292 1.60186,-0.35892 3.36052,-0.64487 5.02799,-0.63374 1.41137,0.009 2.75778,0.2324 3.89774,0.79223 -0.051,-0.20605 -0.12243,-0.51023 -0.16899,-0.6972 l -0.20069,-0.12673 c -2.06055,-1.33555 -5.69654,-1.06726 -8.80956,-0.36971 -2.94389,0.65968 -5.31994,1.60666 -5.57723,1.7112 l -0.15846,-0.92954 c 0.66777,-0.26415 2.84183,-1.08898 5.52445,-1.69007 1.60182,-0.35893 3.36051,-0.64492 5.02799,-0.63379 1.40253,0.009 2.74115,0.22955 3.87662,0.78165 -0.0707,-0.27926 -0.22184,-0.86615 -0.22184,-0.86615 0,0 -1.70314,-4.31146 -5.74627,-4.36254 z"
                 style="fill:#f6e7c1;fill-opacity:1;fill-rule:evenodd;stroke:none" />
              <path
                 id="path9100-3"
                 d="m 243.63001,425.33574 3.46569,-1.43406 0.95605,0.23898 0.71705,5.49731 c 0,0 -0.59753,0.71701 -2.27064,0.83652 -1.67308,0.11957 -2.39013,-1.31457 -2.39013,-1.31457 l -0.47802,-3.82418 z"
                 style="fill:#f6e7c1;fill-opacity:1;fill-rule:evenodd;stroke:none" />
              <path
                 sodipodi:nodetypes="ccccccccccccc"
                 id="path9120-4"
                 d="m 249.29407,424.25774 0.0739,0.32742 -1.30981,-0.10563 -0.0316,-0.27465 -0.96125,-0.24299 0.88732,6.18993 c 1.25056,-0.49977 0.79222,-0.45418 0.79222,-0.45418 l -0.5493,-4.1724 1.30982,0 0.52817,3.71819 c 1.1683,-0.46693 0.73941,-0.43312 0.73939,-0.43312 l -0.70772,-4.83783 -0.77109,0.28522 z"
                 style="fill:#f6e7c1;fill-opacity:1;fill-rule:evenodd;stroke:none" />
              <path
                 sodipodi:type="arc"
                 style="fill:#89411d;fill-opacity:1;fill-rule:nonzero;stroke:none"
                 id="path9160-9"
                 sodipodi:cx="323"
                 sodipodi:cy="132.36218"
                 sodipodi:rx="3"
                 sodipodi:ry="4.5"
                 d="m 326,132.36218 c 0,2.48528 -1.34315,4.5 -3,4.5 -1.65685,0 -3,-2.01472 -3,-4.5 0,-2.48528 1.34315,-4.5 3,-4.5 1.65685,0 3,2.01472 3,4.5 z"
                 transform="matrix(0.33801571,0,0,0.33801571,136.70316,382.80854)" />
              <path
                 sodipodi:nodetypes="ccccc"
                 id="path9136-0"
                 d="m 245.0245,426.78705 0.0281,0.39078 1.4402,1.02826 0.20069,-0.17263 -1.66895,-1.24641 z"
                 style="fill:#f6e7c1;fill-opacity:1;fill-rule:evenodd;stroke:none" />
            </g>
          </g>
        </g>
      </g>
    </g>
  </g>
</svg>
