<?xml version="1.0" encoding="UTF-8" standalone="no"?>
<!-- Created with Inkscape (http://www.inkscape.org/) -->

<svg
   xmlns:dc="http://purl.org/dc/elements/1.1/"
   xmlns:cc="http://creativecommons.org/ns#"
   xmlns:rdf="http://www.w3.org/1999/02/22-rdf-syntax-ns#"
   xmlns:svg="http://www.w3.org/2000/svg"
   xmlns="http://www.w3.org/2000/svg"
   xmlns:sodipodi="http://sodipodi.sourceforge.net/DTD/sodipodi-0.dtd"
   xmlns:inkscape="http://www.inkscape.org/namespaces/inkscape"
   width="320"
   height="480.00128"
   id="svg2"
   version="1.1"
   inkscape:version="0.47 r22583"
   sodipodi:docname="New document 1">
  <title
     id="title3978">Team Fortress 2 Winterboard: Wallpaper</title>
  <defs
     id="defs4">
    <inkscape:perspective
       sodipodi:type="inkscape:persp3d"
       inkscape:vp_x="0 : 526.18109 : 1"
       inkscape:vp_y="0 : 1000 : 0"
       inkscape:vp_z="744.09448 : 526.18109 : 1"
       inkscape:persp3d-origin="372.04724 : 350.78739 : 1"
       id="perspective10" />
    <inkscape:perspective
       id="perspective2824"
       inkscape:persp3d-origin="0.5 : 0.33333333 : 1"
       inkscape:vp_z="1 : 0.5 : 1"
       inkscape:vp_y="0 : 1000 : 0"
       inkscape:vp_x="0 : 0.5 : 1"
       sodipodi:type="inkscape:persp3d" />
    <inkscape:perspective
       id="perspective3612"
       inkscape:persp3d-origin="0.5 : 0.33333333 : 1"
       inkscape:vp_z="1 : 0.5 : 1"
       inkscape:vp_y="0 : 1000 : 0"
       inkscape:vp_x="0 : 0.5 : 1"
       sodipodi:type="inkscape:persp3d" />
    <inkscape:perspective
       id="perspective3630"
       inkscape:persp3d-origin="0.5 : 0.33333333 : 1"
       inkscape:vp_z="1 : 0.5 : 1"
       inkscape:vp_y="0 : 1000 : 0"
       inkscape:vp_x="0 : 0.5 : 1"
       sodipodi:type="inkscape:persp3d" />
    <inkscape:perspective
       id="perspective3721"
       inkscape:persp3d-origin="0.5 : 0.33333333 : 1"
       inkscape:vp_z="1 : 0.5 : 1"
       inkscape:vp_y="0 : 1000 : 0"
       inkscape:vp_x="0 : 0.5 : 1"
       sodipodi:type="inkscape:persp3d" />
    <inkscape:perspective
       id="perspective3756"
       inkscape:persp3d-origin="0.5 : 0.33333333 : 1"
       inkscape:vp_z="1 : 0.5 : 1"
       inkscape:vp_y="0 : 1000 : 0"
       inkscape:vp_x="0 : 0.5 : 1"
       sodipodi:type="inkscape:persp3d" />
    <inkscape:perspective
       id="perspective3794"
       inkscape:persp3d-origin="0.5 : 0.33333333 : 1"
       inkscape:vp_z="1 : 0.5 : 1"
       inkscape:vp_y="0 : 1000 : 0"
       inkscape:vp_x="0 : 0.5 : 1"
       sodipodi:type="inkscape:persp3d" />
    <inkscape:perspective
       id="perspective3858"
       inkscape:persp3d-origin="0.5 : 0.33333333 : 1"
       inkscape:vp_z="1 : 0.5 : 1"
       inkscape:vp_y="0 : 1000 : 0"
       inkscape:vp_x="0 : 0.5 : 1"
       sodipodi:type="inkscape:persp3d" />
  </defs>
  <sodipodi:namedview
     id="base"
     pagecolor="#ffffff"
     bordercolor="#666666"
     borderopacity="1.0"
     inkscape:pageopacity="0.0"
     inkscape:pageshadow="2"
     inkscape:zoom="1"
     inkscape:cx="188.41555"
     inkscape:cy="133.36805"
     inkscape:document-units="px"
     inkscape:current-layer="layer1"
     showgrid="false"
     inkscape:window-width="1920"
     inkscape:window-height="1018"
     inkscape:window-x="-8"
     inkscape:window-y="-8"
     inkscape:window-maximized="1" />
  <metadata
     id="metadata7">
    <rdf:RDF>
      <cc:Work
         rdf:about="">
        <dc:format>image/svg+xml</dc:format>
        <dc:type
           rdf:resource="http://purl.org/dc/dcmitype/StillImage" />
        <dc:title>Team Fortress 2 Winterboard: Wallpaper</dc:title>
      </cc:Work>
    </rdf:RDF>
  </metadata>
  <g
     inkscape:label="Layer 1"
     inkscape:groupmode="layer"
     id="layer1"
     transform="translate(-362.9442,-620.01562)">
    <rect
       style="fill:#2a2725;fill-opacity:1;stroke:none"
       id="rect2830"
       width="320"
       height="480"
       x="363.65491"
       y="620.01691" />
    <path
       style="opacity:0.31415932;fill:#f3732d;fill-opacity:1;stroke:none"
       d="m 408.84375,620.1875 -45.1875,19.6875 0,80.3125 160.1875,379.25 29.28125,0 -92.6875,-479.25 -51.59375,0 z m 118,0 c 11.66622,115.88107 40.54788,403.2099 47.875,479.25 l 22.65625,0 20.875,-479.25 -91.40625,0 z m 131.25,-0.17188 -39.1875,479.42188 29.25,0 35.5,-148.46875 0,-330.95313 -25.5625,0 z m -294.4375,254.95313 0,154.59375 69.875,69.875 48.0625,0 -117.9375,-224.46875 z m 0,207.62505 0,16.8437 28.59375,0 -28.59375,-16.8437 z"
       id="path3811"
       sodipodi:nodetypes="ccccccccccccccccccccccccccc" />
    <path
       style="fill:#4e4840;fill-opacity:1"
       d="m 562.1317,620.16235 c -7.6706,6.27908 -16.28343,13.08471 -19.1875,15.125 -2.91257,2.04626 -15.62754,12.25337 -28.25,22.6875 l -22.96875,18.96875 -13,21.9375 c -7.15881,12.06152 -13.60394,23.39782 -14.3125,25.1875 -1.95642,4.94155 -2.4112,10.17522 -1.25,14.25 l 0.96875,3.375 -40.625,72.25 c -26.30799,46.79029 -45.78773,81.58177 -60.5625,108.09375 l 0.71484,61.3125 c 2.6069,2.44176 4.04653,5.16783 5.34766,7.875 2.16787,4.5104 2.25344,6.4101 0.34375,7.99996 -1.62472,1.35269 -3.15095,2.17789 -5.69914,2.43749 l 0.004,5.0937 c 0.83402,-0.108 1.10018,-0.2929 2.38281,-0.5312 5.12954,-0.953 5.30219,-1.0379 6.96875,-3.1562 1.30921,-1.6641 25.34858,-48.95167 32.28125,-63.5 1.06387,-2.23262 1.07527,-2.52562 -0.0625,-5.875 -1.32686,-3.90606 -3.9797,-7.37762 -6.4375,-8.40625 -0.88337,-0.36973 -1.6761,-0.97728 -1.75,-1.375 -0.25255,-1.3595 4.20897,-10.22815 14.46875,-28.75 11.49218,-20.74668 48.28453,-87.74299 51.625,-94 2.74625,-5.14401 6.52839,-8.16713 12.1875,-9.75 4.52041,-1.26439 3.66878,-0.13789 12.90625,-16.875 8.07311,-14.62738 10.55696,-20.54487 10.3125,-24.65625 -0.35907,-6.04111 -5.24691,-14.53517 -10.875,-18.90625 -3.34329,-2.59658 -5.88292,-3.33845 -9.21875,-2.71875 -3.06157,0.56875 -5.09047,1.9962 -8.34375,5.84375 -1.49377,1.76663 -2.8834,3.24215 -3.09375,3.28125 -0.62969,0.11698 -0.43439,-4.07309 0.3125,-6.59375 1.36159,-4.5951 7.91433,-9.46915 12.875,-9.59375 3.19833,-0.0803 6.57349,1.01578 8.8125,2.875 1.57707,1.30954 13.1521,15.39298 39.40625,48 l 3.9375,4.875 -3.375,1 c -5.72067,1.69354 -5.64335,1.6995 -4.875,-0.40625 0.56734,-1.55503 0.50505,-2.15435 -0.5,-4.34375 -1.47102,-3.20451 -4.92145,-7.70705 -7.75,-10.15625 -3.02326,-2.61783 -5.91452,-3.78271 -10,-3.96875 l -3.5,-0.15625 -6,10.25 c -6.34503,10.81233 -12.13345,21.53162 -12,22.25 0.0439,0.23622 1.75477,1.23423 3.78125,2.21875 5.98703,2.90866 10.95052,6.65587 14.6875,11.03125 1.92818,2.25755 3.84188,4.04455 4.25,3.96875 0.40813,-0.0758 3.65828,-5.64066 7.21875,-12.34375 l 6.46875,-12.1875 4.65625,-1.21875 c 2.55264,-0.68277 5.88966,-1.48358 7.4375,-1.78125 l 2.84375,-0.5625 8.875,-21 c 4.88244,-11.55949 14.69444,-34.60898 21.8125,-51.21875 9.37323,-21.87206 12.84595,-30.63185 12.625,-31.78125 -0.27134,-1.43865 -22.35083,-32.92007 -23.78125,-33.90625 -0.36093,-0.24886 -5.95223,4.07478 -13.875,10.71875 l -13.25,11.09375 -18.125,26.59375 c -16.4178,24.04762 -18.32181,26.6003 -19.96875,26.90625 l -1.84375,0.34375 0.9375,-1.78125 c 0.50987,-0.97266 7.74088,-11.95538 16.0625,-24.40625 l 15.125,-22.625 -8.5,1.28125 -8.5,1.28125 2.28125,-1.71875 c 2.05355,-1.53992 3.20146,-1.90017 10.40625,-3.25 l 8.0625,-1.5 13.6875,-12.3125 c 9.21778,-8.29143 13.45592,-12.43738 13,-12.75 -0.3719,-0.25505 -2.97866,-0.0221 -5.78125,0.5 l -5.09375,0.9375 2.5,-1.78125 c 3.08629,-2.18938 4.97806,-2.56973 9.4375,-1.90625 1.91679,0.28518 3.86811,0.4575 4.3125,0.375 0.44439,-0.0826 3.58732,-2.99012 7,-6.46875 4.86731,-4.96141 8.83322,-8.77017 12.6875,-12 l -13.65625,0 -1.7e-4,0 z m 17.15625,0 c -3.58518,2.95899 -7.30888,6.42467 -11.90625,10.96875 -4.60504,4.55165 -8.4646,8.37961 -8.5625,8.5 -0.52866,0.64995 16.81894,25.4056 17.5625,25.0625 0.36751,-0.16958 2.58773,-3.10789 4.90625,-6.53125 4.53702,-6.69916 8.50499,-10.88573 15.0625,-15.84375 6.12597,-4.63177 10.11723,-6.65101 17.71875,-9 7.12511,-2.20177 11.72412,-4.69759 14.6875,-7.9375 1.4946,-1.6341 2.19558,-2.34832 1.0625,-5.21875 l -50.53125,0 z m -25.0625,28.21875 c 0.72837,-0.0127 1.37591,0.55824 1.71875,1.75 0.28043,0.97513 0.31283,2.34183 0.0937,3.03125 -0.6365,2.00277 -2.13828,2.94298 -3.375,2.09375 -1.45361,-0.99818 -1.70382,-2.97329 -0.625,-5.03125 0.63367,-1.20878 1.45913,-1.83106 2.1875,-1.84375 l 5e-5,0 z m -14.625,21.53125 c 2.72253,0.0144 5.17045,1.65841 6.9375,4.8125 1.99277,3.55688 1.86822,5.17476 -0.90625,11.4375 -7.75028,17.49394 -19.50868,42.3244 -20.28125,42.8125 -1.83132,1.15706 -5.96328,1.57628 -7.96875,0.8125 -3.53648,-1.34684 -4.45971,-2.82564 -5.9375,-9.5 l -1.3125,-6 5.25,-9.03125 c 2.8901,-4.96579 8.49128,-14.66679 12.4375,-21.5625 6.07566,-10.61663 7.45779,-12.65337 9,-13.25 0.95562,-0.36968 1.87374,-0.53604 2.78125,-0.53125 z m 2.625,5.9375 c -1.66536,0.27005 -3.97983,4.69128 -11.1875,18.53125 -5.31042,10.19693 -9.86744,19.1029 -10.125,19.8125 -0.61583,1.69639 0.0333,5.27155 1.0625,5.84375 0.44693,0.24857 1.57814,0.4219 2.53125,0.375 1.31928,-0.0649 1.97035,-0.47167 2.71875,-1.75 1.02208,-1.74558 10.62641,-21.82471 15.75,-32.90625 l 2.96875,-6.375 -1.46875,-1.8125 c -0.87882,-1.09736 -1.49302,-1.8415 -2.25,-1.71875 z m -178.53125,1.625 0,52.5 c 0,1.39829 1.98755,0.27787 3.25,0.4375 2.13419,0.26988 8.83613,1.79725 14.90625,3.40625 17.7262,4.69871 39.32736,13.89439 54.0625,23 3.04309,1.88048 5.73083,3.30519 6,3.15625 0.54132,-0.29956 6.86395,-17.57864 11.09375,-30.34375 l 2.71875,-8.21875 -1.5,-1.3125 c -4.57845,-4.0205 -22.53126,-16.37512 -30.375,-20.90625 -9.2561,-5.34703 -15.77345,-8.02724 -35.1875,-14.5 -10.10937,-3.37053 -17.1048,-5.61543 -24.96875,-7.21875 z m 135.21875,36.96875 1.53125,1.25 c 0.85382,0.68593 1.66891,1.88332 1.8125,2.65625 0.34335,1.84825 -0.5875,4.80059 -1.8125,5.78125 -1.26253,1.01069 -1.70076,1.07641 -3.03125,0.4375 -1.29504,-0.62186 -2.17302,-3.86029 -1.5625,-5.78125 0.23219,-0.73053 0.99349,-2.01782 1.71875,-2.84375 l 1.34375,-1.5 z m 35,42.0625 c 0.74632,-0.13235 1.37388,0.20646 2.5625,1.125 1.0593,0.81859 2.04265,2.12636 2.1875,2.90625 0.38807,2.08881 -0.48312,5.40458 -1.65625,6.34375 -1.48016,1.18488 -2.42389,1.22518 -4.34375,0.21875 -1.3543,-0.70993 -1.77702,-1.37671 -2.125,-3.25 -0.54462,-2.9462 0.63148,-6.17793 2.5625,-7.0625 0.29853,-0.13676 0.56373,-0.23713 0.8125,-0.28125 z m 17.09375,19.90625 -18.1875,19.875 c -10.82664,11.82047 -18.14268,20.2181 -18.03125,20.75 0.28699,1.37382 0.38525,1.46772 27.09375,26.6875 13.8035,13.03409 27.4382,26.03696 30.3125,28.875 2.8743,2.83803 5.30795,5.1432 5.40625,5.125 0.17961,-0.0334 -6.66375,-16.91656 -11.75,-29 -1.50205,-3.56843 -2.98893,-7.13411 -3.3125,-7.90625 -0.70953,-1.6931 0.36116,-6.95924 1.8125,-8.90625 0.55665,-0.74692 3.39627,-2.7705 6.28125,-4.5 7.09722,-4.25474 22.25083,-14.21057 22.75,-14.9375 0.23125,-0.33685 -1.50065,-3.21476 -4.03125,-6.78125 -3.6586,-5.15617 -4.4918,-6.74495 -4.96875,-9.3125 -0.51483,-2.77128 -0.42854,-3.24609 0.84375,-4.5625 1.8446,-1.90862 4.58404,-2.37308 7.84375,-1.34375 6.65579,2.10184 18.78958,8.3549 32.6875,16.875 l 15.15625,9.28125 -0.1875,-1.90625 c -0.14073,-1.61668 -0.52792,-2.09524 -2.625,-3.25 -1.35937,-0.74855 -7.61735,-4.31748 -13.90625,-7.9375 -13.2238,-7.61199 -33.42404,-17.76067 -36.96875,-18.5625 -1.33876,-0.30283 -7.09707,-1.58636 -12.78125,-2.84375 -5.68425,-1.25739 -13.27025,-3.05584 -16.875,-4 l -6.5625,-1.71875 z m 39.09375,17.375 c -0.13157,0.0245 -0.54024,0.75048 -0.90625,1.625 -0.64686,1.5455 -0.52765,1.75741 3.65625,7.1875 2.36739,3.07256 5.6062,6.75355 7.21875,8.1875 1.61246,1.43398 9.78864,6.49832 18.15625,11.25 8.36768,4.75169 15.40544,8.54176 15.625,8.40625 0.21955,-0.1355 1.40787,-2.03186 2.65625,-4.1875 1.93751,-3.34544 2.20093,-4.20156 1.75,-5.90625 -0.49164,-1.85875 -1.63742,-2.66467 -16.5625,-11.46875 -14.93575,-8.81036 -22.38508,-12.51839 -28.75,-14.375 -1.42722,-0.41631 -2.71204,-0.74315 -2.84375,-0.71875 z m 92.84375,1.03125 c -1.91944,3.52509 -3.29965,5.83566 -3.75,6.15625 -1.47936,1.05311 -5.68339,1.55288 -7.8125,0.90625 -0.67954,-0.20639 -2.79858,-1.31493 -4.71875,-2.4375 -5.81113,-3.39744 -7.32758,-3.93261 -9.65625,-3.5 -4.28515,0.79604 -5.52416,2.47535 -10.46875,14.1875 -6.13592,14.53409 -19.82104,47.57997 -26.375,63.75 -3.30258,8.14814 -7.63448,18.61301 -9.625,23.25 l -3.59375,8.4375 4.6875,5.9375 c 6.10192,7.69209 8.59497,10.33147 15.5625,16.46875 8.41169,7.4094 14.25666,10.86997 24.21875,14.34375 6.31171,2.20088 16.50388,3.8989 17.0625,2.84375 0.77416,-1.46211 7.35805,-23.55111 14.46875,-47.9375 l 0,-102.40625 z m -205.875,0.59375 c -2.16595,0.13921 -3.97954,1.44575 -5.84375,4.03125 -1.8693,2.59259 -60.76065,108.78507 -60.65625,109.375 0.0331,0.18735 1.66339,0.86466 3.625,1.5 1.96164,0.63509 3.80018,1.02067 4.09375,0.875 0.29356,-0.14561 11.78224,-22.32625 25.53125,-49.28125 13.74901,-26.95502 25.91253,-50.75311 27.03125,-52.90625 1.76944,-3.40564 2.70208,-4.41883 7.21875,-7.84375 l 5.21875,-3.9375 -1.84375,-0.8125 c -1.64759,-0.72569 -3.07543,-1.08353 -4.375,-1 z m 12.3125,6.09375 c -0.71983,0.0514 -1.72379,0.40907 -3.65625,1.125 -9.07606,3.36249 -6.85068,0.36821 -21.65625,29.34375 -7.26783,14.22364 -19.10426,37.34618 -26.28125,51.375 l -13.03125,25.5 0.625,5.5 c 0.69734,6.11754 1.2946,7.45812 5.25,11.40625 3.87642,3.8694 8.28151,10.51241 9.65625,14.5625 2.86243,8.4329 3.08761,13.36272 0.84375,18.65625 -0.78463,1.8512 -0.91565,2.9621 -0.46875,3.9375 0.34201,0.7466 0.70222,1.3325 0.8125,1.3125 0.11031,-0.0204 3.75224,-2.647 8.09375,-5.8125 9.16609,-6.68328 15.43129,-13.12751 22.875,-23.5625 10.11508,-14.17984 20.59048,-32.52079 24.09375,-42.1875 0.66292,-1.82907 3.98926,-10.96288 7.40625,-20.3125 3.65648,-10.00464 6.33125,-18.30001 6.5,-20.15625 0.73655,-8.10545 0.5993,-18.58729 -0.3125,-23.71875 -0.94851,-5.33772 -0.96441,-5.39647 -4.6875,-10.21875 -5.7084,-7.39368 -12.2446,-14.81343 -14.09375,-16 -0.81023,-0.51992 -1.24892,-0.80144 -1.96875,-0.75 z m 107.5,15.53125 c -0.23074,0.0141 -0.43599,0.047 -0.6875,0.0937 -1.01086,0.18778 -7.6445,3.91533 -14.75,8.28125 -7.1055,4.36589 -13.17252,7.97625 -13.46875,8.03125 -0.29609,0.055 -0.65036,1.1171 -0.78125,2.34375 -0.21287,1.99551 0.74823,4.56573 9.1875,24.3125 5.18762,12.13829 9.74081,22.58798 10.125,23.21875 0.3842,0.63076 3.08558,2.04627 5.96875,3.15625 2.88309,1.10997 7.09833,2.86946 9.375,3.90625 2.27669,1.03676 4.28168,1.8436 4.46875,1.8125 0.40992,-0.0686 23.92741,-55.06553 24.09375,-56.34375 0.078,-0.60151 -3.71577,-3.05638 -11.5625,-7.46875 C 600.7144,818.18273 598.4969,816.93824 596.8817,817.0373 l 0,5e-5 z M 482.97545,829.5686 c 2.73443,-0.30633 13.18125,4.63218 17.9375,8.625 4.99509,4.19323 6.28211,6.148 6.5,9.8125 0.10063,1.69181 0.0311,3.20971 -0.15625,3.375 -0.18734,0.16528 -1.50221,-1.11013 -2.9375,-2.8125 -3.46877,-4.11411 -11.37862,-9.46637 -18.21875,-12.34375 l -5.53125,-2.34375 0.6875,-1.90625 c 0.37423,-1.05044 0.95025,-2.07283 1.28125,-2.28125 0.10956,-0.069 0.2552,-0.10458 0.4375,-0.125 z m -6.84375,12.59375 4.15625,0.90625 c 2.29986,0.50996 5.76909,1.58372 7.6875,2.375 3.95778,1.63241 12.22329,7.57688 14.40625,10.34375 1.30414,1.65308 1.42259,2.08152 1.125,4.25 -0.6521,4.79768 -1.01353,4.87067 -4.1875,0.84375 -1.57963,-2.00414 -4.10506,-4.61307 -5.59375,-5.78125 -2.68325,-2.10555 -12.7975,-6.74278 -17.21875,-7.90625 -1.26413,-0.33266 -2.31115,-0.76244 -2.34375,-0.9375 -0.0309,-0.17534 0.38009,-1.1766 0.9375,-2.21875 l 1.03125,-1.875 z m -5.40625,11.6875 c 0.4646,-0.0863 3.10529,0.53654 5.875,1.375 6.99799,2.11846 15.92619,8.19293 20.15625,13.71875 l 3,3.9375 -0.84375,1.75 c -0.47636,0.96713 -1.12239,1.90539 -1.40625,2.0625 -0.28395,0.15711 -2.77077,-2.00742 -5.53125,-4.78125 -5.34943,-5.37548 -8.61756,-7.44092 -18.21875,-11.59375 l -5.46875,-2.375 0.78125,-1.96875 c 0.43317,-1.08217 1.19164,-2.0387 1.65625,-2.125 z m -7.3125,13.96875 2.9375,0.53125 c 4.77041,0.84573 9.50446,2.32845 13.25,4.1875 3.7885,1.88038 10.3552,7.31296 13.375,11.03125 l 1.875,2.3125 -1.15625,2.6875 -1.125,2.71875 -4.15625,-4.34375 c -6.6576,-6.9859 -12.95382,-10.68123 -22.09375,-12.9375 -4.47774,-1.10537 -5.18972,-1.97548 -3.71875,-4.6875 l 0.8125,-1.5 z m -6.1875,13.625 c 0.49725,-0.0924 3.26166,0.46473 6.15625,1.25 7.07675,1.91987 15.14474,7.38541 19.90625,13.5 1.7783,2.28357 3.2938,4.53169 3.375,4.96875 0.0812,0.43706 -0.45229,1.6332 -1.1875,2.65625 l -1.34375,1.84375 -3.84375,-4.3125 c -4.93427,-5.54642 -9.11082,-8.45332 -17.5,-12.125 -8.45235,-3.69934 -8.51406,-3.73343 -7.375,-5.90625 0.49185,-0.93826 1.31524,-1.7826 1.8125,-1.875 z m -5.375,11.65625 c 0.76155,0.0393 1.81187,0.31504 3.3125,0.75 5.31727,1.54119 13.75931,7.85974 19.34375,14.5 l 4.75,5.65625 -1.40625,2.625 c -0.7769,1.44511 -1.43975,2.60805 -1.46875,2.59375 -0.0291,-0.014 -1.34409,-1.79937 -2.9375,-3.96875 -4.30504,-5.86124 -12.86624,-13.20028 -17.875,-15.3125 -2.24781,-0.94791 -4.66705,-2.10762 -5.375,-2.59375 -1.21919,-0.83715 -1.26763,-0.96445 -0.625,-2.5 0.53155,-1.27006 1.012,-1.81547 2.28125,-1.75 z m 152.9375,18.65625 c -0.22746,0.0524 -0.87207,1.29245 -1.4375,2.75 -0.5655,1.45756 -2.04522,5.16597 -3.28125,8.25 -1.57863,3.93898 -2.15271,6.17299 -1.90625,7.5 0.40856,2.1992 6.24416,12.18942 9.90625,17 3.66701,4.81701 13.24039,13.7353 18.15625,16.875 2.33488,1.4913 5.94528,3.3464 8,4.125 4.23971,1.6065 4.46993,1.55155 10.15625,-2.59375 3.77929,-2.7551 5.59783,-3.32955 6.28125,-1.96875 0.25771,0.5133 1.13526,2.8966 1.9375,5.3125 2.57911,7.7662 2.15823,7.2705 7.03125,8.5625 2.41714,0.6408 4.42215,1.19875 4.46875,1.21875 0.31401,0.1324 2.9014,-26.31721 2.6875,-27.46875 -0.10016,-0.53903 -1.87114,-1.01496 -5.15625,-1.40625 -8.11418,-0.96646 -24.20901,-8.22685 -34.15625,-15.40625 -6.17628,-4.45773 -14.23656,-12.29138 -18.875,-18.375 -1.87357,-2.45738 -3.5849,-4.4272 -3.8125,-4.375 z m 78.15625,5.34375 c -0.5884,1.81364 -1.32792,4.13656 -1.8125,5.59375 -3.36107,10.10719 -5.26637,17.22208 -6.8125,25.1875 -1.90541,9.81621 -4.54734,24.5876 -5,27.9375 -0.18184,1.3459 0.17837,0.75281 12.4375,-19.1875 0.47699,-0.77586 0.75463,-1.26007 1.1875,-1.96875 l 0,-37.5625 z m -278.09375,1.15625 c -0.10825,0.15767 0.79012,1.37707 2,2.6875 3.25672,3.52725 4.36745,5.94735 4.75,10.3125 0.18215,2.07805 0.31235,4.44084 0.28125,5.28125 -0.0492,1.33066 0.28303,1.66328 2.6875,2.53125 2.04138,0.73687 3.39995,1.79055 5.1875,4.03125 3.20859,4.02213 6.54513,9.5873 6.90625,11.53125 0.1601,0.86177 -0.11657,4.29835 -0.59375,7.65625 -0.97623,6.8698 -1.00077,6.85845 3.59375,4.09375 3.45763,-2.0806 6.21224,-6.28761 6.8125,-10.40625 0.82603,-5.66792 -1.62022,-13.44198 -6.09375,-19.3125 -2.64078,-3.46543 -9.65669,-9.9527 -13.25,-12.28125 -3.28145,-2.12646 -12.02669,-6.49565 -12.28125,-6.125 z m 5.34375,23.875 -2.375,4.625 c -3.8346,7.47172 -10.06068,18.98615 -14.625,27.03125 -6.47345,11.4101 -6.15402,10.25975 -3.875,13.46875 3.02541,4.2599 4.54058,5.42945 8.59375,6.59375 4.2683,1.2262 6.9561,0.98025 8.375,-0.78125 1.24647,-1.5475 14.15744,-30.2543 14.53125,-32.3125 0.51076,-2.8124 -0.51925,-5.97774 -3.59375,-11.15625 -2.13371,-3.594 -3.61493,-5.44146 -5.03125,-6.28125 l -2,-1.1875 z"
       id="path3620"
       sodipodi:nodetypes="cscccscccccssccsssssssssssssssssscccssscccssssccccccsssccccccccccccccscccsssccccssssssccccsssccccssscccsscccssssccccccsssscccsscccssssccccssssscccssssssssssssscccssssccccsssssssscccssssscccsssccccsssssccccccscccssssssssssssscccssssssssssccccssscccscccsscsssscccccccssccccccscccccsccccsscccssccccccssssscccsssssssssssssscccsssccccsssssssssscccssssssccc" />
  </g>
</svg>
