<?xml version="1.0" encoding="UTF-8" standalone="no"?>
<!-- Created with Inkscape (http://www.inkscape.org/) -->

<svg
   xmlns:dc="http://purl.org/dc/elements/1.1/"
   xmlns:cc="http://creativecommons.org/ns#"
   xmlns:rdf="http://www.w3.org/1999/02/22-rdf-syntax-ns#"
   xmlns:svg="http://www.w3.org/2000/svg"
   xmlns="http://www.w3.org/2000/svg"
   xmlns:xlink="http://www.w3.org/1999/xlink"
   xmlns:sodipodi="http://sodipodi.sourceforge.net/DTD/sodipodi-0.dtd"
   xmlns:inkscape="http://www.inkscape.org/namespaces/inkscape"
   width="57"
   height="57"
   id="svg4691"
   version="1.1"
   inkscape:version="0.47 r22583"
   sodipodi:docname="compass.svg">
  <title
     id="title4746">Team Fortress 2 WinterBoard: Weather</title>
  <defs
     id="defs4693">
    <inkscape:perspective
       sodipodi:type="inkscape:persp3d"
       inkscape:vp_x="0 : 526.18109 : 1"
       inkscape:vp_y="0 : 1000 : 0"
       inkscape:vp_z="744.09448 : 526.18109 : 1"
       inkscape:persp3d-origin="372.04724 : 350.78739 : 1"
       id="perspective4699" />
    <inkscape:perspective
       id="perspective4677"
       inkscape:persp3d-origin="0.5 : 0.33333333 : 1"
       inkscape:vp_z="1 : 0.5 : 1"
       inkscape:vp_y="0 : 1000 : 0"
       inkscape:vp_x="0 : 0.5 : 1"
       sodipodi:type="inkscape:persp3d" />
    <inkscape:perspective
       id="perspective4756"
       inkscape:persp3d-origin="0.5 : 0.33333333 : 1"
       inkscape:vp_z="1 : 0.5 : 1"
       inkscape:vp_y="0 : 1000 : 0"
       inkscape:vp_x="0 : 0.5 : 1"
       sodipodi:type="inkscape:persp3d" />
    <inkscape:perspective
       id="perspective4851"
       inkscape:persp3d-origin="0.5 : 0.33333333 : 1"
       inkscape:vp_z="1 : 0.5 : 1"
       inkscape:vp_y="0 : 1000 : 0"
       inkscape:vp_x="0 : 0.5 : 1"
       sodipodi:type="inkscape:persp3d" />
    <inkscape:perspective
       id="perspective4900"
       inkscape:persp3d-origin="0.5 : 0.33333333 : 1"
       inkscape:vp_z="1 : 0.5 : 1"
       inkscape:vp_y="0 : 1000 : 0"
       inkscape:vp_x="0 : 0.5 : 1"
       sodipodi:type="inkscape:persp3d" />
    <linearGradient
       inkscape:collect="always"
       xlink:href="#linearGradient5030"
       id="linearGradient5129"
       gradientUnits="userSpaceOnUse"
       x1="410.35025"
       y1="314.85373"
       x2="414.24854"
       y2="310.50735" />
    <linearGradient
       inkscape:collect="always"
       id="linearGradient5030">
      <stop
         style="stop-color:#ffffff;stop-opacity:1;"
         offset="0"
         id="stop5032" />
      <stop
         style="stop-color:#ffffff;stop-opacity:0;"
         offset="1"
         id="stop5034" />
    </linearGradient>
    <clipPath
       clipPathUnits="userSpaceOnUse"
       id="clipPath4221">
      <path
         clip-path="none"
         id="path4223"
         d="m 350.71619,7.5327627 0.5,6.2500013 c 0.1259,0.21284 0.27878,0.40676 0.375,0.625 0.10068,0.22831 0.0565,0.48536 0.125,0.71875 0.0478,0.54251 0.18749,1.07147 0.1875,1.625 0,0.29868 -0.0797,0.5794 -0.0937,0.875 -0.0781,0.36206 -0.0642,0.71205 -0.21875,1.0625 -0.30449,0.69059 -0.76544,1.36528 -1.34375,2 -0.57829,0.63471 -1.27235,1.21667 -2.09375,1.78125 -0.8214,0.56457 -1.77873,1.11357 -2.8125,1.59375 -1.03379,0.48018 -2.15952,0.89973 -3.375,1.28125 -1.21549,0.38152 -2.50851,0.73138 -3.875,1 -1.36649,0.26861 -2.79445,0.48356 -4.28125,0.625 -1.48678,0.14143 -3.01736,0.1875 -4.59375,0.1875 -1.57639,0 -3.13821,-0.04608 -4.625,-0.1875 -1.48679,-0.14143 -2.91476,-0.3564 -4.28125,-0.625 -1.36648,-0.26861 -2.65952,-0.61848 -3.875,-1 -1.21548,-0.38152 -2.34123,-0.80108 -3.375,-1.28125 -1.03379,-0.48018 -1.99111,-1.02918 -2.8125,-1.59375 -0.82139,-0.56457 -1.51547,-1.14655 -2.09375,-1.78125 -0.57829,-0.63471 -1.03923,-1.30942 -1.34375,-2 -0.29585,-0.671 -0.42871,-1.35202 -0.4375,-2.0625 5.5e-4,-0.08277 0.0296,-0.16746 0.0312,-0.25 0.0228,-0.61377 0.11066,-1.22721 0.34375,-1.8125 l 0.65625,-6.2500013 c -14.72852,7.2167413 -24.75,21.2767213 -24.75,37.4375013 0,14.16064 7.7147,26.6987 19.53125,34.4375 -11.7661,-7.74752 -19.40625,-20.30544 -19.40625,-34.4375 0,-0.08593 0.0307,-0.16418 0.0312,-0.25 0.0183,1.47325 0.324,2.92112 0.9375,4.3125 0.6314,1.43199 1.55087,2.80888 2.75,4.125 1.19914,1.31612 2.67177,2.54806 4.375,3.71875 1.70323,1.17069 3.6376,2.28556 5.78125,3.28125 2.14365,0.99569 4.47958,1.89638 7,2.6875 2.52042,0.79112 5.22897,1.47427 8.0625,2.03125 2.83353,0.55698 5.79202,0.98798 8.875,1.28125 3.08298,0.29327 6.29373,0.4375 9.5625,0.4375 3.26877,0 6.44827,-0.14423 9.53125,-0.4375 3.08298,-0.29327 6.07272,-0.72427 8.90625,-1.28125 2.83353,-0.55698 5.51083,-1.24013 8.03125,-2.03125 2.52042,-0.79112 4.85635,-1.69181 7,-2.6875 2.14365,-0.99569 4.10927,-2.11056 5.8125,-3.28125 1.70323,-1.17069 3.14461,-2.40263 4.34375,-3.71875 1.19914,-1.31612 2.14985,-2.69301 2.78125,-4.125 0.32041,-0.72667 0.33815,-1.49923 0.5,-2.25 -0.0882,1.85802 -0.28368,3.6809 -0.625,5.46875 0.46332,-2.3702 0.71875,-4.78936 0.71875,-7.28125 0,-16.78071 -10.77593,-31.27856 -26.4375,-38.2187513 z m 25.71875,45.5000013 c -0.22324,1.16937 -0.48624,2.33394 -0.8125,3.46875 0.32968,-1.1281 0.5853,-2.30648 0.8125,-3.46875 z m -0.90625,3.71875 c -0.15153,0.51389 -0.32793,1.02507 -0.5,1.53125 0.17532,-0.50869 0.34527,-1.01482 0.5,-1.53125 z m -1.03125,3 c -0.24414,0.62724 -0.5067,1.26094 -0.78125,1.875 0.27425,-0.61697 0.53855,-1.24455 0.78125,-1.875 z m -72.28125,20.4375 c 2.14203,1.401147 4.38985,2.652347 6.78125,3.718747 -2.3834,-1.06993 -4.6475,-2.31541 -6.78125,-3.718747 z m 10.5,5.187497 c 1.24574,0.43966 2.51812,0.84269 3.8125,1.1875 -1.30092,-0.34916 -2.56116,-0.74239 -3.8125,-1.1875 z"
         style="fill:#b6343c;fill-opacity:1;fill-rule:evenodd;stroke:none" />
    </clipPath>
    <filter
       color-interpolation-filters="sRGB"
       inkscape:collect="always"
       id="filter4969"
       x="-0.052747332"
       width="1.1054947"
       y="-0.19039562"
       height="1.3807913">
      <feGaussianBlur
         inkscape:collect="always"
         stdDeviation="2.0499811"
         id="feGaussianBlur4971" />
    </filter>
    <inkscape:perspective
       id="perspective4991"
       inkscape:persp3d-origin="0.5 : 0.33333333 : 1"
       inkscape:vp_z="1 : 0.5 : 1"
       inkscape:vp_y="0 : 1000 : 0"
       inkscape:vp_x="0 : 0.5 : 1"
       sodipodi:type="inkscape:persp3d" />
    <inkscape:perspective
       id="perspective5070"
       inkscape:persp3d-origin="0.5 : 0.33333333 : 1"
       inkscape:vp_z="1 : 0.5 : 1"
       inkscape:vp_y="0 : 1000 : 0"
       inkscape:vp_x="0 : 0.5 : 1"
       sodipodi:type="inkscape:persp3d" />
    <inkscape:perspective
       id="perspective5104"
       inkscape:persp3d-origin="0.5 : 0.33333333 : 1"
       inkscape:vp_z="1 : 0.5 : 1"
       inkscape:vp_y="0 : 1000 : 0"
       inkscape:vp_x="0 : 0.5 : 1"
       sodipodi:type="inkscape:persp3d" />
    <inkscape:perspective
       id="perspective5227"
       inkscape:persp3d-origin="0.5 : 0.33333333 : 1"
       inkscape:vp_z="1 : 0.5 : 1"
       inkscape:vp_y="0 : 1000 : 0"
       inkscape:vp_x="0 : 0.5 : 1"
       sodipodi:type="inkscape:persp3d" />
    <inkscape:perspective
       id="perspective5326"
       inkscape:persp3d-origin="0.5 : 0.33333333 : 1"
       inkscape:vp_z="1 : 0.5 : 1"
       inkscape:vp_y="0 : 1000 : 0"
       inkscape:vp_x="0 : 0.5 : 1"
       sodipodi:type="inkscape:persp3d" />
    <inkscape:perspective
       id="perspective5375"
       inkscape:persp3d-origin="0.5 : 0.33333333 : 1"
       inkscape:vp_z="1 : 0.5 : 1"
       inkscape:vp_y="0 : 1000 : 0"
       inkscape:vp_x="0 : 0.5 : 1"
       sodipodi:type="inkscape:persp3d" />
    <inkscape:perspective
       id="perspective5419"
       inkscape:persp3d-origin="0.5 : 0.33333333 : 1"
       inkscape:vp_z="1 : 0.5 : 1"
       inkscape:vp_y="0 : 1000 : 0"
       inkscape:vp_x="0 : 0.5 : 1"
       sodipodi:type="inkscape:persp3d" />
    <inkscape:perspective
       id="perspective5523"
       inkscape:persp3d-origin="0.5 : 0.33333333 : 1"
       inkscape:vp_z="1 : 0.5 : 1"
       inkscape:vp_y="0 : 1000 : 0"
       inkscape:vp_x="0 : 0.5 : 1"
       sodipodi:type="inkscape:persp3d" />
  </defs>
  <sodipodi:namedview
     id="base"
     pagecolor="#ffffff"
     bordercolor="#666666"
     borderopacity="1.0"
     inkscape:pageopacity="0.0"
     inkscape:pageshadow="2"
     inkscape:zoom="3.959798"
     inkscape:cx="-48.035953"
     inkscape:cy="40.458869"
     inkscape:document-units="px"
     inkscape:current-layer="flowRoot5763-2-4-2"
     showgrid="false"
     inkscape:window-width="1920"
     inkscape:window-height="1018"
     inkscape:window-x="-8"
     inkscape:window-y="-8"
     inkscape:window-maximized="1" />
  <metadata
     id="metadata4696">
    <rdf:RDF>
      <cc:Work
         rdf:about="">
        <dc:format>image/svg+xml</dc:format>
        <dc:type
           rdf:resource="http://purl.org/dc/dcmitype/StillImage" />
        <dc:title>Team Fortress 2 WinterBoard: Weather</dc:title>
      </cc:Work>
    </rdf:RDF>
  </metadata>
  <g
     inkscape:label="Layer 1"
     inkscape:groupmode="layer"
     id="layer1"
     transform="translate(-334.35714,-455.29075)">
    <g
       id="g3181"
       transform="translate(54.971573,163.32366)"
       inkscape:export-filename="C:\Users\Lasse\Documents\My Dropbox\Public\iconmontage.png"
       inkscape:export-xdpi="349.72098"
       inkscape:export-ydpi="349.72098">
      <g
         style="font-size:10.31457615px;font-style:normal;font-variant:normal;font-weight:normal;font-stretch:normal;text-align:start;line-height:125%;writing-mode:lr-tb;text-anchor:start;fill:#ffffff;fill-opacity:1;stroke:none;font-family:TF2 Build;-inkscape-font-specification:TF2 Build"
         id="text4536-8">
        <g
           id="g5166"
           transform="translate(-44.483523,2.6884599)">
          <g
             inkscape:export-ydpi="349"
             inkscape:export-xdpi="349"
             inkscape:export-filename="C:\Users\Lasse\Documents\My Dropbox\Public\iconmontage.png"
             id="flowRoot5763-2-4-2"
             style="font-size:40px;font-style:normal;font-weight:normal;fill:#f6e7c1;fill-opacity:1;stroke:none;font-family:Bitstream Vera Sans"
             inkscape:transform-center-y="-3.5279857"
             transform="matrix(-0.30942042,-0.30942042,0.30942042,-0.30942042,344.48308,554.92556)">
            <g
               id="g5395"
               transform="matrix(-1.6159244,1.6159244,-1.6159244,-1.6159244,1688.6515,444.27965)">
              <g
                 style="fill:#f6e7c1;fill-opacity:1"
                 inkscape:export-ydpi="349"
                 inkscape:export-xdpi="349"
                 inkscape:export-filename="C:\Users\Lasse\Documents\My Dropbox\Public\iconmontage.png"
                 transform="translate(145.67005,11.213335)"
                 id="g6447-3-9">
                <path
                   clip-rule="evenodd"
                   d="m 229.88596,384.84937 h 34.72808 c 5.18387,0 9.38596,4.20209 9.38596,9.38596 v 34.72807 c 0,5.18386 -4.20209,9.38597 -9.38596,9.38597 h -34.72808 c -5.18386,0 -9.38596,-4.2021 -9.38596,-9.38597 v -34.72807 c 0,-5.18386 4.2021,-9.38596 9.38596,-9.38596 z"
                   id="path3774-0-4-5-7-6-1-5-8-6"
                   style="fill:#5a5a5a;fill-opacity:1;fill-rule:evenodd"
                   inkscape:export-filename="C:\Users\Lasse\Documents\My Dropbox\Public\iconmontage.png"
                   inkscape:export-xdpi="349"
                   inkscape:export-ydpi="349" />
                <path
                   id="path3774-0-4-5-7-6-3-1-0-3-3"
                   d="m 228.75,383.11218 c -5.523,0 -10,4.477 -10,10 l 0,37 c 0,5.52301 4.477,10 10,10 l 37,0 c 5.523,0 10,-4.47699 10,-10 l 0,-37 c 0,-5.523 -4.477,-10 -10,-10 l -37,0 z m 2.875,4.40625 31.25,0 c 4.66772,0 8.46875,3.76979 8.46875,8.4375 l 0,31.28125 c 0,4.66772 -3.80103,8.4375 -8.46875,8.4375 l -31.25,0 c -4.66771,0 -8.46875,-3.76978 -8.46875,-8.4375 l 0,-31.28125 c 0,-4.66771 3.80104,-8.4375 8.46875,-8.4375 z"
                   style="fill:#f4722b;fill-opacity:1;fill-rule:evenodd"
                   inkscape:export-filename="C:\Users\Lasse\Documents\My Dropbox\Public\iconmontage.png"
                   inkscape:export-xdpi="349"
                   inkscape:export-ydpi="349" />
              </g>
              <g
                 id="g4649"
                 transform="translate(0.90310335,-1.0397253)">
                <g
                   id="g5510">
                  <g
                     id="g4660"
                     transform="translate(-0.57219617,0)">
                    <path
                       sodipodi:nodetypes="cssssssssssssssc"
                       id="path5316-7"
                       d="m 377.22188,438.24721 c 0.005,-0.009 0.55394,-0.50136 1.21743,-1.09375 1.26925,-1.13326 2.48652,-2.22733 2.49899,-2.24607 0.004,-0.005 -0.47376,-0.23348 -1.06181,-0.50525 -0.58806,-0.27176 -1.07109,-0.50353 -1.0734,-0.51504 -0.005,-0.0277 0.17428,-0.24139 1.57977,-1.87673 1.05789,-1.23091 2.35044,-2.74308 2.98363,-3.49061 0.12158,-0.14357 0.2233,-0.26338 0.22599,-0.26627 0.003,-0.004 1.07213,0.7043 2.37656,1.5715 1.30443,0.86722 2.36222,1.58332 2.35066,1.59133 -0.0115,0.008 -0.63154,0.27293 -1.3777,0.58864 -3.0591,1.29437 -4.00925,1.69998 -4.00711,1.71059 0.002,0.0108 0.41516,0.22924 1.44444,0.76409 0.26881,0.1397 0.49519,0.26288 0.50303,0.27377 0.008,0.0109 -1.67903,0.79132 -3.74864,1.73428 -3.76011,1.71321 -3.93265,1.79082 -3.91185,1.75954 z"
                       style="fill:#f4722b;fill-opacity:1"
                       transform="translate(-3.5e-7,3.3e-6)" />
                    <g
                       id="g4645"
                       transform="matrix(0.53169848,0,0,0.53169848,176.76575,197.35421)">
                      <path
                         sodipodi:nodetypes="csccccccccccccccc"
                         id="path3798-4-0"
                         d="m 425.39483,422.64256 c 0,0 6.35206,-1.0268 9.28125,1.75 2.91857,2.76673 2.71875,3.375 2.71875,3.375 1.28664,-0.73757 2.06321,-0.56804 2.40625,0.87505 2.72389,-1.33988 6.43562,0.40088 3.73437,3.22656 -0.63858,3.06032 -3.79698,3.42131 -6.51562,3.52344 0,0 1.71875,2.25 0.25,2.90625 -1.28971,0.80494 -2.4186,0.55245 -3.53125,0.0937 -0.59154,1.95494 -2.14509,1.84233 -3.875,1.81255 -3.31344,1.8413 -7.30184,1.22941 -9.96875,-1.4375 -3.07394,1.08395 -5.26264,-0.0743 -7.21876,-2.1875 -4.18935,2.46678 -8.70114,-1.00074 -3.90625,-4.375 0,0 -1.4375,-0.8125 -1.21875,-2.28125 1.20495,-3.23927 3.71951,-3.57797 7,-3.15625 0.51357,-1.06447 1.14159,-1.24498 2.46876,-1.0625 0.278,-3.05259 3.584,-5.19518 8.375,-3.0626 l 0,5e-5 z"
                         style="fill:#f6e7c1;fill-opacity:1;stroke:#f6e7c1;stroke-width:5.64229584;stroke-miterlimit:4;stroke-opacity:1;stroke-dasharray:none" />
                      <path
                         sodipodi:nodetypes="csccccccccccccccc"
                         id="path3798-9"
                         d="m 425.39484,422.64256 c 0,0 6.35206,-1.0268 9.28125,1.75 2.91857,2.76673 2.71875,3.375 2.71875,3.375 1.28664,-0.73757 2.06321,-0.56804 2.40625,0.87505 2.72389,-1.33988 6.43562,0.40088 3.73437,3.22656 -0.63858,3.06032 -3.79698,3.42131 -6.51562,3.52344 0,0 1.71875,2.25 0.25,2.90625 -1.28971,0.80494 -2.4186,0.55245 -3.53125,0.0937 -0.59154,1.95494 -2.14509,1.84233 -3.875,1.81255 -3.31344,1.8413 -7.30184,1.22941 -9.96875,-1.4375 -3.07394,1.08395 -5.26264,-0.0743 -7.21876,-2.1875 -4.18935,2.46678 -8.70114,-1.00074 -3.90625,-4.375 0,0 -1.4375,-0.8125 -1.21875,-2.28125 1.20495,-3.23927 3.71951,-3.57797 7,-3.15625 0.51357,-1.06447 1.14159,-1.24498 2.46876,-1.0625 0.278,-3.05259 3.584,-5.19518 8.375,-3.0626 l 0,5e-5 z"
                         style="fill:#5a5a5a;fill-opacity:1;stroke:none" />
                    </g>
                    <g
                       id="g4641"
                       transform="translate(-1.5909903,-1.2374369)">
                      <path
                         sodipodi:nodetypes="csccccccccccccccc"
                         id="path3798-4"
                         d="m 392.3652,413.07577 c 0,0 6.35206,-1.0268 9.28125,1.75 2.91857,2.76673 2.71875,3.375 2.71875,3.375 1.28664,-0.73757 2.06321,-0.56804 2.40625,0.87505 2.72389,-1.33988 6.43562,0.40088 3.73437,3.22656 -0.63858,3.06032 -3.79698,3.42131 -6.51562,3.52344 0,0 1.71875,2.25 0.25,2.90625 -1.28971,0.80494 -2.4186,0.55245 -3.53125,0.0937 -0.59154,1.95494 -2.14509,1.84233 -3.875,1.81255 -3.31344,1.8413 -7.30184,1.22941 -9.96875,-1.4375 -3.07394,1.08395 -5.26264,-0.0743 -7.21876,-2.1875 -4.18935,2.46678 -8.70114,-1.00074 -3.90625,-4.375 0,0 -1.4375,-0.8125 -1.21875,-2.28125 1.20495,-3.23927 3.71951,-3.57797 7,-3.15625 0.51357,-1.06447 1.14159,-1.24498 2.46876,-1.0625 0.278,-3.05259 3.584,-5.19518 8.375,-3.0626 l 0,5e-5 z"
                         style="fill:#f6e7c1;fill-opacity:1;stroke:#f6e7c1;stroke-width:3;stroke-miterlimit:4;stroke-opacity:1;stroke-dasharray:none" />
                      <path
                         sodipodi:nodetypes="csccccccccccccccc"
                         id="path3798"
                         d="m 392.36521,413.07577 c 0,0 6.35206,-1.0268 9.28125,1.75 2.91857,2.76673 2.71875,3.375 2.71875,3.375 1.28664,-0.73757 2.06321,-0.56804 2.40625,0.87505 2.72389,-1.33988 6.43562,0.40088 3.73437,3.22656 -0.63858,3.06032 -3.79698,3.42131 -6.51562,3.52344 0,0 1.71875,2.25 0.25,2.90625 -1.28971,0.80494 -2.4186,0.55245 -3.53125,0.0937 -0.59154,1.95494 -2.14509,1.84233 -3.875,1.81255 -3.31344,1.8413 -7.30184,1.22941 -9.96875,-1.4375 -3.07394,1.08395 -5.26264,-0.0743 -7.21876,-2.1875 -4.18935,2.46678 -8.70114,-1.00074 -3.90625,-4.375 0,0 -1.4375,-0.8125 -1.21875,-2.28125 1.20495,-3.23927 3.71951,-3.57797 7,-3.15625 0.51357,-1.06447 1.14159,-1.24498 2.46876,-1.0625 0.278,-3.05259 3.584,-5.19518 8.375,-3.0626 l 0,5e-5 z"
                         style="fill:#5a5a5a;fill-opacity:1;stroke:none" />
                    </g>
                  </g>
                </g>
              </g>
            </g>
          </g>
        </g>
      </g>
    </g>
  </g>
</svg>
