<?xml version="1.0" encoding="UTF-8" standalone="no"?>
<!-- Created with Inkscape (http://www.inkscape.org/) -->

<svg
   xmlns:dc="http://purl.org/dc/elements/1.1/"
   xmlns:cc="http://creativecommons.org/ns#"
   xmlns:rdf="http://www.w3.org/1999/02/22-rdf-syntax-ns#"
   xmlns:svg="http://www.w3.org/2000/svg"
   xmlns="http://www.w3.org/2000/svg"
   xmlns:sodipodi="http://sodipodi.sourceforge.net/DTD/sodipodi-0.dtd"
   xmlns:inkscape="http://www.inkscape.org/namespaces/inkscape"
   width="57"
   height="57"
   id="svg43379"
   version="1.1"
   inkscape:version="0.47 r22583"
   sodipodi:docname="words-with-friends-free.svg">
  <title
     id="title43468">Team Fortress 2 WinterBoard: Words with Friends</title>
  <defs
     id="defs43381">
    <inkscape:perspective
       sodipodi:type="inkscape:persp3d"
       inkscape:vp_x="0 : 526.18109 : 1"
       inkscape:vp_y="0 : 1000 : 0"
       inkscape:vp_z="744.09448 : 526.18109 : 1"
       inkscape:persp3d-origin="372.04724 : 350.78739 : 1"
       id="perspective43387" />
    <inkscape:perspective
       id="perspective43348"
       inkscape:persp3d-origin="0.5 : 0.33333333 : 1"
       inkscape:vp_z="1 : 0.5 : 1"
       inkscape:vp_y="0 : 1000 : 0"
       inkscape:vp_x="0 : 0.5 : 1"
       sodipodi:type="inkscape:persp3d" />
    <inkscape:perspective
       id="perspective43478"
       inkscape:persp3d-origin="0.5 : 0.33333333 : 1"
       inkscape:vp_z="1 : 0.5 : 1"
       inkscape:vp_y="0 : 1000 : 0"
       inkscape:vp_x="0 : 0.5 : 1"
       sodipodi:type="inkscape:persp3d" />
  </defs>
  <sodipodi:namedview
     id="base"
     pagecolor="#ffffff"
     bordercolor="#666666"
     borderopacity="1.0"
     inkscape:pageopacity="0.0"
     inkscape:pageshadow="2"
     inkscape:zoom="2.8"
     inkscape:cx="95.116937"
     inkscape:cy="-12.002928"
     inkscape:document-units="px"
     inkscape:current-layer="layer1"
     showgrid="false"
     inkscape:window-width="1920"
     inkscape:window-height="1018"
     inkscape:window-x="-8"
     inkscape:window-y="-8"
     inkscape:window-maximized="1" />
  <metadata
     id="metadata43384">
    <rdf:RDF>
      <cc:Work
         rdf:about="">
        <dc:format>image/svg+xml</dc:format>
        <dc:type
           rdf:resource="http://purl.org/dc/dcmitype/StillImage" />
        <dc:title>Team Fortress 2 WinterBoard: Words with Friends</dc:title>
      </cc:Work>
    </rdf:RDF>
  </metadata>
  <g
     inkscape:label="Layer 1"
     inkscape:groupmode="layer"
     id="layer1"
     transform="translate(-454.35714,-583.86218)">
    <path
       inkscape:export-ydpi="349"
       inkscape:export-xdpi="349"
       inkscape:export-filename="C:\Users\Lasse\Documents\My Dropbox\Public\iconmontage.png"
       style="font-size:10.31457615000000100px;font-style:normal;font-variant:normal;font-weight:normal;font-stretch:normal;text-align:start;line-height:125%;writing-mode:lr-tb;text-anchor:start;fill:#89411d;fill-opacity:1;fill-rule:evenodd;stroke:none;font-family:TF2 Build;-inkscape-font-specification:TF2 Build"
       id="path3774-0-3-10-84-4"
       d="m 464.35714,583.86218 h 37 c 5.523,0 10,4.477 10,10 v 37 c 0,5.523 -4.477,10 -10,10 h -37 c -5.523,0 -10,-4.477 -10,-10 v -37 c 0,-5.523 4.477,-10 10,-10 z"
       clip-rule="evenodd" />
    <rect
       style="fill:#5a5a5a;fill-opacity:1;stroke:#f4722b;stroke-width:1.23184991000000000;stroke-miterlimit:4;stroke-opacity:1;stroke-dasharray:none"
       id="rect43187"
       width="20.78747"
       height="20.78747"
       x="181.2907"
       y="733.69073"
       rx="2.3097186"
       ry="2.3097186"
       transform="matrix(0.91481573,-0.40387149,0.40387149,0.91481573,0,0)" />
    <path
       id="path43466"
       style="font-size:40px;font-style:normal;font-weight:normal;line-height:125%;letter-spacing:0;word-spacing:0;fill:#f6e7c1;fill-opacity:1;stroke:none;font-family:TF2 Build;-inkscape-font-specification:TF2 Build"
       d="m 478.42852,605.78571 -1.16742,-6.83089 2.38174,-0.57577 1.52142,9.84084 -2.17629,0.68783 -3.66047,-4.59946 0.49193,6.39604 -2.29735,1.01423 -6.21391,-8.10455 2.45562,-1.45064 3.74622,5.07632 -0.75053,-6.39885 1.42608,-0.49701 z" />
    <path
       id="path43457"
       style="font-size:7.06733513px;font-style:normal;font-weight:normal;line-height:125%;letter-spacing:0;word-spacing:0;fill:#f6e7c1;fill-opacity:1;stroke:none;font-family:TF2 Build;-inkscape-font-specification:TF2 Build"
       d="m 479.51814,596.12029 -0.26887,-0.40034 c 0.10003,-0.0517 0.18616,-0.10765 0.25839,-0.16799 0.0307,-0.0255 0.0599,-0.0534 0.0878,-0.0837 0.0279,-0.0303 0.051,-0.0618 0.0694,-0.0947 0.0184,-0.0329 0.0307,-0.0671 0.0367,-0.1027 0.006,-0.0356 0.003,-0.0724 -0.009,-0.11043 -0.0195,-0.0573 -0.0505,-0.0964 -0.0933,-0.11723 -0.0429,-0.0208 -0.0941,-0.0281 -0.15355,-0.0221 -0.0595,0.006 -0.12532,0.0224 -0.19747,0.049 -0.0721,0.0266 -0.14698,0.0581 -0.22451,0.0946 -0.0776,0.0362 -0.1558,0.0746 -0.23466,0.11486 -0.0789,0.0401 -0.15536,0.0765 -0.22933,0.10912 l -0.71893,-1.62848 1.87105,-0.82602 0.32958,0.74654 -1.2787,0.56452 0.17682,0.40054 c 0.19181,-0.0847 0.35571,-0.14095 0.49173,-0.16877 0.13601,-0.0278 0.2521,-0.0338 0.34828,-0.0178 0.0962,0.0159 0.17595,0.0508 0.23934,0.10443 0.0634,0.0536 0.11863,0.12027 0.16574,0.19983 0.0312,0.0536 0.0561,0.1138 0.074,0.18081 0.0183,0.0668 0.0262,0.13824 0.0238,0.21419 -0.002,0.076 -0.0174,0.15486 -0.0449,0.23668 -0.0276,0.0818 -0.0709,0.16425 -0.13012,0.24731 -0.0592,0.0831 -0.13722,0.16506 -0.23405,0.24601 -0.0968,0.081 -0.21512,0.15827 -0.35486,0.23194 z" />
    <rect
       style="fill:#5a5a5a;fill-opacity:1;stroke:#f4722b;stroke-width:1.42840564000000000;stroke-miterlimit:4;stroke-opacity:1;stroke-dasharray:none"
       id="rect43187-2"
       width="24.104345"
       height="24.104345"
       x="605.24847"
       y="466.05576"
       rx="2.6782603"
       ry="2.6782603"
       transform="matrix(0.97326587,0.22968141,-0.22968141,0.97326587,0,0)" />
    <path
       d="m 490.69059,602.67499 c 0.58507,0.13809 1.12652,0.34095 1.62436,0.60858 0.49782,0.26766 0.94311,0.58383 1.33589,0.9485 0.39275,0.3647 0.73125,0.77324 1.01549,1.22564 0.28422,0.45241 0.50457,0.9294 0.66104,1.43097 0.15645,0.50159 0.24563,1.02413 0.26755,1.56762 0.0219,0.5435 -0.0318,1.089 -0.16095,1.6365 -0.12795,0.54213 -0.32226,1.04735 -0.58293,1.51566 -0.26069,0.46831 -0.5725,0.88913 -0.93542,1.26247 -0.36295,0.37335 -0.77172,0.69479 -1.22631,0.96434 -0.45462,0.26954 -0.93847,0.47694 -1.45156,0.62218 -0.51311,0.14524 -1.05183,0.22494 -1.61615,0.2391 -0.56434,0.0141 -1.13905,-0.0478 -1.72411,-0.18588 -0.55288,-0.13047 -1.06915,-0.32598 -1.54882,-0.5865 -0.47968,-0.26053 -0.91117,-0.56919 -1.29446,-0.92597 -0.38329,-0.35679 -0.71398,-0.7564 -0.99206,-1.19886 -0.27808,-0.44245 -0.49465,-0.91146 -0.64968,-1.40705 -0.15505,-0.49558 -0.24479,-1.00975 -0.26923,-1.54251 -0.0244,-0.53276 0.028,-1.07289 0.15715,-1.62039 0.12921,-0.5475 0.3251,-1.05942 0.58768,-1.53579 0.26258,-0.47635 0.57463,-0.90421 0.93615,-1.28356 0.36151,-0.37933 0.7665,-0.70875 1.21496,-0.98826 0.44844,-0.27949 0.92449,-0.49581 1.42812,-0.64896 0.50363,-0.15313 1.02854,-0.24034 1.57472,-0.26162 0.54617,-0.0213 1.0957,0.0333 1.64857,0.16379 z m -2.24968,9.53295 c 0.49918,0.11781 0.9817,0.13818 1.44755,0.0611 0.46584,-0.0771 0.88824,-0.22813 1.26719,-0.45319 0.37893,-0.22507 0.70154,-0.5116 0.96784,-0.85959 0.26628,-0.34798 0.45008,-0.73668 0.55144,-1.1661 0.11145,-0.47235 0.12652,-0.92637 0.0452,-1.36206 -0.0813,-0.43569 -0.24309,-0.83085 -0.48522,-1.18549 -0.24215,-0.35464 -0.55656,-0.66116 -0.94322,-0.91959 -0.38669,-0.25841 -0.82962,-0.44652 -1.3288,-0.56433 -0.45626,-0.10766 -0.90302,-0.12951 -1.34027,-0.0655 -0.43726,0.064 -0.83809,0.20172 -1.2025,0.41321 -0.36441,0.21151 -0.67904,0.49425 -0.94391,0.84823 -0.26487,0.35399 -0.45304,0.76716 -0.56451,1.23951 -0.10134,0.42942 -0.11205,0.85897 -0.0321,1.28866 0.0799,0.42969 0.23369,0.82864 0.46129,1.19684 0.2276,0.36821 0.52045,0.68806 0.87854,0.95956 0.35808,0.27151 0.76525,0.4611 1.22151,0.56876 z"
       style="font-size:40px;font-style:normal;font-weight:normal;line-height:125%;letter-spacing:0;word-spacing:0;fill:#f6e7c1;fill-opacity:1;stroke:none;font-family:TF2 Build;-inkscape-font-specification:TF2 Build"
       id="path43463" />
    <path
       d="m 501.77092,602.05318 -0.12865,0.54516 -0.5034,-0.11879 -0.21625,0.91633 -0.66811,-0.15767 0.21296,-0.90241 -1.53572,-0.36242 0.10862,-0.48131 1.94295,-1.45661 0.69363,0.16369 -0.39558,1.7385 z m -1.7474,-0.36829 0.61132,0.14923 0.21945,-0.80537 z"
       style="font-size:7.06733513px;font-style:normal;font-weight:normal;line-height:125%;letter-spacing:0;word-spacing:0;fill:#f6e7c1;fill-opacity:1;stroke:none;font-family:TF2 Build;-inkscape-font-specification:TF2 Build"
       id="path43460" />
    <rect
       style="fill:#5a5a5a;fill-opacity:1;stroke:#f4722b;stroke-width:1.54174399000000010;stroke-miterlimit:4;stroke-opacity:1;stroke-dasharray:none"
       id="rect43187-7"
       width="26.016932"
       height="26.016932"
       x="298.38409"
       y="703.14868"
       rx="2.89077"
       ry="2.89077"
       transform="matrix(0.97006201,-0.24285737,0.24285737,0.97006201,0,0)" />
    <path
       id="path43454"
       style="font-size:40px;font-style:normal;font-weight:normal;line-height:125%;letter-spacing:0;word-spacing:0;fill:#f6e7c1;fill-opacity:1;stroke:none;font-family:TF2 Build;-inkscape-font-specification:TF2 Build"
       d="m 478.61838,622.72125 0.0101,-8.67327 3.05994,-0.20458 -0.21243,12.46099 -2.83032,0.38642 -3.53858,-6.45018 -0.75099,7.99352 -3.04892,0.7633 -5.94403,-11.31551 3.33679,-1.26799 3.54312,7.05655 0.43261,-8.05188 1.86449,-0.3103 z" />
    <path
       id="path43451"
       style="font-size:7.06733513px;font-style:normal;font-weight:normal;line-height:125%;letter-spacing:0;word-spacing:0;fill:#f6e7c1;fill-opacity:1;stroke:none;font-family:TF2 Build;-inkscape-font-specification:TF2 Build"
       d="m 482.01411,611.0309 -0.24665,-0.55088 c 0.13434,-0.0425 0.25246,-0.0933 0.35436,-0.15235 0.0433,-0.025 0.0853,-0.0532 0.12602,-0.0846 0.0408,-0.0314 0.076,-0.0654 0.10574,-0.10202 0.0297,-0.0366 0.0521,-0.0762 0.067,-0.11888 0.015,-0.0426 0.0189,-0.0887 0.0118,-0.13822 -0.0118,-0.0748 -0.0418,-0.12966 -0.0902,-0.16439 -0.0485,-0.0347 -0.11004,-0.0547 -0.18471,-0.0598 -0.0747,-0.005 -0.15932,10e-4 -0.25396,0.0185 -0.0946,0.0175 -0.19363,0.0405 -0.297,0.069 -0.10344,0.0282 -0.20801,0.059 -0.31381,0.0919 -0.10587,0.0326 -0.20786,0.0613 -0.30602,0.0859 l -0.54107,-2.16123 2.48317,-0.62167 0.24804,0.99077 -1.69704,0.42486 0.13308,0.53157 c 0.25455,-0.0637 0.46866,-0.0983 0.64234,-0.10378 0.17367,-0.005 0.31812,0.0119 0.43336,0.052 0.11523,0.0401 0.20625,0.1 0.27304,0.17961 0.0668,0.0796 0.12079,0.17352 0.16202,0.28166 0.0271,0.0728 0.045,0.15227 0.0528,0.23872 0.008,0.0863 0.003,0.17606 -0.0161,0.26924 -0.0191,0.0932 -0.0543,0.18731 -0.10567,0.28238 -0.0514,0.0951 -0.12234,0.18755 -0.21299,0.27743 -0.0907,0.0899 -0.2043,0.17446 -0.34091,0.25375 -0.13662,0.0793 -0.29894,0.14954 -0.48694,0.21075 z" />
  </g>
</svg>
